<svg id="arboles" xmlns="http://www.w3.org/2000/svg" viewBox="0 0 210 210"><defs><style>.cls-1{fill:#f0f;}</style></defs><circle class="cls-1" cx="95.74" cy="105.44" r="0.1"/><circle class="cls-1" cx="99.95" cy="105.71" r="0.1"/><circle class="cls-1" cx="102.47" cy="105.99" r="0.1"/><circle class="cls-1" cx="109.4" cy="110.43" r="0.1"/><circle class="cls-1" cx="109.84" cy="110.2" r="0.1"/><circle class="cls-1" cx="109.81" cy="110.54" r="0.1"/><circle class="cls-1" cx="111.98" cy="108.4" r="0.1"/><circle class="cls-1" cx="111.26" cy="105.47" r="0.1"/><circle class="cls-1" cx="112.17" cy="107.15" r="0.1"/><circle class="cls-1" cx="112.74" cy="105.68" r="0.1"/><circle class="cls-1" cx="112.28" cy="104.62" r="0.1"/><circle class="cls-1" cx="111.6" cy="103.53" r="0.1"/><circle class="cls-1" cx="99.88" cy="111.44" r="0.1"/><circle class="cls-1" cx="101.91" cy="111.54" r="0.1"/><circle class="cls-1" cx="111.96" cy="109.64" r="0.1"/><circle class="cls-1" cx="98.24" cy="111.17" r="0.1"/><circle class="cls-1" cx="110.98" cy="113.25" r="0.1"/><circle class="cls-1" cx="109.57" cy="112.82" r="0.1"/><circle class="cls-1" cx="111.51" cy="111.81" r="0.1"/><circle class="cls-1" cx="108.23" cy="112.48" r="0.1"/><circle class="cls-1" cx="106.07" cy="111.97" r="0.1"/><circle class="cls-1" cx="104.13" cy="111.74" r="0.1"/><circle class="cls-1" cx="102.98" cy="111.85" r="0.1"/><circle class="cls-1" cx="110.06" cy="115.49" r="0.1"/><circle class="cls-1" cx="108.66" cy="116.44" r="0.1"/><circle class="cls-1" cx="106.9" cy="116.43" r="0.1"/><circle class="cls-1" cx="104.73" cy="118.31" r="0.1"/><circle class="cls-1" cx="103.84" cy="119.73" r="0.1"/><circle class="cls-1" cx="104.48" cy="122.06" r="0.1"/><circle class="cls-1" cx="105.63" cy="125.26" r="0.1"/><circle class="cls-1" cx="105.56" cy="127.26" r="0.1"/><circle class="cls-1" cx="110.38" cy="117.83" r="0.1"/><circle class="cls-1" cx="110.22" cy="119.77" r="0.1"/><circle class="cls-1" cx="109.87" cy="122.18" r="0.1"/><circle class="cls-1" cx="109.62" cy="125.17" r="0.1"/><circle class="cls-1" cx="95.64" cy="110.85" r="0.1"/><circle class="cls-1" cx="93.98" cy="110.62" r="0.1"/><circle class="cls-1" cx="91.07" cy="110.05" r="0.1"/><circle class="cls-1" cx="88.87" cy="109.63" r="0.1"/><circle class="cls-1" cx="87.63" cy="106.1" r="0.1"/><circle class="cls-1" cx="88.23" cy="103.38" r="0.1"/><circle class="cls-1" cx="79.33" cy="98.77" r="0.1"/><circle class="cls-1" cx="92.35" cy="114.57" r="0.1"/><circle class="cls-1" cx="96.09" cy="116.09" r="0.1"/><circle class="cls-1" cx="98.19" cy="114.29" r="0.1"/><circle class="cls-1" cx="91.9" cy="120.37" r="0.1"/><circle class="cls-1" cx="94.17" cy="106.56" r="0.1"/></svg>