<svg id="personas" xmlns="http://www.w3.org/2000/svg" viewBox="0 0 210 210"><defs><style>.cls-1{fill:#1ce554;}</style></defs><circle class="cls-1" cx="101.45" cy="110.87" r="0.1"/><circle class="cls-1" cx="103.4" cy="111.13" r="0.1"/><circle class="cls-1" cx="101.45" cy="105.85" r="0.1"/><circle class="cls-1" cx="102.31" cy="106.33" r="0.1"/><circle class="cls-1" cx="101.6" cy="106.5" r="0.1"/><circle class="cls-1" cx="97.87" cy="105.57" r="0.1"/><circle class="cls-1" cx="96.02" cy="105.61" r="0.1"/><circle class="cls-1" cx="96.37" cy="105.73" r="0.1"/><circle class="cls-1" cx="99.24" cy="105.71" r="0.1"/><circle class="cls-1" cx="94.96" cy="109.96" r="0.1"/><circle class="cls-1" cx="99.14" cy="108.87" r="0.1"/><circle class="cls-1" cx="100.2" cy="109.03" r="0.1"/><circle class="cls-1" cx="100.02" cy="105.98" r="0.1"/><circle class="cls-1" cx="103.27" cy="109.5" r="0.1"/><circle class="cls-1" cx="103.96" cy="109.59" r="0.1"/><circle class="cls-1" cx="106.84" cy="111.64" r="0.1"/><circle class="cls-1" cx="110.67" cy="109.02" r="0.1"/><circle class="cls-1" cx="88.31" cy="107.69" r="0.1"/><circle class="cls-1" cx="91.47" cy="107.9" r="0.1"/><circle class="cls-1" cx="92.99" cy="108.07" r="0.1"/><circle class="cls-1" cx="95.99" cy="108.5" r="0.1"/><circle class="cls-1" cx="94.95" cy="105.46" r="0.1"/><circle class="cls-1" cx="104.02" cy="106.65" r="0.1"/><circle class="cls-1" cx="109.97" cy="108.74" r="0.1"/></svg>