<?xml version="1.0" encoding="utf-8"?>
<!-- Generator: Adobe Illustrator 26.0.1, SVG Export Plug-In . SVG Version: 6.00 Build 0)  -->
<svg version="1.1" id="Capa_1" xmlns="http://www.w3.org/2000/svg" xmlns:xlink="http://www.w3.org/1999/xlink" x="0px" y="0px"
	 viewBox="0 0 24 24" style="enable-background:new 0 0 24 24;" xml:space="preserve">
<style type="text/css">
	.st0{fill:none;}
	.st1{fill:#C1403A;}
</style>
<g id="a">
</g>
<g id="b">
	<g id="c">
		<g>
			<rect class="st0" width="24" height="24"/>
			<path id="d" class="st1" d="M6.7,17.6c-1,0-1.9-0.4-2.6-1.1C3.4,15.8,3,14.9,3,13.9c0-2,1.7-3.7,3.7-3.7c0.4,0,0.9,0.1,1.3,0.3
				l0.1,0l0.6-1.3V8.3H8.1C8,8.3,7.9,8.2,7.9,8.1C7.9,8,8,8,8.1,7.9h1.7C9.9,7.9,10,8,10,8.1c0,0.1-0.1,0.2-0.2,0.2H9v0.7h5.7V7.3
				l-1.4-0.5c-0.1,0-0.1-0.1-0.1-0.2l0,0c0-0.1,0.1-0.1,0.2-0.1c0,0,0.1,0,0.1,0L14.9,7c0.1,0,0.1,0.1,0.1,0.2v2l0.7,1.3l0.1,0
				c0.5-0.2,1-0.3,1.5-0.3c1,0,1.9,0.4,2.6,1.1c0.7,0.7,1.1,1.6,1.1,2.6s-0.4,1.9-1.1,2.6c-0.7,0.7-1.6,1.1-2.6,1.1
				c-2,0-3.7-1.6-3.7-3.7c0-1.3,0.6-2.4,1.7-3.1l0.1-0.1l-0.6-1.1l-3,4.4c0,0-0.1,0.1-0.1,0.1h-1.3v0.1C10.2,16.1,8.6,17.6,6.7,17.6
				L6.7,17.6z M15.5,11.1c-1,0.6-1.5,1.7-1.5,2.8c0,1.8,1.5,3.3,3.3,3.3c1.8,0,3.3-1.5,3.3-3.3c0-1.8-1.5-3.3-3.3-3.3
				c-0.4,0-0.9,0.1-1.3,0.2l-0.1,0l1.5,2.9c0,0.1,0,0.2-0.1,0.2c0,0-0.1,0-0.1,0c-0.1,0-0.1,0-0.2-0.1L15.5,11.1L15.5,11.1
				L15.5,11.1z M6.7,10.5c-1.8,0-3.3,1.5-3.3,3.3c0,1.8,1.5,3.3,3.3,3.3c1.7,0,3.1-1.3,3.3-3v-0.1H6.7c0,0,0,0-0.1,0h0v0h0l0,0l0,0
				l0,0v0c0,0,0,0,0-0.1v0c0,0,0,0,0-0.1v0l1.4-3l-0.1,0C7.5,10.6,7.1,10.6,6.7,10.5L6.7,10.5z M8.4,10.6L8.4,10.6
				c1.1,0.6,1.8,1.8,1.9,3v0.1h1.2l2.9-4.3H9L8.4,10.6L8.4,10.6z M7,13.7h3v-0.1c-0.1-1.1-0.7-2-1.6-2.6L8.3,11L7,13.7L7,13.7z"/>
		</g>
	</g>
</g>
</svg>
