<?xml version="1.0" encoding="utf-8"?>
<!-- Generator: Adobe Illustrator 26.0.1, SVG Export Plug-In . SVG Version: 6.00 Build 0)  -->
<svg version="1.1" id="Capa_1" xmlns="http://www.w3.org/2000/svg" xmlns:xlink="http://www.w3.org/1999/xlink" x="0px" y="0px"
	 viewBox="0 0 24 24" style="enable-background:new 0 0 24 24;" xml:space="preserve">
<style type="text/css">
	.st0{fill:none;}
	.st1{fill:#C1403A;}
</style>
<g id="a">
</g>
<g id="b">
	<g id="c">
		<g>
			<rect class="st0" width="24" height="24"/>
			<path class="st1" d="M20.5,11.3l-0.2-0.1c-0.9-0.3-1.9-0.4-2.9-0.5h0c-0.7-0.2-1.3-0.6-1.9-1.2c-1.4-1.4-3.4-2.2-5.5-2
				C8,7.5,6,8.2,4.4,9.6c-0.5,0.5-1.2,0.9-2,1H1.7c-0.1,0-0.1,0-0.2,0.1c-0.6,1.2-0.6,2.6,0,3.9c0,0.1,0.1,0.1,0.2,0.1h1.3v0.1
				c0.2,1,1,1.7,2.1,1.7c0.8,0,1.6-0.5,1.9-1.3c0.1-0.2,0.1-0.3,0.1-0.5v-0.1h10.1v0.1c0.2,1,1.1,1.7,2.1,1.7c0.9,0,1.6-0.5,1.9-1.3
				c0.1-0.2,0.1-0.3,0.1-0.5v-0.1h0.8c0.5,0,0.8-0.4,0.8-0.8v-0.9C23,12.3,21.9,11.8,20.5,11.3L20.5,11.3z M10.6,7.9h0.1
				c1.7,0,3.4,0.7,4.6,1.9c0.2,0.2,0.4,0.4,0.7,0.6l0.3,0.2l-0.4,0c-0.3,0-0.6,0-0.7,0h-4.6L10.6,7.9L10.6,7.9z M4,10.4
				c0.2-0.1,0.4-0.3,0.6-0.5c1.5-1.3,3.4-2,5.4-2h0.1v2.7H3.7L4,10.4L4,10.4z M6.2,15.6c-0.3,0.3-0.8,0.5-1.2,0.5
				c-0.2,0-0.4,0-0.7-0.1c-0.6-0.3-1.1-0.9-1.1-1.5c0-0.9,0.8-1.6,1.7-1.7l0,0c0.7,0,1.3,0.4,1.6,1C6.9,14.4,6.7,15.2,6.2,15.6
				L6.2,15.6z M20.5,15.6c-0.3,0.3-0.8,0.5-1.2,0.5c-0.2,0-0.5,0-0.6-0.1c-0.6-0.3-1.1-0.9-1.1-1.5c0-0.9,0.8-1.6,1.7-1.7l0,0
				c0.7,0,1.3,0.4,1.6,1C21.2,14.4,21,15.2,20.5,15.6L20.5,15.6z M22.6,13.8c0,0.2-0.2,0.4-0.4,0.4h-0.8v-0.1
				c-0.1-0.4-0.3-0.8-0.6-1.1c-0.4-0.4-0.9-0.6-1.5-0.6c-0.3,0-0.5,0.1-0.8,0.1c-0.7,0.3-1.2,0.9-1.3,1.6v0.1H7.1l0-0.1
				C7,13.7,6.8,13.3,6.5,13c-0.4-0.4-0.9-0.6-1.5-0.6c-0.3,0-0.6,0.1-0.8,0.1c-0.7,0.3-1.2,0.9-1.3,1.6v0.1H1.8l0-0.1
				c-0.5-1-0.5-2.2,0-3.2l0-0.1h13.4c1.7,0,3.4,0.2,5,0.6l0.2,0.1c1.6,0.6,2.3,1,2.3,1.3L22.6,13.8L22.6,13.8z"/>
		</g>
	</g>
</g>
</svg>
