<?xml version="1.0" encoding="utf-8"?>
<!-- Generator: Adobe Illustrator 26.0.1, SVG Export Plug-In . SVG Version: 6.00 Build 0)  -->
<svg version="1.1" id="Capa_1" xmlns="http://www.w3.org/2000/svg" xmlns:xlink="http://www.w3.org/1999/xlink" x="0px" y="0px"
	 viewBox="0 0 24 24" style="enable-background:new 0 0 24 24;" xml:space="preserve">
<style type="text/css">
	.st0{fill:none;}
	.st1{fill:#C1403A;}
</style>
<g id="a">
</g>
<g id="b">
	<g id="c">
		<g>
			<rect class="st0" width="24" height="24"/>
			<path id="d" class="st1" d="M9.8,21C9.8,21,9.7,21,9.8,21l-1.6-1.2c-0.1,0-0.1-0.1,0-0.2l1.8-2.7l0.7-3.1l0-0.1
				c-0.2-0.4-0.4-0.7-0.6-1.2L10,12.3l-1,1.1c0,0-0.1,0.1-0.1,0.1l0,0c0,0-0.1,0-0.1,0l-1.2-1.2c-0.1-0.1-0.1-0.1,0-0.2l2.4-2.9V8
				c0-0.6,0.4-1.1,0.9-1.3l0.2-0.1l-0.2-0.2c-0.4-0.4-0.7-0.9-0.7-1.5c0-1.1,0.9-2,1.9-2s1.9,0.9,1.9,2c0,0.6-0.2,1.1-0.7,1.5
				l-0.2,0.2l0.2,0.1c0.6,0.2,0.9,0.7,0.9,1.3v2.6l2,1.2c0,0,0.1,0.1,0.1,0.1c0,0,0,0.1,0,0.1l-0.9,1.5c0,0-0.1,0.1-0.1,0.1
				c0,0-0.1,0-0.1,0l-1-0.6l1.2,2.8c0,0,0,0,0,0l0.9,4.8c0,0,0,0.1,0,0.1s-0.1,0-0.1,0h-1.8c-0.1,0-0.1,0-0.1-0.1l-0.9-3.9L12.8,16
				l-0.5,1.6c0,0,0,0,0,0l-2.4,3.3C9.9,20.9,9.8,21,9.8,21L9.8,21L9.8,21z M10.2,17C10.2,17,10.2,17,10.2,17l-1.7,2.6l1.3,1l2.3-3.1
				l0.5-1.7l-1.7-1.7L10.2,17L10.2,17z M11.2,6.9c-0.6,0-1.1,0.5-1.1,1.1v3.6c0,0.9,0.4,1.8,1,2.4l2.6,2.5c0,0,0,0,0,0.1l0.9,3.8
				h1.5l-0.9-4.6l-1.2-2.7c0,0,0,0,0-0.1v-0.3l-2-1.1c0,0-0.1,0-0.1-0.1L10.9,9l0.3-0.1l1.1,2.5l3.1,1.7l0.8-1.2l-2.9-1.7
				c0,0-0.1-0.1-0.1-0.1l-0.6-1.7l0.3-0.1l0.5,1.6l0.6,0.4V8c0-0.6-0.5-1.1-1.1-1.1L11.2,6.9L11.2,6.9z M7.8,12.1l1,1l1.1-1.2v-0.1
				c0-0.1,0-0.2,0-0.2V9.7L7.8,12.1L7.8,12.1z M12.1,3.3c-0.9,0-1.6,0.7-1.6,1.7c0,0.9,0.7,1.6,1.6,1.7c0.2,0,0.4-0.1,0.6-0.2
				c0.1,0,0.1-0.1,0.1-0.1c0.5-0.3,0.9-0.8,0.9-1.4C13.8,4,13.1,3.3,12.1,3.3L12.1,3.3L12.1,3.3z"/>
		</g>
	</g>
</g>
</svg>
