<?xml version="1.0" encoding="UTF-8"?><svg xmlns="http://www.w3.org/2000/svg" viewBox="0 0 24 24"><defs><style>.e{fill:#eee1ce;}.f{fill:none;opacity:.29;}</style></defs><g id="a"/><g id="b"><g id="c"><g><rect class="f" width="24" height="24"/><path id="d" class="e" d="M9.75,21.01s-.07-.01-.09-.03l-1.5-1.2c-.06-.05-.08-.14-.03-.2l1.79-2.68,.72-3.11-.04-.06c-.25-.35-.44-.74-.55-1.16l-.07-.27-1,1.15s-.07,.05-.11,.05h0s-.07-.02-.1-.04l-1.2-1.2c-.05-.05-.06-.14,0-.2l2.37-2.87v-1.23c0-.58,.37-1.09,.92-1.27l.25-.08-.2-.17c-.43-.37-.67-.91-.67-1.47,0-1.08,.87-1.95,1.95-1.95,1.08,0,1.95,.87,1.95,1.95,0,.56-.25,1.1-.67,1.47l-.2,.17,.25,.08c.55,.18,.92,.69,.92,1.27v2.56l2.03,1.22s.06,.05,.07,.09c0,.04,0,.08-.02,.11l-.9,1.5s-.08,.07-.13,.07c-.02,0-.05,0-.07-.02l-1.02-.56,1.23,2.76s0,.02,.01,.03l.9,4.8s0,.09-.03,.12c-.03,.03-.07,.05-.12,.05h-1.8c-.07,0-.13-.05-.15-.12l-.89-3.86-.74-.74-.48,1.61s-.01,.03-.02,.05l-2.4,3.3s-.06,.05-.1,.06h-.02Zm.45-4.02s-.01,.03-.02,.05l-1.72,2.59,1.27,1.02,2.29-3.15,.52-1.74-1.67-1.67-.67,2.91Zm1.05-10.09c-.58,0-1.05,.47-1.05,1.05v3.61c0,.92,.36,1.79,1.01,2.44l2.55,2.55s.03,.04,.04,.07l.87,3.79h1.5l-.86-4.61-1.19-2.69s-.01-.04-.01-.06v-.27l-2.02-1.1s-.05-.04-.06-.07l-1.14-2.56,.27-.12,1.12,2.52,3.13,1.71,.75-1.25-2.87-1.72s-.05-.05-.07-.08l-.55-1.66,.28-.09,.54,1.61,.63,.37v-2.38c0-.58-.47-1.05-1.05-1.05h-1.8Zm-3.4,5.24l.99,.99,1.08-1.23v-.08c-.01-.09-.02-.17-.02-.25v-1.9l-2.05,2.49ZM12.15,3.29c-.91,0-1.65,.74-1.65,1.65,.02,.9,.74,1.62,1.63,1.65,.23,0,.45-.05,.65-.15,.05-.02,.09-.05,.13-.07,.53-.28,.87-.83,.88-1.43,0-.91-.74-1.65-1.65-1.65h0Z"/></g></g></g></svg>