<?xml version="1.0" encoding="utf-8"?>
<!-- Generator: Adobe Illustrator 26.0.1, SVG Export Plug-In . SVG Version: 6.00 Build 0)  -->
<svg version="1.1" id="Capa_1" xmlns="http://www.w3.org/2000/svg" xmlns:xlink="http://www.w3.org/1999/xlink" x="0px" y="0px"
	 viewBox="0 0 196.9 176" style="enable-background:new 0 0 196.9 176;" xml:space="preserve">
<style type="text/css">
	.st0{fill:#872A2A;}
</style>
<g>
	<rect x="84.9" y="83.5" class="st0" width="1.6" height="2.7"/>
	<rect x="83" y="86.7" class="st0" width="1.6" height="2.7"/>
	<rect x="77.3" y="83.5" class="st0" width="1.6" height="2.7"/>
	<rect x="77.3" y="86.6" class="st0" width="1.6" height="2.7"/>
	<rect x="77.9" y="74.9" class="st0" width="1.6" height="2.7"/>
	<rect x="84.9" y="86.7" class="st0" width="1.6" height="2.7"/>
	<rect x="81.1" y="83.5" class="st0" width="1.6" height="2.7"/>
	<rect x="78.8" y="70.6" class="st0" width="1.6" height="2.7"/>
	<rect x="80.8" y="70.7" class="st0" width="1.6" height="2.7"/>
	<path class="st0" d="M78.2,51.8l1.6-11.2L72,39.9c-0.3,2.4-1.1,7.6-1.5,10.4c0.7,0.3,1.4,0.6,2.1,0.8L78.2,51.8z"/>
	<rect x="83" y="83.5" class="st0" width="1.6" height="2.7"/>
	<rect x="79.2" y="86.7" class="st0" width="1.6" height="2.7"/>
	<rect x="81.1" y="86.7" class="st0" width="1.6" height="2.7"/>
	<path class="st0" d="M126.6,66.8l-8.8-1.6c-0.6,4.7-1.1,7.9-1.2,9.1l0,0.1l8.7,1.4L126.6,66.8z"/>
	<rect x="71.3" y="73.7" transform="matrix(0.125 -0.9922 0.9922 0.125 -10.2942 137.2969)" class="st0" width="2.7" height="1.6"/>
	<polygon class="st0" points="113.4,93.9 122.3,95.3 123.4,87.7 114.6,86.2 	"/>
	<path class="st0" d="M92.7,16.2c0.3,0,0.6,0,1.1,0c0.1,0,0.4,0.1,1.1,0.2c1.4,0.3,3.8,0.7,4.3,0.7c0.8,0.1,14.9,1.7,15.8,1.8
		c0,0,0.1,0,0.1,0c0.6,0,0.9-0.2,0.9-0.2c0.1-0.2,0.2-0.4,0.3-0.6c0.2-0.3,0.4-0.7,0.4-1c0.1-0.7,0.6-4.4,0.6-4.4l0-0.1l1.2,0.2
		l0,0.1c0,0-0.5,3.7-0.6,4.4c-0.1,0.5-0.3,1-0.5,1.4c-0.1,0.1-0.2,0.3-0.2,0.4c-0.1,0.4-0.5,0.8-1.1,1l1.6,0.2
		c0.3-1.9,1.8-10.1,3.1-17.1L98.6,0l-7,1.9l-1.8,7l1,5.3L92.7,16.2z"/>
	<path class="st0" d="M117.9,64l8.9,1.6l0.3-2l1.1,0.2c-0.3-0.9-1-1.5-2-1.6l-7.8-1.3C118.2,61.9,118,62.9,117.9,64z"/>
	<polygon class="st0" points="125,77.1 116.3,75.6 116.1,77 116.1,76.9 114.8,85 123.6,86.4 	"/>
	<rect x="79.8" y="74.9" class="st0" width="1.6" height="2.7"/>
	<path class="st0" d="M78.1,107.1l13.9,3.3c0.7,0.2,1.5-0.3,1.6-1l1.7-7.8l-16.2-4.8l-2.1,8.6C76.9,106.1,77.4,106.9,78.1,107.1z"/>
	<rect x="75.3" y="70.6" class="st0" width="1.6" height="2.7"/>
	<rect x="79.2" y="83.5" class="st0" width="1.6" height="2.7"/>
	<rect x="75.5" y="75.7" class="st0" width="1.6" height="2.7"/>
	<path class="st0" d="M105.1,84.7l-13-1.1v2.9l0.6,0.6l-4.4,1.7l3.8,10.6l2.1,0.6l-1-2.1l4.7-2.2L96.4,92l8.5-4.4
		C104.9,87.6,105,84.8,105.1,84.7z"/>
	<polygon class="st0" points="105.2,149.7 120.6,152.6 122.4,145.8 116.4,146.3 113.6,145.8 106.7,142.3 	"/>
	<polygon class="st0" points="76,132.2 64,128.4 62.8,132.5 65.8,133.3 65.1,136.1 61.8,135.1 60.6,139.1 73.4,143 	"/>
	<polygon class="st0" points="88.9,134.6 78.9,131.9 77.3,138.2 96.8,143.6 97.6,138.3 88.6,135.7 	"/>
	<polygon class="st0" points="105,152.6 103.3,161.4 117.5,163.4 119.8,155.2 	"/>
	<polygon class="st0" points="101.8,172.6 116.7,164.3 103.3,162.8 	"/>
	<path class="st0" d="M68.3,115.6l-2.6,7.8c-0.2,0.7,0.1,1.4,0.8,1.6L98,136.7l2.1-12.4L69.6,115C69.1,114.8,68.5,115.1,68.3,115.6z
		"/>
	<polygon class="st0" points="81.7,152.8 78.5,152.4 81,142.2 76.4,140.7 72.1,157.1 85.9,159.1 87.2,149.9 90,150.4 88.6,159.8 
		93.8,160.5 96.1,146.1 83.8,143 	"/>
	<polygon class="st0" points="77.9,174.3 90.4,176 92.9,163.4 80.3,161.4 	"/>
	<path class="st0" d="M194.7,110.4v-3.7l-12.8-4.2l-1.8,5.9l-6.9-2.1l0.9-2.7c0.2-0.5-0.2-1-0.7-1c-1.9,0-5.6,0.1-6.8,0
		c-1.6-0.1-4.1-0.7-4.1-0.7l-0.8,3.9l0.9,9.1l4.7,0.2l0.1,0l12.6,0.5v0l0.3,0l14.6,4.4l2.1-8.9L194.7,110.4z"/>
	<polygon class="st0" points="119.2,166.6 125.1,168.4 132.1,145.6 125.6,145.9 	"/>
	<polygon class="st0" points="70.8,159.6 63.3,169.4 63.3,172.3 77.1,174.5 79.6,161 	"/>
	<polygon class="st0" points="168.5,122.5 172.2,122.5 172.2,121.4 178.7,121.4 178.7,116.6 168.5,116.2 	"/>
	<polygon class="st0" points="181.8,142.1 194.7,139.5 194.7,122.2 181.1,118 	"/>
	<path class="st0" d="M164.1,85.7l19.3,1.9l0.6-8.4l-18.6-2.4l0.5-3.6l-8.1-0.7L156,87.6c2.3,0.5,4.9,1.1,7.5,1.7L164.1,85.7z"/>
	<path class="st0" d="M128.2,64.1l-1.8,11.9l5,0.8l0.3,1.3l-0.2,0l-5.3-0.8l-1.4,9.3l9,1.5l-0.2,1.2l-9-1.5l-1.1,7.6l13.9,2l0.6,1.4
		l-0.2,0l-24.5-3.7l-2.7,16.8c2.4,0.3,18.2,2.1,19,2.3c0.6,0.1,6.6-0.1,11.4-0.4l0.7-3c0.3-1,0.2-2.1-0.1-3.2L128.2,64.1z"/>
	<polygon class="st0" points="36.2,77.7 26.9,75.1 25.7,79.6 34.9,82.3 	"/>
	<polygon class="st0" points="43.1,126 44.2,121.9 35.3,119.2 31.9,129.4 40.9,132.4 42.3,128.7 38.5,127.6 39.3,124.9 	"/>
	<polygon class="st0" points="61.6,91.6 61.5,91.5 57.8,101.3 57.7,101.3 48.5,98.3 45.7,106.8 55.8,109.8 	"/>
	<polygon class="st0" points="58.2,138 59.5,134.4 56.6,133.5 57.5,130.6 60.7,131.5 61.7,127.5 46.1,123.3 43.1,133.3 47,134.6 
		49.1,127.9 51,128.5 49.1,135.1 	"/>
	
		<rect x="71.8" y="70.7" transform="matrix(0.1249 -0.9922 0.9922 0.1249 -6.9795 135.1111)" class="st0" width="2.7" height="1.6"/>
	<polygon class="st0" points="70,156.5 72.7,144.9 60.3,140.9 57.3,150.6 	"/>
	<polygon class="st0" points="52.4,151.6 47.4,158.3 51.8,162 55.1,158.9 59.2,162 56.5,165.2 59.7,167.7 66.9,159.2 	"/>
	<path class="st0" d="M59.3,80.6v4.1l1.3,0.4l0.2-6l1.2,0l0,0.1l-0.2,6.2l3.8,1.1l3.5-7.3c0.3-0.6,0-1.4-0.6-1.6l-4.9-2.1l0.7-1.6
		c0.3-0.7-0.1-1.5-0.8-1.7l-8.8-2.7c-0.5-0.2-1,0.3-1,0.8l0.8,9.2L59.3,80.6z"/>
	<polygon class="st0" points="57.7,140 42.7,135.1 40.3,142.7 55,149.3 	"/>
	<polygon class="st0" points="35.6,136.3 34.4,136 35.2,132.9 30.8,131.5 29.4,137.4 37.7,141.4 39.8,134.2 36.5,133.2 	"/>
	<polygon class="st0" points="10.6,76.4 11,75.2 11.1,75.2 14.7,76.3 16.5,71.6 10.3,70.3 8.1,75.1 2.7,73.8 0.1,82.9 15.8,87.4 
		14.5,90.8 5.2,88.2 2.6,95.2 10.3,97.4 10.5,96.5 10.6,96.6 24.7,100.7 31,82.4 	"/>
	<path class="st0" d="M40.8,97.4l6,2.1l0.9-2.8l0.1,0l1.9,0.6l2.4-8.6l-9.9-3l-2.6,9.4C39.4,96.1,39.9,97.1,40.8,97.4z"/>
	<rect x="70.9" y="76.6" transform="matrix(0.125 -0.9922 0.9922 0.125 -13.5833 139.5119)" class="st0" width="2.7" height="1.6"/>
</g>
<path class="st0" d="M112.7,54.5l-1-0.8L90,52.4c-0.4,0-0.7,0.3-0.7,0.6l-2.6,14.9c0,0.2,0,0.5,0.2,0.7c0.2,0.2,0.4,0.3,0.6,0.3
	l20,1.5c0.8,0.1,1.5,0.5,1.9,1.2l0.2,0.4c1.5-8.5,2.3-13.1,2.3-13.4C112,58.3,112.2,57,112.7,54.5z M109.5,71.4
	c-0.4-0.7-1.2-1.2-2-1.2l-20-1.5c-0.2,0-0.4-0.1-0.5-0.3s-0.2-0.3-0.1-0.5l2.6-14.9c0-0.3,0.3-0.5,0.5-0.5l21.6,1.3l0.9,0.7
	c-0.5,2.4-0.7,3.7-0.8,3.9C111.7,58.8,111.3,61.2,109.5,71.4z"/>
<path class="st0" d="M105.1,81c0,0,0.1,0,0.1,0c0.4,0,0.6-0.4,0.6-0.6c0-0.2-0.2-0.6-0.6-0.6c-0.2,0-0.3,0.1-0.5,0.2
	c-0.5,0.4-0.9,0.6-1.3,0.8C104,80.9,104.8,81,105.1,81z M104.8,80.1c0.1-0.1,0.3-0.2,0.4-0.2c0.2,0,0.4,0.3,0.4,0.4
	c0,0.1-0.1,0.4-0.4,0.4c0,0,0,0-0.1,0c-0.2,0-0.6-0.1-1.1-0.1C104.3,80.5,104.5,80.4,104.8,80.1z"/>
<path class="st0" d="M88.8,50.5c0.6,0,1.2-0.5,1.2-1.2s-0.5-1.2-1.2-1.2s-1.2,0.5-1.2,1.2S88.2,50.5,88.8,50.5z M88.8,48.4
	c0.5,0,1,0.4,1,1c0,0.5-0.4,1-1,1c-0.5,0-1-0.4-1-1C87.8,48.8,88.3,48.4,88.8,48.4z"/>
<path class="st0" d="M107.4,71.8c0,0-20.1-1.5-20.1-1.5c-0.6,0-1,0.4-1.1,0.9l-1,5.9c0,0.2,0,0.4,0.1,0.5c0.1,0.2,0.3,0.3,0.5,0.3
	l16.5,2.3c0.5-0.1,1.1-0.1,1.9-0.8c0.4-0.3,0.7-0.4,1.1-0.4c0.9,0,1.5,0.9,1.5,1.5c0,0.6-0.5,1.5-1.5,1.5c-0.1,0-0.2,0-0.2,0
	c-0.5-0.1-2-0.3-2.6-0.4l-0.2,0l-16.8-2.3c-0.5-0.1-1-0.4-1.3-0.8s-0.4-1-0.3-1.5l1.2-7c0-0.2,0-0.3-0.1-0.5
	c-0.1-0.1-0.3-0.2-0.4-0.2l-40.9-4.4l0.2-1.4c0,0,41.1,4.5,41.1,4.5c0.4,0,0.7-0.2,0.7-0.5l2.3-13.1c-1.2,0.3-3.4,0.8-5.8,0.8
	c-1.6,0-2.1,0.6-2.6,1.4c-0.5,0.7-1.2,1.5-2.6,1.5c-0.1,0-0.3,0-0.5,0c-2.2-0.2-5.1-0.7-6.4-0.9c-0.2,0.5-0.6,0.9-1.1,1.1
	c-0.2,0.1-0.3,0.1-0.5,0.1c-0.3,0-0.7-0.1-1-0.3c-1.8-1.2-3.5-1.9-4.9-2c0,0.1,0.1,0.1,0.1,0.2c1.4,0.1,2.9,0.8,4.7,2
	c0.4,0.2,0.8,0.4,1.1,0.4c0.2,0,0.4,0,0.5-0.1c0.5-0.2,0.9-0.5,1.2-1c1.4,0.2,4.2,0.6,6.2,0.8c0.2,0,0.3,0,0.5,0
	c1.5,0,2.2-0.9,2.8-1.6c0.6-0.7,1-1.3,2.5-1.3c2.2,0,4.2-0.4,5.5-0.7l-2.2,12.8c0,0.2-0.2,0.4-0.5,0.4c0,0,0,0-0.1,0l-40.9-4.4
	l-0.4,0l0,0.4l-0.1,1l0,0.4l0.4,0l40.7,4.4c0.1,0,0.2,0.1,0.3,0.2s0.1,0.2,0.1,0.3l-1.2,7c-0.1,0.6,0,1.2,0.4,1.7
	c0.4,0.5,0.9,0.8,1.5,0.9l16.8,2.3l0.4,0.1l0,0c0.7,0.1,2,0.3,2.4,0.3c0.1,0,0.2,0,0.3,0c1.1,0,1.7-1,1.7-1.7c0-0.7-0.7-1.7-1.7-1.7
	c-0.4,0-0.8,0.2-1.2,0.5c-0.7,0.6-1.2,0.7-1.8,0.8l-16.4-2.3c-0.1,0-0.2-0.1-0.3-0.2s-0.1-0.2-0.1-0.4l1-5.9
	c0.1-0.4,0.4-0.7,0.9-0.7l0.1,0l20.1,1.5c0.3,0,0.5,0.2,0.6,0.4l1,1.8l-0.1,0.4l-0.2,0.9l0,0c-0.3,1.7-2,11.3-3.3,18.8l-1.5,8.7
	c0,0,0,0,0,0c0.1,0,0.1,0,0.2,0l4.8-27.3l0,0l0-0.2l0.2-1.3l-1.1-1.9C108,72,107.7,71.8,107.4,71.8z"/>
<path class="st0" d="M109.1,51.2l-0.1,0.4c0,0.1-0.1,0.2-0.1,0.3l-17.8-1.1c0.4-0.7,0.6-1.5,0.3-2.3c-0.3-0.9-1-1.6-1.9-1.9
	c-0.2-0.1-0.5-0.1-0.7-0.1c-0.7,0-1.4,0.3-2,0.8c-0.5,0.5-0.8,1.2-0.8,2c0,0.4,0.1,0.8,0.3,1.2c0.1,0.1,0,0.2,0,0.3
	c0,0.1-0.1,0.2-0.2,0.2c-0.3,0.1-0.7,0.1-1.1,0.1c-0.1,0-0.1,0-0.2,0c-2.2-0.1-4.8-0.3-5.1-0.3l-0.4,0l0,0.4l-0.1,1l0,0.4l0.4,0
	c0.3,0,3,0.3,5.2,0.3c0.1,0,0.2,0,0.3,0c0.4,0,0.8,0,1.2-0.1c-1.1,0.2-2.6,0.5-4.2,0.5c-2.4,0-3.3,1.2-3.9,2
	c-0.5,0.6-0.7,0.9-1.3,0.9c-0.1,0-0.2,0-0.3,0c-2-0.2-4.5-0.6-6-0.8c0,0.1-0.1,0.1-0.1,0.2c1.4,0.2,4.1,0.6,6.1,0.8
	c0.1,0,0.2,0,0.3,0c0.7,0,1-0.4,1.5-1c0.6-0.8,1.5-1.9,3.8-1.9c2.6,0,5-0.6,6-0.9l0.1-0.8l0,0c-0.5,0.4-1.5,1-3.2,1
	c-0.1,0-0.2,0-0.3,0c-2.2-0.1-4.9-0.3-5.2-0.3l-0.2,0l0-0.2l0.1-1.2l0.2,0c0.3,0,3,0.3,5.1,0.3l0.2,0c0.4,0,0.8,0,1.2-0.1
	c0.2,0,0.3-0.2,0.4-0.3c0.1-0.2,0.1-0.3,0-0.5c-0.2-0.3-0.2-0.7-0.2-1.1c0-1.4,1.2-2.6,2.6-2.6c0.2,0,0.5,0,0.7,0.1
	c0.8,0.2,1.5,0.9,1.8,1.7c0.3,0.9,0.1,1.8-0.5,2.4l18.3,1.1c0-0.2,0.2-0.7,0.2-0.7l0,0c0-0.1,0-0.1,0-0.2L109.1,51.2z"/>
</svg>
