<?xml version="1.0" encoding="UTF-8"?><svg xmlns="http://www.w3.org/2000/svg" viewBox="0 0 193.93 171.86"><defs><style>.d{fill:#222431;}</style></defs><g id="a"/><g id="b"><g id="c"><g><polygon class="d" points="86.15 132.27 78.1 130.07 77.03 134.42 94.48 139.32 95.01 135.97 85.8 133.3 86.15 132.27"/><polygon class="d" points="70.05 142.53 59.48 139.13 57.02 147.01 67.77 152.05 70.05 142.53"/><polygon class="d" points="73.34 129.85 63.17 126.63 62.54 128.71 65.48 129.52 64.35 134.28 61.01 133.27 60.39 135.35 71.16 138.66 73.34 129.85"/><polygon class="d" points="58.5 127.21 59.01 125.13 45.29 121.45 42.83 129.57 44.87 130.23 46.88 123.62 50.78 124.75 48.83 131.34 56.11 133.69 56.73 131.98 53.87 131.11 55.3 126.26 58.5 127.21"/><polygon class="d" points="37.11 120.64 40.89 121.68 41.46 119.57 34.4 117.42 31.68 125.73 38.82 128.08 39.47 126.33 35.76 125.25 37.11 120.64"/><polygon class="d" points="34.8 134.44 31.66 133.65 32.5 130.48 30.05 129.74 29.07 133.81 35.6 136.91 37.07 131.83 35.71 131.41 34.8 134.44"/><polygon class="d" points="54.93 137.6 41.88 133.28 40.04 139.07 52.85 144.88 54.93 137.6"/><polygon class="d" points="81.2 149.98 81.01 150.88 80.1 150.77 76.89 150.38 75.77 150.25 76.04 149.15 78.33 139.77 75.64 138.9 71.89 153.22 83.59 154.87 84.73 146.75 84.88 145.72 85.9 145.9 88.67 146.39 89.64 146.56 89.49 147.53 88.2 155.87 91.44 156.32 93.43 143.8 83.04 141.17 81.2 149.98"/><polygon class="d" points="77.6 170.38 88.06 171.86 90.25 161.14 79.59 159.49 77.6 170.38"/><polygon class="d" points="62.83 166.63 62.83 168.41 74.75 170.34 76.93 158.76 69.73 157.6 62.83 166.63"/><polygon class="d" points="51.2 149.82 47.26 155.05 50.29 157.63 52.89 155.08 53.51 154.48 54.2 155 58.35 158.19 59.2 158.84 58.49 159.65 56.42 161.97 58.05 163.29 63.81 156.47 51.2 149.82"/><polygon class="d" points="103 157.5 115.24 159.21 117.06 152.89 104.31 150.65 103 157.5"/><polygon class="d" points="101.57 167.69 111.95 161.85 102.65 160.81 101.57 167.69"/><polygon class="d" points="114.96 144.22 114.85 144.23 114.73 144.21 111.95 143.77 111.8 143.74 111.66 143.67 105.89 140.77 104.9 145.81 118.39 148.35 119.61 143.88 114.96 144.22"/><polygon class="d" points="118.92 162.85 122.95 164.13 129.19 143.57 124.8 143.8 118.92 162.85"/><polygon class="d" points="181.24 137.83 192.22 135.62 192.22 119.9 180.6 116.31 181.24 137.83"/><polygon class="d" points="53.5 105.5 55.44 99.28 47.5 96.5 45.28 103.17 53.5 105.5"/><polygon class="d" points="192.22 104.57 181.07 100.83 179.7 105.83 192.22 109.35 192.22 104.57"/><polygon class="d" points="185.96 108.54 184.52 113.43 192.48 116.31 193.93 111.13 185.96 108.54"/><polygon class="d" points="161.59 100.17 161.26 102.72 161.96 109.54 165.41 109.91 167.74 101.13 161.59 100.17"/><polygon class="d" points="167 111.83 175.28 112.11 175.28 108 167 108 167 111.83"/><polygon class="d" points="117.44 103.72 110.78 103.28 110.16 108 116.88 108.91 117.44 103.72"/><polygon class="d" points="123.15 109.91 130.56 110.39 130.93 100.17 123.96 99.8 123.15 109.91"/><polygon class="d" points="135.3 100.17 136.85 109.91 139.22 110.06 137.67 100.28 135.3 100.17"/><polygon class="d" points="123.96 94.69 112.19 92.91 111.59 97.06 123.44 98.39 123.96 94.69"/><polygon class="d" points="114.93 98.02 111.59 97.87 110.93 102.76 114.7 103.13 114.93 98.02"/><polygon class="d" points="124.33 98.31 137.59 99.72 136.85 96.31 124.7 94.91 124.33 98.31"/><polygon class="d" points="121.3 85.2 113.44 83.87 113 86.02 121 87.13 121.3 85.2"/><polygon class="d" points="120.85 87.87 112.85 86.61 112.26 90.61 120.26 91.87 120.85 87.87"/><polygon class="d" points="129.52 92.91 135.59 93.87 133.81 87.13 130.41 86.54 129.52 92.91"/><polygon class="d" points="129.67 86.54 123.52 85.57 122.41 92.09 128.93 92.76 129.67 86.54"/><polygon class="d" points="122.85 74.39 116.63 73.5 115.3 81.72 121.52 82.76 122.85 74.39"/><polygon class="d" points="132.33 84.39 130.33 76 125.22 75.06 123.94 83.06 132.33 84.39"/><polygon class="d" points="125.11 60 117.17 58.44 116.89 60.56 124.89 61.94 125.11 60"/><polygon class="d" points="124.44 64.17 116.72 62.83 116.17 66.22 124.06 67.33 124.44 64.17"/><polygon class="d" points="120.28 67.56 116.06 66.89 115.39 70.94 119.72 71.72 120.28 67.56"/><polygon class="d" points="127.28 65.17 126.56 65.11 125.5 72.28 129.67 73 127.28 65.17"/><polygon class="d" points="163 75.33 159.06 74.72 159.22 70.72 156.94 70.56 155.28 84.28 161.44 85.67 163 75.33"/><polygon class="d" points="181.83 76.94 174.67 76.39 174.28 82.78 181.17 83.72 181.83 76.94"/><polygon class="d" points="172.11 76.72 163.89 75.67 163.06 81.61 172.06 82.67 172.11 76.72"/><polygon class="d" points="76.78 40.09 70.48 39.61 69.59 46.76 76.04 47.69 76.78 40.09"/><polygon class="d" points="63.63 76.55 61.44 81.67 63.5 82.5 67.06 75.22 60.89 72.56 59.94 74.78 63.63 76.55"/><path class="d" d="M58.89,75.22c0-.67-.55-1.22-1.22-1.22s-1.22,.55-1.22,1.22,.55,1.22,1.22,1.22,1.22-.55,1.22-1.22Z"/><polygon class="d" points="60.44 69.5 53.56 67.17 53.56 70 59.67 72 60.44 69.5"/><polygon class="d" points="92.22 99.06 78.89 95.61 76.89 102.17 90.67 105.83 92.22 99.06"/><polygon class="d" points="69.78 122.39 71.89 114.72 68.11 113.72 65.67 120.94 69.78 122.39"/><path class="d" d="M47.33,86.28l-5.78-1.44-2.56,8,5.44,1.78,2.89-8.33Zm-7.08,5.91l1.97-6.16,3.81,.95-2.21,6.37-3.57-1.16Z"/><polygon class="d" points="33.56 75.22 26.11 73.11 25.22 76.06 32.78 78.33 33.56 75.22"/><polygon class="d" points="14.78 94.22 22.83 96.72 25.22 88.94 17.39 86.61 14.78 94.22"/><polygon class="d" points="8.33 81.83 25.56 87.39 28.17 79.72 9.22 74.06 8.33 81.83"/><polygon class="d" points="2.89 90.83 13.22 93.72 14.56 89.33 4.39 86.5 2.89 90.83"/><polygon class="d" points="7.89 74 1.78 72.61 0 79.17 6.83 81.11 7.89 74"/><polygon class="d" points="106.94 14.39 107.17 7.28 98.61 6.44 98.89 13.22 106.94 14.39"/><polygon class="d" points="106.5 .67 99.89 0 99.67 3 106.56 3.61 106.5 .67"/><polygon class="d" points="96.83 1.33 90.28 1.06 89.22 5.78 96.56 6.06 96.83 1.33"/><polygon class="d" points="92.81 88.82 91.36 85.21 88.06 86.61 89.31 90.16 92.81 88.82"/><path class="d" d="M94.48,88.03l7.91-4.09c.04-.61,.07-1.07,.09-1.42l-10.97-.97v1.44l1.43,1.43-.23,2.62,1.76,.98Z"/></g></g></g></svg>