<svg id="edificios" xmlns="http://www.w3.org/2000/svg" viewBox="0 0 210 210"><defs><style>.cls-1{fill:#222431;}</style></defs><polygon class="cls-1" points="91.92 166.21 92.26 165.17 84.22 162.98 83.15 167.32 100.59 172.22 101.13 168.88 91.92 166.21"/><polygon class="cls-1" points="65.59 172.04 63.13 179.91 73.88 184.95 76.16 175.43 65.59 172.04"/><polygon class="cls-1" points="69.28 159.54 68.66 161.62 71.59 162.42 70.47 167.18 67.13 166.17 66.5 168.25 77.27 171.56 79.46 162.75 69.28 159.54"/><polygon class="cls-1" points="51.41 154.35 48.95 162.47 50.99 163.14 53 156.52 56.9 157.66 54.95 164.24 62.23 166.59 62.85 164.88 59.98 164.01 61.42 159.16 64.62 160.11 65.13 158.03 51.41 154.35"/><polygon class="cls-1" points="40.51 150.33 37.8 158.64 44.94 160.99 45.58 159.23 41.87 158.15 43.23 153.54 47 154.59 47.57 152.47 40.51 150.33"/><polygon class="cls-1" points="41.83 164.31 40.92 167.35 37.78 166.55 38.62 163.39 36.17 162.65 35.18 166.72 41.71 169.82 43.19 164.74 41.83 164.31"/><polygon class="cls-1" points="47.99 166.18 46.15 171.97 58.97 177.78 61.04 170.5 47.99 166.18"/><polygon class="cls-1" points="89.16 174.08 87.32 182.89 87.13 183.78 86.22 183.68 83.01 183.29 81.89 183.15 82.16 182.06 84.44 172.68 81.76 171.8 78.01 186.13 89.71 187.77 90.85 179.65 90.99 178.63 92.01 178.81 94.79 179.3 95.75 179.47 95.61 180.43 94.31 188.78 97.56 189.22 99.54 176.71 89.16 174.08"/><polygon class="cls-1" points="85.7 192.39 83.72 203.28 94.18 204.77 96.37 194.05 85.7 192.39"/><polygon class="cls-1" points="75.85 190.5 68.95 199.54 68.95 201.31 80.86 203.24 83.05 191.66 75.85 190.5"/><polygon class="cls-1" points="57.32 182.72 53.37 187.96 56.4 190.53 59.01 187.99 59.63 187.38 60.32 187.91 64.47 191.09 65.32 191.75 64.6 192.55 62.53 194.88 64.17 196.2 69.92 189.38 57.32 182.72"/><polygon class="cls-1" points="110.43 183.56 109.11 190.41 121.36 192.11 123.18 185.79 110.43 183.56"/><polygon class="cls-1" points="118.07 194.76 108.77 193.72 107.69 200.59 118.07 194.76"/><polygon class="cls-1" points="121.08 177.12 120.96 177.13 120.85 177.11 118.07 176.67 117.92 176.65 117.78 176.57 112.01 173.68 111.02 178.72 124.5 181.25 125.72 176.78 121.08 177.12"/><polygon class="cls-1" points="130.92 176.7 125.03 195.75 129.06 197.03 135.3 176.48 130.92 176.7"/><polygon class="cls-1" points="186.71 149.22 187.36 170.73 198.34 168.53 198.34 152.81 186.71 149.22"/><polygon class="cls-1" points="51.39 136.07 53.62 129.4 61.56 132.18 59.62 138.4 51.39 136.07"/><polygon class="cls-1" points="187.19 133.74 198.34 137.48 198.34 142.26 185.82 138.74 187.19 133.74"/><polygon class="cls-1" points="192.08 141.44 200.04 144.03 198.6 149.22 190.63 146.33 192.08 141.44"/><polygon class="cls-1" points="167.71 133.07 173.86 134.03 171.52 142.81 168.08 142.44 167.38 135.63 167.71 133.07"/><polygon class="cls-1" points="173.12 140.9 173.12 144.74 181.39 145.01 181.39 140.9 173.12 140.9"/><polygon class="cls-1" points="116.28 140.9 116.89 136.18 123.56 136.63 123 141.81 116.28 140.9"/><polygon class="cls-1" points="129.26 142.81 130.08 132.7 137.04 133.07 136.67 143.29 129.26 142.81"/><polygon class="cls-1" points="142.97 142.81 141.41 133.07 143.78 133.19 145.34 142.96 142.97 142.81"/><polygon class="cls-1" points="118.3 125.81 130.08 127.59 129.56 131.29 117.71 129.96 118.3 125.81"/><polygon class="cls-1" points="117.71 130.77 117.04 135.66 120.82 136.03 121.04 130.92 117.71 130.77"/><polygon class="cls-1" points="130.82 127.81 142.97 129.22 143.71 132.63 130.45 131.22 130.82 127.81"/><polygon class="cls-1" points="119.56 116.77 127.41 118.11 127.12 120.03 119.12 118.92 119.56 116.77"/><polygon class="cls-1" points="118.97 119.52 126.97 120.77 126.38 124.77 118.38 123.52 118.97 119.52"/><polygon class="cls-1" points="136.52 119.44 139.93 120.03 141.71 126.77 135.63 125.81 136.52 119.44"/><polygon class="cls-1" points="129.63 118.48 135.78 119.44 135.04 125.66 128.52 125 129.63 118.48"/><polygon class="cls-1" points="122.75 106.4 121.41 114.63 127.64 115.66 128.97 107.29 122.75 106.4"/><polygon class="cls-1" points="131.34 107.96 136.45 108.9 138.45 117.29 130.06 115.96 131.34 107.96"/><polygon class="cls-1" points="123.28 91.35 131.23 92.9 131 94.85 123 93.46 123.28 91.35"/><polygon class="cls-1" points="122.84 95.74 130.56 97.07 130.17 100.24 122.28 99.13 122.84 95.74"/><polygon class="cls-1" points="122.17 99.79 126.39 100.46 125.84 104.63 121.5 103.85 122.17 99.79"/><polygon class="cls-1" points="131.62 105.18 132.67 98.02 133.39 98.07 135.78 105.9 131.62 105.18"/><polygon class="cls-1" points="163.06 103.46 161.39 117.18 167.56 118.57 169.12 108.24 165.17 107.63 165.34 103.63 163.06 103.46"/><polygon class="cls-1" points="180.78 109.29 180.39 115.68 187.28 116.63 187.95 109.85 180.78 109.29"/><polygon class="cls-1" points="170 108.57 178.23 109.63 178.17 115.57 169.17 114.52 170 108.57"/><polygon class="cls-1" points="75.71 79.66 76.6 72.52 82.89 73 82.15 80.59 75.71 79.66"/><polygon class="cls-1" points="67 105.46 66.06 107.68 69.75 109.45 67.56 114.57 69.62 115.4 73.17 108.13 67 105.46"/><circle class="cls-1" cx="63.78" cy="108.13" r="1.22"/><polygon class="cls-1" points="59.67 100.07 66.56 102.4 65.78 104.9 59.67 102.9 59.67 100.07"/><polygon class="cls-1" points="85 128.51 98.34 131.96 96.78 138.74 83 135.07 85 128.51"/><polygon class="cls-1" points="74.23 146.63 78 147.63 75.89 155.29 71.78 153.85 74.23 146.63"/><path class="cls-1" d="M48.34,118.94l3.81,1-2.21,6.37-3.57-1.16,2-6.16m-.67-1.2-2.55,8,5.44,1.78,2.89-8.34-5.78-1.44Z"/><polygon class="cls-1" points="32.23 106.02 39.67 108.13 38.89 111.24 31.34 108.96 32.23 106.02"/><polygon class="cls-1" points="23.5 119.52 31.34 121.85 28.95 129.63 20.89 127.13 23.5 119.52"/><polygon class="cls-1" points="34.28 112.63 15.34 106.96 14.45 114.74 31.67 120.29 34.28 112.63"/><polygon class="cls-1" points="10.51 119.4 20.67 122.24 19.34 126.63 9.01 123.74 10.51 119.4"/><polygon class="cls-1" points="7.89 105.52 14.01 106.9 12.95 114.02 6.12 112.07 7.89 105.52"/><polygon class="cls-1" points="105 46.13 113.06 47.29 113.28 40.18 104.73 39.35 105 46.13"/><polygon class="cls-1" points="106 32.9 112.62 33.57 112.67 36.52 105.78 35.9 106 32.9"/><polygon class="cls-1" points="96.39 33.96 102.95 34.24 102.67 38.96 95.34 38.68 96.39 33.96"/><polygon class="cls-1" points="95.75 122.24 96.72 122.57 100.86 121.11 99.18 116.32 94.25 118.07 95.75 122.24"/><polygon class="cls-1" points="94.25 115.87 92.88 116.34 92.75 116.58 93.19 117.85 93.44 117.96 94.81 117.49 94.94 117.25 94.5 115.98 94.25 115.87"/><rect class="cls-1" x="100.17" y="117.03" width="2.65" height="0.7" transform="translate(-31.38 37.24) rotate(-18.06)"/><rect class="cls-1" x="101.63" y="114.87" width="1.39" height="1.67" transform="translate(-30.82 37.41) rotate(-18.06)"/><rect class="cls-1" x="99.53" y="115.72" width="2.1" height="1.39" transform="translate(-31.13 36.9) rotate(-18.06)"/><polygon class="cls-1" points="102.34 113.39 102.49 113.87 102.21 113.96 102.38 114.47 103.16 114.21 103.15 114.19 103 113.7 102.84 113.22 102.34 113.39"/><rect class="cls-1" x="103.98" y="113.54" width="0.68" height="0.68"/><rect class="cls-1" x="105" y="113.2" width="0.68" height="0.68"/><rect class="cls-1" x="106.07" y="112.98" width="0.68" height="0.68"/></svg>