<svg id="vias" xmlns="http://www.w3.org/2000/svg" viewBox="0 0 210 210"><defs><style>.cls-1{fill:#bf2525;}</style></defs><path class="cls-1" d="M109.71,151.89a2.16,2.16,0,0,0-1.61.46,2.57,2.57,0,0,0-1,1.7c-.13,1-8.2,50.5-8.28,51l1,.16c.34-2,8.15-50,8.29-51a1.54,1.54,0,0,1,.64-1,1.26,1.26,0,0,1,.85-.29c.45.08,1.29.22,1,2-.33,2-8.53,49.67-8.61,50.15l1,.17c.08-.48,8.29-48.17,8.62-50.16C111.91,152.75,110.75,152.06,109.71,151.89Z"/><path class="cls-1" d="M125.49,69.72c.11-.84.24-1.69.38-2.53,2-1.76,21.1-18.64,22.18-19.66l.45-.44A10.25,10.25,0,0,1,155,43.77c4.14-.58,28.3-3.08,32.21-2.87s14.49,1.18,14.6,1.19l.09-1c-.11,0-10.69-1-14.64-1.19s-27.8,2.23-32.4,2.88a11.33,11.33,0,0,0-7.08,3.6l-.42.42c-1,.9-16.92,15-21.22,18.8a31.05,31.05,0,0,1,.74-3.17c.65-2.18,2.28-8.87,2.51-10.4s2.09-15.2,2.32-18c.18-2.26,1.62-11.48,2.24-15.42.13-.82.22-1.39.25-1.6.17-1.18,2.29-11.34,2.31-11.44l-1-.2c-.09.42-2.14,10.29-2.32,11.49,0,.21-.12.78-.25,1.6-.62,3.95-2.06,13.19-2.25,15.49-.22,2.76-2.09,16.4-2.31,17.91s-1.85,8.16-2.48,10.26a38.2,38.2,0,0,0-1,4.51,2.7,2.7,0,0,1-1.64.48,1.39,1.39,0,0,1-1.12-1c.29-3.46,1.11-14.83,1.14-15.63s3.13-17.11,5.19-27.91a3.35,3.35,0,0,0-.16-1.78l-.93.36a2.58,2.58,0,0,1,.11,1.22c-.53,2.78-5.17,27.19-5.21,28.07s-1.12,15.83-1.22,16.44c0,0-.26,1.27-.63,3.11l-12.63-.73a16.44,16.44,0,0,0-.08-4.6,3.67,3.67,0,0,0-1.57-1.64c-.7-.5-1.43-1-1.54-1.69a20.36,20.36,0,0,1,1-7,10.12,10.12,0,0,1,1-.87c1.94-1.52,3.83-3.13,4.25-4.59,3.94.44,8.12.91,8.64.93,1.09,0,2-.38,2.14-1a3.56,3.56,0,0,1,.2-.42,4.3,4.3,0,0,0,.52-1.34c.1-.66.6-4.39.6-4.39l-1-.14-.6,4.39a3.64,3.64,0,0,1-.41,1,3,3,0,0,0-.28.64,1.55,1.55,0,0,1-1.14.29c-.88,0-15-1.66-15.79-1.76s-5.18-.9-5.3-.92a9.87,9.87,0,0,0-2,0c-.85.18-1.08.28-1.23.42a1.07,1.07,0,0,0-.42.88.89.89,0,0,0,.44.65c-.67-.27-1.36-.55-1.51-.59a5.15,5.15,0,0,0-1-.13,10.66,10.66,0,0,1-1.5-.17,56.22,56.22,0,0,0-6-1.08,1.48,1.48,0,0,0-.76.34c-.06.05-.16.12-.15.13-.23,0-3.11.21-3.52.32s-.66.64-.76,1.06l-.06.23v0L87.44,4.19l-1-.17L80.11,41.84c-.26-.06-.58-.12-.85-.2-.1-.06-.21-.44-.25-.6-.11-.37-.24-.83-.7-.88-.3,0-7.57-1.28-10.88-1.85v0L38.62,34.53,37.46,41.1,33.37,65,1,63.16l-.06,1,74.68,4.31C75.31,71,73.85,81.39,73.74,82c-.06.34-.11,1.08-.16,1.93a20.24,20.24,0,0,1-.22,2.46.68.68,0,0,1-.37.42.65.65,0,0,1-.54-.16c-2.67-1.78-5-2.5-7-2.15-2.82.51-17.31,5.07-17.92,5.26l.3,1c.15,0,15-4.74,17.79-5.24,1.7-.3,3.8.37,6.3,2a1.53,1.53,0,0,0,1.35.24,1.68,1.68,0,0,0,1-1s0-.06,0-.08c1.17.18,4.27.64,6.55.89l.44,0a2.85,2.85,0,0,0,2.44-1.44,3,3,0,0,1,2.8-1.46,22.53,22.53,0,0,0,6-.87L90.23,97.26a.87.87,0,0,1-1,.71L48.42,93.54l-.11,1L89.05,99a.82.82,0,0,1,.72,1l-1.22,7a1.77,1.77,0,0,0,1.5,2.06l16.77,2.31h0c.29,0,2.24.29,2.81.38h.2a1.32,1.32,0,0,0,1.28-1.32A1.41,1.41,0,0,0,109.8,109a1.5,1.5,0,0,0-1,.39,3.25,3.25,0,0,1-2,.86L90.31,108a.9.9,0,0,1-.76-1l1-5.86a1.28,1.28,0,0,1,1.36-1l20.12,1.51a1.15,1.15,0,0,1,.93.58l1.1,1.93q-.12.67-.24,1.38v0h0L109,133.08l-3.34-1a2.62,2.62,0,0,0-.2-1.87c-.3-.54-.62-1-.82-1.33a1.72,1.72,0,0,0-.09-2,3.81,3.81,0,0,0-.29-3.78c-.53-1-1.46-3-1.88-3.94a4.35,4.35,0,0,0,2.54-1.94,2.54,2.54,0,0,0,.27-1.21l3-.73a.5.5,0,0,0-.24-1l-3.41.84a.49.49,0,0,0-.32.24.53.53,0,0,0,0,.41,1.31,1.31,0,0,1-.13,1,4,4,0,0,1-2.47,1.59.52.52,0,0,0-.32.28.53.53,0,0,0,0,.41c.06.13,1.42,3.14,2.15,4.5a3,3,0,0,1,.35,2.72,1.7,1.7,0,0,0-2.28,1.63c-.52.29-1.59.43-3.83-.22-1.78-.51-27.95-8.57-31.26-9.59l.29-8.9-1,0L65.26,120,15.73,105.26l-.28,1L65.08,121l-3.31,8.82-9.37-3-3.15,9.72-34-9.94-.28,1,34,9.93h0l12.24,3.57h0l.75.22.28-1-.72-.21,5.89-18.42,41.42,12.35c-1.54,8.73-2.78,16-2.81,16.2h0l-4.1,24-21-5.89,1.82-7.18-1-.25L78.6,173.5l-13.94-4.41,3.58-11.9-1-.29-3.57,11.89L46.8,163.45l4-12.19-.95-.31-4,12.2L36,160.05l-.3.95,9.8,3.1-2.61,8-9-4.32-.43.9,41,19.81-14.83,16,.73.68,15.11-16.3c16.58,2.6,21.65,3.33,23.28,3.44l-2.18,12.76,1,.17L107.05,150c.65-3.71,4.85-27.74,7.77-44.37l0-.08a3.73,3.73,0,0,1,.73-1.72,2.41,2.41,0,0,1,2.42-.63,2.45,2.45,0,0,1,1.63,1.73,4.72,4.72,0,0,1,0,1.59l0,.19L103.9,206l19.2-9.59,6.07-20.29-1-.29L126,183.26l-17-3,2.64-16.73a5.28,5.28,0,0,1,1,.87,2.8,2.8,0,0,0,1.3,1,1.83,1.83,0,0,1,.89.62c.14.24,0,.75-.11,1.16a3.28,3.28,0,0,0-.16,1,2,2,0,0,0,.1.58c-.38.14-1,.36-1.63.53l.28,1,.84-.25.25.56s1-.45,1.34-.58a2.94,2.94,0,0,1,.78-.23l.16.12a4,4,0,0,0,2.27.94l.1-1a3.06,3.06,0,0,1-1.76-.73l0,0a1.33,1.33,0,0,0,.11-.91.87.87,0,0,0-.76-.55c-.06,0-.15,0-.14,0-.18-.3-.09-.4,0-.46l.16-.24c.1-.16.13-.19.45-.18a5.71,5.71,0,0,0,1,.27c.41,0,1.7.36,2.55.57.51.13.93.23,1.07.25l.15,0a13,13,0,0,0,2.32.26,6.19,6.19,0,0,0,.76,0,10.52,10.52,0,0,0,2.79-1.07l.62-.3c.45-.2.93-.44,1.28-.62l.43-.22-.23-1a3.34,3.34,0,0,0-.65.3l-1.24.6-.65.32a9.93,9.93,0,0,1-2.5,1,10.17,10.17,0,0,1-2.75-.2l-.16,0c-.13,0-.52-.12-1-.24-1.21-.3-2.24-.55-2.7-.6a21.71,21.71,0,0,1-3.1-1.08,4.32,4.32,0,0,0-.7-.37,2.76,2.76,0,0,1-.52-.28,3.7,3.7,0,0,1-.46-.45,4.64,4.64,0,0,0-1.53-1.23L114.86,143c3.61.42,10.4,1.2,14.85,1.74a1,1,0,0,0-.68.29.8.8,0,0,0-.17.69,3.42,3.42,0,0,1-.51,1.68,1.7,1.7,0,0,1-.53.43,7,7,0,0,0-.6.42c-.43.34-.57.57-.56.93a1.08,1.08,0,0,1-.22.28,4.3,4.3,0,0,0-.37.47,1.47,1.47,0,0,0-.25.84,10,10,0,0,1-.86.78l.63.77a8.17,8.17,0,0,0,1-1,1.05,1.05,0,0,0,.2-.62.4.4,0,0,1,.08-.26,2.37,2.37,0,0,1,.29-.36,2.33,2.33,0,0,0,.38-.54,1,1,0,0,0,.08-.39l.19-.17c.21-.16.37-.26.51-.35a2.79,2.79,0,0,0,.78-.66,4.21,4.21,0,0,0,.73-2.3c.16,0,.38,0,.5,0a18.74,18.74,0,0,1,4,.76,14.72,14.72,0,0,0,3.57,1.5l.1-1a14,14,0,0,1-3.13-1.35,4.89,4.89,0,0,0-1.31-.42l.4.06c.88.19,9.78-.25,12.79-.4-3.36,11.27-11.71,38.42-16.59,54.22l1,.3c.6-2,12.52-40.59,16.68-54.54l.73,0c-3.37,11.28-11.71,38.42-16.59,54.21l1,.3c.6-2,12.48-40.45,16.66-54.46l22.45,1v7.64h6v-1.09h6.5v-6h.19l17,5.13.29-1-17.09-5.14-.42,0v0L172,144.93h0l-10.11-.43a5.8,5.8,0,0,0,.33-2.71c-.1-.39-.57-1.74-1.17-3.45-.9-2.58-2.4-6.88-2.42-7.43v-.19a2.86,2.86,0,0,1,1.14-2.52c.86-.51,1.21-.38,2.37.07l1,.37c1.47.5,7.49,2.31,9.24,2.11a48.11,48.11,0,0,1,7.93.5c.26.27.11,2.06-.33,3.75l1,.25c.14-.56.85-3.45.23-4.49a.91.91,0,0,0-.6-.46,47.13,47.13,0,0,0-8.31-.55c-1.28.17-6.5-1.26-8.8-2.06-.38-.12-.7-.25-1-.35-1.23-.48-2-.76-3.25,0a3.78,3.78,0,0,0-1.61,3.3l0,.18c0,.53.73,2.85,2.47,7.83.57,1.63,1.06,3,1.15,3.37a5.55,5.55,0,0,1-.4,2.42l-11-.47c.68-2.3,1.1-3.77,1.14-4,.15-.93-3.08-11.81-6.58-23.17a7.09,7.09,0,0,1,2.82-1c1.43.08,39.83,9,54.51,12.46l.23-1c-5.45-1.28-53.3-12.49-54.73-12.49a7.56,7.56,0,0,0-3.13,1c-3.9-12.62-8-25.51-8.11-25.73-.55-1.42-7.69-15.56-9.55-19.22l2.88.42c.3,1.42,1.41,6.29,2.49,7.55a22,22,0,0,0,3,2.48,13.64,13.64,0,0,1,2,1.59c.09.15.26.39.46.69.65,1,2,3,2.13,3.82a7.33,7.33,0,0,1-.12,1.72c-.17,1.2-.34,2.44.21,3.19a2,2,0,0,0,1.87,1,10.79,10.79,0,0,0,1.25-.11l-.06-.49-.16-.49c-1.34.17-1.59.18-2.09-.51a4.55,4.55,0,0,1,0-2.47,7.91,7.91,0,0,0,.12-2,14.06,14.06,0,0,0-2.29-4.24c-.2-.28-.35-.51-.44-.66a13.67,13.67,0,0,0-2.73-2.23l.16-.61c1.2-.13,2.63-.27,3.3-.27a5.22,5.22,0,0,1,1.13.16,3.8,3.8,0,0,0,2.71-.2l.66-.32c1.17-.56,2.95-1.42,3.55-1.31.88.16,45,6.45,46.9,6.72l.14-1c-.46-.06-46-6.56-46.86-6.71s-2.27.48-4.16,1.39l-.66.31a2.75,2.75,0,0,1-2.07.13,6.39,6.39,0,0,0-1.34-.18c-1.18,0-4.35.38-5.23.48a5.26,5.26,0,0,1-.58-.57c-.78-.89-1.74-4.68-2.2-6.74l78.49,11.46.14-1Zm-18.6,41a3.73,3.73,0,0,0,2.26-1,1.05,1.05,0,0,1,.65-.28.91.91,0,0,1,.81.83.82.82,0,0,1-.78.82h-.13l-2.81-.38Zm-3.74,16.47a.74.74,0,0,1,0,1.47.74.74,0,0,1,0-1.47ZM60.53,139.86l-3.86-1.13-6.46-1.89,2.84-8.75,9.32,3,3.68-9.78.38.11Zm5.88-19.48-.16,0,0-1.16c4.2,1.29,29.27,9,31,9.51a10.54,10.54,0,0,0,2.92.5,3.62,3.62,0,0,0,1.48-.28,1.72,1.72,0,0,0,1.44.78,1.77,1.77,0,0,0,.69-.14c.19.29.47.71.73,1.17a1.67,1.67,0,0,1,.1,1.08ZM43.83,172.52l2.66-8.12,16.93,5.35-3.21,10.68ZM75,187.6l-13.91-6.73,3.25-10.82,14,4.42Zm24,3.75c-.81-.08-3.31-.44-6.58-.92L93.76,181l-1-.14-1.35,9.38c-4.69-.7-10.64-1.62-15.44-2.38l4.69-18.5,21,5.91Zm26.7-7.13-3.43,11.47-17.07,8.53,3.64-23Zm-10.17-16.28s0,0,0,.05a1.09,1.09,0,0,0,.77.47c0,.07-.06.14-.09.22a2.73,2.73,0,0,0-.51.14,1,1,0,0,0-.09-.33,1.08,1.08,0,0,1-.12-.45A.36.36,0,0,1,115.52,167.94ZM173,146l10.48.44v5.07H177v1.09h-4ZM111.74,70.54l8.53.5c-.7,3.47-1.72,8.47-2.47,12.26l-.72-.59a1,1,0,0,0-.6-.24l-1.58-.1a8,8,0,0,0,.41-2.18,5.69,5.69,0,0,0-.12-1h0l-.1-1.22a1.31,1.31,0,0,0-1.42-1.22c-1.13.08-1.56-.14-1.64-.28A26.58,26.58,0,0,1,111.74,70.54ZM80.92,48.92c0-.15.06-.26.08-.33l.07-.26a1.32,1.32,0,0,0,.06-.33c.31-.08,3-.29,3.25-.29a1.26,1.26,0,0,0,.74-.32,2,2,0,0,1,.23-.16c.46,0,5.13.86,5.54,1a8.36,8.36,0,0,0,1.8.24l.8.07,2.75,1.11.6.24.28-2.07-.45-.1a4,4,0,0,1-.71-.31,7.73,7.73,0,0,1,.81-.2h1.62c.19,0,4.56.83,5.28.91,0,0,2.93.35,6.23.72-.49,1.26-2.65,3-3.87,3.93-.45.35-.74.59-1,.77a37,37,0,0,0-4.57-1.07l-.06,1a32.24,32.24,0,0,1,4.09,1,21.84,21.84,0,0,0-.88,7.11,3.88,3.88,0,0,0,2,2.33c.56.4,1.08.77,1.2,1.15a16.32,16.32,0,0,1,0,4.22l-30-1.73,2.47-14.7C80.27,51.88,80.71,49.91,80.92,48.92ZM34.38,65.08,35,61.29c.53-.17,1.65-.53,2.44-.87a19.7,19.7,0,0,0,1.78-1,14.31,14.31,0,0,1,2.34-1.23l.26-.06a17.08,17.08,0,0,0,4.66-1.79,45.77,45.77,0,0,1,6-3.21c.1,0,.34.21.89,1.1l.05.07,0,.09a3,3,0,0,0,0,1.67c.2.71.49,1.72.75,2.65.17.59.34,1.15.46,1.59A9.61,9.61,0,0,1,55,62.78l0,.32c0,.72.28,2.31.43,3.19Zm22.06,1.27c-.13-.79-.42-2.57-.45-3.3l0-.31a10.56,10.56,0,0,0-.36-2.69c-.12-.44-.28-1-.46-1.6-.26-.92-.55-1.93-.74-2.63a2,2,0,0,1,0-1.16.91.91,0,0,0-.06-.81l-.08-.13c-.47-.76-1-1.56-1.71-1.56s-5.63,2.7-6.61,3.38a16.66,16.66,0,0,1-4.35,1.64l-.26.07a13.32,13.32,0,0,0-2.59,1.33,18.85,18.85,0,0,1-1.67.92c-.55.24-1.29.5-1.85.68l3.22-18.91,1-5.62,26.9,3.5c-.24,2.39-.61,5.71-.74,6.24-.19.76-3.15,18.44-3.62,21.28Zm6.54.38c1-6.08,3.43-20.47,3.59-21.1s.6-4.79.76-6.33c2.16.37,9.31,1.61,10.66,1.82l.06.2c.12.44.32,1.11.93,1.28.32.09.68.17,1,.22L75.81,67.47Zm23.57,17A4,4,0,0,0,83,85.55c-.53.69-.88,1.15-2,1-2.26-.25-5.35-.71-6.52-.89,0-.44.08-1,.12-1.68s.09-1.53.14-1.81c0-.09.07-.39.13-.84,1.72.7,5.86,2.38,6.22,2.5l.3-1c-.28-.09-3.81-1.51-6.37-2.56.47-3.32,1.41-10,1.66-11.82l34.08,2c0,1.74,0,5.56.41,6.41.34.62,1.2.89,2.57.8a.35.35,0,0,1,.38.31l.11,1.3a6,6,0,0,1,.1.94,8.52,8.52,0,0,1-.43,2.06L94.94,81.15a2.37,2.37,0,1,0-3.86-1.84,2.45,2.45,0,0,0,.23,1,.77.77,0,0,1-.5,1.07,5,5,0,0,1-1.49.15c-2.3-.08-5.13-.34-5.16-.34l-.09,1s2.89.26,5.21.34h.26a4.62,4.62,0,0,0,3.12-1l.3.1-.2,1.09A21.7,21.7,0,0,1,86.55,83.7Zm8.28-4.39a1.38,1.38,0,1,1-1.37-1.37A1.37,1.37,0,0,1,94.83,79.31Zm19.52,23.2-.51-.89a2.13,2.13,0,0,0-1.71-1.08l-20-1.5a1.08,1.08,0,0,1-1-1.25l2.57-14.86a1,1,0,0,1,1-.79l21.69,1.34,1.14.93c-.44,2.24-.76,3.87-.8,4.15S115.74,94.64,114.35,102.51Zm3.94-.26a3.47,3.47,0,0,0-3,.5c1.39-7.92,2.4-13.74,2.45-14.06.1-.84,3-15.41,4.21-21.09a2,2,0,0,0,1.25.53h.2a3.41,3.41,0,0,0,1.3-.27c-.32,2.13-.56,4.28-.74,6-.12,1.17-3.17,24.47-3.92,29.72A3.43,3.43,0,0,0,118.29,102.25Zm4-7.27,9.08,1.64-1.41,9.31-9-1.48,0-.22C121.2,102.86,121.69,99.25,122.26,95Zm-1.68,11.88h0l.22-1.42,9,1.48-1.45,9.58-9-1.49ZM119.14,116l9,1.49L127,125.35,117.88,124Zm7.56-42.39c2.68,5.29,7.93,15.69,8.38,16.85,1,2.71,15,47.36,14.94,49.35,0,.24-.47,1.74-1.19,4.14l-.73,0c.67-2.26,1.08-3.7,1.12-3.95.32-2-14.82-49.45-15-49.87-.56-1.44-6.06-12.35-7.48-15.17A4,4,0,0,1,126.7,73.61Zm6.6,16.85c1,2.71,15,47.36,14.94,49.35,0,.24-.47,1.72-1.17,4.09-4.78.25-12.23.58-12.89.44-.87-.18-16.1-1.93-19.16-2.28l2.7-17.1,24.65,3.7-.45-1.11-13.94-2,1.19-7.85,9,1.49.17-1-9-1.49,1.45-9.58,5.43.86-.22-1-5.06-.85,1.85-12.28-1-.15-.29,2L122.39,94c1.14-8.56,2.52-19.21,2.6-20,.1-.93.22-2,.35-3.07l.75,1.47a6.7,6.7,0,0,0-.39,2.68C127.06,77.77,132.76,89.08,133.3,90.46Z"/><path class="cls-1" d="M186,176.84h-.08l-.48.08V164.8l-.44-.06a36.81,36.81,0,0,1-4.14-.72,23.89,23.89,0,0,0-3.33-1.49c-.54-.09-8.44,0-10.42,0l-1.77-1.19-4-.44.18-13a1.75,1.75,0,0,0,.33,0,1.22,1.22,0,0,0,.37-.05,1.46,1.46,0,0,0,.61-.27.48.48,0,0,1,.21-.08c.44-.06,5.11.09,7.95.2l0-1c-1.79-.06-7.65-.28-8.16-.18a1.26,1.26,0,0,0-.62.25.64.64,0,0,1-.28.11.7.7,0,0,1-.45-.06v-.14l-9.09-1a1.63,1.63,0,0,0-1.78,1.31c-.61,3.08-2.61,13.19-2.72,13.92a1.84,1.84,0,0,0,.09.9l-.72,2.05a10.65,10.65,0,0,0-.56,4.44l1.21,14,.49,0c.1,0,10.87-.68,12.23-.62h0c1.75,0,22.44-3.35,25.25-3.81l14.19,2.72,6.18,2.7.4-.92-6.23-2.72Zm-25.77,3.82c-2.22,0-9.38.47-11.34.6l-1.13-13a9.85,9.85,0,0,1,.51-4l.49-1.38a1,1,0,0,0,.56.23c.31,0,6.59.59,11,1Zm.11-17.6c-3.08-.29-10.61-1-10.91-1h0a1.08,1.08,0,0,1-.48-1c.09-.57,1.46-7.54,2.72-13.89a.62.62,0,0,1,.69-.5l8.2.91Zm24.1,14c-8.76,1.42-20.6,3.26-23.21,3.54l.1-17h0l0-1.72,3.63.39,1.82,1.23H167c3.78,0,9.93-.06,10.39,0a25.06,25.06,0,0,1,3,1.38,25.7,25.7,0,0,0,4.05.77Z"/><path class="cls-1" d="M85.33,41.91l-.21,1a3.06,3.06,0,0,0,.64.07,2.29,2.29,0,0,0,.51-.06c.82,2.4,1.07,2.5,1.28,2.57l.24-.62.26-.21a16.87,16.87,0,0,1-1-2.44,85.47,85.47,0,0,0,1.79-8.57l-1-.18c-.69,3.77-1.53,8-1.73,8.43A1.31,1.31,0,0,1,85.33,41.91Z"/></svg>