<?xml version="1.0" encoding="UTF-8"?>
<svg id="andenes" xmlns="http://www.w3.org/2000/svg" width="210" height="210" viewBox="0 0 210 210">
  <rect x="89.5199966431" y="113.4700012207" width="1.6299972534" height="2.6999969482" style="fill: #c69c6d;"/>
  <rect x="87.6699981689" y="116.6200027466" width="1.6299972534" height="2.6999969482" style="fill: #c69c6d;"/>
  <rect x="81.9300003052" y="113.4400024414" width="1.6299972534" height="2.6999969482" style="fill: #c69c6d;"/>
  <rect x="81.9700012207" y="116.5800018311" width="1.6299972534" height="2.6999969482" style="fill: #c69c6d;"/>
  <rect x="82.5599975586" y="104.8099975586" width="1.6299972534" height="2.6999969482" style="fill: #c69c6d;"/>
  <rect x="89.5599975586" y="116.6200027466" width="1.6299972534" height="2.6999969482" style="fill: #c69c6d;"/>
  <rect x="85.75" y="113.4700012207" width="1.6299972534" height="2.6999969482" style="fill: #c69c6d;"/>
  <rect x="83.4899978638" y="100.5800018311" width="1.6299972534" height="2.6999969482" style="fill: #c69c6d;"/>
  <rect x="85.4100036621" y="100.6200027466" width="1.6299972534" height="2.6999969482" style="fill: #c69c6d;"/>
  <path d="m82.8600006104,81.7300033569l1.6299972534-11.1699981689-7.8799972534-.7200012207c-.3399963379,2.4400024414-1.0599975586,7.5900039673-1.4700012207,10.4400024414l2.0800018311.8399963379,5.6399993896.6100006104Z" style="fill: #c69c6d;"/>
  <rect x="87.6299972534" y="113.4700012207" width="1.6299972534" height="2.6999969482" style="fill: #c69c6d;"/>
  <rect x="83.8899993896" y="116.6200027466" width="1.6299972534" height="2.6999969482" style="fill: #c69c6d;"/>
  <rect x="85.7799987793" y="116.6200027466" width="1.6299972534" height="2.6999969482" style="fill: #c69c6d;"/>
  <path d="m131.1999969482,96.7300033569l-8.8300018311-1.5899963379c-.6100006104,4.6599960327-1.0599975586,7.8899993896-1.2399978638,9.1200027466v.0999984741l8.7199935913,1.4400024414,1.3500061035-9.0700073242Z" style="fill: #c69c6d;"/>
  <rect x="75.9925557716" y="103.6244772746" width="2.69999701" height="1.6299972907" transform="translate(-35.9447552049 168.121972282) rotate(-82.8199999221)" style="fill: #c69c6d;"/>
  <polygon points="118.0299987793 123.8799972534 126.9000015259 125.2200012207 128.0500030518 117.6100006104 119.25 116.1600036621 118.0299987793 123.8799972534" style="fill: #c69c6d;"/>
  <path d="m97.3899993896,46.1100006104h1.1100006104l1.0599975586.1899986267c1.4100036621.25,3.7699966431.6699981689,4.25.7299995422.7900009155.0999984741,14.8899993896,1.7200012207,15.7799987793,1.7599983215h.0899963379c.3271636963.0317230225.6553344727-.0494384766.9300003052-.2299995422.0746078491-.2194671631.1717987061-.4305992126.2900009155-.6300010681.1803588867-.3114356995.311882019-.64868927.3899993896-1,.0999984741-.6500015259.5999984741-4.3499984741.5999984741-4.3800010681v-.1199989319l1.2399978638.1599998474v.1300010681s-.5,3.7400016785-.5999984741,4.3899993896c-.0935287476.4862442017-.2693862915.9529495239-.5199966431,1.3800010681-.0765228271.1281738281-.1433792114.2618789673-.1999969482.4000015259-.1743392944.5014228821-.593170166.8787460327-1.1100006104,1l1.5599975586.2200012207c.2900009155-1.8899993896,1.8300018311-10.0900001526,3.1399993896-17.0900001526l-22.1699981689-3-7,1.9300003052-1.7799987793,7,1,5.3299980164,1.9400024414,1.8300018311Z" style="fill: #c69c6d;"/>
  <path d="m122.5400009155,93.9000015259l8.8499984741,1.5999984741.3000030518-2,1.0500030518.1600036621c-.3175811768-.8705749512-1.0840759277-1.4991073608-2-1.6399993896l-7.7400054932-1.2600021362c-.1800003052,1.0699996948-.3199996948,2.1199951172-.4599990845,3.1399993896Z" style="fill: #c69c6d;"/>
  <polygon points="129.6499938965 107.0400009155 120.9199981689 105.5999984741 120.7099990845 106.9000015259 120.7099990845 106.9000015259 119.4400024414 114.9199981689 128.2400054932 116.3700027466 129.6499938965 107.0400009155" style="fill: #c69c6d;"/>
  <rect x="84.4899978638" y="104.8399963379" width="1.6299972534" height="2.6999969482" style="fill: #c69c6d;"/>
  <path d="m82.7900009155,137.0700073242l13.9000015259,3.3399963379c.7235107422.1800842285,1.4560165405-.2604370117,1.6361083984-.9839477539.0013275146-.0053405762.0026245117-.0106964111.0038909912-.0160522461l1.6500015259-7.7799987793-16.1599960327-4.8300018311-2.0999984741,8.5599975586c-.1632156372.7653503418.3103256226,1.5221252441,1.0699920654,1.7100067139Z" style="fill: #c69c6d;"/>
  <rect x="79.9700012207" y="100.5800018311" width="1.6299972534" height="2.6999969482" style="fill: #c69c6d;"/>
  <rect x="83.8600006104" y="113.4700012207" width="1.6299972534" height="2.6999969482" style="fill: #c69c6d;"/>
  <rect x="80.1200027466" y="105.6699981689" width="1.6299972534" height="2.6999969482" style="fill: #c69c6d;"/>
  <polygon points="109.8799972534 179.6199951172 125.2699966431 182.5099945068 127.0999984741 175.7899932861 121.0400009155 176.2299957275 118.2699966431 175.7899932861 111.3199996948 172.3000030518 109.8799972534 179.6199951172" style="fill: #c69c6d;"/>
  <polygon points="80.6900024414 162.1900024414 68.6500015259 158.3800048828 67.4499969482 162.4199981689 70.4400024414 163.2400054932 69.7799987793 166.0200042725 66.5 165.0299987793 65.3000030518 169.0299987793 78.0299987793 172.9299926758 80.6900024414 162.1900024414" style="fill: #c69c6d;"/>
  <polygon points="93.5899963379 164.5899963379 83.5299987793 161.8500061035 81.9800033569 168.1300048828 101.4400024414 173.5899963379 102.2900009155 168.2700042725 93.2300033569 165.6399993896 93.5899963379 164.5899963379" style="fill: #c69c6d;"/>
  <polygon points="109.6699981689 182.5099945068 107.9700012207 191.3600006104 122.1200027466 193.3200073242 124.4899978638 185.1000061035 109.6699981689 182.5099945068" style="fill: #c69c6d;"/>
  <polygon points="106.4100036621 202.5800018311 121.3000030518 194.2100067139 107.9700012207 192.7200012207 106.4100036621 202.5800018311" style="fill: #c69c6d;"/>
  <path d="m72.9400024414,145.6000061035l-2.5699996948,7.8000030518c-.2088394165.6505584717.1301040649,1.3504638672.7699966431,1.5899963379l31.5100021362,11.6300048828,2.1100006104-12.3899993896-30.5100021362-9.3099975586c-.5185546875-.1900482178-1.0929946899.0762634277-1.2830352783.594833374-.0102539062.0279693604-.0192489624.0563812256-.0269622803.0851593018Z" style="fill: #c69c6d;"/>
  <polygon points="86.3799972534 182.7899932861 83.1600036621 182.3999938965 85.6699981689 172.1199951172 81.0999984741 170.6300048828 76.8000030518 187.0700073242 90.5999984741 189.0099945068 91.8799972534 179.8999938965 94.6500015259 180.3899993896 93.2099990845 189.7299957275 98.4300003052 190.4600067139 100.7099990845 176.0700073242 88.4300003052 172.9600067139 86.3799972534 182.7899932861" style="fill: #c69c6d;"/>
  <polygon points="82.5800018311 204.2299957275 95 206 97.5999984741 193.3200073242 84.9300003052 191.3600006104 82.5800018311 204.2299957275" style="fill: #c69c6d;"/>
  <path d="m199.3800048828,140.3600006104v-3.6999969482l-12.8200073242-4.2200012207-1.7799987793,5.8500061035-6.8899993896-2.1499938965.9199981689-2.7100067139c.1495056152-.374420166-.0328216553-.7991485596-.4072418213-.9486541748-.0961456299-.0383911133-.1993408203-.0558929443-.3027648926-.0513458252-1.8500061035,0-5.6399993896.0899963379-6.8000030518,0-1.5500030518-.1499938965-4.1499938965-.7400054932-4.1499938965-.7400054932l-.8099975586,3.8500061035.9100036621,9.0700073242,4.6600036621.1999969482h.0899963379l12.5899963379.5399932861h.3300018311l14.5800018311,4.3899993896,2.1300048828-8.8899993896-2.25-.4900054932Z" style="fill: #c69c6d;"/>
  <polygon points="123.8199996948 196.5099945068 129.7599945068 198.3999938965 136.7100067139 175.5099945068 130.2100067139 175.8399963379 123.8199996948 196.5099945068" style="fill: #c69c6d;"/>
  <polygon points="75.4599990845 189.5299987793 67.9899978638 199.3000030518 67.9899978638 202.2700042725 81.6999969482 204.4900054932 84.2600021362 190.9499969482 75.4599990845 189.5299987793" style="fill: #c69c6d;"/>
  <polygon points="173.1600036621 152.4600067139 176.8800048828 152.4600067139 176.8800048828 151.3600006104 183.3800048828 151.3600006104 183.3800048828 146.5500030518 173.1600036621 146.1100006104 173.1600036621 152.4600067139" style="fill: #c69c6d;"/>
  <polygon points="186.4299926758 172.0500030518 199.3800048828 169.4600067139 199.3800048828 152.1799926758 185.7100067139 147.9600067139 186.4299926758 172.0500030518" style="fill: #c69c6d;"/>
  <path d="m168.7799987793,115.6200027466l19.3399963379,1.9400024414.5899963379-8.3799972534-18.5899963379-2.3700027466.5099945068-3.5599975586-8.1399993896-.7300033569-1.8399963379,15.0800018311,7.5,1.7200012207.6300048828-3.7000045776Z" style="fill: #c69c6d;"/>
  <path d="m132.8699951172,94.0500030518l-1.8000030518,12,5,.8499984741.2799987793,1.2600021362h-.1799926758l-5.3099975586-.8399963379-1.4100036621,9.3300018311,9,1.4899978638-.1999969482,1.2300033569-9-1.4800033569-1.1399993896,7.5999984741,13.8800048828,2,.5500030518,1.3800048828h-.2100067139l-24.5299987793-3.6800003052-2.6300048828,16.8099899292c2.3899993896.2700042725,18.1499938965,2.0800018311,19,2.2700042725.5700073242.1199951172,6.6499938965-.1300048828,11.3699951172-.3600006104l.7299957275-3c.2686157227-1.0469207764.2409210205-2.1479034424-.0800018311-3.1799926758l-13.3199920654-43.6800079346Z" style="fill: #c69c6d;"/>
  <polygon points="40.8600006104 107.6200027466 31.6000003815 105.0699996948 30.3600006104 109.5100021362 39.5200004578 112.2399978638 40.8600006104 107.6200027466" style="fill: #c69c6d;"/>
  <polygon points="47.7400016785 155.9299926758 48.8300018311 151.8999938965 39.9099998474 149.1900024414 36.5699996948 159.3800048828 45.5800018311 162.3399963379 46.9300003052 158.6699981689 43.1500015259 157.5800018311 43.9500007629 154.8800048828 47.7400016785 155.9299926758" style="fill: #c69c6d;"/>
  <polygon points="66.2799987793 121.5299987793 66.1299972534 121.4800033569 62.4500007629 131.2700042725 62.3400001526 131.2299957275 53.1399993896 128.2599945068 50.3800010681 136.7700042725 60.4599990845 139.7200012207 66.2799987793 121.5299987793" style="fill: #c69c6d;"/>
  <polygon points="62.8800010681 167.9499969482 64.1900024414 164.3399963379 61.2599983215 163.4499969482 62.1300010681 160.5099945068 65.3700027466 161.4700012207 66.3700027466 157.4299926758 50.7700004578 153.2400054932 47.75 163.2299957275 51.6899986267 164.5099945068 53.7099990845 157.8600006104 55.6899986267 158.4400024414 53.75 165 62.8800010681 167.9499969482" style="fill: #c69c6d;"/>
  <rect x="76.4070867263" y="100.6564749551" width="2.69999701" height="1.6299972907" transform="translate(-32.6373067914 165.9362117776) rotate(-82.8199999221)" style="fill: #c69c6d;"/>
  <polygon points="74.6100006104 186.4799957275 77.3899993896 174.8699951172 64.9800033569 170.8800048828 61.9500007629 180.5599975586 74.6100006104 186.4799957275" style="fill: #c69c6d;"/>
  <polygon points="57.0699996948 181.5500030518 52.0400009155 188.2100067139 56.4900016785 191.9900054932 59.75 188.8099975586 63.8899993896 191.9900054932 61.1300010681 195.1000061035 64.3399963379 197.6900024414 71.5199966431 189.1799926758 57.0699996948 181.5500030518" style="fill: #c69c6d;"/>
  <path d="m73.1999969482,107.5699996948l-4.8600006104-2.1200027466.6600036621-1.6399993896c.2649841309-.655380249-.0514907837-1.4014892578-.7068786621-1.6664733887-.0305938721-.0123672485-.0616607666-.0235519409-.0931243896-.0335235596l-8.7900009155-2.7399978638c-.4053497314-.1285934448-.8381996155.0957641602-.9667892456.5011138916-.0306091309.0964813232-.0418930054.1980438232-.0332107544.2988891602l.8100013733,9.1599960327,4.780002594,1.25v4.0800018311l1.3399963379.3899993896.1999969482-6h1.2399978638v.1299972534l-.1999969482,6.1500015259,3.7600021362,1.0999984741,3.4899978638-7.3199996948c.2377548218-.5992202759-.0404281616-1.2792282104-.6299972534-1.5400009155Z" style="fill: #c69c6d;"/>
  <polygon points="62.2999992371 169.9600067139 47.3899993896 165.0200042725 44.9700012207 172.6300048828 59.6500015259 179.2799987793 62.2999992371 169.9600067139" style="fill: #c69c6d;"/>
  <polygon points="40.2700004578 166.25 39.0400009155 165.9400024414 39.8699989319 162.8200073242 35.4799995422 161.4900054932 34.0600013733 167.3800048828 42.3800010681 171.3300018311 44.4599990845 164.1799926758 41.1899986267 163.1600036621 40.2700004578 166.25" style="fill: #c69c6d;"/>
  <polygon points="15.3000001907 106.3199996948 15.6599998474 105.1200027466 15.779999733 105.1600036621 19.3899993896 106.2399978638 21.1499996185 101.5500030518 14.9300003052 100.2099990845 12.779999733 105.0699996948 7.3800001144 103.7699966431 4.7899999619 112.8399963379 20.4899997711 117.4000015259 19.1499996185 120.7300033569 9.8900003433 118.1399993896 7.2300000191 125.1800003052 14.9099998474 127.3099975586 15.1499996185 126.4800033569 15.2700004578 126.5199966431 29.3600006104 130.6300048828 35.6100006104 112.3799972534 15.3000001907 106.3199996948" style="fill: #c69c6d;"/>
  <path d="m45.4599990845,127.3899993896l6,2.1100006104.9099998474-2.8099975586h.1199989319l1.9199981689.6200027466,2.4399986267-8.6500015259-9.9399986267-3-2.5900001526,9.3899993896c-.314289093.9598693848.1904258728,1.9958572388,1.1400032043,2.3399963379Z" style="fill: #c69c6d;"/>
  <rect x="75.6005141628" y="106.5926355058" width="2.69999701" height="1.6299972907" transform="translate(-39.2326798355 170.3301822043) rotate(-82.8199999221)" style="fill: #c69c6d;"/>
  <path d="m117.3600006104,84.5l-1-.8099975586-21.6699981689-1.3400039673c-.356803894.0215759277-.6471786499.2951202393-.6900024414.6500015259l-2.6200027466,14.8399963379c-.0416030884.2436294556.0199813843.4935836792.1699981689.6900024414.1541824341.1885375977.3775024414.3074035645.6200027466.3300018311l20,1.4899978638c.7818450928.0627822876,2.292964794.4648163407,2.6622664217-1.590930174,1.1607726448-6.461532092,1.7430724873-9.9750434221,1.7777360197-10.2090652483.0399932861-.2700042725.2699966431-1.5500030518.75-4.0500030518Zm-5.2099990845,15.6600036621l-20-1.5c-.1885910034-.0181350708-.3617858887-.111946106-.4800033569-.2600021362-.1161117554-.1465682983-.1634750366-.3360366821-.1299972534-.5199966431l2.5999984741-14.8800048828c.0482711792-.2659835815.2796707153-.4595184326.5500030518-.4599990845l21.5999984741,1.3399963379.8600006104.6900024414c-.4800033569,2.3899993896-.8722237481,4.7633336385-2.5245794364,14.1547878927-.3059637435,1.7389987643-1.6522622994,1.491246348-2.4754205636,1.4352160745Z" style="fill: #c69c6d;"/>
  <path d="m109.8300018311,111c.3305969238-.0213165283.5860290527-.2987670898.5800018311-.6299972534,0-.1500015259-.2200012207-.6299972534-.5999984741-.6299972534-.199180603.0159988403-.3865814209.1008529663-.5299987793.2399978638-.3770980835.3261489868-.8064346313.5864562988-1.2699966431.7699966431l1.7200012207.2399978638.0999908447.0100021362Zm-.4199981689-.8700027466c.1100616455-.1037826538.2500152588-.1702651978.4000015259-.1900024414.2399978638,0,.4000015259.3399963379.4000015259.4400024414s-.0899963379.4199981689-.3799972534.4199981689h-.0699996948l-1.0699996948-.1500015259c.2566986084-.160369873.497756958-.3445053101.7199935913-.5499954224v.0299987793Z" style="fill: #c69c6d;"/>
  <path d="m94.6299972534,79.3199996948c-.0055236816-.6461486816-.5338058472-1.1654815674-1.1799545288-1.1599578857-.646156311.0055236816-1.1654815674.5338058472-1.1599578857,1.1799621582.0054855347.6422271729.5276565552,1.1599731445,1.1699142456,1.1599960327.6461715698.0000228882,1.1700210571-.5237884521,1.1700439453-1.169960022,0-.0033493042-.0000152588-.006690979-.0000457764-.0100402832Zm-1.1699981689,1c-.5522842407,0-1-.4477157593-1-1s.4477157593-1,1-1,1,.4477157593,1,1c-.010887146.5444564819-.4554290771.9801101685-1,.9800033569v.0199966431Z" style="fill: #c69c6d;"/>
  <path d="m89,99.3700027466c.114151001.0124740601.2185745239.0700836182.2900009155.1600036621.0684280396.0953826904.0938110352.2150497437.0699996948.3300018311l-1.2099990845,7c-.108001709.5789031982.0296630859,1.176651001.3799972534,1.6500015259.3465270996.4782104492.8745040894.7928237915,1.4599990845.8700027466l16.7699966431,2.3199996948h.3899993896l2.4100036621.3300018311h.2600021362c.935874939-.0270614624,1.6803894043-.7937393188,1.6800003052-1.7300033569-.0438537598-.9252548218-.7756576538-1.6699676514-1.6999969482-1.7300033569-.4549484253.0131912231-.8906021118.1867446899-1.2300033569.4899978638-.4865264893.4485473633-1.1101531982.7198410034-1.7699966431.7699966431l-16.4499969482-2.2799987793c-.1299667358-.011505127-.2476806641-.0813980103-.3199996948-.1900024414-.0554885864-.1118011475-.0662155151-.2405548096-.0300064087-.3600006104l1-5.8700027466c.073059082-.4174194336.4362411499-.7214736938.8600006104-.7200012207h.0699996948l20.0699996948,1.5900039673c.2510986328.0179443359.4764480591.16065979.5999984741.3799972534l1,1.8099975586-.0699996948.3499984741-.1500015259.8899993896h0c-.2900009155,1.6999969482-2,11.3000030518-3.3000030518,18.7799987793l-1.5400009155,8.7100067139h0c.059463501-.0113525391.1205368042-.0113525391.1800003052,0l4.8099975586-27.3000030518h0v-.1999969482l.2399978638-1.3199996948-1.0699996948-1.8700027466c-.1651306152-.27394104-.4513320923-.4523544312-.7699966431-.4800033569l-20.1299972534-1.5100021362c-.5490264893-.0299453735-1.0358428955.3501052856-1.1399993896.8899993896l-1,5.8600006104c-.0325622559.1870651245.0145645142.379234314.1299972534.5299987793.1076431274.1516647339.275100708.2499542236.4599990845.2699966431l16.4899978638,2.2799987793c.7023391724-.0489196777,1.3663253784-.3385314941,1.8799972534-.8199996948.3029937744-.2723007202.6927947998-.4282302856,1.0999984741-.4400024414.8180847168.0505065918,1.4656982422.7110748291,1.5,1.5299987793.0004425049.8258514404-.6545944214,1.5030136108-1.4800033569,1.5299987793h-.2300033569l-2.5999984741-.3499984741h-.2099990845l-16.6999816895-2.3599777222c-1.0924453735-.1632080078-1.8457336426-1.1811218262-1.6825256348-2.2735671997.0008163452-.0054779053.001663208-.0109558105.0025253296-.0164337158l1.2200012207-7c.0299758911-.168296814-.009727478-.3415527344-.1100006104-.4800033569-.1015014648-.1388473511-.2585372925-.2265014648-.4300003052-.2399978638l-40.9099998474-4.4199981689.1500015259-1.3899993896,41.0699958801,4.4499969482c.3463745117.0313262939.6591262817-.2075881958.7200012207-.5500030518l2.2900009155-13.1200027466c-1.8778305054.5121917725-3.8136672974.7810592651-5.7600021362.8000030518-1.07396698-.0817642212-2.1012496948.4531936646-2.6500015259,1.3799972534-.5440139771.9223251343-1.529296875,1.4945526123-2.5999984741,1.5100021362h-.4599990845c-2.1699981689-.2399978638-5.0900039673-.6600036621-6.4000015259-.8600006104-.1948013306.4908905029-.5921707153.8736801147-1.0899963379,1.0500030518-.1548309326.051612854-.3168029785.0786056519-.4800033569.0800018311-.3591842651-.0143203735-.70652771-.1324157715-1-.3399963379-1.4419784546-1.0497283936-3.116065979-1.7358322144-4.8799972534-2,.03931427.0592727661.0601959229.128868103.0599975586.1999969482,1.7018890381.2886505127,3.311958313.9737930298,4.6999969482,2,.33984375.2312164307.7390899658.3596725464,1.1500015259.3700027466.1870193481.0002822876.3728256226-.0301208496.5500030518-.0899963379.500289917-.1684951782.9136657715-.527961731,1.1500015259-1,1.3700027466.2099990845,4.1500015259.6100006104,6.25.8399963379h.4800033569c1.1355361938-.0079879761,2.1834564209-.6116790771,2.7600021362-1.5899963379.5079574585-.8792419434,1.4782104492-1.3858032227,2.4899978638-1.3000030518,1.8597488403-.015083313,3.7104873657-.2602844238,5.5100021362-.7300033569l-2.2600097656,12.7599945068c-.0387191772.2242050171-.2324829102.3884811401-.4599990845.3899993896h0l-40.9199981689-4.4299926758h-.4000015259v.4000015259l-.1100006104,1v.4000015259h.4000015259l40.6500015259,4.4099960327Z" style="fill: #c69c6d;"/>
  <path d="m81.3099975586,86.4100036621c.75,0,1-.3600006104,1.4899978638-1,.8118286133-1.2762451172,2.249786377-2.0143432617,3.7600021362-1.9300003052,2.0344009399-.0278625488,4.0545501709-.3443527222,6-.9400024414l.1399993896-.8000030518h0c-.9059753418.6887817383-2.0227127075,1.042175293-3.1600036621,1h-.2600021362c-2.2099990845-.0800018311-4.9099960327-.3099975586-5.2099990845-.3399963379h-.1999969482v-.2099990845l.1300048828-1.1900024414h.1900024414c.3099975586,0,3,.2600021362,5.1500015259.3399963379h.2200012207c.4081954956.0037918091.8150863647-.0466461182,1.2099990845-.1500015259.1658630371-.0443115234.3022384644-.1622543335.3700027466-.3199996948.0703125-.1487808228.0703125-.3212203979,0-.4700012207-.6019973755-1.2914810181-.0430603027-2.8264465332,1.2484207153-3.4284439087.3387756348-.157913208.7078170776-.2403335571,1.0815811157-.2415542603.2329025269.0003356934.464805603.0305786133.6900024414.0899963379,1.3692703247.3737716675,2.17628479,1.7867965698,1.8025054932,3.1560668945-.1034698486.3790664673-.2924880981.7293548584-.5525131226,1.02394104l18.3199996948,1.1299972534c0-.1600036621.1900024414-.6900024414.1900024414-.6900024414h0c-.0103149414-.0662689209-.0103149414-.1337280273,0-.1999969482l-.1900024414-.0599975586-.0999984741.4000015259-.0899963379.3300018311-17.8000030518-1.0999984741c.8272171021-1.2803192139.4598922729-2.9888153076-.8204269409-3.8160324097-.2373962402-.1533813477-.4969482422-.2693862915-.769569397-.343963623-.2406845093-.0682220459-.4898376465-.1018981934-.7399978638-.0999984741-1.5298233032,0-2.7699966431,1.2401733398-2.7699966431,2.7699966431.031288147.4182662964.1541824341.8245239258.3599853516,1.189994812.0465011597.0945968628.0465011597.205406189,0,.3000030518-.0496749878.1023712158-.1405944824.1787414551-.25.2099990845-.3724822998.0950622559-.7555847168.1421051025-1.1399993896.1399993896h-.2200012207c-2.1800003052-.0800018311-4.8399963379-.3199996948-5.1299972534-.3399963379h-.4000015259v.4000015259l-.0899963379,1v.4000015259h.4000015259c.3099975586,0,3,.2600021362,5.2300033569.3399963379h.2699966431c.3993148804.0023727417.7978897095-.0344696045,1.1900024414-.1100006104-1.3694610596.3037185669-2.767288208.461265564-4.1699981689.4700012207-1.5693588257-.0906448364-3.0650558472.6744155884-3.9100036621,2-.4899978638.6299972534-.7200012207.8899993896-1.3399963379.8899993896-.0964431763.0092391968-.1935577393.0092391968-.2900009155,0-2-.2099990845-4.5500030518-.5899963379-6-.8000030518-.0227279663.0704421997-.0602264404.1352157593-.1100006104.1900024414,1.4000015259.2099990845,4.0699996948.5899963379,6.0599975586.8099975586.0699310303.0042800903.1400604248.0042800903.2099914551,0Z" style="fill: #c69c6d;"/>
  <path d="m107.8499984741,113.6999969482l-.5100021362-1.3399963379-2.3399963379-.0999984741-2.9000015259.8300018311-.1900024414,1-3,.6800003052c-.2108535767.0501556396-.4021987915.1614761353-.5500030518.3199996948l-1,1.1100006104-2.2300033569.4400024414-.4100036621-1.3199996948-2,.6100006104-.2900009155.7099990845.7799987793,2.7099990845-.5500030518.2399978638,1.0800018311,3,1.5600204468-.5900039673,1.7799987793,4.3300018311c.1065750122.2665176392.3462371826.4567337036.6299972534.5l2,.3000030518c.3361663818.0529327393.678817749-.0418395996.9400024414-.2600021362l2.3300018311-1.9300003052c.2617034912-.212059021.3443374634-.5756530762.1999969482-.8799972534l-2.3099975586-5c-.1340789795-.2787094116-.0168304443-.6133346558.2618713379-.7474136353.009262085-.004447937.0186386108-.0086517334.0281295776-.012588501.8206100464-.2705307007,1.5934295654-.6687545776,2.2900009155-1.1800003052.2752609253-.4602584839.3977813721-.99584198.3499984741-1.5299987793.0150222778-.2353363037.1810073853-.4337081909.4100036621-.4899978638l3.4000015259-.8799972534c.2014083862-.0589904785.3168563843-.2700881958.2578659058-.4714889526-.0048522949-.0165634155-.0108184814-.0327758789-.0178756714-.0485229492Z" style="fill: #c69c6d;"/>
  <path d="m90.3700027466,107.5100021362l3.1399993896.4199981689,1.1200027466-7.1900024414-2.75-.2099990845c-.4088516235-.0313415527-.7737197876.2553405762-.8399963379.6600036621l-1,5.8600006104c-.0406570435.211517334.0978546143.4159469604.3093719482.4566040039.0068435669.0013198853.0137176514.0024490356.0206222534.0033950806Z" style="fill: #c69c6d;"/>
  <polygon points="106.25 101.6100006104 106.0199966431 105.4599990845 94.1399993896 104.5800018311 94.7200012207 100.7699966431 106.25 101.6100006104" style="fill: #c69c6d;"/>
  <path d="m104.4899978638,107.2600021362l.1600036621-1.4100036621-10.4400024414-.8499984741h-.0699996948l-.2900009155,2h.0800018311c.17603302.0292358398.3564071655-.0140533447.5-.1200027466.1718215942-.1720504761.2657699585-.4069137573.2600021362-.6500015259,0-.1100006104.0599975586-.1299972534.1399993896-.1699981689l.1699981689-.0599975586,2,.2900009155-.0699996948.4499969482h.1399993896l.0800018311-.4599990845,3.2099990845.4700012207-.0999984741.4899978638h.1500015259l.0999984741-.5,2.1500015259.3099975586-.1100006104.5199966431h.1500015259l.0999984741-.5299987793,2.7600021362.4000015259v-.1500015259l-1.0700073242-.0299911499Zm-10.0599975586-.5899963379c-.0155639648.1122207642-.1173324585.1918640137-.2300033569.1800003052-.1095733643-.0200424194-.186882019-.1188201904-.1800003052-.2300033569v-.25c.0155639648-.1122207642.1173324585-.1918640137.2300033569-.1800003052.109413147.0151596069.1858215332.1161346436.1706695557.2255477905-.0002059937.0014877319-.0004348755.0029754639-.0006713867.0044555664l.0100021362.25Zm9-.7699966431l-.2900009155.3000030518-.1500015259-.3399963379.4400024414.0399932861Zm-2.2799987793-.1999969482l-.3099975586.2799987793-.1999969482-.3199996948.5099945068.0400009155Zm-3.7399978638-.3199996948l-.2300033569.2300033569-.1200027466-.2600021362.3500061035.0299987793Zm-.4000015259.8099975586l-1.9199981689-.3000030518c.0347442627-.0613250732.0552444458-.1296768188.0599975586-.1999969482,0-.1999969482.0599975586-.3899993896.0699996948-.4800033569l1.6699981689.1299972534.1900024414.4100036621-.0699996948.4400024414Zm3.6500015259.5100021362l-3.5-.4899978638.0699996948-.4400024414.3700027466-.3700027466,2.8499984741.25.3000030518.4599990845-.0900039673.5900039673Zm2.3000030518.3300018311l-2.1500015259-.3099975586.0899963379-.5899963379.4599990845-.4100036621,1.4700012207.1299972534.2099990845.5-.0799942017.6800003052Zm1.4000015259.1999969482l-1.2600021362-.1800003052.0899963379-.6800003052.4400024414-.4599990845.8700027466.0800018311-.1399993896,1.2399978638Z" style="fill: #c69c6d;"/>
  <circle cx="97.6900024414" cy="105.7699966431" r=".2300033569" style="fill: #c69c6d;"/>
  <circle cx="103.6100006104" cy="106.2699966431" r=".1999969482" style="fill: #c69c6d;"/>
</svg>