<?xml version="1.0" encoding="UTF-8"?>
<svg id="arboles_relleno_posicion" xmlns="http://www.w3.org/2000/svg" width="210" height="210" viewBox="0 0 210 210">
  <circle cx="108.7900009155" cy="148.0700073242" r=".2100028992" style="fill: #0555ff;"/>
  <circle cx="109.9899978638" cy="147.8200073242" r=".2100028992" style="fill: #0555ff;"/>
  <circle cx="109.1299972534" cy="147.25" r=".2100028992" style="fill: #0555ff;"/>
  <circle cx="110.0999984741" cy="146.9600067139" r=".2100028992" style="fill: #0555ff;"/>
  <circle cx="108.9800033569" cy="146.3200073242" r=".2100028992" style="fill: #0555ff;"/>
  <circle cx="109.0299987793" cy="145.8600006104" r=".2100028992" style="fill: #0555ff;"/>
  <circle cx="109.75" cy="145.5200042725" r=".2100028992" style="fill: #0555ff;"/>
  <circle cx="109.1600036621" cy="145" r=".2100028992" style="fill: #0555ff;"/>
  <circle cx="109.25" cy="144.5399932861" r=".2100028992" style="fill: #0555ff;"/>
  <circle cx="109.4599990845" cy="144.1199951172" r=".2100028992" style="fill: #0555ff;"/>
  <circle cx="109.9599990845" cy="143.7400054932" r=".2100028992" style="fill: #0555ff;"/>
  <circle cx="109.5800018311" cy="143.2400054932" r=".2100028992" style="fill: #0555ff;"/>
  <circle cx="110.4400024414" cy="142.9299926758" r=".2100028992" style="fill: #0555ff;"/>
  <circle cx="109.5800018311" cy="142.3500061035" r=".2100028992" style="fill: #0555ff;"/>
  <circle cx="110.6299972534" cy="142.0500030518" r=".2100028992" style="fill: #0555ff;"/>
  <circle cx="110.3399963379" cy="141.5899963379" r=".2100028992" style="fill: #0555ff;"/>
  <circle cx="110.5800018311" cy="141.1799926758" r=".2100028992" style="fill: #0555ff;"/>
  <circle cx="111.0400009155" cy="140.8200073242" r=".2100028992" style="fill: #0555ff;"/>
  <circle cx="110.3399963379" cy="140.2599945068" r=".2100028992" style="fill: #0555ff;"/>
  <circle cx="109.9100036621" cy="139.7599945068" r=".2100028992" style="fill: #0555ff;"/>
  <circle cx="110.6999969482" cy="139.4400024414" r=".2100028992" style="fill: #0555ff;"/>
  <circle cx="110.7300033569" cy="139.0099945068" r=".2100028992" style="fill: #0555ff;"/>
  <circle cx="110.9199981689" cy="138.5700073242" r=".2100028992" style="fill: #0555ff;"/>
  <circle cx="111.1100006104" cy="138.1399993896" r=".2100028992" style="fill: #0555ff;"/>
  <circle cx="111.4800033569" cy="137.7700042725" r=".2100028992" style="fill: #0555ff;"/>
  <circle cx="110.4800033569" cy="137.1900024414" r=".2100028992" style="fill: #0555ff;"/>
  <circle cx="111.0800018311" cy="136.8500061035" r=".2100028992" style="fill: #0555ff;"/>
  <circle cx="111.5100021362" cy="136.4799957275" r=".2100028992" style="fill: #0555ff;"/>
  <circle cx="111.3199996948" cy="136.0099945068" r=".2100028992" style="fill: #0555ff;"/>
  <circle cx="111.3499984741" cy="135.5899963379" r=".2100028992" style="fill: #0555ff;"/>
  <circle cx="110.9899978638" cy="135.1000061035" r=".2100028992" style="fill: #0555ff;"/>
  <circle cx="111.2699966431" cy="134.6799926758" r=".2100028992" style="fill: #0555ff;"/>
  <circle cx="112.0199966431" cy="134.3600006104" r=".2100028992" style="fill: #0555ff;"/>
  <circle cx="112.0599975586" cy="133.9299926758" r=".2100028992" style="fill: #0555ff;"/>
  <circle cx="111.3099975586" cy="133.3899993896" r=".2100028992" style="fill: #0555ff;"/>
  <circle cx="112.1699981689" cy="133.0800018311" r=".2100028992" style="fill: #0555ff;"/>
  <circle cx="112.25" cy="132.6499938965" r=".2100028992" style="fill: #0555ff;"/>
  <circle cx="112.3199996948" cy="132.2299957275" r=".2100028992" style="fill: #0555ff;"/>
  <circle cx="111.6699981689" cy="131.6900024414" r=".2100028992" style="fill: #0555ff;"/>
  <circle cx="111.9599990845" cy="131.2799987793" r=".2100028992" style="fill: #0555ff;"/>
  <circle cx="111.2300033569" cy="130.7200012207" r=".2100028992" style="fill: #0555ff;"/>
  <circle cx="111.2600021362" cy="130.2599945068" r=".2100028992" style="fill: #0555ff;"/>
  <circle cx="111.5" cy="129.8800048828" r=".2100028992" style="fill: #0555ff;"/>
  <circle cx="111.7900009155" cy="129.4700012207" r=".2100028992" style="fill: #0555ff;"/>
  <circle cx="112.3499984741" cy="129.1199951172" r=".2100028992" style="fill: #0555ff;"/>
  <circle cx="111.9400024414" cy="128.6199951172" r=".2100028992" style="fill: #0555ff;"/>
  <circle cx="112.7699966431" cy="128.3000030518" r=".2100028992" style="fill: #0555ff;"/>
  <path d="m112.6900024414,127.6299972534c.1159820557,0,.2099990845.0940170288.2099990845.2099990845s-.0940170288.2100067139-.2099990845.2100067139-.2099990845-.0940246582-.2099990845-.2100067139.0940170288-.2099990845.2099990845-.2099990845Z" style="fill: #0555ff;"/>
  <circle cx="111.7699966431" cy="127.2600021362" r=".2099990845" style="fill: #0555ff;"/>
  <circle cx="111.8899993896" cy="126.8099975586" r=".2099990845" style="fill: #0555ff;"/>
  <circle cx="112.7900009155" cy="126.5199966431" r=".2099990845" style="fill: #0555ff;"/>
  <circle cx="112.0299987793" cy="125.9700012207" r=".2099990845" style="fill: #0555ff;"/>
  <circle cx="112.1399993896" cy="125.5699996948" r=".2099990845" style="fill: #0555ff;"/>
  <circle cx="112.1900024414" cy="125.0999984741" r=".2099990845" style="fill: #0555ff;"/>
  <circle cx="112.9899978638" cy="124.7600021362" r=".2099990845" style="fill: #0555ff;"/>
  <circle cx="112.9199981689" cy="124.2900009155" r=".2099990845" style="fill: #0555ff;"/>
  <circle cx="113.0400009155" cy="123.8799972534" r=".2099990845" style="fill: #0555ff;"/>
  <circle cx="112.9700012207" cy="123.4199981689" r=".2099990845" style="fill: #0555ff;"/>
  <circle cx="112.6999969482" cy="122.9199981689" r=".2099990845" style="fill: #0555ff;"/>
  <circle cx="113.1500015259" cy="122.5699996948" r=".2099990845" style="fill: #0555ff;"/>
  <circle cx="112.9000015259" cy="122.0400009155" r=".2099990845" style="fill: #0555ff;"/>
  <circle cx="112.9800033569" cy="121.5800018311" r=".2099990845" style="fill: #0555ff;"/>
  <circle cx="113.25" cy="121.1800003052" r=".2099990845" style="fill: #0555ff;"/>
  <circle cx="114.3700027466" cy="120.9700012207" r=".2099990845" style="fill: #0555ff;"/>
  <circle cx="114.4499969482" cy="120.5599975586" r=".2099990845" style="fill: #0555ff;"/>
  <circle cx="114.5500030518" cy="120.1200027466" r=".2099990845" style="fill: #0555ff;"/>
  <circle cx="114.3799972534" cy="119.6399993896" r=".2099990845" style="fill: #0555ff;"/>
  <circle cx="113.7799987793" cy="119.0500030518" r=".2099990845" style="fill: #0555ff;"/>
  <circle cx="114.0800018311" cy="118.6500015259" r=".2099990845" style="fill: #0555ff;"/>
  <circle cx="114.6399993896" cy="118.3199996948" r=".2099990845" style="fill: #0555ff;"/>
  <circle cx="113.7099990845" cy="117.6399993896" r=".2099990845" style="fill: #0555ff;"/>
  <circle cx="114.6200027466" cy="117.4000015259" r=".2099990845" style="fill: #0555ff;"/>
  <circle cx="114.2900009155" cy="116.8899993896" r=".2099990845" style="fill: #0555ff;"/>
  <circle cx="113.9800033569" cy="116.3700027466" r=".2099990845" style="fill: #0555ff;"/>
  <circle cx="115.1399993896" cy="116.1600036621" r=".2099990845" style="fill: #0555ff;"/>
  <circle cx="115.5100021362" cy="115.7900009155" r=".2099990845" style="fill: #0555ff;"/>
  <circle cx="114.4300003052" cy="115.0800018311" r=".2099990845" style="fill: #0555ff;"/>
  <circle cx="114.9499969482" cy="114.7300033569" r=".2099990845" style="fill: #0555ff;"/>
  <circle cx="115.2300033569" cy="114.3700027466" r=".2099990845" style="fill: #0555ff;"/>
  <circle cx="115.2300033569" cy="113.9100036621" r=".2099990845" style="fill: #0555ff;"/>
  <circle cx="116.0400009155" cy="113.6600036621" r=".2099990845" style="fill: #0555ff;"/>
  <circle cx="115.0699996948" cy="113" r=".2099990845" style="fill: #0555ff;"/>
  <circle cx="115.4700012207" cy="112.6500015259" r=".2099990845" style="fill: #0555ff;"/>
  <circle cx="116.1100006104" cy="112.3300018311" r=".2099990845" style="fill: #0555ff;"/>
  <circle cx="115.6999969482" cy="111.8099975586" r=".2099990845" style="fill: #0555ff;"/>
  <circle cx="116.1999969482" cy="111.4899978638" r=".2099990845" style="fill: #0555ff;"/>
  <circle cx="116.4300003052" cy="111.0699996948" r=".2099990845" style="fill: #0555ff;"/>
  <circle cx="116.4100036621" cy="110.6100006104" r=".2099990845" style="fill: #0555ff;"/>
  <circle cx="116.8000030518" cy="110.2300033569" r=".2099990845" style="fill: #0555ff;"/>
  <circle cx="115.8499984741" cy="109.5800018311" r=".2099990845" style="fill: #0555ff;"/>
  <circle cx="116.0299987793" cy="109.1600036621" r=".2099990845" style="fill: #0555ff;"/>
  <circle cx="116.4100036621" cy="108.8000030518" r=".2099990845" style="fill: #0555ff;"/>
  <circle cx="116.9899978638" cy="108.5100021362" r=".2099990845" style="fill: #0555ff;"/>
  <circle cx="116.5" cy="107.9599990845" r=".2099990845" style="fill: #0555ff;"/>
  <circle cx="116.0999984741" cy="107.3899993896" r=".2099990845" style="fill: #0555ff;"/>
  <circle cx="117.1999969482" cy="107.2099990845" r=".2099990845" style="fill: #0555ff;"/>
  <circle cx="116.5699996948" cy="106.6200027466" r=".2099990845" style="fill: #0555ff;"/>
  <circle cx="117.0299987793" cy="106.2900009155" r=".2099990845" style="fill: #0555ff;"/>
  <circle cx="117.2099990845" cy="105.8600006104" r=".2099990845" style="fill: #0555ff;"/>
  <circle cx="110.5400009155" cy="149.6199951172" r=".2100028992" style="fill: #0555ff;"/>
  <circle cx="110.3799972534" cy="149.1600036621" r=".2100028992" style="fill: #0555ff;"/>
  <circle cx="110.2799987793" cy="148.6900024414" r=".2100028992" style="fill: #0555ff;"/>
  <circle cx="111.1800003052" cy="148.4199981689" r=".2100028992" style="fill: #0555ff;"/>
  <circle cx="111.7900009155" cy="148.0599975586" r=".2100028992" style="fill: #0555ff;"/>
  <circle cx="110.7799987793" cy="147.4199981689" r=".2100028992" style="fill: #0555ff;"/>
  <circle cx="110.6200027466" cy="146.9400024414" r=".2100028992" style="fill: #0555ff;"/>
  <circle cx="110.75" cy="146.5" r=".2100028992" style="fill: #0555ff;"/>
  <circle cx="111.6900024414" cy="146.2299957275" r=".2100028992" style="fill: #0555ff;"/>
  <circle cx="111.0100021362" cy="145.6699981689" r=".2100028992" style="fill: #0555ff;"/>
  <circle cx="111.1800003052" cy="145.2700042725" r=".2100028992" style="fill: #0555ff;"/>
  <circle cx="111.1999969482" cy="144.8399963379" r=".2100028992" style="fill: #0555ff;"/>
  <circle cx="111.8499984741" cy="144.4900054932" r=".2100028992" style="fill: #0555ff;"/>
  <circle cx="112.2699966431" cy="144.1199951172" r=".2100028992" style="fill: #0555ff;"/>
  <circle cx="112.0800018311" cy="143.6499938965" r=".2100028992" style="fill: #0555ff;"/>
  <circle cx="111.3199996948" cy="143.0800018311" r=".2100028992" style="fill: #0555ff;"/>
  <circle cx="112.2699966431" cy="142.7899932861" r=".2100028992" style="fill: #0555ff;"/>
  <circle cx="112.4599990845" cy="142.3600006104" r=".2100028992" style="fill: #0555ff;"/>
  <circle cx="111.9899978638" cy="141.8399963379" r=".2100028992" style="fill: #0555ff;"/>
  <circle cx="112.3899993896" cy="141.4700012207" r=".2100028992" style="fill: #0555ff;"/>
  <circle cx="112.1699981689" cy="140.9700012207" r=".2100028992" style="fill: #0555ff;"/>
  <circle cx="112.7200012207" cy="140.6000061035" r=".2100028992" style="fill: #0555ff;"/>
  <circle cx="112.2600021362" cy="140.0700073242" r=".2100028992" style="fill: #0555ff;"/>
  <circle cx="112.6399993896" cy="139.7100067139" r=".2100028992" style="fill: #0555ff;"/>
  <circle cx="112.1200027466" cy="139.1499938965" r=".2100028992" style="fill: #0555ff;"/>
  <circle cx="112.9700012207" cy="138.8300018311" r=".2100028992" style="fill: #0555ff;"/>
  <circle cx="113.3700027466" cy="138.4299926758" r=".2100028992" style="fill: #0555ff;"/>
  <circle cx="112.2900009155" cy="137.7899932861" r=".2100028992" style="fill: #0555ff;"/>
  <circle cx="113.6299972534" cy="137.6000061035" r=".2100028992" style="fill: #0555ff;"/>
  <circle cx="112.8000030518" cy="136.9900054932" r=".2100028992" style="fill: #0555ff;"/>
  <circle cx="112.6399993896" cy="136.4900054932" r=".2100028992" style="fill: #0555ff;"/>
  <circle cx="113.8300018311" cy="136.2599945068" r=".2100028992" style="fill: #0555ff;"/>
  <circle cx="113.3700027466" cy="135.7299957275" r=".2100028992" style="fill: #0555ff;"/>
  <circle cx="113.4800033569" cy="135.3200073242" r=".2100028992" style="fill: #0555ff;"/>
  <circle cx="113.7600021362" cy="134.9299926758" r=".2100028992" style="fill: #0555ff;"/>
  <circle cx="113.8099975586" cy="134.4799957275" r=".2100028992" style="fill: #0555ff;"/>
  <circle cx="113.0299987793" cy="133.8999938965" r=".2100028992" style="fill: #0555ff;"/>
  <circle cx="114.25" cy="133.6499938965" r=".2100028992" style="fill: #0555ff;"/>
  <circle cx="113.25" cy="133.0299987793" r=".2100028992" style="fill: #0555ff;"/>
  <circle cx="114.3399963379" cy="132.7700042725" r=".2100028992" style="fill: #0555ff;"/>
  <circle cx="114.3300018311" cy="132.3300018311" r=".2100028992" style="fill: #0555ff;"/>
  <circle cx="114.6200027466" cy="131.9199981689" r=".2100028992" style="fill: #0555ff;"/>
  <circle cx="114.4800033569" cy="131.4400024414" r=".2100028992" style="fill: #0555ff;"/>
  <circle cx="113.7799987793" cy="130.8899993896" r=".2100028992" style="fill: #0555ff;"/>
  <circle cx="114.3899993896" cy="130.5599975586" r=".2100028992" style="fill: #0555ff;"/>
  <circle cx="114.5" cy="130.1100006104" r=".2100028992" style="fill: #0555ff;"/>
  <circle cx="114.5500030518" cy="129.6600036621" r=".2100028992" style="fill: #0555ff;"/>
  <circle cx="115.0299987793" cy="129.3000030518" r=".2100028992" style="fill: #0555ff;"/>
  <circle cx="115.1699981689" cy="128.8800048828" r=".2100028992" style="fill: #0555ff;"/>
  <circle cx="114.2399978638" cy="128.25" r=".2100028992" style="fill: #0555ff;"/>
  <circle cx="114.1800003052" cy="127.7699966431" r=".2099990845" style="fill: #0555ff;"/>
  <circle cx="114.3700027466" cy="127.3799972534" r=".2099990845" style="fill: #0555ff;"/>
  <circle cx="115.3700027466" cy="127.0899963379" r=".2099990845" style="fill: #0555ff;"/>
  <circle cx="114.5100021362" cy="126.4899978638" r=".2099990845" style="fill: #0555ff;"/>
  <circle cx="115.1999969482" cy="126.1699981689" r=".2099990845" style="fill: #0555ff;"/>
  <circle cx="115.2300033569" cy="125.6999969482" r=".2099990845" style="fill: #0555ff;"/>
  <circle cx="115.0599975586" cy="125.2099990845" r=".2099990845" style="fill: #0555ff;"/>
  <circle cx="114.5299987793" cy="124.6699981689" r=".2099990845" style="fill: #0555ff;"/>
  <circle cx="115.2399978638" cy="124.3300018311" r=".2099990845" style="fill: #0555ff;"/>
  <circle cx="114.9199981689" cy="123.8099975586" r=".2099990845" style="fill: #0555ff;"/>
  <circle cx="116.0599975586" cy="123.5599975586" r=".2099990845" style="fill: #0555ff;"/>
  <circle cx="115.1299972534" cy="122.9700012207" r=".2099990845" style="fill: #0555ff;"/>
  <circle cx="115.5699996948" cy="122.5899963379" r=".2099990845" style="fill: #0555ff;"/>
  <circle cx="115.8499984741" cy="122.1800003052" r=".2099990845" style="fill: #0555ff;"/>
  <circle cx="115.7399978638" cy="121.6999969482" r=".2099990845" style="fill: #0555ff;"/>
  <circle cx="115.7600021362" cy="121.2699966431" r=".2099990845" style="fill: #0555ff;"/>
  <circle cx="115.8000030518" cy="120.8399963379" r=".2099990845" style="fill: #0555ff;"/>
  <circle cx="116.0299987793" cy="120.4400024414" r=".2099990845" style="fill: #0555ff;"/>
  <circle cx="116.4700012207" cy="120.0599975586" r=".2099990845" style="fill: #0555ff;"/>
  <circle cx="116.6399993896" cy="119.6299972534" r=".2099990845" style="fill: #0555ff;"/>
  <circle cx="116.2399978638" cy="119.0899963379" r=".2099990845" style="fill: #0555ff;"/>
  <circle cx="116.2300033569" cy="118.6299972534" r=".2099990845" style="fill: #0555ff;"/>
  <circle cx="116.5699996948" cy="118.2200012207" r=".2099990845" style="fill: #0555ff;"/>
  <circle cx="115.8000030518" cy="117.6299972534" r=".2099990845" style="fill: #0555ff;"/>
  <circle cx="116.8300018311" cy="117.3799972534" r=".2099990845" style="fill: #0555ff;"/>
  <circle cx="116.5999984741" cy="116.8700027466" r=".2099990845" style="fill: #0555ff;"/>
  <circle cx="116.8000030518" cy="116.4700012207" r=".2099990845" style="fill: #0555ff;"/>
  <circle cx="116.5400009155" cy="115.9800033569" r=".2099990845" style="fill: #0555ff;"/>
  <circle cx="117.1999969482" cy="115.6299972534" r=".2099990845" style="fill: #0555ff;"/>
  <circle cx="116.9700012207" cy="115.1200027466" r=".2099990845" style="fill: #0555ff;"/>
  <circle cx="116.3799972534" cy="114.5899963379" r=".2099990845" style="fill: #0555ff;"/>
  <circle cx="117.2900009155" cy="114.3000030518" r=".2099990845" style="fill: #0555ff;"/>
  <circle cx="116.9499969482" cy="113.8000030518" r=".2099990845" style="fill: #0555ff;"/>
  <circle cx="117.9700012207" cy="113.5400009155" r=".2099990845" style="fill: #0555ff;"/>
  <circle cx="117.4800033569" cy="113.0299987793" r=".2099990845" style="fill: #0555ff;"/>
  <circle cx="117.8000030518" cy="112.6200027466" r=".2099990845" style="fill: #0555ff;"/>
  <circle cx="117.6399993896" cy="112.1500015259" r=".2099990845" style="fill: #0555ff;"/>
  <circle cx="118.1100006104" cy="111.7900009155" r=".2099990845" style="fill: #0555ff;"/>
  <circle cx="118.0400009155" cy="111.3099975586" r=".2099990845" style="fill: #0555ff;"/>
  <circle cx="117.8000030518" cy="110.8399963379" r=".2099990845" style="fill: #0555ff;"/>
  <circle cx="118.3600006104" cy="110.4700012207" r=".2099990845" style="fill: #0555ff;"/>
  <circle cx="117.8000030518" cy="109.9300003052" r=".2099990845" style="fill: #0555ff;"/>
  <circle cx="118.6299972534" cy="109.6399993896" r=".2099990845" style="fill: #0555ff;"/>
  <circle cx="118.2900009155" cy="109.1500015259" r=".2099990845" style="fill: #0555ff;"/>
  <circle cx="117.9800033569" cy="108.6299972534" r=".2099990845" style="fill: #0555ff;"/>
  <circle cx="123.4100036621" cy="69.8199996948" r=".0999984741" style="fill: #0555ff;"/>
  <circle cx="122.3499984741" cy="69.8899993896" r=".0999984741" style="fill: #0555ff;"/>
  <circle cx="123.0500030518" cy="70.2799987793" r=".0999984741" style="fill: #0555ff;"/>
  <circle cx="122.6200027466" cy="70.4599990845" r=".0999984741" style="fill: #0555ff;"/>
  <circle cx="123.2300033569" cy="70.8199996948" r=".0999984741" style="fill: #0555ff;"/>
  <circle cx="123.0999984741" cy="71.0199966431" r=".0999984741" style="fill: #0555ff;"/>
  <circle cx="123.5599975586" cy="71.3700027466" r=".0999984741" style="fill: #0555ff;"/>
  <circle cx="123.0299987793" cy="71.4700012207" r=".0999984741" style="fill: #0555ff;"/>
  <circle cx="123.7099990845" cy="71.8300018311" r=".0999984741" style="fill: #0555ff;"/>
  <circle cx="122.6299972534" cy="71.8899993896" r=".0999984741" style="fill: #0555ff;"/>
  <circle cx="123.2399978638" cy="72.2099990845" r=".0999984741" style="fill: #0555ff;"/>
  <circle cx="122.9300003052" cy="72.4199981689" r=".0999984741" style="fill: #0555ff;"/>
  <circle cx="122.2399978638" cy="72.5" r=".0999984741" style="fill: #0555ff;"/>
  <circle cx="123.5299987793" cy="72.9599990845" r=".0999984741" style="fill: #0555ff;"/>
  <circle cx="122.1500015259" cy="72.9499969482" r=".0999984741" style="fill: #0555ff;"/>
  <circle cx="122.1500015259" cy="73.1600036621" r=".0999984741" style="fill: #0555ff;"/>
  <circle cx="121.6699981689" cy="73.3199996948" r=".0999984741" style="fill: #0555ff;"/>
  <circle cx="122.0899963379" cy="73.6100006104" r=".0999984741" style="fill: #0555ff;"/>
  <circle cx="122.0400009155" cy="73.8399963379" r=".0999984741" style="fill: #0555ff;"/>
  <circle cx="123.2900009155" cy="74.3300018311" r=".0999984741" style="fill: #0555ff;"/>
  <circle cx="121.5199966431" cy="74.2699966431" r=".0999984741" style="fill: #0555ff;"/>
  <circle cx="121.4300003052" cy="74.4899978638" r=".0999984741" style="fill: #0555ff;"/>
  <circle cx="121.75" cy="74.8000030518" r=".0999984741" style="fill: #0555ff;"/>
  <circle cx="122.5100021362" cy="75.1500015259" r=".0999984741" style="fill: #0555ff;"/>
  <circle cx="121.9899978638" cy="75.2699966431" r=".0999984741" style="fill: #0555ff;"/>
  <circle cx="122.8600006104" cy="75.6200027466" r=".0999984741" style="fill: #0555ff;"/>
  <circle cx="122.9100036621" cy="75.8600006104" r=".0999984741" style="fill: #0555ff;"/>
  <circle cx="121.3399963379" cy="75.7799987793" r=".0999984741" style="fill: #0555ff;"/>
  <circle cx="122.4400024414" cy="76.2200012207" r=".0999984741" style="fill: #0555ff;"/>
  <circle cx="121.2799987793" cy="76.2600021362" r=".0999984741" style="fill: #0555ff;"/>
  <circle cx="122.3499984741" cy="76.6999969482" r=".0999984741" style="fill: #0555ff;"/>
  <circle cx="121.2699966431" cy="76.6999969482" r=".0999984741" style="fill: #0555ff;"/>
  <circle cx="121.1299972534" cy="76.9000015259" r=".0999984741" style="fill: #0555ff;"/>
  <circle cx="121.5800018311" cy="77.1800003052" r=".0999984741" style="fill: #0555ff;"/>
  <circle cx="122.0500030518" cy="77.5400009155" r=".0999984741" style="fill: #0555ff;"/>
  <circle cx="122.3899993896" cy="77.8600006104" r=".0999984741" style="fill: #0555ff;"/>
  <circle cx="122.0800018311" cy="78" r=".0999984741" style="fill: #0555ff;"/>
  <circle cx="122.5100021362" cy="78.2900009155" r=".0999984741" style="fill: #0555ff;"/>
  <circle cx="120.9000015259" cy="78.2600021362" r=".0999984741" style="fill: #0555ff;"/>
  <circle cx="121.1999969482" cy="78.5899963379" r=".0999984741" style="fill: #0555ff;"/>
  <circle cx="121.7099990845" cy="78.9499969482" r=".0999984741" style="fill: #0555ff;"/>
  <circle cx="122.1999969482" cy="79.2699966431" r=".0999984741" style="fill: #0555ff;"/>
  <circle cx="120.8300018311" cy="79.2699966431" r=".0999984741" style="fill: #0555ff;"/>
  <circle cx="120.8799972534" cy="79.4800033569" r=".0999984741" style="fill: #0555ff;"/>
  <circle cx="121.0699996948" cy="79.75" r=".0999984741" style="fill: #0555ff;"/>
  <circle cx="121.0400009155" cy="80.0100021362" r=".0999984741" style="fill: #0555ff;"/>
  <circle cx="120.4800033569" cy="80.1600036621" r=".0999984741" style="fill: #0555ff;"/>
  <circle cx="121.5800018311" cy="80.5800018311" r=".0999984741" style="fill: #0555ff;"/>
  <circle cx="121.1699981689" cy="80.7600021362" r=".0999984741" style="fill: #0555ff;"/>
  <circle cx="121.9800033569" cy="81.1299972534" r=".0999984741" style="fill: #0555ff;"/>
  <circle cx="121.9000015259" cy="81.3099975586" r=".0999984741" style="fill: #0555ff;"/>
  <circle cx="120.6600036621" cy="81.3499984741" r=".0999984741" style="fill: #0555ff;"/>
  <circle cx="121.7699966431" cy="81.7900009155" r=".0999984741" style="fill: #0555ff;"/>
  <circle cx="121.7099990845" cy="82" r=".0999984741" style="fill: #0555ff;"/>
  <circle cx="120.1100006104" cy="81.9300003052" r=".0999984741" style="fill: #0555ff;"/>
  <circle cx="120.6999969482" cy="82.2600021362" r=".0999984741" style="fill: #0555ff;"/>
  <circle cx="120.0899963379" cy="82.3700027466" r=".0999984741" style="fill: #0555ff;"/>
  <circle cx="120.4599990845" cy="82.6999969482" r=".0999984741" style="fill: #0555ff;"/>
  <circle cx="120.1999969482" cy="82.9100036621" r=".0999984741" style="fill: #0555ff;"/>
  <circle cx="121.4800033569" cy="83.3600006104" r=".0999984741" style="fill: #0555ff;"/>
  <circle cx="121.1900024414" cy="83.5" r=".0999984741" style="fill: #0555ff;"/>
  <circle cx="120.1100006104" cy="83.5400009155" r=".0999984741" style="fill: #0555ff;"/>
  <circle cx="119.7200012207" cy="83.6999969482" r=".0999984741" style="fill: #0555ff;"/>
  <circle cx="120.5100021362" cy="84.0899963379" r=".0999984741" style="fill: #0555ff;"/>
  <circle cx="121.3700027466" cy="84.5199966431" r=".0999984741" style="fill: #0555ff;"/>
  <circle cx="119.7900009155" cy="84.4599990845" r=".0999984741" style="fill: #0555ff;"/>
  <circle cx="120.0100021362" cy="84.7600021362" r=".0999984741" style="fill: #0555ff;"/>
  <circle cx="120.5400009155" cy="85.0699996948" r=".0999984741" style="fill: #0555ff;"/>
  <circle cx="120.9800033569" cy="85.3600006104" r=".0999984741" style="fill: #0555ff;"/>
  <circle cx="121.0500030518" cy="85.5999984741" r=".0999984741" style="fill: #0555ff;"/>
  <circle cx="119.7200012207" cy="85.6200027466" r=".0999984741" style="fill: #0555ff;"/>
  <circle cx="120.5100021362" cy="85.9800033569" r=".0999984741" style="fill: #0555ff;"/>
  <circle cx="119.4199981689" cy="86.0400009155" r=".0999984741" style="fill: #0555ff;"/>
  <circle cx="119.7300033569" cy="86.3700027466" r=".0999984741" style="fill: #0555ff;"/>
  <circle cx="120.2900009155" cy="86.7399978638" r=".0999984741" style="fill: #0555ff;"/>
  <circle cx="120.0899963379" cy="86.9199981689" r=".0999984741" style="fill: #0555ff;"/>
  <circle cx="120.1100006104" cy="87.1299972534" r=".0999984741" style="fill: #0555ff;"/>
  <circle cx="120.1299972534" cy="87.3799972534" r=".0999984741" style="fill: #0555ff;"/>
  <circle cx="119.9899978638" cy="87.6200027466" r=".0999984741" style="fill: #0555ff;"/>
  <circle cx="120.4800033569" cy="87.9199981689" r=".0999984741" style="fill: #0555ff;"/>
  <circle cx="119.1900024414" cy="87.9300003052" r=".0999984741" style="fill: #0555ff;"/>
  <circle cx="120.0899963379" cy="88.3000030518" r=".0999984741" style="fill: #0555ff;"/>
  <circle cx="119.4800033569" cy="88.4300003052" r=".0999984741" style="fill: #0555ff;"/>
  <circle cx="119.2799987793" cy="88.6399993896" r=".0999984741" style="fill: #0555ff;"/>
  <circle cx="119.5800018311" cy="88.9100036621" r=".0999984741" style="fill: #0555ff;"/>
  <circle cx="120.2099990845" cy="89.2799987793" r=".0999984741" style="fill: #0555ff;"/>
  <circle cx="119.6699981689" cy="89.4100036621" r=".0999984741" style="fill: #0555ff;"/>
  <circle cx="119.7399978638" cy="89.6900024414" r=".0999984741" style="fill: #0555ff;"/>
  <circle cx="119.2699966431" cy="89.8199996948" r=".0999984741" style="fill: #0555ff;"/>
  <circle cx="119.4300003052" cy="90.1100006104" r=".0999984741" style="fill: #0555ff;"/>
  <circle cx="120.2200012207" cy="90.4499969482" r=".0999984741" style="fill: #0555ff;"/>
  <circle cx="119.4899978638" cy="90.5299987793" r=".0999984741" style="fill: #0555ff;"/>
  <circle cx="119.0500030518" cy="90.6500015259" r=".0999984741" style="fill: #0555ff;"/>
  <circle cx="119.3700027466" cy="90.9300003052" r=".0999984741" style="fill: #0555ff;"/>
  <circle cx="118.9400024414" cy="91.0800018311" r=".0999984741" style="fill: #0555ff;"/>
  <circle cx="118.5800018311" cy="91.2699966431" r=".0999984741" style="fill: #0555ff;"/>
  <circle cx="119.4100036621" cy="91.6299972534" r=".0999984741" style="fill: #0555ff;"/>
  <circle cx="120.0699996948" cy="91.9700012207" r=".0999984741" style="fill: #0555ff;"/>
  <circle cx="119.8000030518" cy="92.1699981689" r=".0999984741" style="fill: #0555ff;"/>
  <circle cx="119.3600006104" cy="92.3399963379" r=".0999984741" style="fill: #0555ff;"/>
  <circle cx="118.5199966431" cy="92.3899993896" r=".0999984741" style="fill: #0555ff;"/>
  <circle cx="119.8000030518" cy="92.8899993896" r=".0999984741" style="fill: #0555ff;"/>
  <circle cx="119.4499969482" cy="93.0500030518" r=".0999984741" style="fill: #0555ff;"/>
  <circle cx="119.1100006104" cy="93.2099990845" r=".0999984741" style="fill: #0555ff;"/>
  <circle cx="118.7900009155" cy="93.3899993896" r=".0999984741" style="fill: #0555ff;"/>
  <circle cx="118.8000030518" cy="93.6200027466" r=".0999984741" style="fill: #0555ff;"/>
  <circle cx="118.6299972534" cy="93.8499984741" r=".0999984741" style="fill: #0555ff;"/>
  <circle cx="119.3000030518" cy="94.2399978638" r=".0999984741" style="fill: #0555ff;"/>
  <circle cx="118.5899963379" cy="94.3399963379" r=".0999984741" style="fill: #0555ff;"/>
  <circle cx="119.1800003052" cy="94.7200012207" r=".0999984741" style="fill: #0555ff;"/>
  <circle cx="118.9700012207" cy="94.9199981689" r=".0999984741" style="fill: #0555ff;"/>
  <circle cx="119.0800018311" cy="95.1800003052" r=".0999984741" style="fill: #0555ff;"/>
  <circle cx="117.8600006104" cy="95.2099990845" r=".0999984741" style="fill: #0555ff;"/>
  <circle cx="119.0699996948" cy="95.6900024414" r=".0999984741" style="fill: #0555ff;"/>
  <circle cx="119.1999969482" cy="95.9400024414" r=".0999984741" style="fill: #0555ff;"/>
  <circle cx="117.6200027466" cy="95.8700027466" r=".0999984741" style="fill: #0555ff;"/>
  <circle cx="117.8300018311" cy="96.1699981689" r=".0999984741" style="fill: #0555ff;"/>
  <circle cx="117.5400009155" cy="96.3600006104" r=".0999984741" style="fill: #0555ff;"/>
  <circle cx="117.7300033569" cy="96.6600036621" r=".0999984741" style="fill: #0555ff;"/>
  <circle cx="118.9300003052" cy="97.1399993896" r=".0999984741" style="fill: #0555ff;"/>
  <circle cx="118.6200027466" cy="97.3099975586" r=".0999984741" style="fill: #0555ff;"/>
  <circle cx="118.2799987793" cy="97.4800033569" r=".0999984741" style="fill: #0555ff;"/>
  <circle cx="117.5400009155" cy="97.5899963379" r=".0999984741" style="fill: #0555ff;"/>
  <circle cx="118.3499984741" cy="97.9499969482" r=".0999984741" style="fill: #0555ff;"/>
  <circle cx="118.3799972534" cy="98.1500015259" r=".0999984741" style="fill: #0555ff;"/>
  <circle cx="117.6200027466" cy="98.2200012207" r=".0999984741" style="fill: #0555ff;"/>
  <circle cx="118.1900024414" cy="98.5699996948" r=".0999984741" style="fill: #0555ff;"/>
  <circle cx="117.1200027466" cy="98.5999984741" r=".0999984741" style="fill: #0555ff;"/>
  <circle cx="117.5899963379" cy="98.9100036621" r=".0999984741" style="fill: #0555ff;"/>
  <circle cx="118.0599975586" cy="99.2200012207" r=".0999984741" style="fill: #0555ff;"/>
  <circle cx="117.5100021362" cy="99.3600006104" r=".0999984741" style="fill: #0555ff;"/>
  <circle cx="118.0999984741" cy="99.6800003052" r=".0999984741" style="fill: #0555ff;"/>
  <circle cx="116.8300018311" cy="99.6600036621" r=".0999984741" style="fill: #0555ff;"/>
  <circle cx="118.4000015259" cy="100.1999969482" r=".0999984741" style="fill: #0555ff;"/>
  <circle cx="117.9499969482" cy="100.3700027466" r=".0999984741" style="fill: #0555ff;"/>
  <circle cx="116.8499984741" cy="100.4000015259" r=".0999984741" style="fill: #0555ff;"/>
  <circle cx="116.9100036621" cy="100.6399993896" r=".0999984741" style="fill: #0555ff;"/>
  <circle cx="116.6800003052" cy="100.8499984741" r=".0999984741" style="fill: #0555ff;"/>
  <circle cx="117.5100021362" cy="101.2699966431" r=".0999984741" style="fill: #0555ff;"/>
  <circle cx="114.0199966431" cy="123.4000015259" r=".0999984741" style="fill: #0555ff;"/>
  <circle cx="114.0100021362" cy="123.1800003052" r=".0999984741" style="fill: #0555ff;"/>
  <circle cx="114.3700027466" cy="123.0400009155" r=".0999984741" style="fill: #0555ff;"/>
  <circle cx="114.2699966431" cy="122.8000030518" r=".0999984741" style="fill: #0555ff;"/>
  <circle cx="114.0800018311" cy="122.5400009155" r=".0999984741" style="fill: #0555ff;"/>
  <circle cx="114.5999984741" cy="122.4300003052" r=".0999984741" style="fill: #0555ff;"/>
  <circle cx="114" cy="122.0899963379" r=".0999984741" style="fill: #0555ff;"/>
  <circle cx="114.6100006104" cy="121.9899978638" r=".0999984741" style="fill: #0555ff;"/>
  <circle cx="111.1100006104" cy="114.3000030518" r=".0999984741" style="fill: #0555ff;"/>
  <circle cx="110.2600021362" cy="114.8499984741" r=".0999984741" style="fill: #0555ff;"/>
  <circle cx="109" cy="116.2600021362" r=".0999984741" style="fill: #0555ff;"/>
  <circle cx="110.6399993896" cy="116.4899978638" r=".0999984741" style="fill: #0555ff;"/>
  <circle cx="109.7699966431" cy="116.2799987793" r=".0999984741" style="fill: #0555ff;"/>
  <circle cx="111.2300033569" cy="114.9599990845" r=".0999984741" style="fill: #0555ff;"/>
  <circle cx="109.5899963379" cy="117.0899963379" r=".0999984741" style="fill: #0555ff;"/>
  <circle cx="110.1299972534" cy="117.2799987793" r=".0999984741" style="fill: #0555ff;"/>
  <circle cx="107.8700027466" cy="117.5999984741" r=".0999984741" style="fill: #0555ff;"/>
  <circle cx="109.6800003052" cy="117.7699966431" r=".0999984741" style="fill: #0555ff;"/>
  <circle cx="108.6299972534" cy="117.9800033569" r=".0999984741" style="fill: #0555ff;"/>
  <circle cx="110.8300018311" cy="117.2099990845" r=".0999984741" style="fill: #0555ff;"/>
  <circle cx="107.4499969482" cy="116.5899963379" r=".0999984741" style="fill: #0555ff;"/>
  <circle cx="106.8099975586" cy="116.7300033569" r=".0999984741" style="fill: #0555ff;"/>
  <circle cx="107.0599975586" cy="118.5400009155" r=".0999984741" style="fill: #0555ff;"/>
  <circle cx="105.4899978638" cy="118.1500015259" r=".0999984741" style="fill: #0555ff;"/>
  <circle cx="105.1399993896" cy="118.0100021362" r=".0999984741" style="fill: #0555ff;"/>
  <circle cx="106.0699996948" cy="119.7900009155" r=".0999984741" style="fill: #0555ff;"/>
  <circle cx="105.7699966431" cy="120.0199966431" r=".0999984741" style="fill: #0555ff;"/>
  <circle cx="105.8000030518" cy="121.3199996948" r=".0999984741" style="fill: #0555ff;"/>
  <circle cx="105.5899963379" cy="121.6399993896" r=".0999984741" style="fill: #0555ff;"/>
  <circle cx="104.5699996948" cy="120.9199981689" r=".0999984741" style="fill: #0555ff;"/>
  <circle cx="109.6900024414" cy="122.3700027466" r=".0999984741" style="fill: #0555ff;"/>
  <circle cx="109.9400024414" cy="121.6999969482" r=".0999984741" style="fill: #0555ff;"/>
  <circle cx="108.9599990845" cy="121.6600036621" r=".0999984741" style="fill: #0555ff;"/>
  <circle cx="110.3000030518" cy="119.9800033569" r=".0999984741" style="fill: #0555ff;"/>
  <circle cx="110.5299987793" cy="118" r=".0999984741" style="fill: #0555ff;"/>
  <circle cx="109.6399993896" cy="118.4300003052" r=".0999984741" style="fill: #0555ff;"/>
  <circle cx="109.0299987793" cy="118.5500030518" r=".0999984741" style="fill: #0555ff;"/>
  <circle cx="110.5999984741" cy="119.0199966431" r=".0999984741" style="fill: #0555ff;"/>
  <circle cx="109.3399963379" cy="124.8499984741" r=".0999984741" style="fill: #0555ff;"/>
  <circle cx="108.8499984741" cy="124.3600006104" r=".0999984741" style="fill: #0555ff;"/>
  <circle cx="106.1100006104" cy="123.1299972534" r=".0999984741" style="fill: #0555ff;"/>
  <circle cx="106.0699996948" cy="122.5400009155" r=".0999984741" style="fill: #0555ff;"/>
  <circle cx="106.6399993896" cy="124.8899993896" r=".0999984741" style="fill: #0555ff;"/>
  <circle cx="107.0500030518" cy="123.7600021362" r=".0999984741" style="fill: #0555ff;"/>
  <circle cx="107.8499984741" cy="125.6200027466" r=".0999984741" style="fill: #0555ff;"/>
  <circle cx="108.4899978638" cy="125.0599975586" r=".0999984741" style="fill: #0555ff;"/>
  <circle cx="108.0400009155" cy="124.1299972534" r=".0999984741" style="fill: #0555ff;"/>
  <circle cx="108.6299972534" cy="123.1600036621" r=".0999984741" style="fill: #0555ff;"/>
  <circle cx="109.0400009155" cy="125.6999969482" r=".0999984741" style="fill: #0555ff;"/>
  <circle cx="107.6800003052" cy="124.5999984741" r=".0999984741" style="fill: #0555ff;"/>
  <circle cx="109.0899963379" cy="127.3199996948" r=".0999984741" style="fill: #0555ff;"/>
  <circle cx="105.9800033569" cy="126.1100006104" r=".0999984741" style="fill: #0555ff;"/>
  <circle cx="100.6800003052" cy="112.2399978638" r=".0999984741" style="fill: #0555ff;"/>
  <circle cx="92.6999969482" cy="110.4100036621" r=".0999984741" style="fill: #0555ff;"/>
  <circle cx="103.6200027466" cy="111.9800033569" r=".0999984741" style="fill: #0555ff;"/>
  <circle cx="99.4100036621" cy="111.5299987793" r=".0999984741" style="fill: #0555ff;"/>
  <circle cx="98.6399993896" cy="111.6200027466" r=".0999984741" style="fill: #0555ff;"/>
  <circle cx="96.5999984741" cy="110.8700027466" r=".0999984741" style="fill: #0555ff;"/>
  <circle cx="91.5999984741" cy="110.7600021362" r=".0999984741" style="fill: #0555ff;"/>
  <circle cx="100.6800003052" cy="113.6100006104" r=".0999984741" style="fill: #0555ff;"/>
  <circle cx="98.9000015259" cy="111.9800033569" r=".0999984741" style="fill: #0555ff;"/>
  <circle cx="102.2099990845" cy="112.0500030518" r=".0999984741" style="fill: #0555ff;"/>
  <circle cx="111.6100006104" cy="113.4700012207" r=".0999984741" style="fill: #0555ff;"/>
  <circle cx="110.8300018311" cy="115.4700012207" r=".0999984741" style="fill: #0555ff;"/>
  <circle cx="109.1699981689" cy="112.4000015259" r=".0999984741" style="fill: #0555ff;"/>
  <circle cx="109.0899963379" cy="115.5299987793" r=".0999984741" style="fill: #0555ff;"/>
  <circle cx="109.3000030518" cy="114.2300033569" r=".0999984741" style="fill: #0555ff;"/>
  <circle cx="111.9100036621" cy="109.7300033569" r=".0999984741" style="fill: #0555ff;"/>
  <circle cx="112.4300003052" cy="107.6699981689" r=".0999984741" style="fill: #0555ff;"/>
  <circle cx="112.0400009155" cy="105.6600036621" r=".0999984741" style="fill: #0555ff;"/>
  <circle cx="110.1900024414" cy="103.4700012207" r=".0999984741" style="fill: #0555ff;"/>
  <circle cx="107.4499969482" cy="103.1600036621" r=".0999984741" style="fill: #0555ff;"/>
  <circle cx="109.2600021362" cy="102.4000015259" r=".0999984741" style="fill: #0555ff;"/>
  <circle cx="92.4800033569" cy="111.0299987793" r=".2600021362" style="fill: #0555ff;"/>
  <circle cx="94.4599990845" cy="110.9199981689" r=".2600021362" style="fill: #0555ff;"/>
  <circle cx="97.3000030518" cy="111.1800003052" r=".2600021362" style="fill: #0555ff;"/>
  <circle cx="110.0599975586" cy="114.3099975586" r=".2600021362" style="fill: #0555ff;"/>
  <circle cx="108.6900024414" cy="113.5500030518" r=".2600021362" style="fill: #0555ff;"/>
  <circle cx="110.6100006104" cy="112.8399963379" r=".2600021362" style="fill: #0555ff;"/>
  <circle cx="101" cy="111.4499969482" r=".2600021362" style="fill: #0555ff;"/>
  <circle cx="105.0199966431" cy="111.8300018311" r=".2600021362" style="fill: #0555ff;"/>
  <circle cx="107.2600021362" cy="112.1100006104" r=".2600021362" style="fill: #0555ff;"/>
  <circle cx="97.5899963379" cy="112.1999969482" r=".2600021362" style="fill: #0555ff;"/>
  <circle cx="89.5400009155" cy="110.6600036621" r=".2600021362" style="fill: #0555ff;"/>
  <circle cx="87.8199996948" cy="110.0999984741" r=".2600021362" style="fill: #0555ff;"/>
  <circle cx="95.4499969482" cy="111.8899993896" r=".2600021362" style="fill: #0555ff;"/>
  <circle cx="91.6800003052" cy="112.8700027466" r=".2600021362" style="fill: #0555ff;"/>
  <circle cx="92.3499984741" cy="117.9199981689" r=".2600021362" style="fill: #0555ff;"/>
  <circle cx="105.9800033569" cy="117.1699981689" r=".2600021362" style="fill: #0555ff;"/>
  <circle cx="114.9800033569" cy="111.3300018311" r=".2600021362" style="fill: #0555ff;"/>
  <circle cx="114.9800033569" cy="108.4599990845" r=".2600021362" style="fill: #0555ff;"/>
  <circle cx="116.6999969482" cy="104.7600021362" r=".2600021362" style="fill: #0555ff;"/>
  <circle cx="115.8399963379" cy="106.4899978638" r=".2600021362" style="fill: #0555ff;"/>
  <circle cx="111.2799987793" cy="104.8300018311" r=".2600021362" style="fill: #0555ff;"/>
  <circle cx="108.7900009155" cy="103.3600006104" r=".2600021362" style="fill: #0555ff;"/>
  <circle cx="109.7099990845" cy="102.9499969482" r=".2600021362" style="fill: #0555ff;"/>
  <circle cx="111.1200027466" cy="102.5199966431" r=".2600021362" style="fill: #0555ff;"/>
  <circle cx="106.6200027466" cy="103.5599975586" r=".2600021362" style="fill: #0555ff;"/>
  <circle cx="107.0299987793" cy="102.2900009155" r=".2600021362" style="fill: #0555ff;"/>
  <circle cx="110.1600036621" cy="104.3000030518" r=".2600021362" style="fill: #0555ff;"/>
  <circle cx="113.0999984741" cy="104.6200027466" r=".2600021362" style="fill: #0555ff;"/>
  <circle cx="111.2799987793" cy="107.4800033569" r=".2600021362" style="fill: #0555ff;"/>
  <circle cx="88.0400009155" cy="100.8499984741" r=".2600021362" style="fill: #0555ff;"/>
  <circle cx="85.3000030518" cy="104.3700027466" r=".2600021362" style="fill: #0555ff;"/>
  <circle cx="81.9100036621" cy="103.9499969482" r=".2600021362" style="fill: #0555ff;"/>
  <circle cx="80.2200012207" cy="104.4800033569" r=".2600021362" style="fill: #0555ff;"/>
  <circle cx="78.6299972534" cy="108.6200027466" r=".2600021362" style="fill: #0555ff;"/>
  <circle cx="83.8899993896" cy="108.1399993896" r=".2600021362" style="fill: #0555ff;"/>
  <circle cx="86.3499984741" cy="108.6299972534" r=".2600021362" style="fill: #0555ff;"/>
  <circle cx="87.6900024414" cy="108.6299972534" r=".2600021362" style="fill: #0555ff;"/>
  <circle cx="85.8399963379" cy="111.2300033569" r=".2600021362" style="fill: #0555ff;"/>
  <circle cx="88.2300033569" cy="111.3499984741" r=".2600021362" style="fill: #0555ff;"/>
  <circle cx="90.5" cy="112.2300033569" r=".2600021362" style="fill: #0555ff;"/>
  <circle cx="104.5699996948" cy="119.9400024414" r=".2600021362" style="fill: #0555ff;"/>
  <circle cx="105.0500030518" cy="122.9800033569" r=".2600021362" style="fill: #0555ff;"/>
  <circle cx="105.7900009155" cy="118.9300003052" r=".2600021362" style="fill: #0555ff;"/>
  <circle cx="109.9000015259" cy="119.0800018311" r=".2600021362" style="fill: #0555ff;"/>
  <circle cx="109.8700027466" cy="120.8399963379" r=".2600021362" style="fill: #0555ff;"/>
  <circle cx="109.5500030518" cy="123.1999969482" r=".2600021362" style="fill: #0555ff;"/>
  <circle cx="108.9400024414" cy="126.4400024414" r=".2600021362" style="fill: #0555ff;"/>
  <path d="m103.0899963379,127.7499923706c.1435928345,0,.2600021362.1164093018.2600021362.2600021362,0,.1436004639-.1164093018.2599945068-.2600021362.2599945068s-.2600021362-.116394043-.2600021362-.2599945068c0-.1435928345.1164093018-.2600021362.2600021362-.2600021362Z" style="fill: #0555ff;"/>
  <circle cx="105.7900009155" cy="124.6699981689" r=".2600021362" style="fill: #0555ff;"/>
  <circle cx="106.9800033569" cy="125.9300003052" r=".2600021362" style="fill: #0555ff;"/>
  <circle cx="107.8499984741" cy="127.3199996948" r=".2600021362" style="fill: #0555ff;"/>
  <circle cx="103.2300033569" cy="125.5699996948" r=".2600021362" style="fill: #0555ff;"/>
  <circle cx="106.5500030518" cy="127.4899978638" r=".2600021362" style="fill: #0555ff;"/>
  <circle cx="108.6800003052" cy="129.4499969482" r=".2599983215" style="fill: #0555ff;"/>
  <circle cx="109.4899978638" cy="124.0500030518" r=".2600021362" style="fill: #0555ff;"/>
  <circle cx="108.1699981689" cy="116.1299972534" r=".2600021362" style="fill: #0555ff;"/>
  <circle cx="87.3099975586" cy="107.8199996948" r=".2600021362" style="fill: #0555ff;"/>
  <circle cx="88.2300033569" cy="102.5599975586" r=".2600021362" style="fill: #0555ff;"/>
  <circle cx="86.9300003052" cy="104.7699966431" r=".2600021362" style="fill: #0555ff;"/>
  <circle cx="108.2799987793" cy="102.0599975586" r=".2600021362" style="fill: #0555ff;"/>
  <circle cx="112.1399993896" cy="103.4899978638" r=".2600021362" style="fill: #0555ff;"/>
  <circle cx="115.8700027466" cy="81.8600006104" r=".0500030518" style="fill: #0555ff;"/>
  <circle cx="116.8600006104" cy="80.8700027466" r=".0500030518" style="fill: #0555ff;"/>
  <circle cx="117.3399963379" cy="82.0800018311" r=".0500030518" style="fill: #0555ff;"/>
  <circle cx="93.3399963379" cy="79.3300018311" r=".0500030518" style="fill: #0555ff;"/>
  <circle cx="89" cy="96.7600021362" r=".0500030518" style="fill: #0555ff;"/>
  <circle cx="89.3499984741" cy="95.8199996948" r=".0500030518" style="fill: #0555ff;"/>
  <circle cx="87.4000015259" cy="96.4499969482" r=".0500030518" style="fill: #0555ff;"/>
  <circle cx="90.0199966431" cy="92.6999969482" r=".0500030518" style="fill: #0555ff;"/>
  <circle cx="82.2300033569" cy="96.1299972534" r=".0500030518" style="fill: #0555ff;"/>
  <circle cx="88.3600006104" cy="93.6500015259" r=".0500030518" style="fill: #0555ff;"/>
  <circle cx="81.8499984741" cy="85.0199966431" r=".0500030518" style="fill: #0555ff;"/>
  <circle cx="82.9000015259" cy="84.1200027466" r=".0500030518" style="fill: #0555ff;"/>
  <circle cx="84.8799972534" cy="83.3099975586" r=".0500030518" style="fill: #0555ff;"/>
  <circle cx="77.5100021362" cy="85.1500015259" r=".0500030518" style="fill: #0555ff;"/>
  <circle cx="88.5899963379" cy="80.4899978638" r=".0500030518" style="fill: #0555ff;"/>
  <circle cx="93.9100036621" cy="79.4599990845" r=".0500030518" style="fill: #0555ff;"/>
  <circle cx="94.0100021362" cy="111.6800003052" r=".0500030518" style="fill: #0555ff;"/>
  <circle cx="94.6200027466" cy="112.3099975586" r=".0500030518" style="fill: #0555ff;"/>
  <circle cx="96.3099975586" cy="112.3199996948" r=".0500030518" style="fill: #0555ff;"/>
  <circle cx="96.4400024414" cy="113.2300033569" r=".0500030518" style="fill: #0555ff;"/>
  <circle cx="98.4100036621" cy="112.8499984741" r=".0500030518" style="fill: #0555ff;"/>
  <circle cx="97.3899993896" cy="113.0199966431" r=".0500030518" style="fill: #0555ff;"/>
  <circle cx="98.8899993896" cy="113.6299972534" r=".0500030518" style="fill: #0555ff;"/>
  <circle cx="99.4000015259" cy="112.7799987793" r=".0500030518" style="fill: #0555ff;"/>
  <circle cx="93.7200012207" cy="112.5999984741" r=".0500030518" style="fill: #0555ff;"/>
  <circle cx="91.7399978638" cy="111.6800003052" r=".0500030518" style="fill: #0555ff;"/>
  <circle cx="92.8899993896" cy="113.2900009155" r=".0500030518" style="fill: #0555ff;"/>
  <circle cx="95.2200012207" cy="113.1600036621" r=".0500030518" style="fill: #0555ff;"/>
  <circle cx="94.1100006104" cy="113.6900024414" r=".0500030518" style="fill: #0555ff;"/>
  <circle cx="92.6699981689" cy="114.7699966431" r=".0500030518" style="fill: #0555ff;"/>
  <circle cx="95.8000030518" cy="114.1900024414" r=".0500030518" style="fill: #0555ff;"/>
  <circle cx="97.0100021362" cy="113.9499969482" r=".0500030518" style="fill: #0555ff;"/>
  <circle cx="98.2900009155" cy="113.9400024414" r=".0500030518" style="fill: #0555ff;"/>
  <circle cx="96.2399978638" cy="115.3399963379" r=".0500030518" style="fill: #0555ff;"/>
  <circle cx="95.7699966431" cy="115.8199996948" r=".0500030518" style="fill: #0555ff;"/>
  <circle cx="95.8899993896" cy="112.8199996948" r=".0500030518" style="fill: #0555ff;"/>
  <circle cx="98.1600036621" cy="113.4499969482" r=".0500030518" style="fill: #0555ff;"/>
  <circle cx="99.5599975586" cy="113.4800033569" r=".0500030518" style="fill: #0555ff;"/>
  <circle cx="93.3399963379" cy="114.1200027466" r=".0500030518" style="fill: #0555ff;"/>
  <circle cx="92.4100036621" cy="112.3600006104" r=".0500030518" style="fill: #0555ff;"/>
  <circle cx="100.3899993896" cy="113.1900024414" r=".0500030518" style="fill: #0555ff;"/>
  <path d="m96.6296296296,115.8287037037c.16086307,0,.1611295126-.25,0-.25-.16086307,0-.1611295126.25,0,.25h0Z" style="fill: #576ddd;"/>
  <path d="m97.5925925926,115.162037037c.16086307,0,.1611295126-.25,0-.25-.16086307,0-.1611295126.25,0,.25h0Z" style="fill: #576ddd;"/>
  <path d="m99.1481481481,114.5324074074c.16086307,0,.1611295126-.25,0-.25-.16086307,0-.1611295126.25,0,.25h0Z" style="fill: #576ddd;"/>
  <path d="m100.2222222222,114.0138888889c.16086307,0,.1611295126-.25,0-.25-.16086307,0-.1611295126.25,0,.25h0Z" style="fill: #576ddd;"/>
  <path d="m101.1111111111,113.7546296296c.16086307,0,.1611295126-.25,0-.25-.16086307,0-.1611295126.25,0,.25h0Z" style="fill: #576ddd;"/>
  <path d="m101.0740740741,113.0509259259c.16086307,0,.1611295126-.25,0-.25-.16086307,0-.1611295126.25,0,.25h0Z" style="fill: #576ddd;"/>
  <path d="m102.962962963,112.6805555556c.16086307,0,.1611295126-.25,0-.25-.16086307,0-.1611295126.25,0,.25h0Z" style="fill: #576ddd;"/>
  <path d="m103.8518518519,112.4583333333c.16086307,0,.1611295126-.25,0-.25-.16086307,0-.1611295126.25,0,.25h0Z" style="fill: #576ddd;"/>
  <path d="m95.5555555556,115.4953703704c.16086307,0,.1611295126-.25,0-.25-.16086307,0-.1611295126.25,0,.25h0Z" style="fill: #576ddd;"/>
  <path d="m93.7037037037,115.4953703704c.16086307,0,.1611295126-.25,0-.25-.16086307,0-.1611295126.25,0,.25h0Z" style="fill: #576ddd;"/>
  <path d="m92.8518518519,115.5694444444c.16086307,0,.1611295126-.25,0-.25-.16086307,0-.1611295126.25,0,.25h0Z" style="fill: #576ddd;"/>
  <path d="m92.2592592593,117.0138888889c.16086307,0,.1611295126-.25,0-.25-.16086307,0-.1611295126.25,0,.25h0Z" style="fill: #576ddd;"/>
  <path d="m92.4814814815,119.125c.16086307,0,.1611295126-.25,0-.25-.16086307,0-.1611295126.25,0,.25h0Z" style="fill: #576ddd;"/>
  <path d="m91.4814814815,114.5324074074c.16086307,0,.1611295126-.25,0-.25-.16086307,0-.1611295126.25,0,.25h0Z" style="fill: #576ddd;"/>
  <path d="m91.7037037037,116.7175925926c.16086307,0,.1611295126-.25,0-.25-.16086307,0-.1611295126.25,0,.25h0Z" style="fill: #576ddd;"/>
  <path d="m89.3703703704,116.4583333333c.16086307,0,.1611295126-.25,0-.25-.16086307,0-.1611295126.25,0,.25h0Z" style="fill: #576ddd;"/>
  <path d="m83.7037037037,116.4583333333c.16086307,0,.1611295126-.25,0-.25-.16086307,0-.1611295126.25,0,.25h0Z" style="fill: #576ddd;"/>
  <path d="m85.5925925926,115.5694444444c.16086307,0,.1611295126-.25,0-.25-.16086307,0-.1611295126.25,0,.25h0Z" style="fill: #576ddd;"/>
  <path d="m85.5925925926,118.9027777778c.16086307,0,.1611295126-.25,0-.25-.16086307,0-.1611295126.25,0,.25h0Z" style="fill: #576ddd;"/>
  <path d="m89.5185185185,120.8287037037c.16086307,0,.1611295126-.25,0-.25-.16086307,0-.1611295126.25,0,.25h0Z" style="fill: #576ddd;"/>
  <path d="m90.5925925926,120.087962963c.16086307,0,.1611295126-.25,0-.25-.16086307,0-.1611295126.25,0,.25h0Z" style="fill: #576ddd;"/>
  <path d="m80.6666666667,116.3842592593c.16086307,0,.1611295126-.25,0-.25-.16086307,0-.1611295126.25,0,.25h0Z" style="fill: #576ddd;"/>
  <path d="m81.962962963,112.0138888889c.16086307,0,.1611295126-.25,0-.25-.16086307,0-.1611295126.25,0,.25h0Z" style="fill: #576ddd;"/>
  <path d="m83.037037037,112.6435185185c.16086307,0,.1611295126-.25,0-.25-.16086307,0-.1611295126.25,0,.25h0Z" style="fill: #576ddd;"/>
  <path d="m83.5925925926,110.6064814815c.16086307,0,.1611295126-.25,0-.25-.16086307,0-.1611295126.25,0,.25h0Z" style="fill: #576ddd;"/>
  <path d="m85.2222222222,109.7546296296c.16086307,0,.1611295126-.25,0-.25-.16086307,0-.1611295126.25,0,.25h0Z" style="fill: #576ddd;"/>
  <path d="m86.2592592593,110.0138888889c.16086307,0,.1611295126-.25,0-.25-.16086307,0-.1611295126.25,0,.25h0Z" style="fill: #576ddd;"/>
  <path d="m87.1851851852,109.4953703704c.16086307,0,.1611295126-.25,0-.25-.16086307,0-.1611295126.25,0,.25h0Z" style="fill: #576ddd;"/>
  <path d="m87.2962962963,111.7546296296c.16086307,0,.1611295126-.25,0-.25-.16086307,0-.1611295126.25,0,.25h0Z" style="fill: #576ddd;"/>
  <path d="m87.2962962963,110.5694444444c.16086307,0,.1611295126-.25,0-.25-.16086307,0-.1611295126.25,0,.25h0Z" style="fill: #576ddd;"/>
  <path d="m84.8148148148,110.6435185185c.16086307,0,.1611295126-.25,0-.25-.16086307,0-.1611295126.25,0,.25h0Z" style="fill: #576ddd;"/>
  <path d="m83.962962963,111.9398148148c.16086307,0,.1611295126-.25,0-.25-.16086307,0-.1611295126.25,0,.25h0Z" style="fill: #576ddd;"/>
  <path d="m85.1481481481,112.6805555556c.16086307,0,.1611295126-.25,0-.25-.16086307,0-.1611295126.25,0,.25h0Z" style="fill: #576ddd;"/>
  <path d="m87.4444444444,113.2361111111c.16086307,0,.1611295126-.25,0-.25-.16086307,0-.1611295126.25,0,.25h0Z" style="fill: #576ddd;"/>
  <path d="m88.7407407407,112.6435185185c.16086307,0,.1611295126-.25,0-.25-.16086307,0-.1611295126.25,0,.25h0Z" style="fill: #576ddd;"/>
  <path d="m89.4074074074,113.087962963c.16086307,0,.1611295126-.25,0-.25-.16086307,0-.1611295126.25,0,.25h0Z" style="fill: #576ddd;"/>
  <path d="m112.7777777778,119.9768518519c.16086307,0,.1611295126-.25,0-.25-.16086307,0-.1611295126.25,0,.25h0Z" style="fill: #576ddd;"/>
  <path d="m113.5555555556,120.2361111111c.16086307,0,.1611295126-.25,0-.25-.16086307,0-.1611295126.25,0,.25h0Z" style="fill: #576ddd;"/>
  <path d="m113.3703703704,116.3842592593c.16086307,0,.1611295126-.25,0-.25-.16086307,0-.1611295126.25,0,.25h0Z" style="fill: #576ddd;"/>
  <path d="m114.4444444444,113.7175925926c.16086307,0,.1611295126-.25,0-.25-.16086307,0-.1611295126.25,0,.25h0Z" style="fill: #576ddd;"/>
  <path d="m114.7777777778,110.3101851852c.16086307,0,.1611295126-.25,0-.25-.16086307,0-.1611295126.25,0,.25h0Z" style="fill: #576ddd;"/>
  <path d="m117.4814814815,103.6064814815c.16086307,0,.1611295126-.25,0-.25-.16086307,0-.1611295126.25,0,.25h0Z" style="fill: #576ddd;"/>
  <path d="m115.4444444444,105.4212962963c.16086307,0,.1611295126-.25,0-.25-.16086307,0-.1611295126.25,0,.25h0Z" style="fill: #576ddd;"/>
  <path d="m118.8148148148,106.2731481481c.16086307,0,.1611295126-.25,0-.25-.16086307,0-.1611295126.25,0,.25h0Z" style="fill: #576ddd;"/>
  <path d="m118.5925925926,104.4583333333c.16086307,0,.1611295126-.25,0-.25-.16086307,0-.1611295126.25,0,.25h0Z" style="fill: #576ddd;"/>
  <path d="m119.4074074074,105.3472222222c.16086307,0,.1611295126-.25,0-.25-.16086307,0-.1611295126.25,0,.25h0Z" style="fill: #576ddd;"/>
  <path d="m119.037037037,108.9768518519c.16086307,0,.1611295126-.25,0-.25-.16086307,0-.1611295126.25,0,.25h0Z" style="fill: #576ddd;"/>
  <path d="m118.5555555556,107.3842592593c.16086307,0,.1611295126-.25,0-.25-.16086307,0-.1611295126.25,0,.25h0Z" style="fill: #576ddd;"/>
  <path d="m117.8518518519,105.3472222222c.16086307,0,.1611295126-.25,0-.25-.16086307,0-.1611295126.25,0,.25h0Z" style="fill: #576ddd;"/>
  <path d="m118.037037037,107.125c.16086307,0,.1611295126-.25,0-.25-.16086307,0-.1611295126.25,0,.25h0Z" style="fill: #576ddd;"/>
  <path d="m117,109.7546296296c.16086307,0,.1611295126-.25,0-.25-.16086307,0-.1611295126.25,0,.25h0Z" style="fill: #576ddd;"/>
  <path d="m116.0740740741,110.7546296296c.16086307,0,.1611295126-.25,0-.25-.16086307,0-.1611295126.25,0,.25h0Z" style="fill: #576ddd;"/>
  <path d="m108.0740740741,134.7916666667c.16086307,0,.1611295126-.25,0-.25-.16086307,0-.1611295126.25,0,.25h0Z" style="fill: #576ddd;"/>
  <path d="m105.7037037037,135.9398148148c.16086307,0,.1611295126-.25,0-.25-.16086307,0-.1611295126.25,0,.25h0Z" style="fill: #576ddd;"/>
  <path d="m101.5185185185,133.162037037c.16086307,0,.1611295126-.25,0-.25-.16086307,0-.1611295126.25,0,.25h0Z" style="fill: #576ddd;"/>
  <path d="m104.4074074074,133.9027777778c.16086307,0,.1611295126-.25,0-.25-.16086307,0-.1611295126.25,0,.25h0Z" style="fill: #576ddd;"/>
  <path d="m100.6296296296,136.9398148148c.16086307,0,.1611295126-.25,0-.25-.16086307,0-.1611295126.25,0,.25h0Z" style="fill: #576ddd;"/>
  <path d="m105.4814814815,141.2361111111c.16086307,0,.1611295126-.25,0-.25-.16086307,0-.1611295126.25,0,.25h0Z" style="fill: #576ddd;"/>
  <path d="m100.1481481481,140.0138888889c.16086307,0,.1611295126-.25,0-.25-.16086307,0-.1611295126.25,0,.25h0Z" style="fill: #576ddd;"/>
  <path d="m104.6666666667,139.1990740741c.16086307,0,.1611295126-.25,0-.25-.16086307,0-.1611295126.25,0,.25h0Z" style="fill: #576ddd;"/>
  <path d="m103.2592592593,135.0138888889c.16086307,0,.1611295126-.25,0-.25-.16086307,0-.1611295126.25,0,.25h0Z" style="fill: #576ddd;"/>
  <path d="m102.7407407407,130.8287037037c.16086307,0,.1611295126-.25,0-.25-.16086307,0-.1611295126.25,0,.25h0Z" style="fill: #576ddd;"/>
  <path d="m106.8148148148,130.5694444444c.16086307,0,.1611295126-.25,0-.25-.16086307,0-.1611295126.25,0,.25h0Z" style="fill: #576ddd;"/>
  <path d="m107.2962962963,128.9768518519c.16086307,0,.1611295126-.25,0-.25-.16086307,0-.1611295126.25,0,.25h0Z" style="fill: #576ddd;"/>
  <path d="m107.9259259259,132.2731481481c.16086307,0,.1611295126-.25,0-.25-.16086307,0-.1611295126.25,0,.25h0Z" style="fill: #576ddd;"/>
  <path d="m103.2222222222,127.6064814815c.16086307,0,.1611295126-.25,0-.25-.16086307,0-.1611295126.25,0,.25h0Z" style="fill: #576ddd;"/>
  <path d="m96.7037037037,114.8657407407c.16086307,0,.1611295126-.25,0-.25-.16086307,0-.1611295126.25,0,.25h0Z" style="fill: #576ddd;"/>
  <path d="m94.0740740741,114.4212962963c.16086307,0,.1611295126-.25,0-.25-.16086307,0-.1611295126.25,0,.25h0Z" style="fill: #576ddd;"/>
  <path d="m102.2592592593,112.7916666667c.16086307,0,.1611295126-.25,0-.25-.16086307,0-.1611295126.25,0,.25h0Z" style="fill: #576ddd;"/>
  <path d="m97.3703703704,115.5694444444c.16086307,0,.1611295126-.25,0-.25-.16086307,0-.1611295126.25,0,.25h0Z" style="fill: #576ddd;"/>
  <path d="m96.9259259259,115.7916666667c.16086307,0,.1611295126-.25,0-.25-.16086307,0-.1611295126.25,0,.25h0Z" style="fill: #576ddd;"/>
  <path d="m96.037037037,115.7916666667c.16086307,0,.1611295126-.25,0-.25-.16086307,0-.1611295126.25,0,.25h0Z" style="fill: #576ddd;"/>
  <path d="m82.5185185185,101.125c.16086307,0,.1611295126-.25,0-.25-.16086307,0-.1611295126.25,0,.25h0Z" style="fill: #576ddd;"/>
  <path d="m83.7777777778,100.2361111111c.16086307,0,.1611295126-.25,0-.25-.16086307,0-.1611295126.25,0,.25h0Z" style="fill: #576ddd;"/>
  <path d="m86.1481481482,96.087962963c.16086307,0,.1611295126-.25,0-.25-.16086307,0-.1611295126.25,0,.25h0Z" style="fill: #576ddd;"/>
  <path d="m87.6666666667,95.4583333333c.16086307,0,.1611295126-.25,0-.25-.16086307,0-.1611295126.25,0,.25h0Z" style="fill: #576ddd;"/>
  <path d="m89.3703703704,94.125c.16086307,0,.1611295126-.25,0-.25-.16086307,0-.1611295126.25,0,.25h0Z" style="fill: #576ddd;"/>
  <path d="m88.8148148148,90.3842592593c.16086307,0,.1611295126-.25,0-.25-.16086307,0-.1611295126.25,0,.25h0Z" style="fill: #576ddd;"/>
  <path d="m90.4074074074,86.7916666667c.16086307,0,.1611295126-.25,0-.25-.16086307,0-.1611295126.25,0,.25h0Z" style="fill: #576ddd;"/>
  <path d="m90.2962962963,89.9027777778c.16086307,0,.1611295126-.25,0-.25-.16086307,0-.1611295126.25,0,.25h0Z" style="fill: #576ddd;"/>
  <path d="m87.0740740741,91.8287037037c.16086307,0,.1611295126-.25,0-.25-.16086307,0-.1611295126.25,0,.25h0Z" style="fill: #576ddd;"/>
  <path d="m89.2592592593,91.9027777778c.16086307,0,.1611295126-.25,0-.25-.16086307,0-.1611295126.25,0,.25h0Z" style="fill: #576ddd;"/>
  <path d="m86.3703703704,94.6805555555c.16086307,0,.1611295126-.25,0-.25-.16086307,0-.1611295126.25,0,.25h0Z" style="fill: #576ddd;"/>
  <path d="m86.0740740741,92.4212962963c.16086307,0,.1611295126-.25,0-.25-.16086307,0-.1611295126.25,0,.25h0Z" style="fill: #576ddd;"/>
  <path d="m87.3703703704,93.3842592593c.16086307,0,.1611295126-.25,0-.25-.16086307,0-.1611295126.25,0,.25h0Z" style="fill: #576ddd;"/>
  <path d="m84.7407407407,94.9398148148c.16086307,0,.1611295126-.25,0-.25-.16086307,0-.1611295126.25,0,.25h0Z" style="fill: #576ddd;"/>
  <path d="m83.7777777778,93.2361111111c.16086307,0,.1611295126-.25,0-.25-.16086307,0-.1611295126.25,0,.25h0Z" style="fill: #576ddd;"/>
  <path d="m85.9259259259,93.8657407407c.16086307,0,.1611295126-.25,0-.25-.16086307,0-.1611295126.25,0,.25h0Z" style="fill: #576ddd;"/>
  <path d="m85.037037037,96.3472222222c.16086307,0,.1611295126-.25,0-.25-.16086307,0-.1611295126.25,0,.25h0Z" style="fill: #576ddd;"/>
  <path d="m83.8148148148,96.4583333333c.16086307,0,.1611295126-.25,0-.25-.16086307,0-.1611295126.25,0,.25h0Z" style="fill: #576ddd;"/>
  <path d="m83.4074074074,94.9398148148c.16086307,0,.1611295126-.25,0-.25-.16086307,0-.1611295126.25,0,.25h0Z" style="fill: #576ddd;"/>
  <path d="m81.6666666667,94.1990740741c.16086307,0,.1611295126-.25,0-.25-.16086307,0-.1611295126.25,0,.25h0Z" style="fill: #576ddd;"/>
  <path d="m81.7777777778,92.2361111111c.16086307,0,.1611295126-.25,0-.25-.16086307,0-.1611295126.25,0,.25h0Z" style="fill: #576ddd;"/>
  <path d="m80.8148148148,94.5324074074c.16086307,0,.1611295126-.25,0-.25-.16086307,0-.1611295126.25,0,.25h0Z" style="fill: #576ddd;"/>
  <path d="m81.2222222222,96.0509259259c.16086307,0,.1611295126-.25,0-.25-.16086307,0-.1611295126.25,0,.25h0Z" style="fill: #576ddd;"/>
  <path d="m78.7407407407,95.3842592593c.16086307,0,.1611295126-.25,0-.25-.16086307,0-.1611295126.25,0,.25h0Z" style="fill: #576ddd;"/>
  <path d="m79.962962963,92.6805555555c.16086307,0,.1611295126-.25,0-.25-.16086307,0-.1611295126.25,0,.25h0Z" style="fill: #576ddd;"/>
  <path d="m97.7777777778,80.3101851852c.16086307,0,.1611295126-.25,0-.25-.16086307,0-.1611295126.25,0,.25h0Z" style="fill: #576ddd;"/>
  <path d="m102.6666666667,79.8287037037c.16086307,0,.1611295126-.25,0-.25-.16086307,0-.1611295126.25,0,.25h0Z" style="fill: #576ddd;"/>
  <path d="m99.8148148148,80.3472222222c.16086307,0,.1611295126-.25,0-.25-.16086307,0-.1611295126.25,0,.25h0Z" style="fill: #576ddd;"/>
  <path d="m99.4444444444,78.1990740741c.16086307,0,.1611295126-.25,0-.25-.16086307,0-.1611295126.25,0,.25h0Z" style="fill: #576ddd;"/>
  <path d="m98.8888888889,79.162037037c.16086307,0,.1611295126-.25,0-.25-.16086307,0-.1611295126.25,0,.25h0Z" style="fill: #576ddd;"/>
  <path d="m97.4444444444,78.6805555555c.16086307,0,.1611295126-.25,0-.25-.16086307,0-.1611295126.25,0,.25h0Z" style="fill: #576ddd;"/>
  <path d="m101.6296296296,79.0509259259c.16086307,0,.1611295126-.25,0-.25-.16086307,0-.1611295126.25,0,.25h0Z" style="fill: #576ddd;"/>
  <path d="m105.2962962963,78.9768518518c.16086307,0,.1611295126-.25,0-.25-.16086307,0-.1611295126.25,0,.25h0Z" style="fill: #576ddd;"/>
  <path d="m107.2592592593,80.7916666667c.16086307,0,.1611295126-.25,0-.25-.16086307,0-.1611295126.25,0,.25h0Z" style="fill: #576ddd;"/>
  <path d="m111.0740740741,81.0138888889c.16086307,0,.1611295126-.25,0-.25-.16086307,0-.1611295126.25,0,.25h0Z" style="fill: #576ddd;"/>
  <path d="m111.6296296296,79.6435185185c.16086307,0,.1611295126-.25,0-.25-.16086307,0-.1611295126.25,0,.25h0Z" style="fill: #576ddd;"/>
  <path d="m113.4814814815,80.125c.16086307,0,.1611295126-.25,0-.25-.16086307,0-.1611295126.25,0,.25h0Z" style="fill: #576ddd;"/>
  <path d="m112.9259259259,81.3472222222c.16086307,0,.1611295126-.25,0-.25-.16086307,0-.1611295126.25,0,.25h0Z" style="fill: #576ddd;"/>
  <path d="m108.962962963,80.8287037037c.16086307,0,.1611295126-.25,0-.25-.16086307,0-.1611295126.25,0,.25h0Z" style="fill: #576ddd;"/>
  <path d="m109.0740740741,79.2361111111c.16086307,0,.1611295126-.25,0-.25-.16086307,0-.1611295126.25,0,.25h0Z" style="fill: #576ddd;"/>
  <path d="m105.4814814815,80.0138888889c.16086307,0,.1611295126-.25,0-.25-.16086307,0-.1611295126.25,0,.25h0Z" style="fill: #576ddd;"/>
  <path d="m102.4444444444,80.8287037037c.16086307,0,.1611295126-.25,0-.25-.16086307,0-.1611295126.25,0,.25h0Z" style="fill: #576ddd;"/>
  <path d="m100.5925925926,79.6805555555c.16086307,0,.1611295126-.25,0-.25-.16086307,0-.1611295126.25,0,.25h0Z" style="fill: #576ddd;"/>
  <path d="m100.0740740741,79.0138888889c.16086307,0,.1611295126-.25,0-.25-.16086307,0-.1611295126.25,0,.25h0Z" style="fill: #576ddd;"/>
  <path d="m116.6296296296,79.8287037037c.16086307,0,.1611295126-.25,0-.25-.16086307,0-.1611295126.25,0,.25h0Z" style="fill: #576ddd;"/>
  <path d="m116,79.9027777778c.16086307,0,.1611295126-.25,0-.25-.16086307,0-.1611295126.25,0,.25h0Z" style="fill: #576ddd;"/>
  <path d="m112.3703703704,76.0509259259c.16086307,0,.1611295126-.25,0-.25-.16086307,0-.1611295126.25,0,.25h0Z" style="fill: #576ddd;"/>
  <path d="m114.4814814815,76.5324074074c.16086307,0,.1611295126-.25,0-.25-.16086307,0-.1611295126.25,0,.25h0Z" style="fill: #576ddd;"/>
  <path d="m118.2962962963,78.1990740741c.16086307,0,.1611295126-.25,0-.25-.16086307,0-.1611295126.25,0,.25h0Z" style="fill: #576ddd;"/>
  <path d="m119.2222222222,73.3842592593c.16086307,0,.1611295126-.25,0-.25-.16086307,0-.1611295126.25,0,.25h0Z" style="fill: #576ddd;"/>
  <path d="m117.962962963,71.4953703704c.16086307,0,.1611295126-.25,0-.25-.16086307,0-.1611295126.25,0,.25h0Z" style="fill: #576ddd;"/>
  <path d="m112.5555555556,71.8287037037c.16086307,0,.1611295126-.25,0-.25-.16086307,0-.1611295126.25,0,.25h0Z" style="fill: #576ddd;"/>
  <path d="m114.962962963,72.9768518518c.16086307,0,.1611295126-.25,0-.25-.16086307,0-.1611295126.25,0,.25h0Z" style="fill: #576ddd;"/>
  <path d="m84.4444444444,79.087962963c.16086307,0,.1611295126-.25,0-.25-.16086307,0-.1611295126.25,0,.25h0Z" style="fill: #576ddd;"/>
  <path d="m85.5555555556,76.4212962963c.16086307,0,.1611295126-.25,0-.25-.16086307,0-.1611295126.25,0,.25h0Z" style="fill: #576ddd;"/>
  <path d="m86.7777777778,79.7546296296c.16086307,0,.1611295126-.25,0-.25-.16086307,0-.1611295126.25,0,.25h0Z" style="fill: #576ddd;"/>
  <path d="m89.4074074074,78.7175925926c.16086307,0,.1611295126-.25,0-.25-.16086307,0-.1611295126.25,0,.25h0Z" style="fill: #576ddd;"/>
  <path d="m88.4814814815,75.5324074074c.16086307,0,.1611295126-.25,0-.25-.16086307,0-.1611295126.25,0,.25h0Z" style="fill: #576ddd;"/>
  <path d="m92.1481481482,75.4212962963c.16086307,0,.1611295126-.25,0-.25-.16086307,0-.1611295126.25,0,.25h0Z" style="fill: #576ddd;"/>
  <path d="m95,76.0138888889c.16086307,0,.1611295126-.25,0-.25-.16086307,0-.1611295126.25,0,.25h0Z" style="fill: #576ddd;"/>
  <path d="m96.5925925926,77.3472222222c.16086307,0,.1611295126-.25,0-.25-.16086307,0-.1611295126.25,0,.25h0Z" style="fill: #576ddd;"/>
  <path d="m106.962962963,72.5324074074c.16086307,0,.1611295126-.25,0-.25-.16086307,0-.1611295126.25,0,.25h0Z" style="fill: #576ddd;"/>
  <path d="m108.8518518519,76.8287037037c.16086307,0,.1611295126-.25,0-.25-.16086307,0-.1611295126.25,0,.25h0Z" style="fill: #576ddd;"/>
  <path d="m100.2592592593,73.162037037c.16086307,0,.1611295126-.25,0-.25-.16086307,0-.1611295126.25,0,.25h0Z" style="fill: #576ddd;"/>
  <path d="m101.8888888889,76.0509259259c.16086307,0,.1611295126-.25,0-.25-.16086307,0-.1611295126.25,0,.25h0Z" style="fill: #576ddd;"/>
  <path d="m105.3333333333,75.125c.16086307,0,.1611295126-.25,0-.25-.16086307,0-.1611295126.25,0,.25h0Z" style="fill: #576ddd;"/>
  <path d="m92.7777777778,74.087962963c.16086307,0,.1611295126-.25,0-.25-.16086307,0-.1611295126.25,0,.25h0Z" style="fill: #576ddd;"/>
  <path d="m88.1481481482,73.3101851852c.16086307,0,.1611295126-.25,0-.25-.16086307,0-.1611295126.25,0,.25h0Z" style="fill: #576ddd;"/>
  <path d="m85.5185185185,73.9398148148c.16086307,0,.1611295126-.25,0-.25-.16086307,0-.1611295126.25,0,.25h0Z" style="fill: #576ddd;"/>
  <path d="m88.7777777778,86.6805555555c.16086307,0,.1611295126-.25,0-.25-.16086307,0-.1611295126.25,0,.25h0Z" style="fill: #576ddd;"/>
  <path d="m86.3333333333,90.2361111111c.16086307,0,.1611295126-.25,0-.25-.16086307,0-.1611295126.25,0,.25h0Z" style="fill: #576ddd;"/>
  <path d="m86.3703703704,86.6805555555c.16086307,0,.1611295126-.25,0-.25-.16086307,0-.1611295126.25,0,.25h0Z" style="fill: #576ddd;"/>
  <path d="m84.4074074074,89.162037037c.16086307,0,.1611295126-.25,0-.25-.16086307,0-.1611295126.25,0,.25h0Z" style="fill: #576ddd;"/>
  <path d="m83.3333333333,91.3101851852c.16086307,0,.1611295126-.25,0-.25-.16086307,0-.1611295126.25,0,.25h0Z" style="fill: #576ddd;"/>
  <path d="m81.8518518519,88.8287037037c.16086307,0,.1611295126-.25,0-.25-.16086307,0-.1611295126.25,0,.25h0Z" style="fill: #576ddd;"/>
  <path d="m77.037037037,89.2361111111c.16086307,0,.1611295126-.25,0-.25-.16086307,0-.1611295126.25,0,.25h0Z" style="fill: #576ddd;"/>
  <path d="m80.5185185185,90.4583333333c.16086307,0,.1611295126-.25,0-.25-.16086307,0-.1611295126.25,0,.25h0Z" style="fill: #576ddd;"/>
  <path d="m76.2222222222,94.0509259259c.16086307,0,.1611295126-.25,0-.25-.16086307,0-.1611295126.25,0,.25h0Z" style="fill: #576ddd;"/>
  <path d="m78.4814814815,92.5694444444c.16086307,0,.1611295126-.25,0-.25-.16086307,0-.1611295126.25,0,.25h0Z" style="fill: #576ddd;"/>
  <path d="m75,88.4212962963c.16086307,0,.1611295126-.25,0-.25-.16086307,0-.1611295126.25,0,.25h0Z" style="fill: #576ddd;"/>
  <path d="m69.5555555556,91.2731481481c.16086307,0,.1611295126-.25,0-.25-.16086307,0-.1611295126.25,0,.25h0Z" style="fill: #576ddd;"/>
  <path d="m74.5925925926,91.9398148148c.16086307,0,.1611295126-.25,0-.25-.16086307,0-.1611295126.25,0,.25h0Z" style="fill: #576ddd;"/>
  <path d="m72.1111111111,94.6435185185c.16086307,0,.1611295126-.25,0-.25-.16086307,0-.1611295126.25,0,.25h0Z" style="fill: #576ddd;"/>
  <path d="m72.5925925926,100.6805555555c.16086307,0,.1611295126-.25,0-.25-.16086307,0-.1611295126.25,0,.25h0Z" style="fill: #576ddd;"/>
  <path d="m74.5185185185,99.4212962963c.16086307,0,.1611295126-.25,0-.25-.16086307,0-.1611295126.25,0,.25h0Z" style="fill: #576ddd;"/>
  <path d="m73.5185185185,105.0138888889c.16086307,0,.1611295126-.25,0-.25-.16086307,0-.1611295126.25,0,.25h0Z" style="fill: #576ddd;"/>
  <path d="m75.3333333333,108.162037037c.16086307,0,.1611295126-.25,0-.25-.16086307,0-.1611295126.25,0,.25h0Z" style="fill: #576ddd;"/>
  <path d="m70.4074074074,105.6805555555c.16086307,0,.1611295126-.25,0-.25-.16086307,0-.1611295126.25,0,.25h0Z" style="fill: #576ddd;"/>
  <path d="m72.6296296296,103.6435185185c.16086307,0,.1611295126-.25,0-.25-.16086307,0-.1611295126.25,0,.25h0Z" style="fill: #576ddd;"/>
  <path d="m75.6666666667,102.8287037037c.16086307,0,.1611295126-.25,0-.25-.16086307,0-.1611295126.25,0,.25h0Z" style="fill: #576ddd;"/>
  <path d="m75.2592592593,105.0509259259c.16086307,0,.1611295126-.25,0-.25-.16086307,0-.1611295126.25,0,.25h0Z" style="fill: #576ddd;"/>
  <path d="m74.7407407407,101.9398148148c.16086307,0,.1611295126-.25,0-.25-.16086307,0-.1611295126.25,0,.25h0Z" style="fill: #576ddd;"/>
  <path d="m76.4814814815,99.8287037037c.16086307,0,.1611295126-.25,0-.25-.16086307,0-.1611295126.25,0,.25h0Z" style="fill: #576ddd;"/>
  <path d="m78.9259259259,99.1990740741c.16086307,0,.1611295126-.25,0-.25-.16086307,0-.1611295126.25,0,.25h0Z" style="fill: #576ddd;"/>
  <path d="m78.962962963,104.0509259259c.16086307,0,.1611295126-.25,0-.25-.16086307,0-.1611295126.25,0,.25h0Z" style="fill: #576ddd;"/>
  <path d="m78.5555555556,106.3842592593c.16086307,0,.1611295126-.25,0-.25-.16086307,0-.1611295126.25,0,.25h0Z" style="fill: #576ddd;"/>
  <path d="m79.5555555556,110.9768518518c.16086307,0,.1611295126-.25,0-.25-.16086307,0-.1611295126.25,0,.25h0Z" style="fill: #576ddd;"/>
  <path d="m82.2592592593,109.7546296296c.16086307,0,.1611295126-.25,0-.25-.16086307,0-.1611295126.25,0,.25h0Z" style="fill: #576ddd;"/>
  <path d="m79.8148148148,114.9027777778c.16086307,0,.1611295126-.25,0-.25-.16086307,0-.1611295126.25,0,.25h0Z" style="fill: #576ddd;"/>
  <path d="m79.4444444444,119.6805555555c.16086307,0,.1611295126-.25,0-.25-.16086307,0-.1611295126.25,0,.25h0Z" style="fill: #576ddd;"/>
  <path d="m84.962962963,121.3842592592c.16086307,0,.1611295126-.25,0-.25-.16086307,0-.1611295126.25,0,.25h0Z" style="fill: #576ddd;"/>
  <path d="m88.7407407407,120.3472222222c.16086307,0,.1611295126-.25,0-.25-.16086307,0-.1611295126.25,0,.25h0Z" style="fill: #576ddd;"/>
  <path d="m81.9259259259,120.9768518518c.16086307,0,.1611295126-.25,0-.25-.16086307,0-.1611295126.25,0,.25h0Z" style="fill: #576ddd;"/>
  <path d="m87.962962963,122.0509259259c.16086307,0,.1611295126-.25,0-.25-.16086307,0-.1611295126.25,0,.25h0Z" style="fill: #576ddd;"/>
  <path d="m88.8888888889,123.8657407407c.16086307,0,.1611295126-.25,0-.25-.16086307,0-.1611295126.25,0,.25h0Z" style="fill: #576ddd;"/>
  <path d="m108.5555555556,119.5694444444c.16086307,0,.1611295126-.25,0-.25-.16086307,0-.1611295126.25,0,.25h0Z" style="fill: #576ddd;"/>
  <path d="m107.3333333333,120.1990740741c.16086307,0,.1611295126-.25,0-.25-.16086307,0-.1611295126.25,0,.25h0Z" style="fill: #576ddd;"/>
  <path d="m106.7037037037,121.3472222222c.16086307,0,.1611295126-.25,0-.25-.16086307,0-.1611295126.25,0,.25h0Z" style="fill: #576ddd;"/>
  <path d="m107.962962963,122.7175925926c.16086307,0,.1611295126-.25,0-.25-.16086307,0-.1611295126.25,0,.25h0Z" style="fill: #576ddd;"/>
  <path d="m109.0740740741,120.6435185185c.16086307,0,.1611295126-.25,0-.25-.16086307,0-.1611295126.25,0,.25h0Z" style="fill: #576ddd;"/>
  <path d="m107.5185185185,118.9027777778c.16086307,0,.1611295126-.25,0-.25-.16086307,0-.1611295126.25,0,.25h0Z" style="fill: #576ddd;"/>
  <path d="m106.6666666667,122.4583333333c.16086307,0,.1611295126-.25,0-.25-.16086307,0-.1611295126.25,0,.25h0Z" style="fill: #576ddd;"/>
  <path d="m108.3703703704,121.4583333333c.16086307,0,.1611295126-.25,0-.25-.16086307,0-.1611295126.25,0,.25h0Z" style="fill: #576ddd;"/>
  <path d="m108.1851851852,120.4212962963c.16086307,0,.1611295126-.25,0-.25-.16086307,0-.1611295126.25,0,.25h0Z" style="fill: #576ddd;"/>
  <path d="m94.3333333333,124.6435185185c.16086307,0,.1611295126-.25,0-.25-.16086307,0-.1611295126.25,0,.25h0Z" style="fill: #576ddd;"/>
  <path d="m91.8888888889,121.6805555555c.16086307,0,.1611295126-.25,0-.25-.16086307,0-.1611295126.25,0,.25h0Z" style="fill: #576ddd;"/>
  <path d="m91.0740740741,123.3472222222c.16086307,0,.1611295126-.25,0-.25-.16086307,0-.1611295126.25,0,.25h0Z" style="fill: #576ddd;"/>
  <path d="m92.962962963,124.6435185185c.16086307,0,.1611295126-.25,0-.25-.16086307,0-.1611295126.25,0,.25h0Z" style="fill: #576ddd;"/>
  <path d="m75,111.3101851852c.16086307,0,.1611295126-.25,0-.25-.16086307,0-.1611295126.25,0,.25h0Z" style="fill: #576ddd;"/>
  <path d="m78.2592592593,113.4583333333c.16086307,0,.1611295126-.25,0-.25-.16086307,0-.1611295126.25,0,.25h0Z" style="fill: #576ddd;"/>
  <path d="m73.7037037037,116.2361111111c.16086307,0,.1611295126-.25,0-.25-.16086307,0-.1611295126.25,0,.25h0Z" style="fill: #576ddd;"/>
  <path d="m76.4444444444,119.3842592593c.16086307,0,.1611295126-.25,0-.25-.16086307,0-.1611295126.25,0,.25h0Z" style="fill: #576ddd;"/>
  <path d="m79.037037037,117.1990740741c.16086307,0,.1611295126-.25,0-.25-.16086307,0-.1611295126.25,0,.25h0Z" style="fill: #576ddd;"/>
  <path d="m75.4814814815,114.7546296296c.16086307,0,.1611295126-.25,0-.25-.16086307,0-.1611295126.25,0,.25h0Z" style="fill: #576ddd;"/>
  <path d="m105.6666666667,76.7916666667c.16086307,0,.1611295126-.25,0-.25-.16086307,0-.1611295126.25,0,.25h0Z" style="fill: #576ddd;"/>
  <path d="m99.0740740741,75.6805555555c.16086307,0,.1611295126-.25,0-.25-.16086307,0-.1611295126.25,0,.25h0Z" style="fill: #576ddd;"/>
  <path d="m97,72.4953703704c.16086307,0,.1611295126-.25,0-.25-.16086307,0-.1611295126.25,0,.25h0Z" style="fill: #576ddd;"/>
  <path d="m91.2962962963,71.4583333333c.16086307,0,.1611295126-.25,0-.25-.16086307,0-.1611295126.25,0,.25h0Z" style="fill: #576ddd;"/>
  <path d="m119.6296296296,102.2731481481c.16086307,0,.1611295126-.25,0-.25-.16086307,0-.1611295126.25,0,.25h0Z" style="fill: #576ddd;"/>
  <path d="m118.6666666667,100.9398148148c.16086307,0,.1611295126-.25,0-.25-.16086307,0-.1611295126.25,0,.25h0Z" style="fill: #576ddd;"/>
  <path d="m119.3333333333,98.3472222222c.16086307,0,.1611295126-.25,0-.25-.16086307,0-.1611295126.25,0,.25h0Z" style="fill: #576ddd;"/>
  <path d="m119.7037037037,100.2731481481c.16086307,0,.1611295126-.25,0-.25-.16086307,0-.1611295126.25,0,.25h0Z" style="fill: #576ddd;"/>
  <path d="m120.2962962963,96.4212962963c.16086307,0,.1611295126-.25,0-.25-.16086307,0-.1611295126.25,0,.25h0Z" style="fill: #576ddd;"/>
  <path d="m118.8148148148,99.087962963c.16086307,0,.1611295126-.25,0-.25-.16086307,0-.1611295126.25,0,.25h0Z" style="fill: #576ddd;"/>
  <path d="m120.5185185185,94.0509259259c.16086307,0,.1611295126-.25,0-.25-.16086307,0-.1611295126.25,0,.25h0Z" style="fill: #576ddd;"/>
  <path d="m117.5555555556,93.6805555555c.16086307,0,.1611295126-.25,0-.25-.16086307,0-.1611295126.25,0,.25h0Z" style="fill: #576ddd;"/>
  <path d="m115.9259259259,101.7546296296c.16086307,0,.1611295126-.25,0-.25-.16086307,0-.1611295126.25,0,.25h0Z" style="fill: #576ddd;"/>
  <path d="m118.5925925926,101.6805555555c.16086307,0,.1611295126-.25,0-.25-.16086307,0-.1611295126.25,0,.25h0Z" style="fill: #576ddd;"/>
  <path d="m116.962962963,103.9027777778c.16086307,0,.1611295126-.25,0-.25-.16086307,0-.1611295126.25,0,.25h0Z" style="fill: #576ddd;"/>
  <path d="m116.4444444444,105.6064814815c.16086307,0,.1611295126-.25,0-.25-.16086307,0-.1611295126.25,0,.25h0Z" style="fill: #576ddd;"/>
  <path d="m114.962962963,107.087962963c.16086307,0,.1611295126-.25,0-.25-.16086307,0-.1611295126.25,0,.25h0Z" style="fill: #576ddd;"/>
  <path d="m113.5555555556,99.5324074074c.16086307,0,.1611295126-.25,0-.25-.16086307,0-.1611295126.25,0,.25h0Z" style="fill: #576ddd;"/>
  <path d="m112.5925925926,98.7916666667c.16086307,0,.1611295126-.25,0-.25-.16086307,0-.1611295126.25,0,.25h0Z" style="fill: #576ddd;"/>
  <path d="m113.9259259259,97.3101851852c.16086307,0,.1611295126-.25,0-.25-.16086307,0-.1611295126.25,0,.25h0Z" style="fill: #576ddd;"/>
  <path d="m113.7777777778,98.0509259259c.16086307,0,.1611295126-.25,0-.25-.16086307,0-.1611295126.25,0,.25h0Z" style="fill: #576ddd;"/>
  <path d="m112.8888888889,95.3101851852c.16086307,0,.1611295126-.25,0-.25-.16086307,0-.1611295126.25,0,.25h0Z" style="fill: #576ddd;"/>
  <path d="m114.2962962963,93.6064814815c.16086307,0,.1611295126-.25,0-.25-.16086307,0-.1611295126.25,0,.25h0Z" style="fill: #576ddd;"/>
  <path d="m114.6666666667,94.6435185185c.16086307,0,.1611295126-.25,0-.25-.16086307,0-.1611295126.25,0,.25h0Z" style="fill: #576ddd;"/>
  <path d="m114.5925925926,87.3101851852c.16086307,0,.1611295126-.25,0-.25-.16086307,0-.1611295126.25,0,.25h0Z" style="fill: #576ddd;"/>
  <path d="m115.3333333333,85.087962963c.16086307,0,.1611295126-.25,0-.25-.16086307,0-.1611295126.25,0,.25h0Z" style="fill: #576ddd;"/>
  <path d="m116.2222222222,84.8657407407c.16086307,0,.1611295126-.25,0-.25-.16086307,0-.1611295126.25,0,.25h0Z" style="fill: #576ddd;"/>
  <path d="m111.4074074074,99.4583333333c.16086307,0,.1611295126-.25,0-.25-.16086307,0-.1611295126.25,0,.25h0Z" style="fill: #576ddd;"/>
  <path d="m115.4074074074,89.3101851852c.16086307,0,.1611295126-.25,0-.25-.16086307,0-.1611295126.25,0,.25h0Z" style="fill: #576ddd;"/>
  <path d="m114.2962962963,89.9027777778c.16086307,0,.1611295126-.25,0-.25-.16086307,0-.1611295126.25,0,.25h0Z" style="fill: #576ddd;"/>
  <path d="m115.1851851852,91.6064814815c.16086307,0,.1611295126-.25,0-.25-.16086307,0-.1611295126.25,0,.25h0Z" style="fill: #576ddd;"/>
  <path d="m115.9259259259,86.7916666667c.16086307,0,.1611295126-.25,0-.25-.16086307,0-.1611295126.25,0,.25h0Z" style="fill: #576ddd;"/>
</svg>