<svg id="arboles_relleno" xmlns="http://www.w3.org/2000/svg" viewBox="0 0 210 210"><defs><style>.cls-1{fill:#00ff47;}.cls-2{fill:#1c00aa;}</style></defs><circle class="cls-1" cx="108.79" cy="148.07" r="0.21"/><circle class="cls-1" cx="109.99" cy="147.82" r="0.21"/><circle class="cls-1" cx="109.13" cy="147.25" r="0.21"/><circle class="cls-1" cx="110.1" cy="146.96" r="0.21"/><circle class="cls-1" cx="108.98" cy="146.32" r="0.21"/><circle class="cls-1" cx="109.03" cy="145.86" r="0.21"/><circle class="cls-1" cx="109.75" cy="145.52" r="0.21"/><circle class="cls-1" cx="109.16" cy="145" r="0.21"/><circle class="cls-1" cx="109.25" cy="144.54" r="0.21"/><circle class="cls-1" cx="109.46" cy="144.12" r="0.21"/><circle class="cls-1" cx="109.96" cy="143.74" r="0.21"/><circle class="cls-1" cx="109.58" cy="143.24" r="0.21"/><circle class="cls-1" cx="110.44" cy="142.93" r="0.21"/><circle class="cls-1" cx="109.58" cy="142.35" r="0.21"/><circle class="cls-1" cx="110.63" cy="142.05" r="0.21"/><circle class="cls-1" cx="110.34" cy="141.59" r="0.21"/><circle class="cls-1" cx="110.58" cy="141.18" r="0.21"/><circle class="cls-1" cx="111.04" cy="140.82" r="0.21"/><circle class="cls-1" cx="110.34" cy="140.26" r="0.21"/><circle class="cls-1" cx="109.91" cy="139.76" r="0.21"/><circle class="cls-1" cx="110.7" cy="139.44" r="0.21"/><circle class="cls-1" cx="110.73" cy="139.01" r="0.21"/><circle class="cls-1" cx="110.92" cy="138.57" r="0.21"/><circle class="cls-1" cx="111.11" cy="138.14" r="0.21"/><circle class="cls-1" cx="111.48" cy="137.77" r="0.21"/><circle class="cls-1" cx="110.48" cy="137.19" r="0.21"/><circle class="cls-1" cx="111.08" cy="136.85" r="0.21"/><circle class="cls-1" cx="111.51" cy="136.48" r="0.21"/><circle class="cls-1" cx="111.32" cy="136.01" r="0.21"/><circle class="cls-1" cx="111.35" cy="135.59" r="0.21"/><circle class="cls-1" cx="110.99" cy="135.1" r="0.21"/><circle class="cls-1" cx="111.27" cy="134.68" r="0.21"/><circle class="cls-1" cx="112.02" cy="134.36" r="0.21"/><circle class="cls-1" cx="112.06" cy="133.93" r="0.21"/><circle class="cls-1" cx="111.31" cy="133.39" r="0.21"/><circle class="cls-1" cx="112.17" cy="133.08" r="0.21"/><circle class="cls-1" cx="112.25" cy="132.65" r="0.21"/><circle class="cls-1" cx="112.32" cy="132.23" r="0.21"/><circle class="cls-1" cx="111.67" cy="131.69" r="0.21"/><circle class="cls-1" cx="111.96" cy="131.28" r="0.21"/><circle class="cls-1" cx="111.23" cy="130.72" r="0.21"/><circle class="cls-1" cx="111.26" cy="130.26" r="0.21"/><circle class="cls-1" cx="111.5" cy="129.88" r="0.21"/><circle class="cls-1" cx="111.79" cy="129.47" r="0.21"/><circle class="cls-1" cx="112.35" cy="129.12" r="0.21"/><circle class="cls-1" cx="111.94" cy="128.62" r="0.21"/><circle class="cls-1" cx="112.77" cy="128.3" r="0.21"/><circle class="cls-1" cx="112.69" cy="127.84" r="0.21"/><circle class="cls-1" cx="111.77" cy="127.26" r="0.21"/><circle class="cls-1" cx="111.89" cy="126.81" r="0.21"/><circle class="cls-1" cx="112.79" cy="126.52" r="0.21"/><circle class="cls-1" cx="112.03" cy="125.97" r="0.21"/><circle class="cls-1" cx="112.14" cy="125.57" r="0.21"/><circle class="cls-1" cx="112.19" cy="125.1" r="0.21"/><circle class="cls-1" cx="112.99" cy="124.76" r="0.21"/><circle class="cls-1" cx="112.92" cy="124.29" r="0.21"/><circle class="cls-1" cx="113.04" cy="123.88" r="0.21"/><circle class="cls-1" cx="112.97" cy="123.42" r="0.21"/><circle class="cls-1" cx="112.7" cy="122.92" r="0.21"/><circle class="cls-1" cx="113.15" cy="122.57" r="0.21"/><circle class="cls-1" cx="112.9" cy="122.04" r="0.21"/><circle class="cls-1" cx="112.98" cy="121.58" r="0.21"/><circle class="cls-1" cx="113.25" cy="121.18" r="0.21"/><circle class="cls-1" cx="114.37" cy="120.97" r="0.21"/><circle class="cls-1" cx="114.45" cy="120.56" r="0.21"/><circle class="cls-1" cx="114.55" cy="120.12" r="0.21"/><circle class="cls-1" cx="114.38" cy="119.64" r="0.21"/><circle class="cls-1" cx="113.78" cy="119.05" r="0.21"/><circle class="cls-1" cx="114.08" cy="118.65" r="0.21"/><circle class="cls-1" cx="114.64" cy="118.32" r="0.21"/><circle class="cls-1" cx="113.71" cy="117.64" r="0.21"/><circle class="cls-1" cx="114.62" cy="117.4" r="0.21"/><circle class="cls-1" cx="114.29" cy="116.89" r="0.21"/><circle class="cls-1" cx="113.98" cy="116.37" r="0.21"/><circle class="cls-1" cx="115.14" cy="116.16" r="0.21"/><circle class="cls-1" cx="115.51" cy="115.79" r="0.21"/><circle class="cls-1" cx="114.43" cy="115.08" r="0.21"/><circle class="cls-1" cx="114.95" cy="114.73" r="0.21"/><circle class="cls-1" cx="115.23" cy="114.37" r="0.21"/><circle class="cls-1" cx="115.23" cy="113.91" r="0.21"/><circle class="cls-1" cx="116.04" cy="113.66" r="0.21"/><circle class="cls-1" cx="115.07" cy="113" r="0.21"/><circle class="cls-1" cx="115.47" cy="112.65" r="0.21"/><circle class="cls-1" cx="116.11" cy="112.33" r="0.21"/><circle class="cls-1" cx="115.7" cy="111.81" r="0.21"/><circle class="cls-1" cx="116.2" cy="111.49" r="0.21"/><circle class="cls-1" cx="116.43" cy="111.07" r="0.21"/><circle class="cls-1" cx="116.41" cy="110.61" r="0.21"/><circle class="cls-1" cx="116.8" cy="110.23" r="0.21"/><circle class="cls-1" cx="115.85" cy="109.58" r="0.21"/><circle class="cls-1" cx="116.03" cy="109.16" r="0.21"/><circle class="cls-1" cx="116.41" cy="108.8" r="0.21"/><circle class="cls-1" cx="116.99" cy="108.51" r="0.21"/><circle class="cls-1" cx="116.5" cy="107.96" r="0.21"/><circle class="cls-1" cx="116.1" cy="107.39" r="0.21"/><circle class="cls-1" cx="117.2" cy="107.21" r="0.21"/><circle class="cls-1" cx="116.57" cy="106.62" r="0.21"/><circle class="cls-1" cx="117.03" cy="106.29" r="0.21"/><circle class="cls-1" cx="117.21" cy="105.86" r="0.21"/><circle class="cls-1" cx="110.54" cy="149.62" r="0.21"/><circle class="cls-1" cx="110.38" cy="149.16" r="0.21"/><circle class="cls-1" cx="110.28" cy="148.69" r="0.21"/><circle class="cls-1" cx="111.18" cy="148.42" r="0.21"/><circle class="cls-1" cx="111.79" cy="148.06" r="0.21"/><circle class="cls-1" cx="110.78" cy="147.42" r="0.21"/><circle class="cls-1" cx="110.62" cy="146.94" r="0.21"/><circle class="cls-1" cx="110.75" cy="146.5" r="0.21"/><circle class="cls-1" cx="111.69" cy="146.23" r="0.21"/><circle class="cls-1" cx="111.01" cy="145.67" r="0.21"/><circle class="cls-1" cx="111.18" cy="145.27" r="0.21"/><circle class="cls-1" cx="111.2" cy="144.84" r="0.21"/><circle class="cls-1" cx="111.85" cy="144.49" r="0.21"/><circle class="cls-1" cx="112.27" cy="144.12" r="0.21"/><circle class="cls-1" cx="112.08" cy="143.65" r="0.21"/><circle class="cls-1" cx="111.32" cy="143.08" r="0.21"/><circle class="cls-1" cx="112.27" cy="142.79" r="0.21"/><circle class="cls-1" cx="112.46" cy="142.36" r="0.21"/><circle class="cls-1" cx="111.99" cy="141.84" r="0.21"/><circle class="cls-1" cx="112.39" cy="141.47" r="0.21"/><circle class="cls-1" cx="112.17" cy="140.97" r="0.21"/><circle class="cls-1" cx="112.72" cy="140.6" r="0.21"/><circle class="cls-1" cx="112.26" cy="140.07" r="0.21"/><circle class="cls-1" cx="112.64" cy="139.71" r="0.21"/><circle class="cls-1" cx="112.12" cy="139.15" r="0.21"/><circle class="cls-1" cx="112.97" cy="138.83" r="0.21"/><circle class="cls-1" cx="113.37" cy="138.43" r="0.21"/><circle class="cls-1" cx="112.29" cy="137.79" r="0.21"/><circle class="cls-1" cx="113.63" cy="137.6" r="0.21"/><circle class="cls-1" cx="112.8" cy="136.99" r="0.21"/><circle class="cls-1" cx="112.64" cy="136.49" r="0.21"/><circle class="cls-1" cx="113.83" cy="136.26" r="0.21"/><circle class="cls-1" cx="113.37" cy="135.73" r="0.21"/><circle class="cls-1" cx="113.48" cy="135.32" r="0.21"/><circle class="cls-1" cx="113.76" cy="134.93" r="0.21"/><circle class="cls-1" cx="113.81" cy="134.48" r="0.21"/><circle class="cls-1" cx="113.03" cy="133.9" r="0.21"/><circle class="cls-1" cx="114.25" cy="133.65" r="0.21"/><circle class="cls-1" cx="113.25" cy="133.03" r="0.21"/><circle class="cls-1" cx="114.34" cy="132.77" r="0.21"/><circle class="cls-1" cx="114.33" cy="132.33" r="0.21"/><circle class="cls-1" cx="114.62" cy="131.92" r="0.21"/><circle class="cls-1" cx="114.48" cy="131.44" r="0.21"/><circle class="cls-1" cx="113.78" cy="130.89" r="0.21"/><circle class="cls-1" cx="114.39" cy="130.56" r="0.21"/><circle class="cls-1" cx="114.5" cy="130.11" r="0.21"/><circle class="cls-1" cx="114.55" cy="129.66" r="0.21"/><circle class="cls-1" cx="115.03" cy="129.3" r="0.21"/><circle class="cls-1" cx="115.17" cy="128.88" r="0.21"/><circle class="cls-1" cx="114.24" cy="128.25" r="0.21"/><circle class="cls-1" cx="114.18" cy="127.77" r="0.21"/><circle class="cls-1" cx="114.37" cy="127.38" r="0.21"/><circle class="cls-1" cx="115.37" cy="127.09" r="0.21"/><circle class="cls-1" cx="114.51" cy="126.49" r="0.21"/><circle class="cls-1" cx="115.2" cy="126.17" r="0.21"/><circle class="cls-1" cx="115.23" cy="125.7" r="0.21"/><circle class="cls-1" cx="115.06" cy="125.21" r="0.21"/><circle class="cls-1" cx="114.53" cy="124.67" r="0.21"/><circle class="cls-1" cx="115.24" cy="124.33" r="0.21"/><circle class="cls-1" cx="114.92" cy="123.81" r="0.21"/><circle class="cls-1" cx="116.06" cy="123.56" r="0.21"/><circle class="cls-1" cx="115.13" cy="122.97" r="0.21"/><circle class="cls-1" cx="115.57" cy="122.59" r="0.21"/><circle class="cls-1" cx="115.85" cy="122.18" r="0.21"/><circle class="cls-1" cx="115.74" cy="121.7" r="0.21"/><circle class="cls-1" cx="115.76" cy="121.27" r="0.21"/><circle class="cls-1" cx="115.8" cy="120.84" r="0.21"/><circle class="cls-1" cx="116.03" cy="120.44" r="0.21"/><circle class="cls-1" cx="116.47" cy="120.06" r="0.21"/><circle class="cls-1" cx="116.64" cy="119.63" r="0.21"/><circle class="cls-1" cx="116.24" cy="119.09" r="0.21"/><circle class="cls-1" cx="116.23" cy="118.63" r="0.21"/><circle class="cls-1" cx="116.57" cy="118.22" r="0.21"/><circle class="cls-1" cx="115.8" cy="117.63" r="0.21"/><circle class="cls-1" cx="116.83" cy="117.38" r="0.21"/><circle class="cls-1" cx="116.6" cy="116.87" r="0.21"/><circle class="cls-1" cx="116.8" cy="116.47" r="0.21"/><circle class="cls-1" cx="116.54" cy="115.98" r="0.21"/><circle class="cls-1" cx="117.2" cy="115.63" r="0.21"/><circle class="cls-1" cx="116.97" cy="115.12" r="0.21"/><circle class="cls-1" cx="116.38" cy="114.59" r="0.21"/><circle class="cls-1" cx="117.29" cy="114.3" r="0.21"/><circle class="cls-1" cx="116.95" cy="113.8" r="0.21"/><circle class="cls-1" cx="117.97" cy="113.54" r="0.21"/><circle class="cls-1" cx="117.48" cy="113.03" r="0.21"/><circle class="cls-1" cx="117.8" cy="112.62" r="0.21"/><circle class="cls-1" cx="117.64" cy="112.15" r="0.21"/><circle class="cls-1" cx="118.11" cy="111.79" r="0.21"/><circle class="cls-1" cx="118.04" cy="111.31" r="0.21"/><circle class="cls-1" cx="117.8" cy="110.84" r="0.21"/><circle class="cls-1" cx="118.36" cy="110.47" r="0.21"/><circle class="cls-1" cx="117.8" cy="109.93" r="0.21"/><circle class="cls-1" cx="118.63" cy="109.64" r="0.21"/><circle class="cls-1" cx="118.29" cy="109.15" r="0.21"/><circle class="cls-1" cx="117.98" cy="108.63" r="0.21"/><circle class="cls-1" cx="123.41" cy="69.82" r="0.1"/><circle class="cls-1" cx="122.35" cy="69.89" r="0.1"/><circle class="cls-1" cx="123.05" cy="70.28" r="0.1"/><circle class="cls-1" cx="122.62" cy="70.46" r="0.1"/><circle class="cls-1" cx="123.23" cy="70.82" r="0.1"/><circle class="cls-1" cx="123.1" cy="71.02" r="0.1"/><circle class="cls-1" cx="123.56" cy="71.37" r="0.1"/><circle class="cls-1" cx="123.03" cy="71.47" r="0.1"/><circle class="cls-1" cx="123.71" cy="71.83" r="0.1"/><circle class="cls-1" cx="122.63" cy="71.89" r="0.1"/><circle class="cls-1" cx="123.24" cy="72.21" r="0.1"/><circle class="cls-1" cx="122.93" cy="72.42" r="0.1"/><circle class="cls-1" cx="122.24" cy="72.5" r="0.1"/><circle class="cls-1" cx="123.53" cy="72.96" r="0.1"/><circle class="cls-1" cx="122.15" cy="72.95" r="0.1"/><circle class="cls-1" cx="122.15" cy="73.16" r="0.1"/><circle class="cls-1" cx="121.67" cy="73.32" r="0.1"/><circle class="cls-1" cx="122.09" cy="73.61" r="0.1"/><circle class="cls-1" cx="122.04" cy="73.84" r="0.1"/><circle class="cls-1" cx="123.29" cy="74.33" r="0.1"/><circle class="cls-1" cx="121.52" cy="74.27" r="0.1"/><circle class="cls-1" cx="121.43" cy="74.49" r="0.1"/><circle class="cls-1" cx="121.75" cy="74.8" r="0.1"/><circle class="cls-1" cx="122.51" cy="75.15" r="0.1"/><circle class="cls-1" cx="121.99" cy="75.27" r="0.1"/><circle class="cls-1" cx="122.86" cy="75.62" r="0.1"/><circle class="cls-1" cx="122.91" cy="75.86" r="0.1"/><circle class="cls-1" cx="121.34" cy="75.78" r="0.1"/><circle class="cls-1" cx="122.44" cy="76.22" r="0.1"/><circle class="cls-1" cx="121.28" cy="76.26" r="0.1"/><circle class="cls-1" cx="122.35" cy="76.7" r="0.1"/><circle class="cls-1" cx="121.27" cy="76.7" r="0.1"/><circle class="cls-1" cx="121.13" cy="76.9" r="0.1"/><circle class="cls-1" cx="121.58" cy="77.18" r="0.1"/><circle class="cls-1" cx="122.05" cy="77.54" r="0.1"/><circle class="cls-1" cx="122.39" cy="77.86" r="0.1"/><circle class="cls-1" cx="122.08" cy="78" r="0.1"/><circle class="cls-1" cx="122.51" cy="78.29" r="0.1"/><circle class="cls-1" cx="120.9" cy="78.26" r="0.1"/><circle class="cls-1" cx="121.2" cy="78.59" r="0.1"/><circle class="cls-1" cx="121.71" cy="78.95" r="0.1"/><circle class="cls-1" cx="122.2" cy="79.27" r="0.1"/><circle class="cls-1" cx="120.83" cy="79.27" r="0.1"/><circle class="cls-1" cx="120.88" cy="79.48" r="0.1"/><circle class="cls-1" cx="121.07" cy="79.75" r="0.1"/><circle class="cls-1" cx="121.04" cy="80.01" r="0.1"/><circle class="cls-1" cx="120.48" cy="80.16" r="0.1"/><circle class="cls-1" cx="121.58" cy="80.58" r="0.1"/><circle class="cls-1" cx="121.17" cy="80.76" r="0.1"/><circle class="cls-1" cx="121.98" cy="81.13" r="0.1"/><circle class="cls-1" cx="121.9" cy="81.31" r="0.1"/><circle class="cls-1" cx="120.66" cy="81.35" r="0.1"/><circle class="cls-1" cx="121.77" cy="81.79" r="0.1"/><circle class="cls-1" cx="121.71" cy="82" r="0.1"/><circle class="cls-1" cx="120.11" cy="81.93" r="0.1"/><circle class="cls-1" cx="120.7" cy="82.26" r="0.1"/><circle class="cls-1" cx="120.09" cy="82.37" r="0.1"/><circle class="cls-1" cx="120.46" cy="82.7" r="0.1"/><circle class="cls-1" cx="120.2" cy="82.91" r="0.1"/><circle class="cls-1" cx="121.48" cy="83.36" r="0.1"/><circle class="cls-1" cx="121.19" cy="83.5" r="0.1"/><circle class="cls-1" cx="120.11" cy="83.54" r="0.1"/><circle class="cls-1" cx="119.72" cy="83.7" r="0.1"/><circle class="cls-1" cx="120.51" cy="84.09" r="0.1"/><circle class="cls-1" cx="121.37" cy="84.52" r="0.1"/><circle class="cls-1" cx="119.79" cy="84.46" r="0.1"/><circle class="cls-1" cx="120.01" cy="84.76" r="0.1"/><circle class="cls-1" cx="120.54" cy="85.07" r="0.1"/><circle class="cls-1" cx="120.98" cy="85.36" r="0.1"/><circle class="cls-1" cx="121.05" cy="85.6" r="0.1"/><circle class="cls-1" cx="119.72" cy="85.62" r="0.1"/><circle class="cls-1" cx="120.51" cy="85.98" r="0.1"/><circle class="cls-1" cx="119.42" cy="86.04" r="0.1"/><circle class="cls-1" cx="119.73" cy="86.37" r="0.1"/><circle class="cls-1" cx="120.29" cy="86.74" r="0.1"/><circle class="cls-1" cx="120.09" cy="86.92" r="0.1"/><circle class="cls-1" cx="120.11" cy="87.13" r="0.1"/><circle class="cls-1" cx="120.13" cy="87.38" r="0.1"/><circle class="cls-1" cx="119.99" cy="87.62" r="0.1"/><circle class="cls-1" cx="120.48" cy="87.92" r="0.1"/><circle class="cls-1" cx="119.19" cy="87.93" r="0.1"/><circle class="cls-1" cx="120.09" cy="88.3" r="0.1"/><circle class="cls-1" cx="119.48" cy="88.43" r="0.1"/><circle class="cls-1" cx="119.28" cy="88.64" r="0.1"/><circle class="cls-1" cx="119.58" cy="88.91" r="0.1"/><circle class="cls-1" cx="120.21" cy="89.28" r="0.1"/><circle class="cls-1" cx="119.67" cy="89.41" r="0.1"/><circle class="cls-1" cx="119.74" cy="89.69" r="0.1"/><circle class="cls-1" cx="119.27" cy="89.82" r="0.1"/><circle class="cls-1" cx="119.43" cy="90.11" r="0.1"/><circle class="cls-1" cx="120.22" cy="90.45" r="0.1"/><circle class="cls-1" cx="119.49" cy="90.53" r="0.1"/><circle class="cls-1" cx="119.05" cy="90.65" r="0.1"/><circle class="cls-1" cx="119.37" cy="90.93" r="0.1"/><circle class="cls-1" cx="118.94" cy="91.08" r="0.1"/><circle class="cls-1" cx="118.58" cy="91.27" r="0.1"/><circle class="cls-1" cx="119.41" cy="91.63" r="0.1"/><circle class="cls-1" cx="120.07" cy="91.97" r="0.1"/><circle class="cls-1" cx="119.8" cy="92.17" r="0.1"/><circle class="cls-1" cx="119.36" cy="92.34" r="0.1"/><circle class="cls-1" cx="118.52" cy="92.39" r="0.1"/><circle class="cls-1" cx="119.8" cy="92.89" r="0.1"/><circle class="cls-1" cx="119.45" cy="93.05" r="0.1"/><circle class="cls-1" cx="119.11" cy="93.21" r="0.1"/><circle class="cls-1" cx="118.79" cy="93.39" r="0.1"/><circle class="cls-1" cx="118.8" cy="93.62" r="0.1"/><circle class="cls-1" cx="118.63" cy="93.85" r="0.1"/><circle class="cls-1" cx="119.3" cy="94.24" r="0.1"/><circle class="cls-1" cx="118.59" cy="94.34" r="0.1"/><circle class="cls-1" cx="119.18" cy="94.72" r="0.1"/><circle class="cls-1" cx="118.97" cy="94.92" r="0.1"/><circle class="cls-1" cx="119.08" cy="95.18" r="0.1"/><circle class="cls-1" cx="117.86" cy="95.21" r="0.1"/><circle class="cls-1" cx="119.07" cy="95.69" r="0.1"/><circle class="cls-1" cx="119.2" cy="95.94" r="0.1"/><circle class="cls-1" cx="117.62" cy="95.87" r="0.1"/><circle class="cls-1" cx="117.83" cy="96.17" r="0.1"/><circle class="cls-1" cx="117.54" cy="96.36" r="0.1"/><circle class="cls-1" cx="117.73" cy="96.66" r="0.1"/><circle class="cls-1" cx="118.93" cy="97.14" r="0.1"/><circle class="cls-1" cx="118.62" cy="97.31" r="0.1"/><circle class="cls-1" cx="118.28" cy="97.48" r="0.1"/><circle class="cls-1" cx="117.54" cy="97.59" r="0.1"/><circle class="cls-1" cx="118.35" cy="97.95" r="0.1"/><circle class="cls-1" cx="118.38" cy="98.15" r="0.1"/><circle class="cls-1" cx="117.62" cy="98.22" r="0.1"/><circle class="cls-1" cx="118.19" cy="98.57" r="0.1"/><circle class="cls-1" cx="117.12" cy="98.6" r="0.1"/><circle class="cls-1" cx="117.59" cy="98.91" r="0.1"/><circle class="cls-1" cx="118.06" cy="99.22" r="0.1"/><circle class="cls-1" cx="117.51" cy="99.36" r="0.1"/><circle class="cls-1" cx="118.1" cy="99.68" r="0.1"/><circle class="cls-1" cx="116.83" cy="99.66" r="0.1"/><circle class="cls-1" cx="118.4" cy="100.2" r="0.1"/><circle class="cls-1" cx="117.95" cy="100.37" r="0.1"/><circle class="cls-1" cx="116.85" cy="100.4" r="0.1"/><circle class="cls-1" cx="116.91" cy="100.64" r="0.1"/><circle class="cls-1" cx="116.68" cy="100.85" r="0.1"/><circle class="cls-1" cx="117.51" cy="101.27" r="0.1"/><circle class="cls-1" cx="114.02" cy="123.4" r="0.1"/><circle class="cls-1" cx="114.01" cy="123.18" r="0.1"/><circle class="cls-1" cx="114.37" cy="123.04" r="0.1"/><circle class="cls-1" cx="114.27" cy="122.8" r="0.1"/><circle class="cls-1" cx="114.08" cy="122.54" r="0.1"/><circle class="cls-1" cx="114.6" cy="122.43" r="0.1"/><circle class="cls-1" cx="114" cy="122.09" r="0.1"/><circle class="cls-1" cx="114.61" cy="121.99" r="0.1"/><circle class="cls-1" cx="111.11" cy="114.3" r="0.1"/><circle class="cls-1" cx="110.26" cy="114.85" r="0.1"/><circle class="cls-1" cx="109" cy="116.26" r="0.1"/><circle class="cls-1" cx="110.64" cy="116.49" r="0.1"/><circle class="cls-1" cx="109.77" cy="116.28" r="0.1"/><circle class="cls-1" cx="111.23" cy="114.96" r="0.1"/><circle class="cls-1" cx="109.59" cy="117.09" r="0.1"/><circle class="cls-1" cx="110.13" cy="117.28" r="0.1"/><circle class="cls-1" cx="107.87" cy="117.6" r="0.1"/><circle class="cls-1" cx="109.68" cy="117.77" r="0.1"/><circle class="cls-1" cx="108.63" cy="117.98" r="0.1"/><circle class="cls-1" cx="110.83" cy="117.21" r="0.1"/><circle class="cls-1" cx="107.45" cy="116.59" r="0.1"/><circle class="cls-1" cx="106.81" cy="116.73" r="0.1"/><circle class="cls-1" cx="107.06" cy="118.54" r="0.1"/><circle class="cls-1" cx="105.49" cy="118.15" r="0.1"/><circle class="cls-1" cx="105.14" cy="118.01" r="0.1"/><circle class="cls-1" cx="106.07" cy="119.79" r="0.1"/><circle class="cls-1" cx="105.77" cy="120.02" r="0.1"/><circle class="cls-1" cx="105.8" cy="121.32" r="0.1"/><circle class="cls-1" cx="105.59" cy="121.64" r="0.1"/><circle class="cls-1" cx="104.57" cy="120.92" r="0.1"/><circle class="cls-1" cx="109.69" cy="122.37" r="0.1"/><circle class="cls-1" cx="109.94" cy="121.7" r="0.1"/><circle class="cls-1" cx="108.96" cy="121.66" r="0.1"/><circle class="cls-1" cx="110.3" cy="119.98" r="0.1"/><circle class="cls-1" cx="110.53" cy="118" r="0.1"/><circle class="cls-1" cx="109.64" cy="118.43" r="0.1"/><circle class="cls-1" cx="109.03" cy="118.55" r="0.1"/><circle class="cls-1" cx="110.6" cy="119.02" r="0.1"/><circle class="cls-1" cx="109.34" cy="124.85" r="0.1"/><circle class="cls-1" cx="108.85" cy="124.36" r="0.1"/><circle class="cls-1" cx="106.11" cy="123.13" r="0.1"/><circle class="cls-1" cx="106.07" cy="122.54" r="0.1"/><circle class="cls-1" cx="106.64" cy="124.89" r="0.1"/><circle class="cls-1" cx="107.05" cy="123.76" r="0.1"/><circle class="cls-1" cx="107.85" cy="125.62" r="0.1"/><circle class="cls-1" cx="108.49" cy="125.06" r="0.1"/><circle class="cls-1" cx="108.04" cy="124.13" r="0.1"/><circle class="cls-1" cx="108.63" cy="123.16" r="0.1"/><circle class="cls-1" cx="109.04" cy="125.7" r="0.1"/><circle class="cls-1" cx="107.68" cy="124.6" r="0.1"/><circle class="cls-1" cx="109.09" cy="127.32" r="0.1"/><circle class="cls-1" cx="105.98" cy="126.11" r="0.1"/><circle class="cls-1" cx="100.68" cy="112.24" r="0.1"/><circle class="cls-1" cx="92.7" cy="110.41" r="0.1"/><circle class="cls-1" cx="103.62" cy="111.98" r="0.1"/><circle class="cls-1" cx="99.41" cy="111.53" r="0.1"/><circle class="cls-1" cx="98.64" cy="111.62" r="0.1"/><circle class="cls-1" cx="96.6" cy="110.87" r="0.1"/><circle class="cls-1" cx="91.6" cy="110.76" r="0.1"/><circle class="cls-1" cx="100.68" cy="113.61" r="0.1"/><circle class="cls-1" cx="98.9" cy="111.98" r="0.1"/><circle class="cls-1" cx="102.21" cy="112.05" r="0.1"/><circle class="cls-1" cx="111.61" cy="113.47" r="0.1"/><circle class="cls-1" cx="110.83" cy="115.47" r="0.1"/><circle class="cls-1" cx="109.17" cy="112.4" r="0.1"/><circle class="cls-1" cx="109.09" cy="115.53" r="0.1"/><circle class="cls-1" cx="109.3" cy="114.23" r="0.1"/><circle class="cls-1" cx="111.91" cy="109.73" r="0.1"/><circle class="cls-1" cx="112.43" cy="107.67" r="0.1"/><circle class="cls-1" cx="112.04" cy="105.66" r="0.1"/><circle class="cls-1" cx="110.19" cy="103.47" r="0.1"/><circle class="cls-1" cx="107.45" cy="103.16" r="0.1"/><circle class="cls-1" cx="109.26" cy="102.4" r="0.1"/><circle class="cls-1" cx="92.48" cy="111.03" r="0.26"/><circle class="cls-1" cx="94.46" cy="110.92" r="0.26"/><circle class="cls-1" cx="97.3" cy="111.18" r="0.26"/><circle class="cls-1" cx="110.06" cy="114.31" r="0.26"/><circle class="cls-1" cx="108.69" cy="113.55" r="0.26"/><circle class="cls-1" cx="110.61" cy="112.84" r="0.26"/><circle class="cls-1" cx="101" cy="111.45" r="0.26"/><circle class="cls-1" cx="105.02" cy="111.83" r="0.26"/><circle class="cls-1" cx="107.26" cy="112.11" r="0.26"/><circle class="cls-1" cx="97.59" cy="112.2" r="0.26"/><circle class="cls-1" cx="89.54" cy="110.66" r="0.26"/><circle class="cls-1" cx="87.82" cy="110.1" r="0.26"/><circle class="cls-1" cx="95.45" cy="111.89" r="0.26"/><circle class="cls-1" cx="91.68" cy="112.87" r="0.26"/><circle class="cls-1" cx="92.35" cy="117.92" r="0.26"/><circle class="cls-1" cx="105.98" cy="117.17" r="0.26"/><circle class="cls-1" cx="114.98" cy="111.33" r="0.26"/><circle class="cls-1" cx="114.98" cy="108.46" r="0.26"/><circle class="cls-1" cx="116.7" cy="104.76" r="0.26"/><circle class="cls-1" cx="115.84" cy="106.49" r="0.26"/><circle class="cls-1" cx="111.28" cy="104.83" r="0.26"/><circle class="cls-1" cx="108.79" cy="103.36" r="0.26"/><circle class="cls-1" cx="109.71" cy="102.95" r="0.26"/><circle class="cls-1" cx="111.12" cy="102.52" r="0.26"/><circle class="cls-1" cx="106.62" cy="103.56" r="0.26"/><circle class="cls-1" cx="107.03" cy="102.29" r="0.26"/><circle class="cls-1" cx="110.16" cy="104.3" r="0.26"/><circle class="cls-1" cx="113.1" cy="104.62" r="0.26"/><circle class="cls-1" cx="111.28" cy="107.48" r="0.26"/><circle class="cls-1" cx="88.04" cy="100.85" r="0.26"/><circle class="cls-1" cx="85.3" cy="104.37" r="0.26"/><circle class="cls-1" cx="81.91" cy="103.95" r="0.26"/><circle class="cls-1" cx="80.22" cy="104.48" r="0.26"/><circle class="cls-1" cx="78.63" cy="108.62" r="0.26"/><circle class="cls-1" cx="83.89" cy="108.14" r="0.26"/><circle class="cls-1" cx="86.35" cy="108.63" r="0.26"/><circle class="cls-1" cx="87.69" cy="108.63" r="0.26"/><circle class="cls-1" cx="85.84" cy="111.23" r="0.26"/><circle class="cls-1" cx="88.23" cy="111.35" r="0.26"/><circle class="cls-1" cx="90.5" cy="112.23" r="0.26"/><circle class="cls-1" cx="104.57" cy="119.94" r="0.26"/><circle class="cls-1" cx="105.05" cy="122.98" r="0.26"/><circle class="cls-1" cx="105.79" cy="118.93" r="0.26"/><circle class="cls-1" cx="109.9" cy="119.08" r="0.26"/><circle class="cls-1" cx="109.87" cy="120.84" r="0.26"/><circle class="cls-1" cx="109.55" cy="123.2" r="0.26"/><circle class="cls-1" cx="108.94" cy="126.44" r="0.26"/><circle class="cls-1" cx="103.09" cy="128.01" r="0.26"/><circle class="cls-1" cx="105.79" cy="124.67" r="0.26"/><circle class="cls-1" cx="106.98" cy="125.93" r="0.26"/><circle class="cls-1" cx="107.85" cy="127.32" r="0.26"/><circle class="cls-1" cx="103.23" cy="125.57" r="0.26"/><circle class="cls-1" cx="106.55" cy="127.49" r="0.26"/><circle class="cls-1" cx="108.68" cy="129.45" r="0.26"/><circle class="cls-1" cx="109.49" cy="124.05" r="0.26"/><circle class="cls-1" cx="108.17" cy="116.13" r="0.26"/><circle class="cls-1" cx="87.31" cy="107.82" r="0.26"/><circle class="cls-1" cx="88.23" cy="102.56" r="0.26"/><circle class="cls-1" cx="86.93" cy="104.77" r="0.26"/><circle class="cls-1" cx="108.28" cy="102.06" r="0.26"/><circle class="cls-1" cx="112.14" cy="103.49" r="0.26"/><circle class="cls-2" cx="115.87" cy="81.86" r="0.05"/><circle class="cls-2" cx="116.86" cy="80.87" r="0.05"/><circle class="cls-2" cx="117.34" cy="82.08" r="0.05"/><circle class="cls-2" cx="93.34" cy="79.33" r="0.05"/><circle class="cls-2" cx="89" cy="96.76" r="0.05"/><circle class="cls-2" cx="89.35" cy="95.82" r="0.05"/><circle class="cls-2" cx="87.4" cy="96.45" r="0.05"/><circle class="cls-2" cx="90.02" cy="92.7" r="0.05"/><circle class="cls-2" cx="82.23" cy="96.13" r="0.05"/><circle class="cls-2" cx="88.36" cy="93.65" r="0.05"/><circle class="cls-2" cx="81.85" cy="85.02" r="0.05"/><circle class="cls-2" cx="82.9" cy="84.12" r="0.05"/><circle class="cls-2" cx="84.88" cy="83.31" r="0.05"/><circle class="cls-2" cx="77.51" cy="85.15" r="0.05"/><circle class="cls-2" cx="88.59" cy="80.49" r="0.05"/><circle class="cls-2" cx="93.91" cy="79.46" r="0.05"/><circle class="cls-2" cx="94.01" cy="111.68" r="0.05"/><circle class="cls-2" cx="94.62" cy="112.31" r="0.05"/><circle class="cls-2" cx="96.31" cy="112.32" r="0.05"/><circle class="cls-2" cx="96.44" cy="113.23" r="0.05"/><circle class="cls-2" cx="98.41" cy="112.85" r="0.05"/><circle class="cls-2" cx="97.39" cy="113.02" r="0.05"/><circle class="cls-2" cx="98.89" cy="113.63" r="0.05"/><circle class="cls-2" cx="99.4" cy="112.78" r="0.05"/><circle class="cls-2" cx="93.72" cy="112.6" r="0.05"/><circle class="cls-2" cx="91.74" cy="111.68" r="0.05"/><circle class="cls-2" cx="92.89" cy="113.29" r="0.05"/><circle class="cls-2" cx="95.22" cy="113.16" r="0.05"/><circle class="cls-2" cx="94.11" cy="113.69" r="0.05"/><circle class="cls-2" cx="92.67" cy="114.77" r="0.05"/><circle class="cls-2" cx="95.8" cy="114.19" r="0.05"/><circle class="cls-2" cx="97.01" cy="113.95" r="0.05"/><circle class="cls-2" cx="98.29" cy="113.94" r="0.05"/><circle class="cls-2" cx="96.24" cy="115.34" r="0.05"/><circle class="cls-2" cx="95.77" cy="115.82" r="0.05"/><circle class="cls-2" cx="95.89" cy="112.82" r="0.05"/><circle class="cls-2" cx="98.16" cy="113.45" r="0.05"/><circle class="cls-2" cx="99.56" cy="113.48" r="0.05"/><circle class="cls-2" cx="93.34" cy="114.12" r="0.05"/><circle class="cls-2" cx="92.41" cy="112.36" r="0.05"/><circle class="cls-2" cx="100.39" cy="113.19" r="0.05"/></svg>