<?xml version="1.0" encoding="UTF-8"?>
<svg id="arbustos_posicion" xmlns="http://www.w3.org/2000/svg" width="210" height="210" viewBox="0 0 210 210">
  <circle cx="105.3899993896" cy="109.3000030518" r=".0500030518" style="fill: #88e055;"/>
  <circle cx="105.2600021362" cy="109.3000030518" r=".0500030518" style="fill: #88e055;"/>
  <circle cx="105.1500015259" cy="109.2600021362" r=".0500030518" style="fill: #88e055;"/>
  <circle cx="105.0100021362" cy="109.2600021362" r=".0500030518" style="fill: #88e055;"/>
  <circle cx="104.8700027466" cy="109.2200012207" r=".0500030518" style="fill: #88e055;"/>
  <circle cx="104.7200012207" cy="109.2200012207" r=".0500030518" style="fill: #88e055;"/>
  <circle cx="104.5899963379" cy="109.1800003052" r=".0500030518" style="fill: #88e055;"/>
  <circle cx="104.4700012207" cy="109.1699981689" r=".0500030518" style="fill: #88e055;"/>
  <circle cx="104.3600006104" cy="109.1600036621" r=".0500030518" style="fill: #88e055;"/>
  <circle cx="104.25" cy="109.1399993896" r=".0500030518" style="fill: #88e055;"/>
  <circle cx="104.0999984741" cy="109.1200027466" r=".0500030518" style="fill: #88e055;"/>
  <circle cx="103.9700012207" cy="109.1100006104" r=".0500030518" style="fill: #88e055;"/>
  <circle cx="103.8600006104" cy="109.0999984741" r=".0500030518" style="fill: #88e055;"/>
  <circle cx="103.75" cy="109.0800018311" r=".0500030518" style="fill: #88e055;"/>
  <circle cx="103.6200027466" cy="109.0400009155" r=".0500030518" style="fill: #88e055;"/>
  <circle cx="103.5" cy="109.0500030518" r=".0500030518" style="fill: #88e055;"/>
  <circle cx="103.3799972534" cy="109.0199966431" r=".0500030518" style="fill: #88e055;"/>
  <circle cx="103.2699966431" cy="109" r=".0500030518" style="fill: #88e055;"/>
  <circle cx="103.1399993896" cy="108.9800033569" r=".0500030518" style="fill: #88e055;"/>
  <circle cx="103" cy="108.9499969482" r=".0500030518" style="fill: #88e055;"/>
  <circle cx="102.9000015259" cy="108.9100036621" r=".0500030518" style="fill: #88e055;"/>
  <circle cx="102.75" cy="108.9199981689" r=".0500030518" style="fill: #88e055;"/>
  <circle cx="102.5999984741" cy="108.8600006104" r=".0500030518" style="fill: #88e055;"/>
  <circle cx="102.4700012207" cy="108.8600006104" r=".0500030518" style="fill: #88e055;"/>
  <circle cx="102.3199996948" cy="108.8600006104" r=".0500030518" style="fill: #88e055;"/>
  <circle cx="102.1800003052" cy="108.8099975586" r=".0500030518" style="fill: #88e055;"/>
  <circle cx="102.0500030518" cy="108.8199996948" r=".0500030518" style="fill: #88e055;"/>
  <circle cx="101.9199981689" cy="108.7900009155" r=".0500030518" style="fill: #88e055;"/>
  <circle cx="101.7900009155" cy="108.7799987793" r=".0500030518" style="fill: #88e055;"/>
  <circle cx="101.6800003052" cy="108.7200012207" r=".0500030518" style="fill: #88e055;"/>
  <circle cx="101.5699996948" cy="108.6999969482" r=".0500030518" style="fill: #88e055;"/>
  <circle cx="101.4100036621" cy="108.6999969482" r=".0500030518" style="fill: #88e055;"/>
  <circle cx="101.2900009155" cy="108.6900024414" r=".0500030518" style="fill: #88e055;"/>
  <circle cx="101.1800003052" cy="108.6500015259" r=".0500030518" style="fill: #88e055;"/>
  <circle cx="101.0800018311" cy="108.6299972534" r=".0500030518" style="fill: #88e055;"/>
  <circle cx="100.9499969482" cy="108.6299972534" r=".0500030518" style="fill: #88e055;"/>
  <circle cx="100.8499984741" cy="108.6100006104" r=".0500030518" style="fill: #88e055;"/>
  <circle cx="100.7200012207" cy="108.5699996948" r=".0500030518" style="fill: #88e055;"/>
  <circle cx="100.6100006104" cy="108.5899963379" r=".0500030518" style="fill: #88e055;"/>
  <circle cx="100.5" cy="108.5699996948" r=".0500030518" style="fill: #88e055;"/>
  <circle cx="100.3700027466" cy="108.5400009155" r=".0500030518" style="fill: #88e055;"/>
  <circle cx="100.2200012207" cy="108.5100021362" r=".0500030518" style="fill: #88e055;"/>
  <circle cx="100.0699996948" cy="108.4800033569" r=".0500030518" style="fill: #88e055;"/>
  <circle cx="99.9499969482" cy="108.4800033569" r=".0500030518" style="fill: #88e055;"/>
  <circle cx="99.8300018311" cy="108.4300003052" r=".0500030518" style="fill: #88e055;"/>
  <circle cx="99.6999969482" cy="108.4400024414" r=".0500030518" style="fill: #88e055;"/>
  <circle cx="99.5699996948" cy="108.4199981689" r=".0500030518" style="fill: #88e055;"/>
  <circle cx="99.4599990845" cy="108.4100036621" r=".0500030518" style="fill: #88e055;"/>
  <circle cx="99.3499984741" cy="108.3499984741" r=".0500030518" style="fill: #88e055;"/>
  <circle cx="99.2399978638" cy="108.3499984741" r=".0500030518" style="fill: #88e055;"/>
  <circle cx="99.1200027466" cy="108.3600006104" r=".0500030518" style="fill: #88e055;"/>
  <circle cx="99.0100021362" cy="108.3399963379" r=".0500030518" style="fill: #88e055;"/>
  <circle cx="98.8899993896" cy="108.3000030518" r=".0500030518" style="fill: #88e055;"/>
  <circle cx="98.75" cy="108.2900009155" r=".0500030518" style="fill: #88e055;"/>
  <circle cx="98.6100006104" cy="108.2399978638" r=".0500030518" style="fill: #88e055;"/>
  <circle cx="98.4700012207" cy="108.2399978638" r=".0500030518" style="fill: #88e055;"/>
  <circle cx="98.3399963379" cy="108.2099990845" r=".0500030518" style="fill: #88e055;"/>
  <circle cx="98.1800003052" cy="108.1999969482" r=".0500030518" style="fill: #88e055;"/>
  <circle cx="98.0800018311" cy="108.1500015259" r=".0500030518" style="fill: #88e055;"/>
  <circle cx="97.9400024414" cy="108.1500015259" r=".0500030518" style="fill: #88e055;"/>
  <circle cx="97.7900009155" cy="108.1299972534" r=".0500030518" style="fill: #88e055;"/>
  <circle cx="97.6699981689" cy="108.1100006104" r=".0500030518" style="fill: #88e055;"/>
  <circle cx="97.5199966431" cy="108.0999984741" r=".0500030518" style="fill: #88e055;"/>
  <circle cx="97.4100036621" cy="108.0699996948" r=".0500030518" style="fill: #88e055;"/>
  <circle cx="97.2699966431" cy="108.0400009155" r=".0500030518" style="fill: #88e055;"/>
  <circle cx="97.1299972534" cy="108.0199966431" r=".0500030518" style="fill: #88e055;"/>
  <circle cx="97" cy="108.0100021362" r=".0500030518" style="fill: #88e055;"/>
  <circle cx="96.8399963379" cy="108.0100021362" r=".0500030518" style="fill: #88e055;"/>
  <circle cx="96.7200012207" cy="107.9800033569" r=".0500030518" style="fill: #88e055;"/>
  <circle cx="96.6100006104" cy="107.9599990845" r=".0500030518" style="fill: #88e055;"/>
  <circle cx="96.4599990845" cy="107.9300003052" r=".0500030518" style="fill: #88e055;"/>
  <circle cx="96.3600006104" cy="107.9100036621" r=".0500030518" style="fill: #88e055;"/>
  <circle cx="96.2200012207" cy="107.8899993896" r=".0500030518" style="fill: #88e055;"/>
  <circle cx="96.1100006104" cy="107.8600006104" r=".0500030518" style="fill: #88e055;"/>
  <circle cx="95.9599990845" cy="107.8300018311" r=".0500030518" style="fill: #88e055;"/>
  <circle cx="95.8199996948" cy="107.8399963379" r=".0500030518" style="fill: #88e055;"/>
  <circle cx="95.6800003052" cy="107.8199996948" r=".0500030518" style="fill: #88e055;"/>
  <circle cx="95.5299987793" cy="107.7799987793" r=".0500030518" style="fill: #88e055;"/>
  <circle cx="95.4300003052" cy="107.7600021362" r=".0500030518" style="fill: #88e055;"/>
  <circle cx="95.3099975586" cy="107.7600021362" r=".0500030518" style="fill: #88e055;"/>
  <circle cx="95.1699981689" cy="107.7099990845" r=".0500030518" style="fill: #88e055;"/>
  <circle cx="95.0199966431" cy="107.6800003052" r=".0500030518" style="fill: #88e055;"/>
  <circle cx="94.9199981689" cy="107.6600036621" r=".0500030518" style="fill: #88e055;"/>
  <circle cx="94.7799987793" cy="107.6399993896" r=".0500030518" style="fill: #88e055;"/>
  <circle cx="94.6399993896" cy="107.6399993896" r=".0500030518" style="fill: #88e055;"/>
  <circle cx="94.4899978638" cy="107.6200027466" r=".0500030518" style="fill: #88e055;"/>
  <circle cx="94.3799972534" cy="107.6100006104" r=".0500030518" style="fill: #88e055;"/>
  <circle cx="94.2300033569" cy="107.5800018311" r=".0500030518" style="fill: #88e055;"/>
  <circle cx="94.1100006104" cy="107.5400009155" r=".0500030518" style="fill: #88e055;"/>
  <circle cx="94" cy="107.5100021362" r=".0500030518" style="fill: #88e055;"/>
  <circle cx="93.8799972534" cy="107.5100021362" r=".0500030518" style="fill: #88e055;"/>
  <circle cx="96.9599990845" cy="106.25" r=".0500030518" style="fill: #88e055;"/>
  <circle cx="96.8399963379" cy="106.2200012207" r=".0500030518" style="fill: #88e055;"/>
  <circle cx="96.7200012207" cy="106.2099990845" r=".0500030518" style="fill: #88e055;"/>
  <circle cx="96.6100006104" cy="106.1800003052" r=".0500030518" style="fill: #88e055;"/>
  <circle cx="96.4599990845" cy="106.2099990845" r=".0500030518" style="fill: #88e055;"/>
  <circle cx="96.3399963379" cy="106.1500015259" r=".0500030518" style="fill: #88e055;"/>
  <circle cx="96.2200012207" cy="106.1299972534" r=".0500030518" style="fill: #88e055;"/>
  <circle cx="96.0699996948" cy="106.0899963379" r=".0500030518" style="fill: #88e055;"/>
  <circle cx="95.9400024414" cy="106.0899963379" r=".0500030518" style="fill: #88e055;"/>
  <circle cx="95.8399963379" cy="106.1100006104" r=".0500030518" style="fill: #88e055;"/>
  <circle cx="95.6999969482" cy="106.0400009155" r=".0500030518" style="fill: #88e055;"/>
  <circle cx="95.5800018311" cy="106.0500030518" r=".0500030518" style="fill: #88e055;"/>
  <circle cx="95.4300003052" cy="106.0400009155" r=".0500030518" style="fill: #88e055;"/>
  <circle cx="104.5" cy="105.75" r=".0500030518" style="fill: #88e055;"/>
  <circle cx="104.3700027466" cy="105.7300033569" r=".0500030518" style="fill: #88e055;"/>
  <circle cx="104.2300033569" cy="105.7099990845" r=".0500030518" style="fill: #88e055;"/>
  <circle cx="104.1200027466" cy="105.7099990845" r=".0500030518" style="fill: #88e055;"/>
  <circle cx="104.0100021362" cy="105.6800003052" r=".0500030518" style="fill: #88e055;"/>
  <circle cx="103.8899993896" cy="105.6999969482" r=".0500030518" style="fill: #88e055;"/>
  <circle cx="103.7699966431" cy="105.6999969482" r=".0500030518" style="fill: #88e055;"/>
  <circle cx="103.6200027466" cy="105.6699981689" r=".0500030518" style="fill: #88e055;"/>
  <circle cx="103.4700012207" cy="105.6399993896" r=".0500030518" style="fill: #88e055;"/>
  <circle cx="103.3399963379" cy="105.6699981689" r=".0500030518" style="fill: #88e055;"/>
  <circle cx="103.2300033569" cy="105.6699981689" r=".0500030518" style="fill: #88e055;"/>
  <circle cx="103.0800018311" cy="105.6500015259" r=".0500030518" style="fill: #88e055;"/>
  <circle cx="102.9499969482" cy="105.6299972534" r=".0500030518" style="fill: #88e055;"/>
  <circle cx="102.8000030518" cy="105.6200027466" r=".0500030518" style="fill: #88e055;"/>
  <circle cx="102.6600036621" cy="105.5800018311" r=".0500030518" style="fill: #88e055;"/>
  <circle cx="102.5400009155" cy="105.5999984741" r=".0500030518" style="fill: #88e055;"/>
  <circle cx="102.4100036621" cy="105.5999984741" r=".0500030518" style="fill: #88e055;"/>
  <circle cx="102.2699966431" cy="105.5500030518" r=".0500030518" style="fill: #88e055;"/>
  <circle cx="102.1100006104" cy="105.5500030518" r=".0500030518" style="fill: #88e055;"/>
  <circle cx="101.9800033569" cy="105.5199966431" r=".0500030518" style="fill: #88e055;"/>
  <circle cx="101.8399963379" cy="105.5500030518" r=".0500030518" style="fill: #88e055;"/>
  <circle cx="101.6999969482" cy="105.5199966431" r=".0500030518" style="fill: #88e055;"/>
  <circle cx="101.5599975586" cy="105.5199966431" r=".0500030518" style="fill: #88e055;"/>
  <circle cx="101.4300003052" cy="105.5100021362" r=".0500030518" style="fill: #88e055;"/>
  <circle cx="101.3199996948" cy="105.5100021362" r=".0500030518" style="fill: #88e055;"/>
  <circle cx="101.1800003052" cy="105.4599990845" r=".0500030518" style="fill: #88e055;"/>
  <circle cx="101.0299987793" cy="105.4700012207" r=".0500030518" style="fill: #88e055;"/>
  <circle cx="100.9199981689" cy="105.4700012207" r=".0500030518" style="fill: #88e055;"/>
  <circle cx="100.7600021362" cy="105.4700012207" r=".0500030518" style="fill: #88e055;"/>
  <circle cx="100.6200027466" cy="105.4199981689" r=".0500030518" style="fill: #88e055;"/>
  <circle cx="100.4899978638" cy="105.4499969482" r=".0500030518" style="fill: #88e055;"/>
  <circle cx="100.3399963379" cy="105.3899993896" r=".0500030518" style="fill: #88e055;"/>
  <circle cx="100.1999969482" cy="105.4000015259" r=".0500030518" style="fill: #88e055;"/>
  <circle cx="100.0599975586" cy="105.3799972534" r=".0500030518" style="fill: #88e055;"/>
  <circle cx="99.9300003052" cy="105.3600006104" r=".0500030518" style="fill: #88e055;"/>
  <circle cx="99.7799987793" cy="105.3799972534" r=".0500030518" style="fill: #88e055;"/>
  <circle cx="99.6600036621" cy="105.3799972534" r=".0500030518" style="fill: #88e055;"/>
  <circle cx="99.5100021362" cy="105.3300018311" r=".0500030518" style="fill: #88e055;"/>
  <circle cx="99.4000015259" cy="105.3300018311" r=".0500030518" style="fill: #88e055;"/>
  <circle cx="99.2600021362" cy="105.3300018311" r=".0500030518" style="fill: #88e055;"/>
  <circle cx="99.1200027466" cy="105.2900009155" r=".0500030518" style="fill: #88e055;"/>
  <circle cx="98.9700012207" cy="105.2799987793" r=".0500030518" style="fill: #88e055;"/>
  <circle cx="98.8199996948" cy="105.2900009155" r=".0500030518" style="fill: #88e055;"/>
  <circle cx="98.6699981689" cy="105.2799987793" r=".0500030518" style="fill: #88e055;"/>
  <circle cx="98.5599975586" cy="105.2600021362" r=".0500030518" style="fill: #88e055;"/>
  <circle cx="98.4199981689" cy="105.2600021362" r=".0500030518" style="fill: #88e055;"/>
  <circle cx="98.2799987793" cy="105.25" r=".0500030518" style="fill: #88e055;"/>
  <circle cx="98.1299972534" cy="105.25" r=".0500030518" style="fill: #88e055;"/>
  <circle cx="97.9800033569" cy="105.2399978638" r=".0500030518" style="fill: #88e055;"/>
  <circle cx="97.8799972534" cy="105.1999969482" r=".0500030518" style="fill: #88e055;"/>
  <circle cx="97.75" cy="105.1999969482" r=".0500030518" style="fill: #88e055;"/>
  <circle cx="97.6399993896" cy="105.2099990845" r=".0500030518" style="fill: #88e055;"/>
  <circle cx="97.4899978638" cy="105.1600036621" r=".0500030518" style="fill: #88e055;"/>
  <circle cx="97.3499984741" cy="105.1699981689" r=".0500030518" style="fill: #88e055;"/>
  <circle cx="97.2200012207" cy="105.1800003052" r=".0500030518" style="fill: #88e055;"/>
  <circle cx="97.0699996948" cy="105.1299972534" r=".0500030518" style="fill: #88e055;"/>
  <circle cx="96.9400024414" cy="105.1200027466" r=".0500030518" style="fill: #88e055;"/>
  <circle cx="96.8300018311" cy="105.1500015259" r=".0500030518" style="fill: #88e055;"/>
  <circle cx="96.7300033569" cy="105.1399993896" r=".0500030518" style="fill: #88e055;"/>
  <circle cx="96.5899963379" cy="105.1200027466" r=".0500030518" style="fill: #88e055;"/>
  <circle cx="96.4700012207" cy="105.1200027466" r=".0500030518" style="fill: #88e055;"/>
  <circle cx="96.3399963379" cy="105.0999984741" r=".0500030518" style="fill: #88e055;"/>
  <circle cx="96.2300033569" cy="105.0599975586" r=".0500030518" style="fill: #88e055;"/>
  <circle cx="96.0999984741" cy="105.0500030518" r=".0500030518" style="fill: #88e055;"/>
  <circle cx="95.9800033569" cy="105.0699996948" r=".0500030518" style="fill: #88e055;"/>
  <circle cx="95.8700027466" cy="105.0400009155" r=".0500030518" style="fill: #88e055;"/>
  <circle cx="95.7099990845" cy="105.0299987793" r=".0500030518" style="fill: #88e055;"/>
  <circle cx="95.5699996948" cy="105.0299987793" r=".0500030518" style="fill: #88e055;"/>
  <circle cx="95.4599990845" cy="105" r=".0500030518" style="fill: #88e055;"/>
  <circle cx="95.3000030518" cy="105" r=".0500030518" style="fill: #88e055;"/>
  <circle cx="95.1699981689" cy="104.9700012207" r=".0500030518" style="fill: #88e055;"/>
  <circle cx="95.0299987793" cy="104.9599990845" r=".0500030518" style="fill: #88e055;"/>
  <circle cx="94.9100036621" cy="104.9700012207" r=".0500030518" style="fill: #88e055;"/>
  <circle cx="94.7699966431" cy="104.9400024414" r=".0500030518" style="fill: #88e055;"/>
  <circle cx="94.6299972534" cy="104.9499969482" r=".0500030518" style="fill: #88e055;"/>
  <circle cx="94.5" cy="104.9400024414" r=".0500030518" style="fill: #88e055;"/>
  <circle cx="94.3600006104" cy="104.9000015259" r=".0500030518" style="fill: #88e055;"/>
  <circle cx="94.25" cy="104.9000015259" r=".0500030518" style="fill: #88e055;"/>
  <circle cx="100.1999969482" cy="106.7200012207" r=".0500030518" style="fill: #88e055;"/>
  <circle cx="100.0899963379" cy="106.7200012207" r=".0500030518" style="fill: #88e055;"/>
  <circle cx="99.9599990845" cy="106.6900024414" r=".0500030518" style="fill: #88e055;"/>
  <circle cx="99.8000030518" cy="106.6699981689" r=".0500030518" style="fill: #88e055;"/>
  <circle cx="99.6800003052" cy="106.6299972534" r=".0500030518" style="fill: #88e055;"/>
  <circle cx="99.5599975586" cy="106.6299972534" r=".0500030518" style="fill: #88e055;"/>
  <circle cx="99.4199981689" cy="106.5899963379" r=".0500030518" style="fill: #88e055;"/>
  <circle cx="99.3099975586" cy="106.5899963379" r=".0500030518" style="fill: #88e055;"/>
  <circle cx="99.1800003052" cy="106.5699996948" r=".0500030518" style="fill: #88e055;"/>
  <circle cx="99.0599975586" cy="106.5599975586" r=".0500030518" style="fill: #88e055;"/>
  <circle cx="98.9400024414" cy="106.5299987793" r=".0500030518" style="fill: #88e055;"/>
  <circle cx="98.8099975586" cy="106.5199966431" r=".0500030518" style="fill: #88e055;"/>
  <circle cx="98.7099990845" cy="106.5100021362" r=".0500030518" style="fill: #88e055;"/>
  <circle cx="98.5699996948" cy="106.4700012207" r=".0500030518" style="fill: #88e055;"/>
  <circle cx="98.4599990845" cy="106.4700012207" r=".0500030518" style="fill: #88e055;"/>
  <circle cx="98.3399963379" cy="106.4400024414" r=".0500030518" style="fill: #88e055;"/>
  <circle cx="98.2099990845" cy="106.4199981689" r=".0500030518" style="fill: #88e055;"/>
  <circle cx="98.0800018311" cy="106.4100036621" r=".0500030518" style="fill: #88e055;"/>
  <circle cx="97.9700012207" cy="106.3600006104" r=".0500030518" style="fill: #88e055;"/>
  <circle cx="97.8399963379" cy="106.3600006104" r=".0500030518" style="fill: #88e055;"/>
  <circle cx="97.6900024414" cy="106.3199996948" r=".0500030518" style="fill: #88e055;"/>
  <circle cx="97.5400009155" cy="106.3199996948" r=".0500030518" style="fill: #88e055;"/>
  <circle cx="97.4000015259" cy="106.2900009155" r=".0500030518" style="fill: #88e055;"/>
  <circle cx="94.2200012207" cy="105.0400009155" r=".0500030518" style="fill: #88e055;"/>
  <circle cx="94.2200012207" cy="105.1500015259" r=".0500030518" style="fill: #88e055;"/>
  <circle cx="94.1900024414" cy="105.2900009155" r=".0500030518" style="fill: #88e055;"/>
  <circle cx="94.1600036621" cy="105.4400024414" r=".0500030518" style="fill: #88e055;"/>
  <circle cx="94.1200027466" cy="105.5599975586" r=".0500030518" style="fill: #88e055;"/>
  <circle cx="94.1299972534" cy="105.6800003052" r=".0500030518" style="fill: #88e055;"/>
  <circle cx="94.0899963379" cy="105.8199996948" r=".0500030518" style="fill: #88e055;"/>
  <circle cx="94.0899963379" cy="105.9300003052" r=".0500030518" style="fill: #88e055;"/>
  <circle cx="94.0699996948" cy="106.0599975586" r=".0500030518" style="fill: #88e055;"/>
  <circle cx="94.0599975586" cy="106.1800003052" r=".0500030518" style="fill: #88e055;"/>
  <circle cx="94.0299987793" cy="106.3000030518" r=".0500030518" style="fill: #88e055;"/>
  <circle cx="94.0199966431" cy="106.4300003052" r=".0500030518" style="fill: #88e055;"/>
  <circle cx="94.0100021362" cy="106.5299987793" r=".0500030518" style="fill: #88e055;"/>
  <circle cx="93.9700012207" cy="106.6699981689" r=".0500030518" style="fill: #88e055;"/>
  <circle cx="93.9700012207" cy="106.7799987793" r=".0500030518" style="fill: #88e055;"/>
  <circle cx="93.9400024414" cy="106.9000015259" r=".0500030518" style="fill: #88e055;"/>
  <circle cx="93.9199981689" cy="107.0400009155" r=".0500030518" style="fill: #88e055;"/>
  <circle cx="93.9000015259" cy="107.1900024414" r=".0500030518" style="fill: #88e055;"/>
  <circle cx="93.8700027466" cy="107.3300018311" r=".0500030518" style="fill: #88e055;"/>
  <circle cx="102.5699996948" cy="107.0800018311" r=".0500030518" style="fill: #88e055;"/>
  <circle cx="102.4199981689" cy="107.0699996948" r=".0500030518" style="fill: #88e055;"/>
  <circle cx="102.3099975586" cy="107.0100021362" r=".0500030518" style="fill: #88e055;"/>
  <circle cx="102.1699981689" cy="106.9899978638" r=".0500030518" style="fill: #88e055;"/>
  <circle cx="102.0500030518" cy="106.9700012207" r=".0500030518" style="fill: #88e055;"/>
  <circle cx="101.9100036621" cy="106.9800033569" r=".0500030518" style="fill: #88e055;"/>
  <circle cx="101.7900009155" cy="106.9499969482" r=".0500030518" style="fill: #88e055;"/>
  <circle cx="101.6500015259" cy="106.9499969482" r=".0500030518" style="fill: #88e055;"/>
  <circle cx="101.4899978638" cy="106.9300003052" r=".0500030518" style="fill: #88e055;"/>
  <circle cx="101.3499984741" cy="106.8899993896" r=".0500030518" style="fill: #88e055;"/>
  <circle cx="101.2099990845" cy="106.8899993896" r=".0500030518" style="fill: #88e055;"/>
  <circle cx="101.0800018311" cy="106.8600006104" r=".0500030518" style="fill: #88e055;"/>
  <circle cx="100.9400024414" cy="106.8399963379" r=".0500030518" style="fill: #88e055;"/>
  <circle cx="100.8300018311" cy="106.8099975586" r=".0500030518" style="fill: #88e055;"/>
  <circle cx="100.7300033569" cy="106.8000030518" r=".0500030518" style="fill: #88e055;"/>
  <circle cx="104.1600036621" cy="107.2900009155" r=".0500030518" style="fill: #88e055;"/>
  <circle cx="104.0400009155" cy="107.2900009155" r=".0500030518" style="fill: #88e055;"/>
  <circle cx="103.9300003052" cy="107.25" r=".0500030518" style="fill: #88e055;"/>
  <circle cx="103.8000030518" cy="107.2399978638" r=".0500030518" style="fill: #88e055;"/>
  <circle cx="103.6800003052" cy="107.2600021362" r=".0500030518" style="fill: #88e055;"/>
  <circle cx="103.5400009155" cy="107.2300033569" r=".0500030518" style="fill: #88e055;"/>
  <circle cx="103.4300003052" cy="107.1900024414" r=".0500030518" style="fill: #88e055;"/>
  <circle cx="103.2799987793" cy="107.1699981689" r=".0500030518" style="fill: #88e055;"/>
  <circle cx="103.1699981689" cy="107.1699981689" r=".0500030518" style="fill: #88e055;"/>
  <circle cx="103.0500030518" cy="107.1500015259" r=".0500030518" style="fill: #88e055;"/>
  <circle cx="97.2900009155" cy="105.4199981689" r=".0500030518" style="fill: #88e055;"/>
  <circle cx="100.9499969482" cy="105.7699966431" r=".0500030518" style="fill: #88e055;"/>
  <circle cx="103.2699966431" cy="105.9400024414" r=".0500030518" style="fill: #88e055;"/>
  <circle cx="91.0199966431" cy="110.7099990845" r=".0500030518" style="fill: #88e055;"/>
  <circle cx="93.1299972534" cy="111" r=".0500030518" style="fill: #88e055;"/>
  <circle cx="93.5299987793" cy="110.8899993896" r=".0500030518" style="fill: #88e055;"/>
  <circle cx="93.9100036621" cy="111.0400009155" r=".0500030518" style="fill: #88e055;"/>
  <circle cx="95.1900024414" cy="110.9499969482" r=".0500030518" style="fill: #88e055;"/>
  <circle cx="95.9800033569" cy="111.3099975586" r=".0500030518" style="fill: #88e055;"/>
  <circle cx="96.6399993896" cy="111.2600021362" r=".0500030518" style="fill: #88e055;"/>
  <circle cx="88.7900009155" cy="110.1999969482" r=".0500030518" style="fill: #88e055;"/>
  <circle cx="88.9100036621" cy="110.8600006104" r=".0500030518" style="fill: #88e055;"/>
  <circle cx="88.1100006104" cy="110.9100036621" r=".0500030518" style="fill: #88e055;"/>
  <circle cx="90.4300003052" cy="110.8600006104" r=".0500030518" style="fill: #88e055;"/>
  <circle cx="90.6999969482" cy="111.1900024414" r=".0500030518" style="fill: #88e055;"/>
  <circle cx="93.2099990845" cy="111.8799972534" r=".0500030518" style="fill: #88e055;"/>
  <circle cx="99.8899993896" cy="111.9400024414" r=".0500030518" style="fill: #88e055;"/>
  <circle cx="100.2600021362" cy="111.8600006104" r=".0500030518" style="fill: #88e055;"/>
  <circle cx="101.3000030518" cy="112.1699981689" r=".0500030518" style="fill: #88e055;"/>
  <circle cx="109.8700027466" cy="115.2200012207" r=".0500030518" style="fill: #88e055;"/>
  <circle cx="110.0999984741" cy="115.6699981689" r=".0500030518" style="fill: #88e055;"/>
  <circle cx="108.2099990845" cy="116.7699966431" r=".0500030518" style="fill: #88e055;"/>
  <circle cx="106.6800003052" cy="117.6399993896" r=".0500030518" style="fill: #88e055;"/>
  <circle cx="107.2600021362" cy="117.3799972534" r=".0500030518" style="fill: #88e055;"/>
  <circle cx="98.4100036621" cy="112.3799972534" r=".0500030518" style="fill: #88e055;"/>
  <circle cx="101.9599990845" cy="111.8700027466" r=".0500030518" style="fill: #88e055;"/>
  <circle cx="108.2399978638" cy="112.3099975586" r=".0500030518" style="fill: #88e055;"/>
  <circle cx="109.7099990845" cy="113.4000015259" r=".0500030518" style="fill: #88e055;"/>
  <circle cx="106.7099990845" cy="118.5100021362" r=".0500030518" style="fill: #88e055;"/>
  <circle cx="105.0899963379" cy="120.9499969482" r=".0500030518" style="fill: #88e055;"/>
  <circle cx="105.7200012207" cy="120.5899963379" r=".0500030518" style="fill: #88e055;"/>
  <circle cx="106.1399993896" cy="123.9199981689" r=".0500030518" style="fill: #88e055;"/>
  <circle cx="105.5599975586" cy="123.7300033569" r=".0500030518" style="fill: #88e055;"/>
  <circle cx="106.9400024414" cy="124.4599990845" r=".0500030518" style="fill: #88e055;"/>
  <circle cx="106.6200027466" cy="125.4199981689" r=".0500030518" style="fill: #88e055;"/>
  <circle cx="108.3099975586" cy="124.0800018311" r=".0500030518" style="fill: #88e055;"/>
  <circle cx="109.0699996948" cy="122.6100006104" r=".0500030518" style="fill: #88e055;"/>
  <circle cx="109.9700012207" cy="120.0999984741" r=".0500030518" style="fill: #88e055;"/>
  <circle cx="110.0999984741" cy="118.5" r=".0500030518" style="fill: #88e055;"/>
  <circle cx="109.3000030518" cy="117.9599990845" r=".0500030518" style="fill: #88e055;"/>
  <circle cx="108.9800033569" cy="117.2600021362" r=".0500030518" style="fill: #88e055;"/>
  <circle cx="110" cy="116.8600006104" r=".0500030518" style="fill: #88e055;"/>
  <circle cx="110.5400009155" cy="116.0699996948" r=".0500030518" style="fill: #88e055;"/>
  <circle cx="110.9300003052" cy="113.9300003052" r=".0500030518" style="fill: #88e055;"/>
  <circle cx="93.2099990845" cy="112.6299972534" r=".0500030518" style="fill: #88e055;"/>
  <circle cx="91.3899993896" cy="111.2200012207" r=".0500030518" style="fill: #88e055;"/>
  <circle cx="88.9700012207" cy="111.5400009155" r=".0500030518" style="fill: #88e055;"/>
  <circle cx="87.0899963379" cy="108.4599990845" r=".0500030518" style="fill: #88e055;"/>
  <circle cx="85.2699966431" cy="108.4499969482" r=".0500030518" style="fill: #88e055;"/>
  <circle cx="86.4499969482" cy="110.9100036621" r=".0500030518" style="fill: #88e055;"/>
  <circle cx="107.8000030518" cy="121.0199966431" r=".0500030518" style="fill: #88e055;"/>
  <circle cx="107.8300018311" cy="120.8600006104" r=".0500030518" style="fill: #88e055;"/>
  <circle cx="108.0199966431" cy="120.9899978638" r=".0500030518" style="fill: #88e055;"/>
  <circle cx="107.1900024414" cy="121.7600021362" r=".0500030518" style="fill: #88e055;"/>
  <circle cx="107.3499984741" cy="121.8300018311" r=".0500030518" style="fill: #88e055;"/>
  <circle cx="107.3199996948" cy="121.6999969482" r=".0500030518" style="fill: #88e055;"/>
  <circle cx="107.5699996948" cy="121.7300033569" r=".0500030518" style="fill: #88e055;"/>
  <path d="m100.037037037,114.4212962963c.16086307,0,.1611295126-.25,0-.25-.16086307,0-.1611295126.25,0,.25h0Z" style="fill: #88e055;"/>
  <path d="m100.6666666667,114.3101851852c.16086307,0,.1611295126-.25,0-.25-.16086307,0-.1611295126.25,0,.25h0Z" style="fill: #88e055;"/>
  <path d="m101.3703703704,114.125c.16086307,0,.1611295126-.25,0-.25-.16086307,0-.1611295126.25,0,.25h0Z" style="fill: #88e055;"/>
  <path d="m101.4814814815,113.7175925926c.16086307,0,.1611295126-.25,0-.25-.16086307,0-.1611295126.25,0,.25h0Z" style="fill: #88e055;"/>
  <path d="m101.8518518519,113.4212962963c.16086307,0,.1611295126-.25,0-.25-.16086307,0-.1611295126.25,0,.25h0Z" style="fill: #88e055;"/>
  <path d="m101.8518518519,112.8287037037c.16086307,0,.1611295126-.25,0-.25-.16086307,0-.1611295126.25,0,.25h0Z" style="fill: #88e055;"/>
  <path d="m102.5555555556,112.7916666667c.16086307,0,.1611295126-.25,0-.25-.16086307,0-.1611295126.25,0,.25h0Z" style="fill: #88e055;"/>
  <path d="m103.4444444444,112.5324074074c.16086307,0,.1611295126-.25,0-.25-.16086307,0-.1611295126.25,0,.25h0Z" style="fill: #88e055;"/>
  <path d="m104.2962962963,112.3472222222c.16086307,0,.1611295126-.25,0-.25-.16086307,0-.1611295126.25,0,.25h0Z" style="fill: #88e055;"/>
  <path d="m105.5555555556,112.2361111111c.16086307,0,.1611295126-.25,0-.25-.16086307,0-.1611295126.25,0,.25h0Z" style="fill: #88e055;"/>
  <path d="m106.4814814815,112.2731481481c.16086307,0,.1611295126-.25,0-.25-.16086307,0-.1611295126.25,0,.25h0Z" style="fill: #88e055;"/>
  <path d="m107.7037037037,112.7546296296c.16086307,0,.1611295126-.25,0-.25-.16086307,0-.1611295126.25,0,.25h0Z" style="fill: #88e055;"/>
  <path d="m107.8888888889,113.2731481481c.16086307,0,.1611295126-.25,0-.25-.16086307,0-.1611295126.25,0,.25h0Z" style="fill: #88e055;"/>
  <path d="m108,113.6805555556c.16086307,0,.1611295126-.25,0-.25-.16086307,0-.1611295126.25,0,.25h0Z" style="fill: #88e055;"/>
  <path d="m99.4814814815,114.3842592593c.16086307,0,.1611295126-.25,0-.25-.16086307,0-.1611295126.25,0,.25h0Z" style="fill: #88e055;"/>
  <path d="m98.4444444444,114.8657407407c.16086307,0,.1611295126-.25,0-.25-.16086307,0-.1611295126.25,0,.25h0Z" style="fill: #88e055;"/>
  <path d="m98.8148148148,114.4212962963c.16086307,0,.1611295126-.25,0-.25-.16086307,0-.1611295126.25,0,.25h0Z" style="fill: #88e055;"/>
  <path d="m97.7777777778,115.5324074074c.16086307,0,.1611295126-.25,0-.25-.16086307,0-.1611295126.25,0,.25h0Z" style="fill: #88e055;"/>
  <path d="m98.0740740741,115.1990740741c.16086307,0,.1611295126-.25,0-.25-.16086307,0-.1611295126.25,0,.25h0Z" style="fill: #88e055;"/>
  <path d="m97.1481481481,116.162037037c.16086307,0,.1611295126-.25,0-.25-.16086307,0-.1611295126.25,0,.25h0Z" style="fill: #88e055;"/>
  <path d="m97.3333333333,115.7546296296c.16086307,0,.1611295126-.25,0-.25-.16086307,0-.1611295126.25,0,.25h0Z" style="fill: #88e055;"/>
  <path d="m96.6296296296,116.2361111111c.16086307,0,.1611295126-.25,0-.25-.16086307,0-.1611295126.25,0,.25h0Z" style="fill: #88e055;"/>
  <path d="m95.5925925926,116.3472222222c.16086307,0,.1611295126-.25,0-.25-.16086307,0-.1611295126.25,0,.25h0Z" style="fill: #88e055;"/>
  <path d="m95.1851851852,115.9398148148c.16086307,0,.1611295126-.25,0-.25-.16086307,0-.1611295126.25,0,.25h0Z" style="fill: #88e055;"/>
  <path d="m94.8518518519,115.2731481481c.16086307,0,.1611295126-.25,0-.25-.16086307,0-.1611295126.25,0,.25h0Z" style="fill: #88e055;"/>
  <path d="m94.1851851852,115.3842592593c.16086307,0,.1611295126-.25,0-.25-.16086307,0-.1611295126.25,0,.25h0Z" style="fill: #88e055;"/>
  <path d="m93.2592592593,115.4212962963c.16086307,0,.1611295126-.25,0-.25-.16086307,0-.1611295126.25,0,.25h0Z" style="fill: #88e055;"/>
  <path d="m92.4814814815,115.9398148148c.16086307,0,.1611295126-.25,0-.25-.16086307,0-.1611295126.25,0,.25h0Z" style="fill: #88e055;"/>
  <path d="m92.2592592593,116.4212962963c.16086307,0,.1611295126-.25,0-.25-.16086307,0-.1611295126.25,0,.25h0Z" style="fill: #88e055;"/>
  <path d="m91.4814814815,113.7916666667c.16086307,0,.1611295126-.25,0-.25-.16086307,0-.1611295126.25,0,.25h0Z" style="fill: #88e055;"/>
  <path d="m91.3333333333,115.3101851852c.16086307,0,.1611295126-.25,0-.25-.16086307,0-.1611295126.25,0,.25h0Z" style="fill: #88e055;"/>
</svg>