<svg id="arbustos" xmlns="http://www.w3.org/2000/svg" viewBox="0 0 210 210"><defs><style>.cls-1{fill:#00ff47;}.cls-2{fill:#1c00aa;}.cls-3{fill:#ff3fb6;}</style></defs><circle class="cls-1" cx="105.39" cy="109.3" r="0.05"/><circle class="cls-1" cx="105.26" cy="109.3" r="0.05"/><circle class="cls-1" cx="105.15" cy="109.26" r="0.05"/><circle class="cls-1" cx="105.01" cy="109.26" r="0.05"/><circle class="cls-1" cx="104.87" cy="109.22" r="0.05"/><circle class="cls-1" cx="104.72" cy="109.22" r="0.05"/><circle class="cls-1" cx="104.59" cy="109.18" r="0.05"/><circle class="cls-1" cx="104.47" cy="109.17" r="0.05"/><circle class="cls-1" cx="104.36" cy="109.16" r="0.05"/><circle class="cls-1" cx="104.25" cy="109.14" r="0.05"/><circle class="cls-1" cx="104.1" cy="109.12" r="0.05"/><circle class="cls-1" cx="103.97" cy="109.11" r="0.05"/><circle class="cls-1" cx="103.86" cy="109.1" r="0.05"/><circle class="cls-1" cx="103.75" cy="109.08" r="0.05"/><circle class="cls-1" cx="103.62" cy="109.04" r="0.05"/><circle class="cls-1" cx="103.5" cy="109.05" r="0.05"/><circle class="cls-1" cx="103.38" cy="109.02" r="0.05"/><circle class="cls-1" cx="103.27" cy="109" r="0.05"/><circle class="cls-1" cx="103.14" cy="108.98" r="0.05"/><circle class="cls-1" cx="103" cy="108.95" r="0.05"/><circle class="cls-1" cx="102.9" cy="108.91" r="0.05"/><circle class="cls-1" cx="102.75" cy="108.92" r="0.05"/><circle class="cls-1" cx="102.6" cy="108.86" r="0.05"/><circle class="cls-1" cx="102.47" cy="108.86" r="0.05"/><circle class="cls-1" cx="102.32" cy="108.86" r="0.05"/><circle class="cls-1" cx="102.18" cy="108.81" r="0.05"/><circle class="cls-1" cx="102.05" cy="108.82" r="0.05"/><circle class="cls-1" cx="101.92" cy="108.79" r="0.05"/><circle class="cls-1" cx="101.79" cy="108.78" r="0.05"/><circle class="cls-1" cx="101.68" cy="108.72" r="0.05"/><circle class="cls-1" cx="101.57" cy="108.7" r="0.05"/><circle class="cls-1" cx="101.41" cy="108.7" r="0.05"/><circle class="cls-1" cx="101.29" cy="108.69" r="0.05"/><circle class="cls-1" cx="101.18" cy="108.65" r="0.05"/><circle class="cls-1" cx="101.08" cy="108.63" r="0.05"/><circle class="cls-1" cx="100.95" cy="108.63" r="0.05"/><circle class="cls-1" cx="100.85" cy="108.61" r="0.05"/><circle class="cls-1" cx="100.72" cy="108.57" r="0.05"/><circle class="cls-1" cx="100.61" cy="108.59" r="0.05"/><circle class="cls-1" cx="100.5" cy="108.57" r="0.05"/><circle class="cls-1" cx="100.37" cy="108.54" r="0.05"/><circle class="cls-1" cx="100.22" cy="108.51" r="0.05"/><circle class="cls-1" cx="100.07" cy="108.48" r="0.05"/><circle class="cls-1" cx="99.95" cy="108.48" r="0.05"/><circle class="cls-1" cx="99.83" cy="108.43" r="0.05"/><circle class="cls-1" cx="99.7" cy="108.44" r="0.05"/><circle class="cls-1" cx="99.57" cy="108.42" r="0.05"/><circle class="cls-1" cx="99.46" cy="108.41" r="0.05"/><circle class="cls-1" cx="99.35" cy="108.35" r="0.05"/><circle class="cls-1" cx="99.24" cy="108.35" r="0.05"/><circle class="cls-1" cx="99.12" cy="108.36" r="0.05"/><circle class="cls-1" cx="99.01" cy="108.34" r="0.05"/><circle class="cls-1" cx="98.89" cy="108.3" r="0.05"/><circle class="cls-1" cx="98.75" cy="108.29" r="0.05"/><circle class="cls-1" cx="98.61" cy="108.24" r="0.05"/><circle class="cls-1" cx="98.47" cy="108.24" r="0.05"/><circle class="cls-1" cx="98.34" cy="108.21" r="0.05"/><circle class="cls-1" cx="98.18" cy="108.2" r="0.05"/><circle class="cls-1" cx="98.08" cy="108.15" r="0.05"/><circle class="cls-1" cx="97.94" cy="108.15" r="0.05"/><circle class="cls-1" cx="97.79" cy="108.13" r="0.05"/><circle class="cls-1" cx="97.67" cy="108.11" r="0.05"/><circle class="cls-1" cx="97.52" cy="108.1" r="0.05"/><circle class="cls-1" cx="97.41" cy="108.07" r="0.05"/><circle class="cls-1" cx="97.27" cy="108.04" r="0.05"/><circle class="cls-1" cx="97.13" cy="108.02" r="0.05"/><circle class="cls-1" cx="97" cy="108.01" r="0.05"/><circle class="cls-1" cx="96.84" cy="108.01" r="0.05"/><circle class="cls-1" cx="96.72" cy="107.98" r="0.05"/><circle class="cls-1" cx="96.61" cy="107.96" r="0.05"/><circle class="cls-1" cx="96.46" cy="107.93" r="0.05"/><circle class="cls-1" cx="96.36" cy="107.91" r="0.05"/><circle class="cls-1" cx="96.22" cy="107.89" r="0.05"/><circle class="cls-1" cx="96.11" cy="107.86" r="0.05"/><circle class="cls-1" cx="95.96" cy="107.83" r="0.05"/><circle class="cls-1" cx="95.82" cy="107.84" r="0.05"/><circle class="cls-1" cx="95.68" cy="107.82" r="0.05"/><circle class="cls-1" cx="95.53" cy="107.78" r="0.05"/><circle class="cls-1" cx="95.43" cy="107.76" r="0.05"/><circle class="cls-1" cx="95.31" cy="107.76" r="0.05"/><circle class="cls-1" cx="95.17" cy="107.71" r="0.05"/><circle class="cls-1" cx="95.02" cy="107.68" r="0.05"/><circle class="cls-1" cx="94.92" cy="107.66" r="0.05"/><circle class="cls-1" cx="94.78" cy="107.64" r="0.05"/><circle class="cls-1" cx="94.64" cy="107.64" r="0.05"/><circle class="cls-1" cx="94.49" cy="107.62" r="0.05"/><circle class="cls-1" cx="94.38" cy="107.61" r="0.05"/><circle class="cls-1" cx="94.23" cy="107.58" r="0.05"/><circle class="cls-1" cx="94.11" cy="107.54" r="0.05"/><circle class="cls-1" cx="94" cy="107.51" r="0.05"/><circle class="cls-1" cx="93.88" cy="107.51" r="0.05"/><circle class="cls-1" cx="96.96" cy="106.25" r="0.05"/><circle class="cls-1" cx="96.84" cy="106.22" r="0.05"/><circle class="cls-1" cx="96.72" cy="106.21" r="0.05"/><circle class="cls-1" cx="96.61" cy="106.18" r="0.05"/><circle class="cls-1" cx="96.46" cy="106.21" r="0.05"/><circle class="cls-1" cx="96.34" cy="106.15" r="0.05"/><circle class="cls-1" cx="96.22" cy="106.13" r="0.05"/><circle class="cls-1" cx="96.07" cy="106.09" r="0.05"/><circle class="cls-1" cx="95.94" cy="106.09" r="0.05"/><circle class="cls-1" cx="95.84" cy="106.11" r="0.05"/><circle class="cls-1" cx="95.7" cy="106.04" r="0.05"/><circle class="cls-1" cx="95.58" cy="106.05" r="0.05"/><circle class="cls-1" cx="95.43" cy="106.04" r="0.05"/><circle class="cls-1" cx="104.5" cy="105.75" r="0.05"/><circle class="cls-1" cx="104.37" cy="105.73" r="0.05"/><circle class="cls-1" cx="104.23" cy="105.71" r="0.05"/><circle class="cls-1" cx="104.12" cy="105.71" r="0.05"/><circle class="cls-1" cx="104.01" cy="105.68" r="0.05"/><circle class="cls-1" cx="103.89" cy="105.7" r="0.05"/><circle class="cls-1" cx="103.77" cy="105.7" r="0.05"/><circle class="cls-1" cx="103.62" cy="105.67" r="0.05"/><circle class="cls-1" cx="103.47" cy="105.64" r="0.05"/><circle class="cls-1" cx="103.34" cy="105.67" r="0.05"/><circle class="cls-1" cx="103.23" cy="105.67" r="0.05"/><circle class="cls-1" cx="103.08" cy="105.65" r="0.05"/><circle class="cls-1" cx="102.95" cy="105.63" r="0.05"/><circle class="cls-1" cx="102.8" cy="105.62" r="0.05"/><circle class="cls-1" cx="102.66" cy="105.58" r="0.05"/><circle class="cls-1" cx="102.54" cy="105.6" r="0.05"/><circle class="cls-1" cx="102.41" cy="105.6" r="0.05"/><circle class="cls-1" cx="102.27" cy="105.55" r="0.05"/><circle class="cls-1" cx="102.11" cy="105.55" r="0.05"/><circle class="cls-1" cx="101.98" cy="105.52" r="0.05"/><circle class="cls-1" cx="101.84" cy="105.55" r="0.05"/><circle class="cls-1" cx="101.7" cy="105.52" r="0.05"/><circle class="cls-1" cx="101.56" cy="105.52" r="0.05"/><circle class="cls-1" cx="101.43" cy="105.51" r="0.05"/><circle class="cls-1" cx="101.32" cy="105.51" r="0.05"/><circle class="cls-1" cx="101.18" cy="105.46" r="0.05"/><circle class="cls-1" cx="101.03" cy="105.47" r="0.05"/><circle class="cls-1" cx="100.92" cy="105.47" r="0.05"/><circle class="cls-1" cx="100.76" cy="105.47" r="0.05"/><circle class="cls-1" cx="100.62" cy="105.42" r="0.05"/><circle class="cls-1" cx="100.49" cy="105.45" r="0.05"/><circle class="cls-1" cx="100.34" cy="105.39" r="0.05"/><circle class="cls-1" cx="100.2" cy="105.4" r="0.05"/><circle class="cls-1" cx="100.06" cy="105.38" r="0.05"/><circle class="cls-1" cx="99.93" cy="105.36" r="0.05"/><circle class="cls-1" cx="99.78" cy="105.38" r="0.05"/><circle class="cls-1" cx="99.66" cy="105.38" r="0.05"/><circle class="cls-1" cx="99.51" cy="105.33" r="0.05"/><circle class="cls-1" cx="99.4" cy="105.33" r="0.05"/><circle class="cls-1" cx="99.26" cy="105.33" r="0.05"/><circle class="cls-1" cx="99.12" cy="105.29" r="0.05"/><circle class="cls-1" cx="98.97" cy="105.28" r="0.05"/><circle class="cls-1" cx="98.82" cy="105.29" r="0.05"/><circle class="cls-1" cx="98.67" cy="105.28" r="0.05"/><circle class="cls-1" cx="98.56" cy="105.26" r="0.05"/><circle class="cls-1" cx="98.42" cy="105.26" r="0.05"/><circle class="cls-1" cx="98.28" cy="105.25" r="0.05"/><circle class="cls-1" cx="98.13" cy="105.25" r="0.05"/><circle class="cls-1" cx="97.98" cy="105.24" r="0.05"/><circle class="cls-1" cx="97.88" cy="105.2" r="0.05"/><circle class="cls-1" cx="97.75" cy="105.2" r="0.05"/><circle class="cls-1" cx="97.64" cy="105.21" r="0.05"/><circle class="cls-1" cx="97.49" cy="105.16" r="0.05"/><circle class="cls-1" cx="97.35" cy="105.17" r="0.05"/><circle class="cls-1" cx="97.22" cy="105.18" r="0.05"/><circle class="cls-1" cx="97.07" cy="105.13" r="0.05"/><circle class="cls-1" cx="96.94" cy="105.12" r="0.05"/><circle class="cls-1" cx="96.83" cy="105.15" r="0.05"/><circle class="cls-1" cx="96.73" cy="105.14" r="0.05"/><circle class="cls-1" cx="96.59" cy="105.12" r="0.05"/><circle class="cls-1" cx="96.47" cy="105.12" r="0.05"/><circle class="cls-1" cx="96.34" cy="105.1" r="0.05"/><circle class="cls-1" cx="96.23" cy="105.06" r="0.05"/><circle class="cls-1" cx="96.1" cy="105.05" r="0.05"/><circle class="cls-1" cx="95.98" cy="105.07" r="0.05"/><circle class="cls-1" cx="95.87" cy="105.04" r="0.05"/><circle class="cls-1" cx="95.71" cy="105.03" r="0.05"/><circle class="cls-1" cx="95.57" cy="105.03" r="0.05"/><circle class="cls-1" cx="95.46" cy="105" r="0.05"/><circle class="cls-1" cx="95.3" cy="105" r="0.05"/><circle class="cls-1" cx="95.17" cy="104.97" r="0.05"/><circle class="cls-1" cx="95.03" cy="104.96" r="0.05"/><circle class="cls-1" cx="94.91" cy="104.97" r="0.05"/><circle class="cls-1" cx="94.77" cy="104.94" r="0.05"/><circle class="cls-1" cx="94.63" cy="104.95" r="0.05"/><circle class="cls-1" cx="94.5" cy="104.94" r="0.05"/><circle class="cls-1" cx="94.36" cy="104.9" r="0.05"/><circle class="cls-1" cx="94.25" cy="104.9" r="0.05"/><circle class="cls-1" cx="100.2" cy="106.72" r="0.05"/><circle class="cls-1" cx="100.09" cy="106.72" r="0.05"/><circle class="cls-1" cx="99.96" cy="106.69" r="0.05"/><circle class="cls-1" cx="99.8" cy="106.67" r="0.05"/><circle class="cls-1" cx="99.68" cy="106.63" r="0.05"/><circle class="cls-1" cx="99.56" cy="106.63" r="0.05"/><circle class="cls-1" cx="99.42" cy="106.59" r="0.05"/><circle class="cls-1" cx="99.31" cy="106.59" r="0.05"/><circle class="cls-1" cx="99.18" cy="106.57" r="0.05"/><circle class="cls-1" cx="99.06" cy="106.56" r="0.05"/><circle class="cls-1" cx="98.94" cy="106.53" r="0.05"/><circle class="cls-1" cx="98.81" cy="106.52" r="0.05"/><circle class="cls-1" cx="98.71" cy="106.51" r="0.05"/><circle class="cls-1" cx="98.57" cy="106.47" r="0.05"/><circle class="cls-1" cx="98.46" cy="106.47" r="0.05"/><circle class="cls-1" cx="98.34" cy="106.44" r="0.05"/><circle class="cls-1" cx="98.21" cy="106.42" r="0.05"/><circle class="cls-1" cx="98.08" cy="106.41" r="0.05"/><circle class="cls-1" cx="97.97" cy="106.36" r="0.05"/><circle class="cls-1" cx="97.84" cy="106.36" r="0.05"/><circle class="cls-1" cx="97.69" cy="106.32" r="0.05"/><circle class="cls-1" cx="97.54" cy="106.32" r="0.05"/><circle class="cls-1" cx="97.4" cy="106.29" r="0.05"/><circle class="cls-1" cx="94.22" cy="105.04" r="0.05"/><circle class="cls-1" cx="94.22" cy="105.15" r="0.05"/><circle class="cls-1" cx="94.19" cy="105.29" r="0.05"/><circle class="cls-1" cx="94.16" cy="105.44" r="0.05"/><circle class="cls-1" cx="94.12" cy="105.56" r="0.05"/><circle class="cls-1" cx="94.13" cy="105.68" r="0.05"/><circle class="cls-1" cx="94.09" cy="105.82" r="0.05"/><circle class="cls-1" cx="94.09" cy="105.93" r="0.05"/><circle class="cls-1" cx="94.07" cy="106.06" r="0.05"/><circle class="cls-1" cx="94.06" cy="106.18" r="0.05"/><circle class="cls-1" cx="94.03" cy="106.3" r="0.05"/><circle class="cls-1" cx="94.02" cy="106.43" r="0.05"/><circle class="cls-1" cx="94.01" cy="106.53" r="0.05"/><circle class="cls-1" cx="93.97" cy="106.67" r="0.05"/><circle class="cls-1" cx="93.97" cy="106.78" r="0.05"/><circle class="cls-1" cx="93.94" cy="106.9" r="0.05"/><circle class="cls-1" cx="93.92" cy="107.04" r="0.05"/><circle class="cls-1" cx="93.9" cy="107.19" r="0.05"/><circle class="cls-1" cx="93.87" cy="107.33" r="0.05"/><circle class="cls-1" cx="102.57" cy="107.08" r="0.05"/><circle class="cls-1" cx="102.42" cy="107.07" r="0.05"/><circle class="cls-1" cx="102.31" cy="107.01" r="0.05"/><circle class="cls-1" cx="102.17" cy="106.99" r="0.05"/><circle class="cls-1" cx="102.05" cy="106.97" r="0.05"/><circle class="cls-1" cx="101.91" cy="106.98" r="0.05"/><circle class="cls-1" cx="101.79" cy="106.95" r="0.05"/><circle class="cls-1" cx="101.65" cy="106.95" r="0.05"/><circle class="cls-1" cx="101.49" cy="106.93" r="0.05"/><circle class="cls-1" cx="101.35" cy="106.89" r="0.05"/><circle class="cls-1" cx="101.21" cy="106.89" r="0.05"/><circle class="cls-1" cx="101.08" cy="106.86" r="0.05"/><circle class="cls-1" cx="100.94" cy="106.84" r="0.05"/><circle class="cls-1" cx="100.83" cy="106.81" r="0.05"/><circle class="cls-1" cx="100.73" cy="106.8" r="0.05"/><circle class="cls-1" cx="104.16" cy="107.29" r="0.05"/><circle class="cls-1" cx="104.04" cy="107.29" r="0.05"/><circle class="cls-1" cx="103.93" cy="107.25" r="0.05"/><circle class="cls-1" cx="103.8" cy="107.24" r="0.05"/><circle class="cls-1" cx="103.68" cy="107.26" r="0.05"/><circle class="cls-1" cx="103.54" cy="107.23" r="0.05"/><circle class="cls-1" cx="103.43" cy="107.19" r="0.05"/><circle class="cls-1" cx="103.28" cy="107.17" r="0.05"/><circle class="cls-1" cx="103.17" cy="107.17" r="0.05"/><circle class="cls-1" cx="103.05" cy="107.15" r="0.05"/><circle class="cls-1" cx="97.29" cy="105.42" r="0.05"/><circle class="cls-1" cx="100.95" cy="105.77" r="0.05"/><circle class="cls-1" cx="103.27" cy="105.94" r="0.05"/><circle class="cls-2" cx="91.02" cy="110.71" r="0.05"/><circle class="cls-2" cx="93.13" cy="111" r="0.05"/><circle class="cls-2" cx="93.53" cy="110.89" r="0.05"/><circle class="cls-2" cx="93.91" cy="111.04" r="0.05"/><circle class="cls-2" cx="95.19" cy="110.95" r="0.05"/><circle class="cls-2" cx="95.98" cy="111.31" r="0.05"/><circle class="cls-2" cx="96.64" cy="111.26" r="0.05"/><circle class="cls-2" cx="88.79" cy="110.2" r="0.05"/><circle class="cls-2" cx="88.91" cy="110.86" r="0.05"/><circle class="cls-2" cx="88.11" cy="110.91" r="0.05"/><circle class="cls-2" cx="90.43" cy="110.86" r="0.05"/><circle class="cls-2" cx="90.7" cy="111.19" r="0.05"/><circle class="cls-2" cx="93.21" cy="111.88" r="0.05"/><circle class="cls-2" cx="99.89" cy="111.94" r="0.05"/><circle class="cls-2" cx="100.26" cy="111.86" r="0.05"/><circle class="cls-2" cx="101.3" cy="112.17" r="0.05"/><circle class="cls-3" cx="109.87" cy="115.22" r="0.05"/><circle class="cls-3" cx="110.1" cy="115.67" r="0.05"/><circle class="cls-3" cx="108.21" cy="116.77" r="0.05"/><circle class="cls-3" cx="106.68" cy="117.64" r="0.05"/><circle class="cls-3" cx="107.26" cy="117.38" r="0.05"/><circle class="cls-3" cx="98.41" cy="112.38" r="0.05"/><circle class="cls-3" cx="101.96" cy="111.87" r="0.05"/><circle class="cls-3" cx="108.24" cy="112.31" r="0.05"/><circle class="cls-3" cx="109.71" cy="113.4" r="0.05"/><circle class="cls-3" cx="106.71" cy="118.51" r="0.05"/><circle class="cls-3" cx="105.09" cy="120.95" r="0.05"/><circle class="cls-3" cx="105.72" cy="120.59" r="0.05"/><circle class="cls-3" cx="106.14" cy="123.92" r="0.05"/><circle class="cls-3" cx="105.56" cy="123.73" r="0.05"/><circle class="cls-3" cx="106.94" cy="124.46" r="0.05"/><circle class="cls-3" cx="106.62" cy="125.42" r="0.05"/><circle class="cls-3" cx="108.31" cy="124.08" r="0.05"/><circle class="cls-3" cx="109.07" cy="122.61" r="0.05"/><circle class="cls-3" cx="109.97" cy="120.1" r="0.05"/><circle class="cls-3" cx="110.1" cy="118.5" r="0.05"/><circle class="cls-3" cx="109.3" cy="117.96" r="0.05"/><circle class="cls-3" cx="108.98" cy="117.26" r="0.05"/><circle class="cls-3" cx="110" cy="116.86" r="0.05"/><circle class="cls-3" cx="110.54" cy="116.07" r="0.05"/><circle class="cls-3" cx="110.93" cy="113.93" r="0.05"/><circle class="cls-3" cx="93.21" cy="112.63" r="0.05"/><circle class="cls-3" cx="91.39" cy="111.22" r="0.05"/><circle class="cls-3" cx="88.97" cy="111.54" r="0.05"/><circle class="cls-3" cx="87.09" cy="108.46" r="0.05"/><circle class="cls-3" cx="85.27" cy="108.45" r="0.05"/><circle class="cls-3" cx="86.45" cy="110.91" r="0.05"/><circle class="cls-3" cx="107.8" cy="121.02" r="0.05"/><circle class="cls-3" cx="107.83" cy="120.86" r="0.05"/><circle class="cls-3" cx="108.02" cy="120.99" r="0.05"/><circle class="cls-3" cx="107.19" cy="121.76" r="0.05"/><circle class="cls-3" cx="107.35" cy="121.83" r="0.05"/><circle class="cls-3" cx="107.32" cy="121.7" r="0.05"/><circle class="cls-3" cx="107.57" cy="121.73" r="0.05"/></svg>