<?xml version="1.0" encoding="UTF-8"?>
<svg id="edificios" xmlns="http://www.w3.org/2000/svg" width="210" height="210" viewBox="0 0 210 210">
  <polygon points="91.9199981689 166.2100067139 92.2600021362 165.1699981689 84.2200012207 162.9799957275 83.1500015259 167.3200073242 100.5899963379 172.2200012207 101.1299972534 168.8800048828 91.9199981689 166.2100067139" style="fill: #222431;"/>
  <polygon points="65.5899963379 172.0399932861 63.1300010681 179.9100036621 73.8799972534 184.9499969482 76.1600036621 175.4299926758 65.5899963379 172.0399932861" style="fill: #222431;"/>
  <polygon points="69.2799987793 159.5399932861 68.6600036621 161.6199951172 71.5899963379 162.4199981689 70.4700012207 167.1799926758 67.1299972534 166.1699981689 66.5 168.25 77.2699966431 171.5599975586 79.4599990845 162.75 69.2799987793 159.5399932861" style="fill: #222431;"/>
  <polygon points="51.4099998474 154.3500061035 48.9500007629 162.4700012207 50.9900016785 163.1399993896 53 156.5200042725 56.9000015259 157.6600036621 54.9500007629 164.2400054932 62.2299995422 166.5899963379 62.8499984741 164.8800048828 59.9799995422 164.0099945068 61.4199981689 159.1600036621 64.6200027466 160.1100006104 65.1299972534 158.0299987793 51.4099998474 154.3500061035" style="fill: #222431;"/>
  <polygon points="40.5099983215 150.3300018311 37.7999992371 158.6399993896 44.9399986267 160.9900054932 45.5800018311 159.2299957275 41.8699989319 158.1499938965 43.2299995422 153.5399932861 47 154.5899963379 47.5699996948 152.4700012207 40.5099983215 150.3300018311" style="fill: #222431;"/>
  <polygon points="41.8300018311 164.3099975586 40.9199981689 167.3500061035 37.7799987793 166.5500030518 38.6199989319 163.3899993896 36.1699981689 162.6499938965 35.1800003052 166.7200012207 41.7099990845 169.8200073242 43.1899986267 164.7400054932 41.8300018311 164.3099975586" style="fill: #222431;"/>
  <polygon points="47.9900016785 166.1799926758 46.1500015259 171.9700012207 58.9700012207 177.7799987793 61.0400009155 170.5 47.9900016785 166.1799926758" style="fill: #222431;"/>
  <polygon points="89.1600036621 174.0800018311 87.3199996948 182.8899993896 87.1299972534 183.7799987793 86.2200012207 183.6799926758 83.0100021362 183.2899932861 81.8899993896 183.1499938965 82.1600036621 182.0599975586 84.4400024414 172.6799926758 81.7600021362 171.8000030518 78.0100021362 186.1300048828 89.7099990845 187.7700042725 90.8499984741 179.6499938965 90.9899978638 178.6300048828 92.0100021362 178.8099975586 94.7900009155 179.3000030518 95.75 179.4700012207 95.6100006104 180.4299926758 94.3099975586 188.7799987793 97.5599975586 189.2200012207 99.5400009155 176.7100067139 89.1600036621 174.0800018311" style="fill: #222431;"/>
  <polygon points="85.6999969482 192.3899993896 83.7200012207 203.2799987793 94.1800003052 204.7700042725 96.3700027466 194.0500030518 85.6999969482 192.3899993896" style="fill: #222431;"/>
  <polygon points="75.8499984741 190.5 68.9499969482 199.5399932861 68.9499969482 201.3099975586 80.8600006104 203.2400054932 83.0500030518 191.6600036621 75.8499984741 190.5" style="fill: #222431;"/>
  <polygon points="57.3199996948 182.7200012207 53.3699989319 187.9600067139 56.4000015259 190.5299987793 59.0099983215 187.9900054932 59.6300010681 187.3800048828 60.3199996948 187.9100036621 64.4700012207 191.0899963379 65.3199996948 191.75 64.5999984741 192.5500030518 62.5299987793 194.8800048828 64.1699981689 196.1999969482 69.9199981689 189.3800048828 57.3199996948 182.7200012207" style="fill: #222431;"/>
  <polygon points="110.4300003052 183.5599975586 109.1100006104 190.4100036621 121.3600006104 192.1100006104 123.1800003052 185.7899932861 110.4300003052 183.5599975586" style="fill: #222431;"/>
  <polygon points="118.0699996948 194.7599945068 108.7699966431 193.7200012207 107.6900024414 200.5899963379 118.0699996948 194.7599945068" style="fill: #222431;"/>
  <polygon points="121.0800018311 177.1199951172 120.9599990845 177.1300048828 120.8499984741 177.1100006104 118.0699996948 176.6699981689 117.9199981689 176.6499938965 117.7799987793 176.5700073242 112.0100021362 173.6799926758 111.0199966431 178.7200012207 124.5 181.25 125.7200012207 176.7799987793 121.0800018311 177.1199951172" style="fill: #222431;"/>
  <polygon points="130.9199981689 176.6999969482 125.0299987793 195.75 129.0599975586 197.0299987793 135.3000030518 176.4799957275 130.9199981689 176.6999969482" style="fill: #222431;"/>
  <polygon points="186.7100067139 149.2200012207 187.3600006104 170.7299957275 198.3399963379 168.5299987793 198.3399963379 152.8099975586 186.7100067139 149.2200012207" style="fill: #222431;"/>
  <polygon points="51.3899993896 136.0700073242 53.6199989319 129.3999938965 61.5600013733 132.1799926758 59.6199989319 138.3999938965 51.3899993896 136.0700073242" style="fill: #222431;"/>
  <polygon points="187.1900024414 133.7400054932 198.3399963379 137.4799957275 198.3399963379 142.2599945068 185.8200073242 138.7400054932 187.1900024414 133.7400054932" style="fill: #222431;"/>
  <polygon points="192.0800018311 141.4400024414 200.0399932861 144.0299987793 198.6000061035 149.2200012207 190.6300048828 146.3300018311 192.0800018311 141.4400024414" style="fill: #222431;"/>
  <polygon points="167.7100067139 133.0700073242 173.8600006104 134.0299987793 171.5200042725 142.8099975586 168.0800018311 142.4400024414 167.3800048828 135.6300048828 167.7100067139 133.0700073242" style="fill: #222431;"/>
  <polygon points="173.1199951172 140.8999938965 173.1199951172 144.7400054932 181.3899993896 145.0099945068 181.3899993896 140.8999938965 173.1199951172 140.8999938965" style="fill: #222431;"/>
  <polygon points="116.2799987793 140.8999938965 116.8899993896 136.1799926758 123.5599975586 136.6300048828 123 141.8099975586 116.2799987793 140.8999938965" style="fill: #222431;"/>
  <polygon points="129.2599945068 142.8099975586 130.0800018311 132.6999969482 137.0399932861 133.0700073242 136.6699981689 143.2899932861 129.2599945068 142.8099975586" style="fill: #222431;"/>
  <polygon points="142.9700012207 142.8099975586 141.4100036621 133.0700073242 143.7799987793 133.1900024414 145.3399963379 142.9600067139 142.9700012207 142.8099975586" style="fill: #222431;"/>
  <polygon points="118.3000030518 125.8099975586 130.0800018311 127.5899963379 129.5599975586 131.2899932861 117.7099990845 129.9600067139 118.3000030518 125.8099975586" style="fill: #222431;"/>
  <polygon points="117.7099990845 130.7700042725 117.0400009155 135.6600036621 120.8199996948 136.0299987793 121.0400009155 130.9199981689 117.7099990845 130.7700042725" style="fill: #222431;"/>
  <polygon points="130.8200073242 127.8099975586 142.9700012207 129.2200012207 143.7100067139 132.6300048828 130.4499969482 131.2200012207 130.8200073242 127.8099975586" style="fill: #222431;"/>
  <polygon points="119.5599975586 116.7699966431 127.4100036621 118.1100006104 127.1200027466 120.0299987793 119.1200027466 118.9199981689 119.5599975586 116.7699966431" style="fill: #222431;"/>
  <polygon points="118.9700012207 119.5199966431 126.9700012207 120.7699966431 126.3799972534 124.7699966431 118.3799972534 123.5199966431 118.9700012207 119.5199966431" style="fill: #222431;"/>
  <polygon points="136.5200042725 119.4400024414 139.9299926758 120.0299987793 141.7100067139 126.7699966431 135.6300048828 125.8099975586 136.5200042725 119.4400024414" style="fill: #222431;"/>
  <polygon points="129.6300048828 118.4800033569 135.7799987793 119.4400024414 135.0399932861 125.6600036621 128.5200042725 125 129.6300048828 118.4800033569" style="fill: #222431;"/>
  <polygon points="122.75 106.4000015259 121.4100036621 114.6299972534 127.6399993896 115.6600036621 128.9700012207 107.2900009155 122.75 106.4000015259" style="fill: #222431;"/>
  <polygon points="131.3399963379 107.9599990845 136.4499969482 108.9000015259 138.4499969482 117.2900009155 130.0599975586 115.9599990845 131.3399963379 107.9599990845" style="fill: #222431;"/>
  <polygon points="123.2799987793 91.3499984741 131.2299957275 92.9000015259 131 94.8499984741 123 93.4599990845 123.2799987793 91.3499984741" style="fill: #222431;"/>
  <polygon points="122.8399963379 95.7399978638 130.5599975586 97.0699996948 130.1699981689 100.2399978638 122.2799987793 99.1299972534 122.8399963379 95.7399978638" style="fill: #222431;"/>
  <polygon points="122.1699981689 99.7900009155 126.3899993896 100.4599990845 125.8399963379 104.6299972534 121.5 103.8499984741 122.1699981689 99.7900009155" style="fill: #222431;"/>
  <polygon points="131.6199951172 105.1800003052 132.6699981689 98.0199966431 133.3899993896 98.0699996948 135.7799987793 105.9000015259 131.6199951172 105.1800003052" style="fill: #222431;"/>
  <polygon points="163.0599975586 103.4599990845 161.3899993896 117.1800003052 167.5599975586 118.5699996948 169.1199951172 108.2399978638 165.1699981689 107.6299972534 165.3399963379 103.6299972534 163.0599975586 103.4599990845" style="fill: #222431;"/>
  <polygon points="180.7799987793 109.2900009155 180.3899993896 115.6800003052 187.2799987793 116.6299972534 187.9499969482 109.8499984741 180.7799987793 109.2900009155" style="fill: #222431;"/>
  <polygon points="170 108.5699996948 178.2299957275 109.6299972534 178.1699981689 115.5699996948 169.1699981689 114.5199966431 170 108.5699996948" style="fill: #222431;"/>
  <polygon points="75.7099990845 79.6600036621 76.5999984741 72.5199966431 82.8899993896 73 82.1500015259 80.5899963379 75.7099990845 79.6600036621" style="fill: #222431;"/>
  <polygon points="67 105.4599990845 66.0599975586 107.6800003052 69.75 109.4499969482 67.5599975586 114.5699996948 69.6200027466 115.4000015259 73.1699981689 108.1299972534 67 105.4599990845" style="fill: #222431;"/>
  <circle cx="63.7799987793" cy="108.1299972534" r="1.2200012207" style="fill: #222431;"/>
  <polygon points="59.6699981689 100.0699996948 66.5599975586 102.4000015259 65.7799987793 104.9000015259 59.6699981689 102.9000015259 59.6699981689 100.0699996948" style="fill: #222431;"/>
  <polygon points="85 128.5099945068 98.3399963379 131.9600067139 96.7799987793 138.7400054932 83 135.0700073242 85 128.5099945068" style="fill: #222431;"/>
  <polygon points="74.2300033569 146.6300048828 78 147.6300048828 75.8899993896 155.2899932861 71.7799987793 153.8500061035 74.2300033569 146.6300048828" style="fill: #222431;"/>
  <path d="m48.3400001526,118.9400024414l3.8100013733,1-2.2099990845,6.3700027466-3.5699996948-1.1600036621,2-6.1599960327m-.6699981689-1.1999969482l-2.5499992371,8,5.4399986267,1.7799987793,2.8899993896-8.3399963379-5.7799987793-1.4400024414Z" style="fill: #222431;"/>
  <polygon points="32.2299995422 106.0199966431 39.6699981689 108.1299972534 38.8899993896 111.2399978638 31.3400001526 108.9599990845 32.2299995422 106.0199966431" style="fill: #222431;"/>
  <polygon points="23.5 119.5199966431 31.3400001526 121.8499984741 28.9500007629 129.6300048828 20.8899993896 127.1299972534 23.5 119.5199966431" style="fill: #222431;"/>
  <polygon points="34.2799987793 112.6299972534 15.3400001526 106.9599990845 14.4499998093 114.7399978638 31.6700000763 120.2900009155 34.2799987793 112.6299972534" style="fill: #222431;"/>
  <polygon points="10.5100002289 119.4000015259 20.6700000763 122.2399978638 19.3400001526 126.6299972534 9.0100002289 123.7399978638 10.5100002289 119.4000015259" style="fill: #222431;"/>
  <polygon points="7.8899998665 105.5199966431 14.0100002289 106.9000015259 12.9499998093 114.0199966431 6.1199998856 112.0699996948 7.8899998665 105.5199966431" style="fill: #222431;"/>
  <polygon points="105 46.1300010681 113.0599975586 47.2900009155 113.2799987793 40.1800003052 104.7300033569 39.3499984741 105 46.1300010681" style="fill: #222431;"/>
  <polygon points="106 32.9000015259 112.6200027466 33.5699996948 112.6699981689 36.5200004578 105.7799987793 35.9000015259 106 32.9000015259" style="fill: #222431;"/>
  <polygon points="96.3899993896 33.9599990845 102.9499969482 34.2400016785 102.6699981689 38.9599990845 95.3399963379 38.6800003052 96.3899993896 33.9599990845" style="fill: #222431;"/>
  <polygon points="95.75 122.2399978638 96.7200012207 122.5699996948 100.8600006104 121.1100006104 99.1800003052 116.3199996948 94.25 118.0699996948 95.75 122.2399978638" style="fill: #222431;"/>
  <polygon points="94.25 115.8700027466 92.8799972534 116.3399963379 92.75 116.5800018311 93.1900024414 117.8499984741 93.4400024414 117.9599990845 94.8099975586 117.4899978638 94.9400024414 117.25 94.5 115.9800033569 94.25 115.8700027466" style="fill: #222431;"/>
  <polygon points="102.8955518934 113.223332723 103.0455534193 113.7033360799 102.76555464 113.7933324178 102.935552809 114.303334554 103.7155592177 114.0433324178 103.7055570814 114.0233357747 103.5555555556 113.5333302816 103.3955518934 113.053334554 102.8955518934 113.223332723" style="fill: #222431;"/>
  <path d="m104.1028577677,112.7785702859l-.0947599052.4146291277.0734597385.2184420381.1965955844-.066113008.1689581552.5024189375-.1965955844.066113008.3048582931.9065355831,2.2608807191-.7603101852-.2864937368-.8519261985-2.4269032638-.4297893027Zm1.5035528664,1.2630668936l-.5133444143.172632277-.0954969035-.2839723996.5133444143-.172632277.0954969035.2839723996Z" style="fill: #222431;"/>
  <polygon points="100.8115540861 115.2184557462 100.8787302102 115.4182126436 99.4398540584 115.9020914188 100.123163033 117.9339990745 101.596372723 117.4385742948 101.0894019389 115.9310310666 101.4795543794 115.7998269425 101.7146708136 116.4989760834 103.2752805757 115.9741595872 103.1661202389 115.6495572008 103.6280567782 115.4942128463 103.5021006808 115.1196660919 103.8142246906 115.0147021008 103.5707103761 114.290580776 100.8115540861 115.2184557462" style="fill: #222431;"/>
</svg>