<?xml version="1.0" encoding="UTF-8"?><svg xmlns="http://www.w3.org/2000/svg" viewBox="0 0 33.96 39.02"><defs><style>.d{fill:red;}</style></defs><g id="a"/><g id="b"><g id="c"><g><path class="d" d="M23.65,25.83l.1,.06-.04,.2-.12,.02-.02,.13,.56-.13,.02-.09-.48-.32-.02,.13Zm.19,.12l.15,.09-.17,.03,.02-.13Z"/><path class="d" d="M23.87,26.6l-.18-.03s-.02,0-.03,0-.02,0-.03-.01-.01-.01-.02-.02,0-.02,0-.04c0-.01,0-.02,.02-.03s.02-.01,.03-.01,.02,0,.03,0h.03l.18,.04,.02-.11-.2-.04s-.05,0-.07,0c-.02,0-.04,0-.06,0-.02,0-.03,.02-.04,.03-.01,.02-.02,.04-.03,.07,0,.01,0,.03,0,.04,0,.01,0,.02,0,.03,0,.01,0,.02,.01,.03,0,0,.01,.01,.02,.02h-.05l-.02,.1,.36,.07,.02-.11Z"/><path class="d" d="M23.84,26.77l-.09-.02v.07l-.18-.03s-.04,0-.05,0c-.01,0-.03,.01-.04,.02-.01,.01-.02,.02-.03,.04,0,.02-.01,.03-.02,.05,0,.01,0,.03,0,.04s0,.03,0,.04l.09,.02s0-.01,0-.02v-.02s0-.02,.01-.03c0,0,.01-.01,.02-.01,0,0,.01,0,.02,0h.03l.12,.03-.02,.1,.09,.02,.02-.1,.11,.02,.02-.11-.11-.02v-.07Z"/><path class="d" d="M23.45,27.44s.05,.02,.07,.03c.03,0,.06,0,.08,0,.03,0,.05-.02,.07-.03,.02-.01,.04-.03,.05-.06,.01-.02,.02-.05,.03-.08,0-.03,0-.05,0-.08,0-.03-.01-.05-.03-.07-.01-.02-.03-.04-.05-.05-.02-.01-.05-.02-.07-.03s-.06,0-.08,0c-.02,0-.05,.02-.07,.03s-.04,.03-.05,.06-.02,.05-.03,.08c0,.03,0,.05,0,.08,0,.03,.01,.05,.03,.07s.03,.04,.05,.05Zm.06-.25s.04-.02,.07-.01,.05,.02,.06,.04c.01,.02,.02,.04,.01,.07,0,.03-.02,.05-.04,.06-.02,.01-.04,.02-.07,.01-.03,0-.05-.02-.06-.04s-.02-.04-.01-.07c0-.03,.02-.05,.04-.06Z"/><polygon class="d" points="23.26 27.88 23.64 27.95 23.64 27.95 23.22 28.11 23.19 28.26 23.72 28.36 23.74 28.24 23.37 28.18 23.37 28.17 23.78 28.02 23.81 27.86 23.29 27.77 23.26 27.88"/><path class="d" d="M23.43,28.42s-.05-.02-.07-.03c-.03,0-.06,0-.08,0s-.05,.02-.07,.03c-.02,.01-.04,.03-.05,.06s-.02,.05-.03,.08c0,.03,0,.05,0,.08,0,.03,.01,.05,.03,.07s.03,.04,.05,.05c.02,.01,.05,.02,.07,.03,.03,0,.06,0,.08,0s.05-.02,.07-.03,.04-.03,.05-.06c.01-.02,.02-.05,.03-.08,0-.03,0-.05,0-.08,0-.03-.01-.05-.03-.07s-.03-.04-.05-.05Zm-.06,.25s-.04,.02-.07,.01c-.03,0-.05-.02-.06-.04s-.02-.04-.01-.07,.02-.05,.04-.06c.02-.01,.04-.02,.07-.01,.03,0,.05,.02,.06,.04,.01,.02,.02,.04,.01,.07s-.02,.05-.04,.06Z"/><path class="d" d="M23.26,28.98s.03,.01,.04,.02,.02,.02,.02,.03,0,.03,0,.05v.02l-.02,.02,.1,.02v-.04s.01-.05,0-.06-.02-.04-.04-.05h.06l.02-.1-.36-.07-.02,.11,.15,.03s.03,0,.05,.01Z"/><path class="d" d="M23.39,29.18l-.09-.02v.07l-.18-.03s-.04,0-.05,0c-.01,0-.03,.01-.04,.02-.01,.01-.02,.02-.03,.04,0,.01-.01,.03-.02,.05,0,.01,0,.03,0,.04s0,.03,0,.04l.09,.02s0-.01,0-.02v-.02s0-.02,.01-.03,.01-.01,.02-.01c0,0,.01,0,.02,0h.03l.12,.03-.02,.1,.09,.02,.02-.1,.11,.02,.02-.11-.11-.02v-.07Z"/><path class="d" d="M23.23,29.51s-.05-.02-.07-.03c-.03,0-.06,0-.08,0-.03,0-.05,.02-.07,.03-.02,.01-.04,.03-.05,.06-.01,.02-.02,.05-.03,.08,0,.03,0,.06,0,.09s.02,.05,.04,.08l.07-.07s-.02-.02-.03-.04c0-.01,0-.03,0-.05,0-.02,.01-.04,.03-.05s.03-.02,.06-.02l-.05,.26h.03s.06,.01,.08,0c.02,0,.05-.01,.07-.02,.02-.01,.04-.03,.05-.05s.02-.04,.03-.07c0-.03,0-.05,0-.08,0-.03-.01-.05-.03-.07s-.03-.04-.05-.05Zm0,.18s-.01,.04-.03,.05-.03,.01-.05,0l.03-.15s.02,0,.02,.01c0,0,.01,.01,.02,.02s0,.02,.01,.03c0,.01,0,.02,0,.03Z"/><path class="d" d="M24.1,24.76c-.15-.03-.29,.07-.32,.22-.03,.15,.07,.29,.22,.32,.15,.03,.29-.07,.32-.22s-.07-.29-.22-.32Zm.09,.22l-.26,.12h0l.23,.04v.03l-.28-.05v-.03l.27-.12h0l-.23-.04v-.03l.28,.05v.03Z"/><polygon class="d" points="24.05 25.56 24.07 25.55 23.98 25.42 23.85 25.51 23.86 25.52 23.97 25.45 24.05 25.56"/><path class="d" d="M23.07,30.3c-.15-.03-.29,.07-.32,.22-.03,.15,.07,.29,.22,.32,.15,.03,.29-.07,.32-.22,.03-.15-.07-.29-.22-.32Zm.08,.3s0,.03-.02,.05-.02,.02-.04,.03v-.03s0-.01,.02-.02c0,0,.01-.02,.02-.04,0,0,0-.01,0-.02,0,0,0-.01,0-.02,0,0,0-.01-.01-.02,0,0-.01,0-.02,0,0,0-.02,0-.02,0,0,0-.01,0-.02,.01,0,0-.01,.01-.01,.02v.02l-.03,.02s-.01,.01-.02,.02c0,0-.01,0-.02,.01,0,0-.02,0-.03,0-.01,0-.02,0-.03-.01s-.02-.02-.02-.02c0,0,0-.02,0-.03s0-.02,0-.03c0-.02,0-.03,.01-.04,0-.01,.02-.02,.03-.03v.03s-.02,.02-.02,.05c0,0,0,.01,0,.02,0,0,0,.01,0,.02,0,0,0,.01,.01,.02,0,0,.01,0,.02,0,.01,0,.02,0,.03,0,0,0,.02-.01,.02-.02,0,0,.01-.02,.02-.03,0-.01,.01-.02,.02-.03,0,0,.02-.02,.03-.02s.02,0,.04,0c.01,0,.02,0,.03,.01,0,0,.02,.02,.02,.03s0,.02,.01,.03c0,.01,0,.02,0,.03Z"/><polygon class="d" points="23.22 30.09 23.21 30.07 23.1 30.15 23.03 30.04 23.01 30.05 23.1 30.18 23.22 30.09"/><path class="d" d="M32.74,4.89l.5,.29,.02-.13-.11-.06,.03-.2,.12-.03,.02-.13-.56,.16v.1Zm.32-.07l-.02,.13-.16-.08,.17-.04Z"/><path class="d" d="M32.98,4.29l.18,.02s.02,0,.03,0c.01,0,.02,0,.03,.01,0,0,.01,.01,.02,.02,0,0,0,.02,0,.04,0,.01,0,.03-.01,.03,0,0-.02,.01-.03,.01,0,0-.02,0-.03,0h-.03l-.18-.03v.11l.19,.03s.05,0,.07,0c.02,0,.04,0,.06-.01,.02,0,.03-.02,.04-.04,.01-.02,.02-.04,.02-.07,0-.01,0-.03,0-.04,0-.01,0-.02,0-.03,0,0,0-.02-.02-.02,0,0-.01-.01-.02-.02h.05v-.1l-.35-.05v.11Z"/><path class="d" d="M33.3,3.88s0,.01,0,.02v.02s0,.02,0,.03c0,0,0,.01-.02,.01,0,0-.01,0-.02,0h-.03l-.12-.02v-.1h-.08v.09h-.12v.1h.09v.08h.08v-.06l.18,.02s.04,0,.05,0c.01,0,.03-.01,.04-.02,.01-.01,.02-.02,.02-.04,0-.02,.01-.03,.01-.05,0-.01,0-.03,0-.04s0-.03,0-.04h-.09Z"/><path class="d" d="M33.41,3.48s-.03-.04-.05-.05c-.02-.01-.05-.02-.08-.03-.03,0-.06,0-.08,0s-.05,.02-.07,.04c-.02,.02-.03,.04-.05,.06-.01,.02-.02,.05-.02,.08,0,.03,0,.05,0,.08s.02,.05,.03,.07c.01,.02,.03,.04,.05,.05s.05,.02,.08,.03c.03,0,.06,0,.08,0,.02,0,.05-.02,.07-.04,.02-.02,.03-.04,.05-.06s.02-.05,.02-.08c0-.03,0-.05,0-.08,0-.03-.02-.05-.03-.07Zm-.1,.2s-.04,.02-.07,.02-.05-.01-.06-.03c-.01-.02-.02-.04-.02-.07,0-.03,.01-.05,.03-.06,.02-.01,.04-.02,.07-.02,.03,0,.05,.01,.06,.03,.01,.02,.02,.04,.02,.07,0,.03-.01,.05-.03,.06Z"/><polygon class="d" points="33.02 2.65 33.38 2.7 33.38 2.7 32.99 2.87 32.97 3.03 33.5 3.1 33.51 2.98 33.14 2.94 33.14 2.93 33.54 2.75 33.56 2.6 33.03 2.53 33.02 2.65"/><path class="d" d="M33.57,2.16s-.03-.04-.05-.05c-.02-.01-.05-.02-.08-.03s-.06,0-.08,0c-.02,0-.05,.02-.07,.04-.02,.02-.03,.04-.05,.06-.01,.02-.02,.05-.02,.08s0,.05,0,.08c0,.03,.02,.05,.03,.07,.01,.02,.03,.04,.05,.05s.05,.02,.08,.03c.03,0,.06,0,.08,0,.02,0,.05-.02,.07-.04,.02-.02,.03-.04,.05-.06s.02-.05,.02-.08c0-.03,0-.05,0-.08s-.02-.05-.03-.07Zm-.1,.2s-.04,.02-.07,.02c-.03,0-.05-.01-.06-.03-.01-.02-.02-.04-.02-.07,0-.03,.01-.05,.03-.06s.04-.02,.07-.02c.03,0,.05,.01,.06,.03s.02,.04,.02,.07c0,.03-.01,.05-.03,.06Z"/><path class="d" d="M33.45,1.88s-.03-.01-.04-.02c0,0-.02-.02-.02-.03,0-.01,0-.03,0-.05v-.05h-.09v.02s0,.05,0,.06c0,.02,.02,.03,.04,.05h-.06v.11l.35,.05v-.11l-.14-.02s-.03,0-.05,0Z"/><path class="d" d="M33.61,1.45s0,.01,0,.02v.02s0,.02,0,.03c0,0,0,.01-.02,.01s-.01,0-.02,0h-.03l-.12-.02v-.1h-.08v.09h-.12v.1h.09v.08h.08v-.06l.18,.02s.04,0,.05,0c.01,0,.03-.01,.04-.02,.01-.01,.02-.02,.02-.04,0-.02,.01-.03,.01-.05,0-.01,0-.03,0-.04s0-.03,0-.04h-.09Z"/><path class="d" d="M33.69,1.04l-.07,.07s.02,.02,.03,.04c0,.01,0,.03,0,.05,0,.02-.01,.04-.03,.05-.01,.01-.03,.02-.05,.02l.03-.26h-.03s-.06,0-.08,0c-.02,0-.05,.01-.06,.03-.02,.01-.03,.03-.04,.05-.01,.02-.02,.04-.02,.07,0,.03,0,.05,0,.08,0,.03,.02,.05,.03,.07,.01,.02,.03,.04,.05,.05,.02,.01,.05,.02,.08,.03,.03,0,.06,0,.08,0,.02,0,.05-.02,.07-.04,.02-.02,.03-.04,.05-.06,.01-.02,.02-.05,.02-.08,0-.03,0-.06,0-.09,0-.03-.02-.05-.04-.07Zm-.19,.22s-.02,0-.02,0c0,0-.01-.01-.02-.02,0,0,0-.02-.01-.03,0,0,0-.02,0-.03,0-.02,.01-.04,.03-.05,.02-.01,.03-.02,.05-.01l-.02,.15Z"/><path class="d" d="M33.72,0c-.15-.02-.29,.09-.31,.24-.02,.15,.09,.29,.24,.31,.15,.02,.29-.09,.31-.24,.02-.15-.09-.29-.24-.31Zm.1,.22l-.26,.13h0l.23,.03v.03l-.28-.03v-.03l.26-.13h0l-.23-.03v-.03l.28,.03v.03Z"/><polygon class="d" points="33.72 .8 33.73 .79 33.64 .67 33.52 .77 33.53 .78 33.64 .7 33.72 .8"/><path class="d" d="M33.02,5.59c-.15-.02-.29,.09-.31,.24-.02,.15,.09,.29,.24,.31,.15,.02,.29-.09,.31-.24s-.09-.29-.24-.31Zm.08,.34s-.02,.03-.04,.03v-.03s0-.01,.01-.02c0,0,.01-.02,.01-.04,0,0,0-.01,0-.02s0-.01,0-.02,0-.01-.01-.02-.01,0-.02,0c0,0-.02,0-.02,0,0,0-.01,0-.02,.01,0,0,0,.01-.01,.02v.02l-.02,.02s-.01,.01-.02,.02c0,0-.01,.01-.02,.01,0,0-.02,0-.03,0-.01,0-.02,0-.03-.01,0,0-.02-.01-.02-.02,0,0,0-.02-.01-.03,0-.01,0-.02,0-.03,0-.02,0-.03,.01-.04,0-.01,.02-.02,.03-.03l.02,.03s-.03,.03-.03,.05c0,0,0,.01,0,.02s0,.01,0,.02c0,0,0,.01,.01,.02s.01,0,.02,0c.01,0,.02,0,.03,0,0,0,.01-.01,.02-.02,0,0,.01-.02,.02-.03,0-.01,.01-.02,.02-.03,0,0,.02-.02,.03-.02,.01,0,.02,0,.04,0,.01,0,.02,0,.03,.01s.02,.01,.02,.02,0,.02,.01,.03c0,.01,0,.02,0,.03,0,.02,0,.03-.02,.05Z"/><polygon class="d" points="33.16 5.38 33.14 5.36 33.04 5.44 32.96 5.34 32.94 5.35 33.04 5.47 33.16 5.38"/><path class="d" d="M.64,38.03s-.04,0-.07,0c-.02,0-.04-.02-.05-.03s-.03-.03-.04-.05c0-.02-.01-.04-.02-.06,0-.02,0-.05,0-.07,0-.02,.02-.04,.03-.06,.01-.02,.03-.03,.05-.04,.02-.01,.04-.02,.06-.02,.02,0,.04,0,.06,0s.04,.02,.05,.03c.01,.01,.02,.03,.03,.04l.11-.05s-.02-.03-.03-.05c-.01-.01-.02-.03-.04-.04-.01-.01-.03-.02-.04-.03s-.03-.01-.04-.02c-.04-.01-.08-.02-.12-.01-.04,0-.07,.01-.1,.03-.03,.02-.06,.04-.08,.07s-.04,.06-.05,.11-.02,.08-.01,.12c0,.04,.01,.07,.03,.1,.02,.03,.04,.06,.07,.08,.03,.02,.07,.04,.11,.05,.04,.01,.07,.01,.11,0,.04,0,.07-.02,.1-.04l-.07-.1s-.04,.02-.06,.03Z"/><path class="d" d="M1.15,37.92s-.04-.03-.08-.04c-.03,0-.06-.01-.09-.01s-.06,0-.08,.02l.04,.08s.03-.02,.05-.02c.02,0,.03,0,.05,0,.02,0,.03,.02,.04,.03,.01,.02,.01,.03,0,.05-.01,0-.03,0-.05-.01s-.04,0-.05-.01c-.02,0-.04,0-.05,0-.02,0-.03,0-.05,0s-.03,.01-.04,.03c-.01,.01-.02,.03-.03,.05,0,.02,0,.03,0,.05,0,.02,0,.03,.02,.04,0,.01,.02,.02,.03,.03s.03,.02,.05,.02c.02,0,.04,0,.07,0,.02,0,.04-.01,.06-.03h0v.04l.09,.03,.05-.18s.01-.06,.02-.08c0-.02,0-.05,0-.06s-.02-.04-.04-.05Zm-.08,.21s0,.02-.02,.03c0,0-.02,.01-.02,.01s-.02,0-.03,0-.02,0-.03,0c-.01,0-.02-.01-.03-.02,0,0-.01-.02,0-.03,0-.01,.01-.02,.02-.02,0,0,.02,0,.03,0s.02,0,.04,0h.03l.03,.02v.02Z"/><rect class="d" x="1.06" y="38" width=".57" height=".11" transform="translate(-35.53 28.55) rotate(-73.51)"/><rect class="d" x="1.26" y="38.06" width=".57" height=".11" transform="translate(-35.44 28.79) rotate(-73.51)"/><path class="d" d="M1.97,38.16s-.04-.03-.06-.03c-.03,0-.05-.01-.08,0-.03,0-.05,0-.07,.02s-.04,.03-.06,.05-.03,.04-.04,.07-.01,.06,0,.08,.01,.05,.02,.07c.01,.02,.03,.04,.05,.06,.02,.02,.05,.03,.07,.04,.03,0,.06,.01,.09,0s.06-.01,.08-.03l-.06-.08s-.03,.02-.04,.02c-.01,0-.03,0-.05,0-.02,0-.04-.02-.05-.03-.01-.02-.02-.04-.01-.06l.25,.07v-.03s.02-.05,.02-.08c0-.02,0-.05-.02-.07,0-.02-.02-.04-.04-.05Zm-.2,.09s0-.02,.01-.02c0,0,.01-.01,.02-.02,0,0,.02,0,.03,0,.01,0,.02,0,.03,0,.02,0,.03,.02,.04,.03,0,.02,.01,.03,0,.05l-.14-.04Z"/><polygon class="d" points="2.39 38.26 2.44 38.35 2.57 38.29 2.45 38.68 2.55 38.71 2.71 38.2 2.6 38.17 2.39 38.26"/><path class="d" d="M3.2,38.45s-.01-.05-.02-.07c-.01-.02-.03-.04-.05-.05-.02-.02-.04-.03-.07-.04-.03,0-.05-.01-.08,0s-.05,0-.07,.02c-.02,.01-.04,.02-.06,.04-.02,.02-.03,.04-.04,.07,0,.02,0,.05,0,.07,0,.02,0,.04,.02,.06,0,.02,.02,.04,.04,.05s.04,.03,.06,.03h.04l-.17,.15,.13,.04,.16-.14,.03-.03s.02-.02,.03-.03c0-.01,.02-.03,.03-.04,0-.01,.01-.03,.02-.05,0-.03,.01-.05,0-.08Zm-.16,.1s-.04,.01-.07,0c-.02,0-.04-.02-.05-.04s-.01-.04,0-.06,.02-.04,.04-.05,.04-.01,.07,0,.04,.02,.05,.04c.01,.02,.01,.04,0,.06,0,.02-.02,.04-.04,.05Z"/><path class="d" d="M3.26,38.67s.04,0,.06,0c.02,0,.04,0,.06,.01,.01,0,.03,0,.04,.02,.01,0,.02,.01,.03,.02,0,.01,.02,.02,.02,.03,0,.01,0,.03,0,.04,0,.02-.02,.04-.04,.05-.02,.01-.04,.01-.06,0-.02,0-.03-.02-.04-.03,0-.01-.01-.03-.01-.05h-.12s0,.08,.03,.11c.02,.03,.06,.05,.1,.07,.03,0,.06,.01,.08,.01,.03,0,.05,0,.07-.02,.02-.01,.04-.03,.06-.05,.02-.02,.03-.04,.04-.07,0-.03,.01-.05,0-.07,0-.02,0-.05-.02-.06-.01-.02-.03-.04-.05-.05-.02-.01-.04-.03-.07-.03-.02,0-.04,0-.05,0l.03-.08,.2,.06,.03-.1-.31-.09-.09,.28Z"/><polygon class="d" points="3.83 38.82 3.89 38.94 3.78 39.01 3.79 39.02 3.92 38.95 3.85 38.81 3.83 38.82"/><polygon class="d" points=".14 37.72 0 37.79 .07 37.92 .09 37.91 .03 37.8 .14 37.73 .14 37.72"/></g></g></g></svg>