<?xml version="1.0" encoding="UTF-8"?><svg xmlns="http://www.w3.org/2000/svg" viewBox="0 0 27.71 15.94"><defs><style>.d{fill:#222432;}</style></defs><g id="a"/><g id="b"><g id="c"><g><polygon class="d" points="2.16 4.52 2.14 4.53 2.23 4.63 2.13 4.71 2.15 4.73 2.26 4.63 2.16 4.52"/><polygon class="d" points="2.55 4.54 2.53 4.55 2.62 4.65 2.52 4.74 2.53 4.75 2.65 4.65 2.55 4.54"/><polygon class="d" points="2.92 4.77 3.03 4.67 2.93 4.56 2.92 4.57 3 4.67 2.91 4.76 2.92 4.77"/><polygon class="d" points="3.31 4.8 3.42 4.7 3.32 4.58 3.3 4.6 3.39 4.7 3.29 4.78 3.31 4.8"/><polygon class="d" points="3.69 4.82 3.81 4.72 3.71 4.61 3.69 4.62 3.78 4.72 3.68 4.81 3.69 4.82"/><polygon class="d" points="4.08 4.64 4.17 4.74 4.07 4.83 4.08 4.84 4.19 4.74 4.09 4.63 4.08 4.64"/><polygon class="d" points="4.46 4.67 4.55 4.77 4.45 4.85 4.47 4.87 4.58 4.77 4.48 4.65 4.46 4.67"/><polygon class="d" points="4.85 4.69 4.94 4.79 4.84 4.88 4.85 4.89 4.97 4.79 4.87 4.68 4.85 4.69"/><polygon class="d" points="5.24 4.71 5.32 4.81 5.23 4.9 5.24 4.91 5.35 4.81 5.25 4.7 5.24 4.71"/><polygon class="d" points="5.62 4.74 5.71 4.84 5.61 4.92 5.63 4.94 5.74 4.84 5.64 4.72 5.62 4.74"/><polygon class="d" points="6.01 4.76 6.1 4.86 6 4.95 6.01 4.96 6.13 4.86 6.03 4.75 6.01 4.76"/><polygon class="d" points="6.4 4.78 6.48 4.88 6.39 4.97 6.4 4.98 6.51 4.88 6.41 4.77 6.4 4.78"/><polygon class="d" points="6.78 4.81 6.87 4.9 6.77 4.99 6.79 5.01 6.9 4.91 6.8 4.79 6.78 4.81"/><polygon class="d" points="7.17 4.83 7.26 4.93 7.16 5.01 7.17 5.03 7.29 4.93 7.19 4.82 7.17 4.83"/><polygon class="d" points="7.56 4.85 7.64 4.95 7.55 5.04 7.56 5.05 7.67 4.95 7.57 4.84 7.56 4.85"/><polygon class="d" points="7.94 4.88 8.03 4.97 7.93 5.06 7.95 5.08 8.06 4.98 7.96 4.86 7.94 4.88"/><polygon class="d" points="8.33 4.9 8.42 5 8.32 5.08 8.33 5.1 8.45 5 8.34 4.89 8.33 4.9"/><polygon class="d" points="8.72 4.92 8.8 5.02 8.71 5.11 8.72 5.12 8.83 5.02 8.73 4.91 8.72 4.92"/><polygon class="d" points="9.1 4.95 9.19 5.04 9.09 5.13 9.11 5.15 9.22 5.05 9.12 4.93 9.1 4.95"/><polygon class="d" points="9.49 4.97 9.58 5.07 9.48 5.15 9.49 5.17 9.61 5.07 9.5 4.96 9.49 4.97"/><polygon class="d" points="9.88 4.99 9.96 5.09 9.87 5.18 9.88 5.19 9.99 5.09 9.89 4.98 9.88 4.99"/><polygon class="d" points="10.26 5.02 10.35 5.11 10.25 5.2 10.27 5.22 10.38 5.12 10.28 5 10.26 5.02"/><polygon class="d" points="10.74 5.14 10.64 5.22 10.65 5.24 10.77 5.14 10.66 5.03 10.65 5.04 10.74 5.14"/><polygon class="d" points="11.12 5.16 11.03 5.25 11.04 5.26 11.15 5.16 11.05 5.05 11.04 5.06 11.12 5.16"/><polygon class="d" points="11.44 5.07 11.42 5.08 11.51 5.18 11.41 5.27 11.43 5.28 11.54 5.18 11.44 5.07"/><polygon class="d" points="11.82 5.1 11.81 5.11 11.9 5.21 11.8 5.29 11.81 5.31 11.93 5.21 11.82 5.1"/><polygon class="d" points="12.21 5.12 12.2 5.13 12.28 5.23 12.19 5.32 12.2 5.33 12.31 5.23 12.21 5.12"/><polygon class="d" points="12.6 5.14 12.58 5.15 12.67 5.25 12.57 5.34 12.58 5.35 12.7 5.25 12.6 5.14"/><polygon class="d" points="12.98 5.16 12.97 5.18 13.06 5.28 12.96 5.36 12.97 5.38 13.08 5.28 12.98 5.16"/><polygon class="d" points="13.37 5.19 13.36 5.2 13.44 5.3 13.35 5.39 13.36 5.4 13.47 5.3 13.37 5.19"/><polygon class="d" points="13.76 5.21 13.74 5.22 13.83 5.32 13.73 5.41 13.75 5.42 13.86 5.32 13.76 5.21"/><polygon class="d" points="14.14 5.23 14.13 5.25 14.22 5.35 14.12 5.43 14.13 5.45 14.25 5.35 14.14 5.23"/><polygon class="d" points="14.53 5.26 14.52 5.27 14.6 5.37 14.51 5.46 14.52 5.47 14.63 5.37 14.53 5.26"/><polygon class="d" points="14.92 5.28 14.9 5.29 14.99 5.39 14.89 5.48 14.9 5.49 15.02 5.39 14.92 5.28"/><polygon class="d" points="15.3 5.3 15.29 5.32 15.38 5.42 15.28 5.5 15.29 5.52 15.4 5.42 15.3 5.3"/><polygon class="d" points="15.69 5.33 15.68 5.34 15.76 5.44 15.67 5.53 15.68 5.54 15.79 5.44 15.69 5.33"/><polygon class="d" points="16.08 5.35 16.06 5.36 16.15 5.46 16.05 5.55 16.06 5.56 16.18 5.46 16.08 5.35"/><polygon class="d" points="16.46 5.37 16.45 5.39 16.54 5.48 16.44 5.57 16.45 5.59 16.56 5.49 16.46 5.37"/><polygon class="d" points="16.85 5.4 16.84 5.41 16.92 5.51 16.83 5.59 16.84 5.61 16.95 5.51 16.85 5.4"/><polygon class="d" points="17.24 5.42 17.22 5.43 17.31 5.53 17.21 5.62 17.22 5.63 17.34 5.53 17.24 5.42"/><polygon class="d" points="17.72 5.56 17.62 5.44 17.61 5.46 17.7 5.55 17.6 5.64 17.61 5.66 17.72 5.56"/><polygon class="d" points="18.11 5.58 18.01 5.47 18 5.48 18.08 5.58 17.98 5.66 18 5.68 18.11 5.58"/><polygon class="d" points="18.47 5.6 18.37 5.69 18.38 5.7 18.5 5.6 18.4 5.49 18.38 5.5 18.47 5.6"/><polygon class="d" points="18.77 5.53 18.86 5.62 18.76 5.71 18.77 5.73 18.88 5.63 18.78 5.51 18.77 5.53"/><polygon class="d" points="19.16 5.55 19.24 5.65 19.14 5.73 19.16 5.75 19.27 5.65 19.17 5.54 19.16 5.55"/><polygon class="d" points="19.63 5.67 19.53 5.76 19.54 5.77 19.66 5.67 19.56 5.56 19.54 5.57 19.63 5.67"/><polygon class="d" points="20.02 5.69 19.92 5.78 19.93 5.8 20.04 5.7 19.94 5.58 19.93 5.6 20.02 5.69"/><polygon class="d" points="20.4 5.72 20.3 5.8 20.32 5.82 20.43 5.72 20.33 5.61 20.32 5.62 20.4 5.72"/><polygon class="d" points="20.79 5.74 20.69 5.83 20.7 5.84 20.82 5.74 20.72 5.63 20.7 5.64 20.79 5.74"/><polygon class="d" points="21.1 5.65 21.09 5.67 21.18 5.76 21.08 5.85 21.09 5.86 21.2 5.76 21.1 5.65"/><polygon class="d" points="21.49 5.68 21.48 5.69 21.56 5.79 21.46 5.87 21.48 5.89 21.59 5.79 21.49 5.68"/><polygon class="d" points="21.88 5.7 21.86 5.71 21.95 5.81 21.85 5.9 21.86 5.91 21.98 5.81 21.88 5.7"/><polygon class="d" points="22.26 5.72 22.25 5.73 22.34 5.83 22.24 5.92 22.25 5.93 22.36 5.83 22.26 5.72"/><polygon class="d" points="22.72 5.86 22.62 5.94 22.64 5.96 22.75 5.86 22.65 5.74 22.64 5.76 22.72 5.86"/><polygon class="d" points="23.02 5.78 23.11 5.88 23.01 5.97 23.02 5.98 23.14 5.88 23.04 5.77 23.02 5.78"/><polygon class="d" points="23.41 5.8 23.5 5.9 23.4 5.99 23.41 6 23.52 5.9 23.42 5.79 23.41 5.8"/><polygon class="d" points="23.8 5.83 23.88 5.93 23.78 6.01 23.8 6.03 23.91 5.93 23.81 5.81 23.8 5.83"/><polygon class="d" points="24.18 5.85 24.27 5.95 24.17 6.04 24.18 6.05 24.3 5.95 24.2 5.84 24.18 5.85"/><polygon class="d" points=".28 12.69 .36 12.79 .25 12.87 .27 12.89 .39 12.8 .3 12.67 .28 12.69"/><polygon class="d" points=".66 12.74 .74 12.85 .63 12.92 .65 12.94 .77 12.85 .68 12.73 .66 12.74"/><polygon class="d" points="1.04 12.8 1.12 12.9 1.01 12.98 1.03 12.99 1.15 12.9 1.06 12.78 1.04 12.8"/><polygon class="d" points="1.42 12.85 1.5 12.96 1.4 13.03 1.41 13.05 1.53 12.96 1.44 12.84 1.42 12.85"/><polygon class="d" points="1.8 12.91 1.88 13.01 1.78 13.09 1.79 13.1 1.91 13.01 1.82 12.89 1.8 12.91"/><polygon class="d" points="2.18 12.96 2.26 13.06 2.16 13.14 2.17 13.16 2.29 13.07 2.2 12.95 2.18 12.96"/><polygon class="d" points="2.56 13.01 2.64 13.12 2.54 13.2 2.55 13.21 2.67 13.12 2.58 13 2.56 13.01"/><polygon class="d" points="2.94 13.07 3.02 13.17 2.92 13.25 2.93 13.27 3.05 13.18 2.96 13.06 2.94 13.07"/><polygon class="d" points="3.32 13.12 3.4 13.23 3.3 13.31 3.31 13.32 3.43 13.23 3.34 13.11 3.32 13.12"/><polygon class="d" points="3.7 13.18 3.78 13.28 3.68 13.36 3.69 13.38 3.81 13.29 3.72 13.17 3.7 13.18"/><polygon class="d" points="4.08 13.23 4.16 13.34 4.06 13.42 4.07 13.43 4.19 13.34 4.1 13.22 4.08 13.23"/><polygon class="d" points="4.47 13.29 4.54 13.39 4.44 13.47 4.45 13.49 4.57 13.4 4.48 13.28 4.47 13.29"/><polygon class="d" points="4.85 13.34 4.92 13.45 4.82 13.53 4.83 13.54 4.95 13.45 4.86 13.33 4.85 13.34"/><polygon class="d" points="5.23 13.4 5.31 13.5 5.2 13.58 5.21 13.6 5.33 13.5 5.24 13.38 5.23 13.4"/><polygon class="d" points="5.61 13.45 5.69 13.56 5.58 13.63 5.59 13.65 5.71 13.56 5.62 13.44 5.61 13.45"/><polygon class="d" points="5.99 13.51 6.07 13.61 5.96 13.69 5.97 13.7 6.09 13.61 6 13.49 5.99 13.51"/><polygon class="d" points="6.37 13.56 6.45 13.66 6.34 13.74 6.35 13.76 6.47 13.67 6.38 13.55 6.37 13.56"/><polygon class="d" points="6.75 13.61 6.83 13.72 6.72 13.8 6.73 13.81 6.85 13.72 6.76 13.6 6.75 13.61"/><polygon class="d" points="7.13 13.67 7.21 13.77 7.1 13.85 7.11 13.87 7.23 13.78 7.15 13.66 7.13 13.67"/><polygon class="d" points="7.51 13.72 7.59 13.83 7.48 13.91 7.5 13.92 7.62 13.83 7.53 13.71 7.51 13.72"/><polygon class="d" points="7.89 13.78 7.97 13.88 7.86 13.96 7.88 13.98 8 13.89 7.91 13.77 7.89 13.78"/><polygon class="d" points="8.27 13.83 8.35 13.94 8.24 14.02 8.26 14.03 8.38 13.94 8.29 13.82 8.27 13.83"/><polygon class="d" points="8.65 13.89 8.73 13.99 8.62 14.07 8.64 14.09 8.76 14 8.67 13.88 8.65 13.89"/><polygon class="d" points="9.03 13.94 9.11 14.05 9.01 14.13 9.02 14.14 9.14 14.05 9.05 13.93 9.03 13.94"/><polygon class="d" points="9.41 14 9.49 14.1 9.39 14.18 9.4 14.2 9.52 14.11 9.43 13.98 9.41 14"/><polygon class="d" points="9.79 14.05 9.87 14.16 9.77 14.23 9.78 14.25 9.9 14.16 9.81 14.04 9.79 14.05"/><polygon class="d" points="10.17 14.11 10.25 14.21 10.15 14.29 10.16 14.3 10.28 14.21 10.19 14.09 10.17 14.11"/><polygon class="d" points="10.55 14.16 10.63 14.27 10.53 14.34 10.54 14.36 10.66 14.27 10.57 14.15 10.55 14.16"/><polygon class="d" points="10.93 14.21 11.01 14.32 10.91 14.4 10.92 14.41 11.04 14.32 10.95 14.2 10.93 14.21"/><polygon class="d" points="11.31 14.27 11.39 14.37 11.29 14.45 11.3 14.47 11.42 14.38 11.33 14.26 11.31 14.27"/><polygon class="d" points="11.7 14.32 11.77 14.43 11.67 14.51 11.68 14.52 11.8 14.43 11.71 14.31 11.7 14.32"/><polygon class="d" points="12.08 14.38 12.15 14.48 12.05 14.56 12.06 14.58 12.18 14.49 12.09 14.37 12.08 14.38"/><polygon class="d" points="12.46 14.43 12.53 14.54 12.43 14.62 12.44 14.63 12.56 14.54 12.47 14.42 12.46 14.43"/><polygon class="d" points="12.84 14.49 12.92 14.59 12.81 14.67 12.82 14.69 12.94 14.6 12.85 14.48 12.84 14.49"/><polygon class="d" points="13.22 14.54 13.3 14.65 13.19 14.73 13.2 14.74 13.32 14.65 13.23 14.53 13.22 14.54"/><polygon class="d" points="13.6 14.6 13.68 14.7 13.57 14.78 13.58 14.8 13.7 14.71 13.61 14.59 13.6 14.6"/><polygon class="d" points="13.98 14.65 14.06 14.76 13.95 14.83 13.96 14.85 14.08 14.76 13.99 14.64 13.98 14.65"/><polygon class="d" points="14.36 14.71 14.44 14.81 14.33 14.89 14.34 14.91 14.46 14.81 14.37 14.69 14.36 14.71"/><polygon class="d" points="14.74 14.76 14.82 14.87 14.71 14.94 14.72 14.96 14.85 14.87 14.75 14.75 14.74 14.76"/><polygon class="d" points="15.12 14.82 15.2 14.92 15.09 15 15.11 15.01 15.23 14.92 15.14 14.8 15.12 14.82"/><polygon class="d" points="15.5 14.87 15.58 14.97 15.47 15.05 15.49 15.07 15.61 14.98 15.52 14.86 15.5 14.87"/><polygon class="d" points="15.88 14.92 15.96 15.03 15.85 15.11 15.87 15.12 15.99 15.03 15.9 14.91 15.88 14.92"/><polygon class="d" points="16.26 14.98 16.34 15.08 16.24 15.16 16.25 15.18 16.37 15.09 16.28 14.97 16.26 14.98"/><polygon class="d" points="16.64 15.03 16.72 15.14 16.62 15.22 16.63 15.23 16.75 15.14 16.66 15.02 16.64 15.03"/><polygon class="d" points="17.02 15.09 17.1 15.19 17 15.27 17.01 15.29 17.13 15.2 17.04 15.08 17.02 15.09"/><polygon class="d" points="17.4 15.14 17.48 15.25 17.38 15.33 17.39 15.34 17.51 15.25 17.42 15.13 17.4 15.14"/><polygon class="d" points="17.78 15.2 17.86 15.3 17.76 15.38 17.77 15.4 17.89 15.31 17.8 15.19 17.78 15.2"/><polygon class="d" points="18.16 15.25 18.24 15.36 18.14 15.44 18.15 15.45 18.27 15.36 18.18 15.24 18.16 15.25"/><polygon class="d" points="18.54 15.31 18.62 15.41 18.52 15.49 18.53 15.51 18.65 15.42 18.56 15.29 18.54 15.31"/><polygon class="d" points="18.93 15.36 19 15.47 18.9 15.54 18.91 15.56 19.03 15.47 18.94 15.35 18.93 15.36"/><polygon class="d" points="19.31 15.42 19.38 15.52 19.28 15.6 19.29 15.61 19.41 15.52 19.32 15.4 19.31 15.42"/><polygon class="d" points="19.69 15.47 19.76 15.58 19.66 15.65 19.67 15.67 19.79 15.58 19.7 15.46 19.69 15.47"/><polygon class="d" points="20.07 15.52 20.15 15.63 20.04 15.71 20.05 15.72 20.17 15.63 20.08 15.51 20.07 15.52"/><polygon class="d" points="20.45 15.58 20.53 15.68 20.42 15.76 20.43 15.78 20.55 15.69 20.46 15.57 20.45 15.58"/><polygon class="d" points="20.83 15.63 20.91 15.74 20.8 15.82 20.81 15.83 20.93 15.74 20.84 15.62 20.83 15.63"/><polygon class="d" points="21.21 15.69 21.29 15.79 21.18 15.87 21.19 15.89 21.31 15.8 21.22 15.68 21.21 15.69"/><polygon class="d" points="21.59 15.74 21.67 15.85 21.56 15.93 21.57 15.94 21.69 15.85 21.6 15.73 21.59 15.74"/><polygon class="d" points="21.94 15.74 22.05 15.82 21.97 15.92 21.99 15.94 22.08 15.81 21.95 15.73 21.94 15.74"/><polygon class="d" points="22.29 15.65 22.41 15.7 22.36 15.82 22.38 15.83 22.44 15.69 22.3 15.63 22.29 15.65"/><path class="d" d="M22.6,15.47s.08,0,.13,0c0,.04,0,.09,0,.14h.02c0-.05,0-.11,0-.16-.05,0-.1,0-.15,0v.02Z"/><path class="d" d="M22.78,15.18v.02c.05-.01,.08-.03,.12-.06,.02,.04,.05,.08,.06,.12h.02c-.02-.06-.05-.11-.07-.15-.04,.03-.08,.05-.13,.07Z"/><path class="d" d="M22.82,14.85h.01s.06-.05,.08-.09c.04,.03,.07,.05,.1,.09v-.02s-.07-.07-.11-.1c-.03,.04-.06,.08-.09,.11Z"/><polygon class="d" points="22.94 14.45 22.95 14.43 22.81 14.36 22.75 14.5 22.76 14.5 22.82 14.39 22.94 14.45"/><path class="d" d="M22.64,14.05l.13,.03v-.02s-.1-.02-.15-.03c0,.05-.02,.1-.03,.15h.02l.02-.12Z"/><path class="d" d="M22.32,13.8s.03,.1,.04,.14h.02s-.02-.09-.03-.13c.04-.01,.08-.02,.13-.03v-.02c-.06,.01-.11,.02-.16,.04Z"/><path class="d" d="M21.95,13.73s.07,.07,.1,.11h.01l-.08-.11,.1-.09h-.01s-.08,.05-.12,.09Z"/><polygon class="d" points="21.66 13.67 21.65 13.66 21.57 13.8 21.7 13.87 21.71 13.85 21.6 13.79 21.66 13.67"/><polygon class="d" points="21.29 13.82 21.27 13.81 21.22 13.95 21.36 14 21.37 13.98 21.24 13.94 21.29 13.82"/><polygon class="d" points="20.94 14.02 20.93 14.01 20.9 14.16 21.04 14.19 21.05 14.17 20.92 14.15 20.94 14.02"/><polygon class="d" points="20.62 14.23 20.61 14.23 20.57 14.37 20.72 14.4 20.73 14.38 20.6 14.36 20.62 14.23"/><polygon class="d" points="20.3 14.43 20.28 14.42 20.24 14.56 20.39 14.61 20.39 14.59 20.27 14.55 20.3 14.43"/><polygon class="d" points="19.97 14.59 19.95 14.58 19.89 14.72 20.03 14.78 20.04 14.76 19.92 14.71 19.97 14.59"/><polygon class="d" points="19.61 14.7 19.6 14.69 19.52 14.82 19.65 14.9 19.66 14.88 19.55 14.81 19.61 14.7"/><polygon class="d" points="19.25 14.77 19.23 14.76 19.14 14.88 19.26 14.97 19.27 14.95 19.17 14.87 19.25 14.77"/><polygon class="d" points="18.87 14.79 18.86 14.78 18.75 14.88 18.86 14.99 18.88 14.98 18.78 14.89 18.87 14.79"/><polygon class="d" points="18.49 14.77 18.37 14.86 18.47 14.98 18.48 14.97 18.4 14.86 18.5 14.78 18.49 14.77"/><polygon class="d" points="18.11 14.72 17.99 14.81 18.08 14.93 18.1 14.92 18.02 14.82 18.12 14.74 18.11 14.72"/><polygon class="d" points="17.73 14.67 17.61 14.76 17.7 14.88 17.72 14.87 17.64 14.76 17.74 14.68 17.73 14.67"/><polygon class="d" points="17.35 14.61 17.23 14.7 17.32 14.82 17.33 14.81 17.26 14.71 17.36 14.63 17.35 14.61"/><polygon class="d" points="16.97 14.56 16.85 14.65 16.94 14.77 16.95 14.76 16.88 14.65 16.98 14.57 16.97 14.56"/><polygon class="d" points="16.59 14.51 16.47 14.6 16.56 14.72 16.57 14.7 16.5 14.6 16.6 14.52 16.59 14.51"/><polygon class="d" points="16.21 14.45 16.09 14.54 16.18 14.66 16.19 14.65 16.11 14.54 16.22 14.47 16.21 14.45"/><polygon class="d" points="15.83 14.4 15.71 14.49 15.8 14.61 15.81 14.6 15.73 14.49 15.84 14.41 15.83 14.4"/><polygon class="d" points="15.45 14.34 15.33 14.43 15.42 14.55 15.43 14.54 15.35 14.44 15.46 14.36 15.45 14.34"/><polygon class="d" points="15.07 14.29 14.95 14.38 15.04 14.5 15.05 14.49 14.97 14.38 15.08 14.3 15.07 14.29"/><polygon class="d" points="14.69 14.23 14.57 14.32 14.66 14.44 14.67 14.43 14.59 14.33 14.7 14.25 14.69 14.23"/><polygon class="d" points="14.31 14.18 14.19 14.27 14.27 14.39 14.29 14.38 14.21 14.27 14.32 14.19 14.31 14.18"/><polygon class="d" points="13.92 14.12 13.8 14.21 13.89 14.33 13.91 14.32 13.83 14.22 13.94 14.14 13.92 14.12"/><polygon class="d" points="13.54 14.07 13.42 14.16 13.51 14.28 13.53 14.27 13.45 14.16 13.56 14.09 13.54 14.07"/><polygon class="d" points="13.16 14.02 13.04 14.11 13.13 14.23 13.15 14.21 13.07 14.11 13.18 14.03 13.16 14.02"/><polygon class="d" points="12.78 13.96 12.66 14.05 12.75 14.17 12.77 14.16 12.69 14.06 12.79 13.98 12.78 13.96"/><polygon class="d" points="12.4 13.91 12.28 14 12.37 14.12 12.39 14.11 12.31 14 12.41 13.92 12.4 13.91"/><polygon class="d" points="12.02 13.85 11.9 13.94 11.99 14.06 12.01 14.05 11.93 13.95 12.03 13.87 12.02 13.85"/><polygon class="d" points="11.64 13.8 11.52 13.89 11.61 14.01 11.63 14 11.55 13.89 11.65 13.81 11.64 13.8"/><polygon class="d" points="11.26 13.74 11.14 13.83 11.23 13.95 11.25 13.94 11.17 13.84 11.27 13.76 11.26 13.74"/><polygon class="d" points="10.88 13.69 10.76 13.78 10.85 13.9 10.87 13.89 10.79 13.78 10.89 13.7 10.88 13.69"/><polygon class="d" points="10.5 13.63 10.38 13.72 10.47 13.85 10.49 13.83 10.41 13.73 10.51 13.65 10.5 13.63"/><polygon class="d" points="10.12 13.58 10 13.67 10.09 13.79 10.1 13.78 10.03 13.67 10.13 13.6 10.12 13.58"/><polygon class="d" points="9.74 13.53 9.62 13.62 9.71 13.74 9.72 13.72 9.65 13.62 9.75 13.54 9.74 13.53"/><polygon class="d" points="9.36 13.47 9.24 13.56 9.33 13.68 9.34 13.67 9.27 13.57 9.37 13.49 9.36 13.47"/><polygon class="d" points="8.98 13.42 8.86 13.51 8.95 13.63 8.96 13.62 8.88 13.51 8.99 13.43 8.98 13.42"/><polygon class="d" points="8.6 13.36 8.48 13.45 8.57 13.57 8.58 13.56 8.5 13.46 8.61 13.38 8.6 13.36"/><polygon class="d" points="8.22 13.31 8.1 13.4 8.19 13.52 8.2 13.51 8.12 13.4 8.23 13.32 8.22 13.31"/><polygon class="d" points="7.84 13.25 7.72 13.34 7.81 13.46 7.82 13.45 7.74 13.35 7.85 13.27 7.84 13.25"/><polygon class="d" points="7.46 13.2 7.34 13.29 7.43 13.41 7.44 13.4 7.36 13.29 7.47 13.21 7.46 13.2"/><polygon class="d" points="7.08 13.14 6.95 13.24 7.04 13.36 7.06 13.34 6.98 13.24 7.09 13.16 7.08 13.14"/><polygon class="d" points="6.69 13.09 6.57 13.18 6.66 13.3 6.68 13.29 6.6 13.18 6.71 13.11 6.69 13.09"/><polygon class="d" points="6.31 13.04 6.19 13.13 6.28 13.25 6.3 13.24 6.22 13.13 6.33 13.05 6.31 13.04"/><polygon class="d" points="5.93 12.98 5.81 13.07 5.9 13.19 5.92 13.18 5.84 13.08 5.95 13 5.93 12.98"/><polygon class="d" points="5.55 12.93 5.43 13.02 5.52 13.14 5.54 13.13 5.46 13.02 5.56 12.94 5.55 12.93"/><polygon class="d" points="5.17 12.87 5.05 12.96 5.14 13.08 5.16 13.07 5.08 12.97 5.18 12.89 5.17 12.87"/><polygon class="d" points="4.79 12.82 4.67 12.91 4.76 13.03 4.78 13.02 4.7 12.91 4.8 12.83 4.79 12.82"/><polygon class="d" points="4.41 12.76 4.29 12.85 4.38 12.97 4.4 12.96 4.32 12.86 4.42 12.78 4.41 12.76"/><polygon class="d" points="4.03 12.71 3.91 12.8 4 12.92 4.02 12.91 3.94 12.8 4.04 12.73 4.03 12.71"/><polygon class="d" points="3.65 12.66 3.53 12.75 3.62 12.87 3.64 12.85 3.56 12.75 3.66 12.67 3.65 12.66"/><polygon class="d" points="3.27 12.6 3.15 12.69 3.24 12.81 3.26 12.8 3.18 12.69 3.28 12.62 3.27 12.6"/><polygon class="d" points="2.89 12.55 2.77 12.64 2.86 12.76 2.87 12.75 2.8 12.64 2.9 12.56 2.89 12.55"/><polygon class="d" points="2.51 12.49 2.39 12.58 2.48 12.7 2.49 12.69 2.42 12.59 2.52 12.51 2.51 12.49"/><polygon class="d" points="2.13 12.44 2.01 12.53 2.1 12.65 2.11 12.64 2.04 12.53 2.14 12.45 2.13 12.44"/><polygon class="d" points="1.75 12.38 1.63 12.47 1.72 12.59 1.73 12.58 1.65 12.48 1.76 12.4 1.75 12.38"/><polygon class="d" points="1.37 12.33 1.25 12.42 1.34 12.54 1.35 12.53 1.27 12.42 1.38 12.34 1.37 12.33"/><polygon class="d" points=".99 12.27 .87 12.36 .96 12.49 .97 12.47 .89 12.37 1 12.29 .99 12.27"/><polygon class="d" points="27.71 .05 27.7 .03 27.59 .11 27.52 0 27.5 .01 27.59 .14 27.71 .05"/><polygon class="d" points="27.53 .49 27.45 .39 27.44 .4 27.52 .52 27.64 .43 27.63 .42 27.53 .49"/><polygon class="d" points="27.46 .88 27.38 .77 27.37 .78 27.45 .91 27.58 .82 27.56 .8 27.46 .88"/><polygon class="d" points="27.39 1.26 27.31 1.15 27.3 1.17 27.38 1.29 27.51 1.2 27.49 1.19 27.39 1.26"/><polygon class="d" points="27.32 1.65 27.24 1.54 27.23 1.55 27.31 1.68 27.44 1.59 27.43 1.57 27.32 1.65"/><polygon class="d" points="27.25 2.03 27.17 1.92 27.16 1.94 27.24 2.06 27.37 1.97 27.36 1.96 27.25 2.03"/><polygon class="d" points="27.18 2.42 27.1 2.31 27.09 2.32 27.17 2.45 27.3 2.36 27.29 2.34 27.18 2.42"/><polygon class="d" points="27.11 2.8 27.03 2.69 27.02 2.71 27.1 2.83 27.23 2.74 27.22 2.73 27.11 2.8"/><polygon class="d" points="27.04 3.19 26.96 3.08 26.95 3.09 27.03 3.22 27.16 3.13 27.15 3.11 27.04 3.19"/><polygon class="d" points="26.97 3.57 26.9 3.46 26.88 3.48 26.96 3.6 27.09 3.51 27.08 3.5 26.97 3.57"/><polygon class="d" points="26.9 3.96 26.83 3.85 26.81 3.86 26.9 3.99 27.02 3.9 27.01 3.88 26.9 3.96"/><polygon class="d" points="26.83 4.34 26.76 4.23 26.74 4.25 26.83 4.37 26.95 4.28 26.94 4.27 26.83 4.34"/><polygon class="d" points="26.76 4.73 26.69 4.62 26.67 4.63 26.76 4.76 26.88 4.67 26.87 4.65 26.76 4.73"/><polygon class="d" points="26.69 5.11 26.62 5 26.6 5.02 26.69 5.14 26.81 5.05 26.8 5.04 26.69 5.11"/><polygon class="d" points="26.62 5.5 26.55 5.39 26.53 5.4 26.62 5.53 26.74 5.44 26.73 5.42 26.62 5.5"/><polygon class="d" points="26.55 5.88 26.48 5.77 26.46 5.79 26.55 5.91 26.67 5.82 26.66 5.81 26.55 5.88"/><path class="d" d="M26.4,6.1h-.02s0,.1,0,.15c.05,0,.1,0,.16,0v-.02s-.09,0-.14,0c0-.04,0-.09,0-.13Z"/><path class="d" d="M26.12,6.3h-.02s-.04,.08-.07,.12c.04,.02,.09,.05,.14,.07v-.02s-.08-.04-.11-.06c.02-.04,.04-.07,.06-.11Z"/><path class="d" d="M25.75,6.51s-.05-.08-.07-.11c.04-.02,.07-.04,.11-.07h0s-.08,.04-.12,.06c.02,.04,.05,.09,.08,.13h.02Z"/><polygon class="d" points="25.36 6.35 25.33 6.22 25.46 6.19 25.45 6.17 25.31 6.2 25.34 6.35 25.36 6.35"/><path class="d" d="M25.04,6.09v-.13h.13v-.02s-.1,0-.15,0c0,.05,0,.1,0,.15h.02Z"/><polygon class="d" points="24.79 5.66 24.92 5.68 24.92 5.66 24.77 5.63 24.75 5.79 24.77 5.79 24.79 5.66"/><polygon class="d" points="1.61 3.85 1.6 3.83 1.49 3.91 1.41 3.8 1.4 3.82 1.49 3.94 1.61 3.85"/><polygon class="d" points="1.55 4.23 1.54 4.21 1.43 4.29 1.35 4.18 1.34 4.19 1.43 4.31 1.55 4.23"/><polygon class="d" points="1.49 4.61 1.48 4.59 1.37 4.67 1.29 4.56 1.28 4.57 1.37 4.69 1.49 4.61"/><polygon class="d" points="1.43 4.98 1.42 4.97 1.31 5.04 1.23 4.94 1.22 4.95 1.3 5.07 1.43 4.98"/><polygon class="d" points="1.37 5.36 1.35 5.34 1.25 5.42 1.17 5.32 1.16 5.33 1.24 5.45 1.37 5.36"/><polygon class="d" points="1.3 5.74 1.29 5.72 1.19 5.8 1.11 5.69 1.09 5.7 1.18 5.83 1.3 5.74"/><polygon class="d" points="1.24 6.12 1.23 6.1 1.13 6.18 1.05 6.07 1.03 6.08 1.12 6.2 1.24 6.12"/><polygon class="d" points="1.18 6.49 1.17 6.48 1.07 6.55 .99 6.45 .97 6.46 1.06 6.58 1.18 6.49"/><polygon class="d" points="1.12 6.87 1.11 6.86 1 6.93 .93 6.83 .91 6.84 1 6.96 1.12 6.87"/><polygon class="d" points="1.06 7.25 1.05 7.23 .94 7.31 .87 7.2 .85 7.22 .94 7.34 1.06 7.25"/><polygon class="d" points="1 7.63 .99 7.61 .88 7.69 .81 7.58 .79 7.59 .88 7.71 1 7.63"/><polygon class="d" points=".94 8.01 .93 7.99 .82 8.07 .75 7.96 .73 7.97 .82 8.09 .94 8.01"/><polygon class="d" points=".88 8.38 .87 8.37 .76 8.44 .68 8.34 .67 8.35 .76 8.47 .88 8.38"/><polygon class="d" points=".82 8.76 .81 8.74 .7 8.82 .62 8.72 .61 8.73 .7 8.85 .82 8.76"/><polygon class="d" points=".76 9.14 .75 9.12 .64 9.2 .56 9.09 .55 9.1 .64 9.23 .76 9.14"/><polygon class="d" points=".7 9.52 .69 9.5 .58 9.58 .5 9.47 .49 9.48 .57 9.6 .7 9.52"/><polygon class="d" points=".64 9.89 .62 9.88 .52 9.95 .44 9.85 .43 9.86 .51 9.98 .64 9.89"/><polygon class="d" points=".46 10.33 .38 10.23 .36 10.24 .45 10.36 .58 10.27 .56 10.26 .46 10.33"/><polygon class="d" points=".4 10.71 .32 10.6 .3 10.62 .39 10.74 .51 10.65 .5 10.63 .4 10.71"/><polygon class="d" points=".34 11.09 .26 10.98 .24 10.99 .33 11.11 .45 11.03 .44 11.01 .34 11.09"/><polygon class="d" points=".27 11.47 .2 11.36 .18 11.37 .27 11.49 .39 11.4 .38 11.39 .27 11.47"/><polygon class="d" points=".33 11.78 .32 11.77 .21 11.84 .14 11.74 .12 11.75 .21 11.87 .33 11.78"/><polygon class="d" points=".27 12.16 .26 12.14 .15 12.22 .08 12.12 .06 12.13 .15 12.25 .27 12.16"/><polygon class="d" points=".09 12.6 .02 12.49 0 12.5 .09 12.63 .21 12.54 .2 12.52 .09 12.6"/><polygon class="d" points="24.56 5.6 24.47 5.5 24.57 5.42 24.56 5.4 24.44 5.5 24.54 5.61 24.56 5.6"/><polygon class="d" points="24.08 5.47 24.19 5.39 24.17 5.37 24.06 5.47 24.16 5.58 24.17 5.57 24.08 5.47"/><polygon class="d" points="23.7 5.44 23.8 5.35 23.79 5.34 23.67 5.44 23.77 5.55 23.78 5.54 23.7 5.44"/><polygon class="d" points="23.31 5.41 23.41 5.32 23.4 5.31 23.28 5.41 23.38 5.52 23.4 5.51 23.31 5.41"/><polygon class="d" points="23.01 5.48 22.93 5.38 23.03 5.29 23.01 5.28 22.9 5.37 23 5.49 23.01 5.48"/><polygon class="d" points="22.62 5.44 22.54 5.34 22.64 5.26 22.63 5.24 22.51 5.34 22.61 5.46 22.62 5.44"/><polygon class="d" points="22.15 5.31 22.25 5.23 22.24 5.21 22.13 5.31 22.22 5.43 22.24 5.41 22.15 5.31"/><polygon class="d" points="21.77 5.28 21.87 5.2 21.85 5.18 21.74 5.28 21.84 5.39 21.85 5.38 21.77 5.28"/><polygon class="d" points="21.38 5.25 21.48 5.16 21.47 5.15 21.35 5.25 21.45 5.36 21.47 5.35 21.38 5.25"/><polygon class="d" points="20.99 5.22 21.09 5.13 21.08 5.12 20.97 5.22 21.06 5.33 21.08 5.32 20.99 5.22"/><polygon class="d" points="20.69 5.29 20.61 5.19 20.71 5.1 20.7 5.09 20.58 5.18 20.68 5.3 20.69 5.29"/><polygon class="d" points="20.31 5.25 20.22 5.15 20.32 5.07 20.31 5.05 20.19 5.15 20.29 5.27 20.31 5.25"/><polygon class="d" points="19.92 5.22 19.83 5.12 19.94 5.04 19.92 5.02 19.81 5.12 19.91 5.24 19.92 5.22"/><polygon class="d" points="19.53 5.19 19.45 5.09 19.55 5.01 19.54 4.99 19.42 5.09 19.52 5.2 19.53 5.19"/><polygon class="d" points="19.06 5.06 19.16 4.98 19.15 4.96 19.03 5.06 19.13 5.17 19.15 5.16 19.06 5.06"/><polygon class="d" points="18.68 5.03 18.78 4.94 18.76 4.93 18.65 5.03 18.75 5.14 18.76 5.13 18.68 5.03"/><polygon class="d" points="18.29 5 18.39 4.91 18.38 4.9 18.26 4.99 18.36 5.11 18.38 5.1 18.29 5"/><polygon class="d" points="17.9 4.97 18 4.88 17.99 4.87 17.88 4.96 17.97 5.08 17.99 5.06 17.9 4.97"/><polygon class="d" points="17.52 4.93 17.62 4.85 17.6 4.83 17.49 4.93 17.59 5.05 17.6 5.03 17.52 4.93"/><polygon class="d" points="17.13 4.9 17.23 4.82 17.22 4.8 17.1 4.9 17.2 5.01 17.22 5 17.13 4.9"/><polygon class="d" points="16.74 4.87 16.84 4.79 16.83 4.77 16.72 4.87 16.81 4.98 16.83 4.97 16.74 4.87"/><polygon class="d" points="16.36 4.84 16.46 4.75 16.45 4.74 16.33 4.84 16.43 4.95 16.44 4.94 16.36 4.84"/><polygon class="d" points="15.97 4.81 16.07 4.72 16.06 4.71 15.94 4.8 16.04 4.92 16.06 4.91 15.97 4.81"/><polygon class="d" points="15.58 4.78 15.69 4.69 15.67 4.68 15.56 4.77 15.66 4.89 15.67 4.88 15.58 4.78"/><polygon class="d" points="15.2 4.74 15.3 4.66 15.29 4.64 15.17 4.74 15.27 4.86 15.28 4.84 15.2 4.74"/><polygon class="d" points="14.81 4.71 14.91 4.63 14.9 4.61 14.78 4.71 14.88 4.82 14.9 4.81 14.81 4.71"/><polygon class="d" points="14.43 4.68 14.53 4.6 14.51 4.58 14.4 4.68 14.5 4.79 14.51 4.78 14.43 4.68"/><polygon class="d" points="14.04 4.65 14.14 4.56 14.13 4.55 14.01 4.65 14.11 4.76 14.12 4.75 14.04 4.65"/><polygon class="d" points="13.65 4.62 13.75 4.53 13.74 4.52 13.63 4.61 13.72 4.73 13.74 4.72 13.65 4.62"/><polygon class="d" points="13.27 4.59 13.37 4.5 13.35 4.49 13.24 4.58 13.34 4.7 13.35 4.69 13.27 4.59"/><polygon class="d" points="12.88 4.55 12.98 4.47 12.97 4.45 12.85 4.55 12.95 4.67 12.97 4.65 12.88 4.55"/><polygon class="d" points="12.49 4.52 12.59 4.44 12.58 4.42 12.47 4.52 12.56 4.64 12.58 4.62 12.49 4.52"/><polygon class="d" points="12.19 4.59 12.11 4.49 12.21 4.41 12.2 4.39 12.08 4.49 12.18 4.6 12.19 4.59"/><polygon class="d" points="11.81 4.56 11.72 4.46 11.82 4.37 11.81 4.36 11.69 4.46 11.79 4.57 11.81 4.56"/><polygon class="d" points="11.42 4.53 11.33 4.43 11.44 4.34 11.42 4.33 11.31 4.43 11.41 4.54 11.42 4.53"/><polygon class="d" points="11.03 4.5 10.95 4.4 11.05 4.31 11.04 4.3 10.92 4.39 11.02 4.51 11.03 4.5"/><polygon class="d" points="10.65 4.46 10.56 4.36 10.66 4.28 10.65 4.26 10.53 4.36 10.63 4.48 10.65 4.46"/><polygon class="d" points="10.26 4.43 10.18 4.33 10.28 4.25 10.26 4.23 10.15 4.33 10.25 4.45 10.26 4.43"/><polygon class="d" points="9.87 4.4 9.79 4.3 9.89 4.22 9.88 4.2 9.76 4.3 9.86 4.41 9.87 4.4"/><polygon class="d" points="9.49 4.37 9.4 4.27 9.5 4.18 9.49 4.17 9.38 4.27 9.47 4.38 9.49 4.37"/><polygon class="d" points="9.1 4.34 9.02 4.24 9.12 4.15 9.1 4.14 8.99 4.24 9.09 4.35 9.1 4.34"/><polygon class="d" points="8.72 4.31 8.63 4.21 8.73 4.12 8.72 4.11 8.6 4.2 8.7 4.32 8.72 4.31"/><polygon class="d" points="8.33 4.27 8.24 4.17 8.34 4.09 8.33 4.07 8.22 4.17 8.31 4.29 8.33 4.27"/><polygon class="d" points="7.94 4.24 7.86 4.14 7.96 4.06 7.95 4.04 7.83 4.14 7.93 4.26 7.94 4.24"/><polygon class="d" points="7.56 4.21 7.47 4.11 7.57 4.03 7.56 4.01 7.44 4.11 7.54 4.22 7.56 4.21"/><polygon class="d" points="7.17 4.18 7.08 4.08 7.19 4 7.17 3.98 7.06 4.08 7.16 4.19 7.17 4.18"/><polygon class="d" points="6.78 4.15 6.7 4.05 6.8 3.96 6.79 3.95 6.67 4.05 6.77 4.16 6.78 4.15"/><polygon class="d" points="6.4 4.12 6.31 4.02 6.41 3.93 6.4 3.92 6.28 4.01 6.38 4.13 6.4 4.12"/><polygon class="d" points="6.01 4.08 5.93 3.98 6.03 3.9 6.01 3.89 5.9 3.98 6 4.1 6.01 4.08"/><polygon class="d" points="5.62 4.05 5.54 3.95 5.64 3.87 5.63 3.85 5.51 3.95 5.61 4.07 5.62 4.05"/><polygon class="d" points="5.24 4.02 5.15 3.92 5.25 3.84 5.24 3.82 5.12 3.92 5.22 4.03 5.24 4.02"/><polygon class="d" points="4.85 3.99 4.77 3.89 4.87 3.81 4.85 3.79 4.74 3.89 4.84 4 4.85 3.99"/><polygon class="d" points="4.47 3.96 4.38 3.86 4.48 3.77 4.47 3.76 4.35 3.86 4.45 3.97 4.47 3.96"/><polygon class="d" points="4.08 3.93 3.99 3.83 4.09 3.74 4.08 3.73 3.97 3.82 4.06 3.94 4.08 3.93"/><polygon class="d" points="3.61 3.8 3.71 3.71 3.7 3.7 3.58 3.79 3.68 3.91 3.69 3.9 3.61 3.8"/><polygon class="d" points="3.22 3.76 3.32 3.68 3.31 3.66 3.19 3.76 3.29 3.88 3.31 3.86 3.22 3.76"/><polygon class="d" points="2.83 3.73 2.94 3.65 2.92 3.63 2.81 3.73 2.9 3.84 2.92 3.83 2.83 3.73"/><polygon class="d" points="2.53 3.8 2.45 3.7 2.55 3.62 2.54 3.6 2.42 3.7 2.52 3.81 2.53 3.8"/><polygon class="d" points="2.15 3.77 2.06 3.67 2.16 3.58 2.15 3.57 2.03 3.67 2.13 3.78 2.15 3.77"/><polygon class="d" points="1.76 3.74 1.68 3.64 1.78 3.55 1.76 3.54 1.65 3.64 1.75 3.75 1.76 3.74"/><polygon class="d" points=".62 12.15 .63 12.17 .74 12.09 .82 12.2 .83 12.19 .75 12.06 .62 12.15"/><polygon class="d" points=".69 11.77 .7 11.79 .81 11.71 .88 11.82 .9 11.81 .81 11.68 .69 11.77"/><polygon class="d" points=".97 11.43 .88 11.3 .76 11.39 .77 11.41 .87 11.33 .95 11.44 .97 11.43"/><polygon class="d" points="1.03 11.04 .94 10.92 .82 11.01 .83 11.02 .94 10.95 1.02 11.05 1.03 11.04"/><polygon class="d" points="1.1 10.66 1.01 10.54 .89 10.63 .9 10.64 1.01 10.57 1.08 10.67 1.1 10.66"/><polygon class="d" points=".95 10.24 .96 10.26 1.07 10.18 1.15 10.29 1.16 10.28 1.08 10.16 .95 10.24"/><polygon class="d" points="1.02 9.86 1.03 9.88 1.14 9.8 1.21 9.91 1.23 9.9 1.14 9.77 1.02 9.86"/><polygon class="d" points="1.08 9.48 1.1 9.5 1.2 9.42 1.28 9.53 1.29 9.52 1.21 9.39 1.08 9.48"/><polygon class="d" points="1.36 9.14 1.27 9.01 1.15 9.1 1.16 9.11 1.27 9.04 1.35 9.15 1.36 9.14"/><polygon class="d" points="1.43 8.75 1.34 8.63 1.22 8.72 1.23 8.73 1.34 8.66 1.41 8.76 1.43 8.75"/><polygon class="d" points="1.49 8.37 1.41 8.25 1.28 8.34 1.29 8.35 1.4 8.28 1.48 8.38 1.49 8.37"/><polygon class="d" points="1.35 7.95 1.36 7.97 1.47 7.89 1.54 8 1.56 7.99 1.47 7.87 1.35 7.95"/><polygon class="d" points="1.42 7.57 1.43 7.59 1.53 7.51 1.61 7.62 1.62 7.61 1.54 7.48 1.42 7.57"/><polygon class="d" points="1.48 7.19 1.49 7.21 1.6 7.13 1.67 7.24 1.69 7.23 1.6 7.1 1.48 7.19"/><polygon class="d" points="1.76 6.84 1.67 6.72 1.55 6.81 1.56 6.82 1.67 6.75 1.74 6.86 1.76 6.84"/><polygon class="d" points="1.73 6.37 1.81 6.47 1.82 6.46 1.74 6.34 1.61 6.43 1.62 6.44 1.73 6.37"/><polygon class="d" points="1.87 6.09 1.89 6.08 1.8 5.96 1.68 6.05 1.69 6.06 1.8 5.99 1.87 6.09"/><polygon class="d" points="1.74 5.66 1.76 5.68 1.86 5.6 1.94 5.71 1.95 5.7 1.87 5.58 1.74 5.66"/><polygon class="d" points="1.93 5.19 1.81 5.28 1.82 5.3 1.93 5.22 2 5.33 2.02 5.32 1.93 5.19"/><polygon class="d" points="2 4.84 2.07 4.95 2.09 4.94 2 4.81 1.88 4.9 1.89 4.92 2 4.84"/><polygon class="d" points="24.55 6.17 24.43 6.14 24.42 6.16 24.56 6.19 24.6 6.05 24.58 6.04 24.55 6.17"/><polygon class="d" points="24.74 6.48 24.62 6.45 24.61 6.47 24.76 6.5 24.8 6.36 24.78 6.36 24.74 6.48"/><polygon class="d" points="24.94 6.79 24.81 6.77 24.81 6.79 24.95 6.82 24.99 6.67 24.97 6.67 24.94 6.79"/><polygon class="d" points="25.13 7.11 25.01 7.08 25 7.1 25.15 7.13 25.18 6.99 25.17 6.98 25.13 7.11"/><polygon class="d" points="25.38 7.3 25.36 7.3 25.33 7.42 25.2 7.39 25.2 7.41 25.34 7.44 25.38 7.3"/><polygon class="d" points="25.39 7.72 25.53 7.76 25.57 7.61 25.55 7.61 25.52 7.73 25.4 7.71 25.39 7.72"/><polygon class="d" points="25.77 7.93 25.75 7.92 25.71 8.05 25.59 8.02 25.58 8.04 25.73 8.07 25.77 7.93"/><polygon class="d" points="25.92 8.38 25.96 8.24 25.94 8.23 25.91 8.36 25.78 8.33 25.78 8.35 25.92 8.38"/><polygon class="d" points="26 9.03 25.93 8.92 25.91 8.93 26 9.06 26.12 8.97 26.11 8.95 26 9.03"/><polygon class="d" points="25.93 9.41 25.86 9.3 25.84 9.31 25.92 9.44 26.05 9.35 26.04 9.34 25.93 9.41"/><polygon class="d" points="25.86 9.8 25.78 9.69 25.77 9.7 25.85 9.83 25.98 9.74 25.96 9.72 25.86 9.8"/><polygon class="d" points="25.78 10.18 25.71 10.07 25.69 10.08 25.78 10.21 25.9 10.12 25.89 10.11 25.78 10.18"/><polygon class="d" points="25.71 10.57 25.64 10.46 25.62 10.47 25.7 10.6 25.83 10.51 25.82 10.49 25.71 10.57"/><polygon class="d" points="25.64 10.95 25.56 10.84 25.55 10.85 25.63 10.98 25.76 10.89 25.74 10.88 25.64 10.95"/><polygon class="d" points="25.56 11.34 25.49 11.23 25.47 11.24 25.56 11.36 25.68 11.28 25.67 11.26 25.56 11.34"/><polygon class="d" points="25.49 11.72 25.42 11.61 25.4 11.62 25.48 11.75 25.61 11.66 25.6 11.65 25.49 11.72"/><polygon class="d" points="25.42 12.11 25.34 12 25.33 12.01 25.41 12.13 25.54 12.05 25.52 12.03 25.42 12.11"/></g></g></g></svg>