<?xml version="1.0" encoding="UTF-8"?>
<svg id="vias" xmlns="http://www.w3.org/2000/svg" width="210" height="210" viewBox="0 0 210 210">
  <path d="m109.7099990845,151.8899993896c-.5766906738-.0693664551-1.1570129395.0964355469-1.6100006104.4600067139-.5461578369.4111175537-.9060287476,1.0228881836-1,1.6999969482-.1299972534,1-8.1999969482,50.5-8.2799987793,51l1,.1600036621c.3399963379-2,8.1500015259-50,8.2900009155-51,.0710983276-.4054718018.3015823364-.7656097412.6399993896-1,.2380981445-.1977844238.5406646729-.3010101318.8499984741-.2899932861.4499969482.0800018311,1.2900009155.2200012207,1,2-.3300018311,2-8.5299987793,49.6699981689-8.6100006104,50.1499938965l1,.1699981689c.0800018311-.4799957275,8.2900009155-48.1699981689,8.6200027466-50.1600036621.3000030518-2.3300018311-.8600006104-3.0200042725-1.9000015259-3.1900024414Z" style="fill: #ffefe3;"/>
  <path d="m125.4899978638,69.7200012207c.1100006104-.8399963379.2399978638-1.6900024414.3799972534-2.5299987793,2-1.7600021362,21.1000061035-18.6399993896,22.1799926758-19.6599998474l.4499969482-.4399986267c1.6859130859-1.866733551,3.9993743896-3.048374176,6.5000152588-3.3200035095,4.1399993896-.5800018311,28.3000030518-3.0799980164,32.2099914551-2.8699989319s14.4900054932,1.1800003052,14.6000061035,1.1899986267l.0899963379-1c-.1100006104,0-10.6900024414-1-14.6399993896-1.1899986267s-27.8000030518,2.2299995422-32.4000091553,2.8800010681c-2.717086792.3063659668-5.2317199707,1.5849914551-7.0800018311,3.5999984741l-.4199981689.4199981689c-1,.9000015259-16.9199981689,15-21.2200012207,18.7999992371.1910705566-1.0688781738.4380722046-2.1269989014.7399978638-3.1699981689.6500015259-2.1800003052,2.2800064087-8.8699989319,2.5100021362-10.4000015259s2.0899963379-15.2000007629,2.3200073242-18c.1799926758-2.2600002289,1.6199951172-11.4799995422,2.2400054932-15.4200000763.1300048828-.8199996948.2200012207-1.3899993896.25-1.6000003815.1699981689-1.1800003052,2.2899932861-11.3400001526,2.3099975586-11.4399995804l-1-.1999998093c-.0899963379.4200000763-2.1399993896,10.2899999619-2.3200073242,11.4899997711,0,.2099990845-.1199951172.7800006866-.25,1.6000003815-.6199951172,3.9500007629-2.0599975586,13.1899986267-2.25,15.4899978638-.2200012207,2.7599983215-2.0899963379,16.4000015259-2.3099975586,17.9099998474s-1.8499984741,8.1599998474-2.4800033569,10.2599983215c-.4240112305,1.4817848206-.7579574585,2.9878692627-1,4.5100021362-.4802856445.3333358765-1.0557861328.5017700195-1.6399993896.4800033569-.5367431641-.08568573-.9742965698-.4763565063-1.1200027466-1,.2900009155-3.4599990845,1.1100006104-14.8300018311,1.1399993896-15.6300010681s3.1299972534-17.1100006104,5.1900024414-27.9099998474c.1088409424-.5968761444.053527832-1.21210289-.1600036621-1.7800006866l-.9300003052.3600006104c.1340713501.3919391632.1718063354.8103981018.1100006104,1.2199993134-.5299987793,2.7800006866-5.1699981689,27.1899986267-5.2099990845,28.0699996948s-1.1200027466,15.8299980164-1.2200012207,16.4399986267c0,0-.2600021362,1.2699966431-.6299972534,3.1100006104l-12.6299972534-.7300033569c.1890716553-1.5295028687.162147522-3.0779953003-.0800018311-4.5999984741-.3368377686-.6988677979-.8864822388-1.2730178833-1.5699996948-1.6399993896-.6999969482-.5-1.4300003052-1-1.5400009155-1.6899986267-.077507019-2.3737983704.2609329224-4.742855072,1-7,.3139648438-.311542511.6480102539-.6021652222,1-.8699989319,1.9400024414-1.5200004578,3.8300018311-3.1300010681,4.25-4.5900001526,3.9400024414.4399986267,8.1200027466.9099998474,8.6399993896.9300003052,1.0899963379,0,2-.3800010681,2.1399993896-1,.057434082-.1442108154.1242446899-.2845077515.1999969482-.4199981689.2472839355-.4143295288.4230728149-.8673210144.5199966431-1.3400001526.0999984741-.6599998474.5999984741-4.3899993896.5999984741-4.3899993896l-1-.1399993896-.5999984741,4.3899993896c-.0861434937.3518791199-.2243347168.6889266968-.4100036621,1-.1179351807.2017021179-.2119064331.4164886475-.2799987793.6399993896-.3271331787.2427062988-.736656189.3468818665-1.1399993896.2900009155-.8799972534,0-15-1.6599998474-15.7900009155-1.7599983215s-5.1800003052-.9000015259-5.3000030518-.9199981689c-.6649475098-.0677185059-1.3350524902-.0677185059-2,0-.8499984741.1800003052-1.0800018311.2799987793-1.2300033569.4199981689-.2732849121.2087898254-.4295578003.5362167358-.4199981689.8800010681.0380401611.2731361389.200553894.5132026672.4400024414.6500015259-.6699981689-.2700004578-1.3600006104-.5499992371-1.5100021362-.5900001526-.3282775879-.0759429932-.6632156372-.1194839478-1-.1300010681-.5033874512-.0211486816-1.0046463013-.0779571533-1.5-.1699981689-1.9789962769-.4682540894-3.9819412231-.8287849426-6-1.0800018311-.2806472778.0382728577-.5444259644.1562767029-.7600021362.3400001526-.0599975586.0499992371-.1600036621.1199989319-.1500015259.1300010681-.2300033569,0-3.1100006104.2099990845-3.5199966431.3199996948s-.6600036621.6399993896-.7600021362,1.0600013733l-.0599975586.2299995422h0l7.4700317383-44.0200066566-1-.1700000763-6.3300018311,37.8200001717c-.2600021362-.0600013733-.5800018311-.1199989319-.8499984741-.2000007629-.0999984741-.0600013733-.2099990845-.4399986267-.25-.5999984741-.1100006104-.3699989319-.2399978638-.8300018311-.6999969482-.8800010681-.3000030518,0-7.5699996948-1.2799987793-10.8799972534-1.8499984741h0l-28.8100090027-3.780002594-1.1599998474,6.5699996948-4.0900001526,23.9000015259-32.3699989319-1.8400001526-.0600000024,1.0000038147,74.680002749,4.3099975586c-.310005188,2.5299987793-1.7700042725,12.9199981689-1.8800048828,13.5299987793-.0599975586.3399963379-.1100006104,1.0800018311-.1600036621,1.9300003052-.02318573.82371521-.0966567993,1.6452407837-.2200012207,2.4599990845-.0573272705.1866226196-.1920928955.3396072388-.3700027466.4199981689-.1949615479.031463623-.3936538696-.0274047852-.5400009155-.1600036621-2.6699981689-1.7799987793-5-2.5-7-2.1500015259-2.8199996948.5100021362-17.3099975586,5.0699996948-17.9199981689,5.2600021362l.2999992371,1c.1500015259,0,15-4.7399978638,17.7900047302-5.2399978638,1.6999969482-.3000030518,3.8000030518.3700027466,6.3000030518,2,.3869552612.2884521484.887336731.3774032593,1.3499984741.2399978638.4642333984-.1699676514.8300323486-.5357666016,1-1v-.0800018311c1.1699981689.1800003052,4.2699966431.6399993896,6.5500030518.8899993896h.4400024414c1.01121521-.0130996704,1.9397583008-.561088562,2.4400024414-1.4400024414.5809707642-.9782485962,1.6653289795-1.5436630249,2.8000030518-1.4599990845,2.0300598145-.0183486938,4.0483322144-.3109970093,6-.8700027466l-2.2700042725,13.4600143433c-.081489563.471321106-.5281677246.7884597778-1,.7099990845l-40.810005188-4.4300003052-.1100006104,1,40.7400054932,4.4599990845c.4507598877.0437011719.78074646.4445419312.7370452881.8953018188-.0034179688.0352325439-.0091094971.0702056885-.0170440674.1046981812l-1.2200012207,7c-.1694335938.9627456665.4736785889,1.8805618286,1.4364242554,2.0499954224.0211257935.0037231445.0423278809.0070571899.0635757446.0100021362l16.7700042725,2.3099975586h0c.2900009155,0,2.2399978638.2900009155,2.8099975586.3799972534h.1999969482c.7133483887-.0216293335,1.2803268433-.6063232422,1.2799987793-1.3199996948.0124969482-.7489624023-.5628128052-1.3769683838-1.3099975586-1.4299926758-.3700256348.002204895-.7261810303.1411056519-1,.3899993896-.5479736328.5080718994-1.2542877197.8117904663-2,.8600006104l-16.4900054932-2.25c-.4825057983-.0722427368-.8195877075-.5157699585-.7600021362-1l1-5.8600006104c.1381530762-.6273880005.7199554443-1.0551834106,1.3600006104-1l20.1200027466,1.5100021362c.3881225586.0236740112.737991333.2418746948.9300003052.5800018311l1.0999984741,1.9300003052c-.0799942017.4466629028-.1600036621.9066696167-.2399978638,1.3799972534h0l-4.8199996948,27.5400009155-3.3399963379-1c.1670608521-.6266021729.0957946777-1.2928924561-.1999969482-1.8699951172-.3000030518-.5399932861-.6200027466-1-.8199996948-1.3300018311.4010543823-.6172485352.3648757935-1.4212722778-.0899963379-2,.5815658569-1.222076416.4711761475-2.6609420776-.2900009155-3.7799987793-.5299987793-1-1.4599990845-3-1.8799972534-3.9400024414,1.0621643066-.3009262085,1.9701843262-.9944534302,2.5400009155-1.9400024414.1885604858-.3748397827.2813186646-.7905578613.2699966431-1.2099990845l3-.7300033569c.2761459351-.0662765503.4462738037-.3438568115.3800048828-.6200027466-.0662765503-.2761383057-.3438568115-.4462738037-.6200027466-.3799972534l-3.4100036621.8399963379c-.1359481812.0308380127-.2523269653.1181182861-.3199996948.2399978638-.0550003052.1311340332-.0550003052.2788696289,0,.4100036621.0918426514.3373260498.0450363159.6973648071-.1299972534,1-.5918807983.8240814209-1.4748153687,1.3924407959-2.4700012207,1.5899963379-.1416931152.0434646606-.2581100464.145324707-.3199996948.2799987793-.0550003052.1311340332-.0550003052.2788696289,0,.4100036621.0599975586.1299972534,1.4199981689,3.1399993896,2.1500015259,4.5.548500061.797164917.6788253784,1.8099441528.3499984741,2.7200012207-.8824920654-.3204956055-1.8576965332.135093689-2.1781921387,1.0175857544-.0712356567.1961593628-.1057510376.403755188-.1018066406.612411499-.5199966431.2899932861-1.5899963379.4299926758-3.8300018311-.2200012207-1.7799987793-.5100021362-27.9500045776-8.5699996948-31.2600021362-9.5899963379l.2900009155-8.9000015259h-1l-.4600067139,10.810005188-49.530002594-14.7399978638-.279999733,1,49.6300020218,14.7399978638-3.3100013733,8.8200073242-9.3699989319-3-3.1500015259,9.7200012207-34-9.9400024414-.279999733,1,34.0000009537,9.9299926758h0l12.2399978638,3.5700073242h0l.75.2200012207.2799987793-1-.7200012207-.2100067139,5.8899993896-18.4199981689,41.4199981689,12.3500061035c-1.5400009155,8.7299957275-2.7799987793,16-2.8099975586,16.1999969482h0l-4.0999984741,24-21-5.8899993896,1.8199996948-7.1799926758-1-.25-3.1399993896,12.5799865723-13.9400024414-4.4100036621,3.5800018311-11.8999938965-1-.2899932861-3.5699996948,11.8899993896-16.8699989319-5.3400115967,4-12.1900024414-.9500007629-.3099975586-4,12.1999969482-9.8499984741-3.0999908447-.2999992371.9499969482,9.7999992371,3.1000061035-2.6100006104,8-9-4.3200073242-.4300003052.8999938965,41,19.8099975586-14.8300018311,16,.7299995422.6799926758,15.1099967957-16.3000030518c16.5800018311,2.6000061035,21.6500015259,3.3300018311,23.2799987793,3.4400024414l-2.1800003052,12.7599945068,1,.1699981689,9.4800109863-55.2399749756c.6500015259-3.7100067139,4.8499984741-27.7399978638,7.7699966431-44.3699951172v-.0800018311c.0934677124-.6259841919.3446807861-1.2178878784.7300033569-1.7200012207.6260910034-.6448135376,1.5589675903-.8876724243,2.4199981689-.6299972534.8054122925.2568359375,1.4215240479.9107437134,1.6299972534,1.7300033569.0899124146.526184082.0899124146,1.0638122559,0,1.5899963379v.1900024414l-15.6999969482,99.2899932861,19.2000045776-9.5899963379,6.0700073242-20.2900085449-1-.2899932861-2.1700134277,7.4299926758-17-3,2.6399993896-16.7299957275c.3685531616.2468414307.704536438.5391387939,1,.8699951172.3238067627.4556274414.7765655518.803894043,1.3000030518,1,.3525009155.1119842529.6628036499.3281402588.8899993896.6199951172.1399993896.2400054932,0,.75-.1100006104,1.1600036621-.1047821045.3230438232-.1587600708.6604003906-.1600036621,1,.0045471191.1972045898.0382461548.3926544189.0999984741.5800018311-.3799972534.1399993896-1,.3600006104-1.6299972534.5299987793l.2799987793,1,.8399963379-.25.25.5599975586s1-.4499969482,1.3399963379-.5800018311c.2480926514-.1124267578.510597229-.1898345947.7799987793-.2299957275l.1600036621.1199951172c.6393127441.5437164307,1.4334564209.8725585938,2.2699966431.9400024414l.0999984741-1c-.6494064331-.0498199463-1.2659759521-.305557251-1.7600021362-.7299957275h0c.1433410645-.2807159424.1823196411-.6032104492.1100006104-.9100036621-.1243209839-.3159179688-.4210510254-.5306549072-.7600021362-.5500030518-.0599975586,0-.1500015259,0-.1399993896,0-.1800003052-.3000030518-.0899963379-.3999938965,0-.4600067139l.1600036621-.2400054932c.0999984741-.1600036621.1299972534-.1900024414.4499969482-.1799926758.3244628906.1201171875.6591720581.2104797363,1,.2700042725.4100036621,0,1.6999969482.3600006104,2.5500030518.5700073242.5100021362.1300048828.9300003052.2299957275,1.0699996948.25h.1500015259c.7639694214.1560668945,1.540435791.2430877686,2.3199996948.2599945068.2530975342.0155639648.5069046021.0155639648.7600021362,0,.9761734009-.2220916748,1.9156494141-.5823974609,2.7900009155-1.0700073242l.6200027466-.3000030518c.4499969482-.1999969482.9299926758-.4400024414,1.2799987793-.6199951172l.4299926758-.2200012207-.2299957275-1c-.2267913818.0764312744-.4447021484.1770019531-.6499938965.3000030518l-1.2399978638.6000061035-.6500015259.3200073242c-.7840652466.4452972412-1.6251296997.7817230225-2.5,1-.9214935303.0584869385-1.8466644287-.0088043213-2.75-.1999969482h-.1600036621c-.1299972534,0-.5199966431-.1199951172-1-.2400054932-1.2099990845-.3000030518-2.2399978638-.5500030518-2.6999969482-.6000061035-1.0591049194-.28125-2.0954055786-.642288208-3.0999984741-1.0800018311-.2215118408-.1445007324-.4558334351-.2683563232-.6999969482-.3699951172-.1828460693-.0744628906-.3571777344-.1683349609-.5199966431-.2799987793-.1661071777-.1363525391-.320022583-.2869262695-.4599990845-.4499969482-.4164352417-.5144195557-.9381103516-.933807373-1.5299987793-1.2299957275l2.9699935913-19.6900024414c3.6100006104.4199981689,10.4000015259,1.1999969482,14.8500061035,1.7400054932-.2553863525.0062561035-.4986877441.1100158691-.6799926758.2899932861-.161315918.190826416-.2241973877.4460754395-.1699981689.6900024414-.0209197998.594833374-.1967010498,1.1739196777-.5099945068,1.6799926758-.1457824707.1776885986-.3260803223.3239593506-.5299987793.4299926758-.2071914673.1294403076-.4074630737.2696228027-.5999984741.4199981689-.4300003052.3399963379-.5699996948.5700073242-.5599975586.9299926758-.0573348999.1048583984-.1316833496.1994781494-.2200012207.2799987793-.1340942383.1478881836-.2577285767.3049316406-.3700027466.4700012207-.1668014526.2480621338-.2540130615.5410919189-.25.8399963379-.2713165283.2764282227-.5584716797.5368804932-.8600006104.7799987793l.6299972534.7700042725c.3616104126-.3038024902.6961975098-.638381958,1-1,.1307144165-.1802368164.2007522583-.397354126.1999969482-.6199951172-.004524231-.0933532715.0237808228-.185333252.0800018311-.2599945068.0847015381-.1291656494.1818313599-.2497406006.2900009155-.3600006104.1516571045-.1610412598.2796096802-.3428649902.3799972534-.5399932861.0525360107-.1233215332.0797424316-.2559509277.0800018311-.3899993896l.1900024414-.1699981689c.2099990845-.1600036621.3700027466-.2599945068.5100021362-.3500061035.2984161377-.1701049805.5628509521-.3938598633.7799987793-.6600036621.4625396729-.6790161133.7163085938-1.4785308838.7299957275-2.3000030518h.5c1.3569793701.1072998047,2.6982269287.3621368408,4,.7599945068,1.1187591553.6550292969,2.3191375732,1.1593933105,3.5700073242,1.5l.1000061035-1c-1.0944213867-.3208312988-2.1455535889-.7742004395-3.1300048828-1.3500061035-.4146881104-.2010345459-.8557281494-.3424224854-1.3099975586-.4199981689l.3999938965.0599975586c.8800048828.1900024414,9.7799987793-.25,12.7899932861-.3999938965-3.3600006104,11.2700042725-11.7100067139,38.4199981689-16.5899963379,54.2200012207l1,.3000030518c.6000061035-2,12.5200042725-40.5899963379,16.6800079346-54.5399932861h.7299957275c-3.3699951172,11.2799987793-11.7100067139,38.4199981689-16.5899963379,54.2099914551l1,.3000030518c.6000061035-2,12.4799957275-40.4499969482,16.6600036621-54.4600067139l22.4499969482,1v7.6399993896h6v-1.0899963379h6.5v-6h.1900024414l17,5.1300048828.2899932861-1-17.0899963379-5.1399993896h-.4199981689l-12.5600280762-.4599914551h0l-10.1100006104-.4299926758c.3240661621-.8642120361.4371948242-1.7932739258.3300018311-2.7100067139-.1000061035-.3899993896-.5700073242-1.7400054932-1.1699981689-3.4499969482-.8999938965-2.5800018311-2.3999938965-6.8800048828-2.4199981689-7.4299926758v-.1900024414c-.0784454346-.9801177979.3520812988-1.9318084717,1.1399993896-2.5200042725.8600006104-.5100021362,1.2100067139-.3799972534,2.3699951172.0700073242l1,.3699951172c1.4700012207.5,7.4900054932,2.3099975586,9.2400054932,2.1100006104,2.6526031494-.0522766113,5.304977417.1149597168,7.9299926758.5.2599945068.2700042725.1100006104,2.0599975586-.3300018311,3.75l1,.25c.1399993896-.5599975586.8500061035-3.4499969482.2299957275-4.4900054932-.1238250732-.2330932617-.3427581787-.4009399414-.6000061035-.4600067139-2.748336792-.4281921387-5.5291900635-.6122436523-8.3099975586-.5500030518-1.2799987793.1699981689-6.5-1.2599945068-8.8000030518-2.0599975586-.3800048828-.1200027466-.6999969482-.25-1-.3499984741-1.2299957275-.4800033569-2-.7600021362-3.25,0-1.0707550049.7479629517-1.6795196533,1.9957199097-1.6100006104,3.2999954224v.1799926758c0,.5299987793.7299957275,2.8500061035,2.4700012207,7.8300018311.5700073242,1.6300048828,1.0599975586,3,1.1499938965,3.3699951172.048828125.8264007568-.0878448486,1.6532592773-.3999938965,2.4199981689l-11-.4700012207c.6799926758-2.3000030518,1.1000061035-3.7700042725,1.1399993896-4,.1499938965-.9299926758-3.0800018311-11.8099975586-6.5800018311-23.1699981689.8581695557-.5301437378,1.8195648193-.8710632324,2.8200073242-1,1.4299926758.0800018311,39.8300018311,9,54.5099945068,12.4600067139l.2299957275-1c-5.4499969482-1.2799987793-53.3000030518-12.4899978638-54.7299957275-12.4899978638-1.1040344238.099822998-2.1726074219.4412155151-3.1300048828,1-3.8999938965-12.6200027466-8-25.5100021362-8.1100006104-25.7300033569-.5500030518-1.4199981689-7.6900024414-15.5599975586-9.5500030518-19.2200012207l2.8800048828.4199981689c.3000030518,1.4199981689,1.4100036621,6.2900009155,2.4900054932,7.5500030518.9247589111.9136810303,1.9286956787,1.743598938,3,2.4800033569.7149505615.466255188,1.384552002.998588562,2,1.5899963379.0899963379.1500015259.2599945068.3899993896.4600067139.6900024414.6499938965,1,2,3,2.1300048828,3.8199996948.0278015137.5760574341-.0124664307,1.1533813477-.1199951172,1.7200012207-.1699981689,1.1999969482-.3399963379,2.4400024414.2100067139,3.1900024414.3807678223.6635513306,1.1067047119,1.0517578125,1.8699951172,1,.4184417725-.0123901367.8358154297-.049118042,1.25-.1100006104l-.0599975586-.4899978638-.1600036621-.4899978638c-1.3399963379.1699981689-1.5899963379.1800003052-2.0899963379-.5100021362-.2277526855-.8075866699-.2277526855-1.6624145508,0-2.4700012207.1246185303-.6588821411.164932251-1.3309402466.1199951172-2-.5136413574-1.5345840454-1.2883453369-2.9689788818-2.2899932861-4.2399978638-.1999969482-.2799987793-.3500061035-.5100021362-.4400024414-.6600036621-.8099365234-.858039856-1.7275695801-1.6076049805-2.7299957275-2.2300033569l.1600036621-.6100006104c1.1999969482-.1299972534,2.6300048828-.2699966431,3.3000030518-.2699966431.3813781738.0118713379.7603149414.0655288696,1.1300048828.1600036621.8971099854.2696380615,1.862197876.1984176636,2.7100067139-.1999969482l.6600036621-.3199996948c1.1699981689-.5599975586,2.9499969482-1.4199981689,3.5500030518-1.3099975586.8800048828.1600036621,45,6.4499969482,46.9000091553,6.7200012207l.1399993896-1c-.4600067139-.0599975586-46-6.5599975586-46.8600006104-6.7099990845s-2.2700042725.4800033569-4.1600036621,1.3899993896l-.6600036621.3099975586c-.6465911865.3118515015-1.3894805908.358505249-2.0700073242.1299972534-.4390411377-.1072158813-.8882293701-.1675567627-1.3399963379-.1800003052-1.1799926758,0-4.3500061035.3799972534-5.2299957275.4800033569-.2077484131-.1747512817-.4016723633-.3653182983-.5800018311-.5699996948-.7799987793-.8899993896-1.7400054932-4.6800003052-2.1999969482-6.7399978638l78.4900054932,11.4599990845.1399993896-1-83.5700454712-12.0999908447Zm-18.5999984741,41c.845085144-.0668334961,1.6421890259-.4195327759,2.2600021362-1,.177734375-.1657409668.4074630737-.2647018433.6500015259-.2799987793.4341583252.0465087891.7740936279.3948364258.8099975586.8300018311.0005187988.4376983643-.3428192139.7986450195-.7799987793.8199996948h-.1299972534l-2.8099975586-.3799972534-.0000076294.0099945068Zm-3.7399978638,16.4700012207c.4059295654.0474243164.6965560913.4149475098.6491241455.8208770752-.0397949219.3406524658-.3084640503.6093292236-.6491241455.6491241455-.4059295654-.0474243164-.6965560913-.4149475098-.6491241455-.8208770752.0397949219-.3406600952.3084640503-.6093215942.6491241455-.6491241455Zm-42.6200027466,12.6699981689l-3.8600006104-1.1300048828-6.4599990845-1.8899993896,2.8400001526-8.75,9.3199996948,3,3.6799964905-9.7799987793.3799972534.1100006104-5.8999938965,18.4400024414Zm5.8799972534-19.4799957275h-.1600036621v-1.1600036621c4.1999969482,1.2900009155,29.2699966431,9,31,9.5099945068.9449386597.3032989502,1.9279785156.4716339111,2.9199981689.5.5075073242.0114746094,1.011756897-.0839233398,1.4800033569-.2799987793.3174819946.4864959717.8590774536.7798614502,1.4400024414.7799987793.2370529175.0000152588.4716949463-.0475921631.6900024414-.1399993896.1900024414.2899932861.4700012207.7100067139.7300033569,1.1699981689.1525650024.3388519287.1877593994.7189025879.0999984741,1.0800018311l-38.2000045776-11.4599914551Zm-22.5799942017,52.1399993896l2.6599998474-8.1199951172,16.9300003052,5.3500061035-3.2099990845,10.6800079346-16.3800010681-7.9100189209Zm31.1699981689,15.0800018311l-13.9099998474-6.7299957275,3.2499961853-10.8199920654,14,4.4199981689-3.3399963379,13.129989624Zm24,3.75c-.8099975586-.0800018311-3.3099975586-.4400024414-6.5800018311-.9199981689l1.3400039673-9.4300079346-1-.1399993896-1.3499984741,9.3800048828c-4.6900024414-.6999969482-10.6399993896-1.6199951172-15.4400024414-2.3800048828l4.6900024414-18.5,21,5.9100036621-2.6600036621,16.0800018311Zm26.6999969482-7.1300048828l-3.4300003052,11.4700012207-17.0699996948,8.5299987793,3.6399993896-23,16.8600006104,3Zm-10.1699981689-16.2799987793v.0500030518c.1767501831.2605133057.4575042725.4318847656.7699966431.4700012207,0,.0700073242-.0599975586.1399993896-.0899963379.2200012207-.1741333008.0300445557-.3449325562.0769348145-.5100021362.1399993896-.0108261108-.1143493652-.041267395-.225982666-.0899963379-.3300018311-.0722503662-.1394805908-.1132049561-.2930603027-.1200027466-.4499969482.0050888062-.0346221924.0151901245-.0682983398.0299987793-.1000061035h.0100021362Zm57.4700012207-21.9400024414l10.4799957275.4400024414v5.0700073242h-6.4799957275v1.0899963379h-4v-6.6000061035Zm-61.2600021362-75.4599990845l8.5299987793.5c-.6999969482,3.4700012207-1.7200012207,8.4700012207-2.4700012207,12.2600021362l-.7200012207-.5899963379c-.167930603-.1441955566-.3789520264-.2286071777-.5999984741-.2399978638l-1.5800018311-.0999984741c.2372360229-.7041015625.3752288818-1.4378204346.4100036621-2.1800003052-.0103607178-.336227417-.0505218506-.6708679199-.1200027466-1h0l-.0999984741-1.2200012207c-.0470199585-.7219619751-.6704025269-1.2691116333-1.392364502-1.2220916748-.0092163086.0005950928-.0184326172.0012969971-.027633667.0020904541-1.1299972534.0800018311-1.5599975586-.1399993896-1.6399993896-.2799987793-.317817688-1.9596405029-.4150924683-3.9487075806-.2900009155-5.9300079346Zm-30.8199996948-21.6200027466c0-.1500015259.0599975586-.2599983215.0800018311-.3300018311l.0699996948-.2599983215c.0339508057-.1070022583.0541152954-.2178993225.0599975586-.3300018311.3099975586-.0800018311,3-.2900009155,3.25-.2900009155.2750549316-.0227432251.5350341797-.1351661682.7399978638-.3199996948.0728302002-.0586433411.1496887207-.1121101379.2300033569-.1599998474.4599990845,0,5.1299972534.8600006104,5.5400009155,1,.5895080566.1451225281,1.193069458.2255973816,1.8000030518.2400016785l.8000030518.0699996948,2.75,1.1100006104.5999984741.2400016785.2799987793-2.0699996948-.4499969482-.0999984741c-.2461395264-.080116272-.4839172363-.1839370728-.7099990845-.3100013733.266204834-.081199646.5365982056-.1479644775.8099975586-.2000007629h1.6200027466c.1900024414,0,4.5599975586.8300018311,5.2799987793.9099998474,0,0,2.9300003052.3499984741,6.2300033569.7200012207-.4899978638,1.2599983215-2.6500015259,3-3.8700027466,3.9300003052-.4499969482.3499984741-.7399978638.5900001526-1,.7700004578-1.4991531372-.4530258179-3.0255584717-.8104095459-4.5699996948-1.0699996948l-.0599975586,1c1.3836669922.2438583374,2.7499084473.5779037476,4.0899963379,1-.6827011108,2.3054046631-.9800338745,4.7077178955-.8799972534,7.1100006104.3178939819,1.0186462402,1.0412902832,1.8614044189,2,2.3300018311.5599975586.4000015259,1.0800018311.7699966431,1.1999969482,1.1500015259.1826324463,1.4007415771.1826324463,2.8192596436,0,4.2200012207l-30-1.7300033569,2.4700012207-14.7000007629c.9899902344-.9700012207,1.4299926758-2.9400024414,1.6399917603-3.9300041199Zm-46.5399971008,16.1600036621l.6199989319-3.7900009155c.5299987793-.1699981689,1.6500015259-.5299987793,2.4399986267-.8699989319.6102180481-.3023414612,1.2043495178-.6361236572,1.7799987793-1,.7403755188-.4813232422,1.5237197876-.8930778503,2.3400001526-1.2299995422l.2599983215-.0600013733c1.6326141357-.3652267456,3.2027130127-.968334198,4.6599998474-1.7900009155,1.9175796509-1.2173957825,3.9231185913-2.2903594971,6-3.2099990845.0999984741,0,.3400001526.2099990845.8899993896,1.0999984741l.0499992371.0699996948v.0900001526c-.1580619812.5454444885-.1580619812,1.1245536804,0,1.6699981689.2000007629.7099990845.4900016785,1.7200012207.75,2.6500015259.1699981689.5900001526.3400001526,1.1500015259.4599990845,1.5900001526.2311172485.8069610596.3555107117,1.6407203674.3700065613,2.4799995422v.3199996948c0,.7200012207.2799987793,2.3099975586.4300003052,3.1900024414l-21.0499992371-1.2099990845Zm22.0600013733,1.2699966431c-.1300010681-.7900009155-.4199981689-2.5699996948-.4500007629-3.2999992371v-.3100013733c-.0037956238-.908416748-.124797821-1.8125495911-.3600006104-2.6899986267-.1199989319-.4399986267-.2799987793-1-.4599990845-1.5999984741-.2599983215-.9199981689-.5499992371-1.9300003052-.7400016785-2.6300010681-.1145973206-.3781776428-.1145973206-.7818222046,0-1.1599998474.1082878113-.2644462585.0860671997-.5643959045-.0600013733-.8100013733l-.0800018311-.1300010681c-.4700012207-.7599983215-1-1.5600013733-1.7099990845-1.5600013733s-5.6300010681,2.7000007629-6.6100006104,3.3800010681c-1.3662261963.7472801208-2.8304786682,1.2993202209-4.3499984741,1.6399993896l-.2599983215.0699996948c-.9093399048.3473625183-1.7778587341.7933616638-2.5900001526,1.3300018311-.5407905579.3346405029-1.0981674194.6417007446-1.6699981689.9199981689-.5499992371.2400016785-1.2900009155.5-1.8499984741.6800003052l3.2200012207-18.9099998474,1-5.6199989319,26.8999977112,3.5c-.2399978638,2.3899993896-.6100006104,5.7099990845-.7399978638,6.2400016785-.1900024414.7599983215-3.1500015259,18.4400024414-3.6199989319,21.2799987793l-5.5700035095-.3199996948Zm6.5400009155.3799972534c1-6.0800018311,3.4300003052-20.4700012207,3.5899963379-21.0999984741s.5999984741-4.7900009155.7600021362-6.3300018311c2.1600036621.3699989319,9.3099975586,1.6100006104,10.6600036621,1.8199996948l.0599975586.2000007629c.1200027466.4399986267.3199996948,1.1100006104.9300003052,1.2799987793.3199996948.0900001526.6800003052.1699981689,1,.2200012207l-4.1700057983,24.6500053406-12.8299942017-.7400054932Zm23.5699996948,17c-1.4230117798-.0688171387-2.7752227783.6244277954-3.5500030518,1.8200073242-.5299987793.6900024414-.8799972534,1.1500015259-2,1-2.2600021362-.25-5.3499984741-.7099990845-6.5199966431-.8899993896,0-.4400024414.0800018311-1,.1200027466-1.6800003052s.0899963379-1.5299987793.1399993896-1.8099975586c0-.0899963379.0699996948-.3899993896.1299972534-.8399963379,1.7200012207.6999969482,5.8600006104,2.3799972534,6.2200012207,2.5l.3000030518-1c-.2799987793-.0899963379-3.8099975586-1.5100021362-6.3700027466-2.5599975586.4700012207-3.3199996948,1.4100036621-10,1.6600036621-11.8199996948l34.0800018311,2c0,1.7399978638,0,5.5599975586.4100036621,6.4100036621.3399963379.6200027466,1.1999969482.8899993896,2.5699996948.8000030518.1899871826-.0175094604.3589935303.1203613281.3799972534.3099975586l.1100006104,1.3000030518c.0579986572.310218811.0914382935.6245269775.0999984741.9400024414-.0576553345.7017974854-.2020874023,1.393737793-.4300003052,2.0599975586l-18.9600067139-1.1200180054c1.0178833008-.8229064941,1.1759414673-2.3151626587.3530349731-3.3330383301-.8229064941-1.0178833008-2.3151550293-1.1759414673-3.3330383301-.3530426025-.5574035645.450630188-.8809204102,1.1293106079-.8799972534,1.8460845947.0052261353.3458328247.0836105347.6866378784.2300033569,1,.17993927.3853149414.0134429932.8435440063-.3718719482,1.0234832764-.0412521362.0192642212-.0841293335.034828186-.1281280518.0465164185-.4863204956.1245193481-.9886169434.1750869751-1.4899978638.1500015259-2.3000030518-.0800018311-5.1299972534-.3399963379-5.1600036621-.3399963379l-.0899963379,1s2.8899993896.2600021362,5.2099990845.3399963379h.2600021362c1.127243042.0590057373,2.2370834351-.2967071533,3.1200027466-1l.3000030518.0999984741-.1999969482,1.0899963379c-2.0114593506.6263809204-4.1034164429.9565124512-6.2100143433.9799957275v.0299987793Zm8.2799987793-4.3899993896c.0055007935.7621307373-.6078720093,1.3844223022-1.3700027466,1.3899230957s-1.3844223022-.6078643799-1.3899230957-1.3700027466c-.0055007935-.7621307373.6078643799-1.3844223022,1.3700027466-1.3899230957.0066375732-.0000457764.0132827759-.0000457764.0199203491,0,.7450714111-.0001831055,1.3536911011.5951156616,1.3700027466,1.3400039673v.0299987793Zm17.3000030518,21.2299957275l-20-1.5c-.5953445435-.036567688-1.048324585-.5488357544-1.011756897-1.1441802979.0021743774-.035446167.0061035156-.0707626343.011756897-.1058197021l2.5699996948-14.8600006104c.1006393433-.4691390991.5203094482-.8006744385,1-.7900009155l21.6900024414,1.3399963379,1.1399993896.9300003052c-.4400024414,2.2399978638-.7600021362,3.8700027466-.8000030518,4.1500015259-.0344488646.2411354814-.7451242818,4.5538145676-1.8279032263,10.7734223098-.3187667973,1.8310334261-2.0566258875,1.2557524949-2.7720952478,1.2065810471Zm6.1600036621,1.7099990845c-1.0236663818-.3037948608-2.1301956177-.1193695068-3,.5,1.3899993896-7.9199981689,2.4000015259-13.7399978638,2.4499969482-14.0599975586.0999984741-.8399963379,3-15.4099960327,4.2099990845-21.0900039673.3421173096.3170166016.7842788696.5044937134,1.25.5299987793h.1999969482c.4468383789-.0039520264.8885421753-.0956878662,1.3000030518-.2699966431-.3199996948,2.1299972534-.5599975586,4.2799987793-.7399978638,6-.1200027466,1.1699981689-3.1699981689,24.4700012207-3.9199981689,29.7200012207-.4167633057-.6344985962-1.0322494507-1.1128082275-1.7500076294-1.359992981l.0000076294.0299911499Zm4-7.2699966431l9.0800018311,1.6399993896-1.4100036621,9.3099975586-9-1.4800033569v-.2200012207c.2399902344-1.3999862671.7299957275-5.0099868774,1.2999954224-9.2599868774l.0300064087.0099945068Zm-1.6800003052,11.8799972534h0l.2200012207-1.4199981689,9.0000076294,1.4800033569-1.4499969482,9.5800018311-9-1.4899978638,1.2299880981-8.1500091553Zm-1.4700088501,9.1100082397l9,1.4899978638-1.1399993896,7.8600006104-9.1200027466-1.3499984741,1.2600021362-8Zm7.5599975586-42.3899993896c2.6799926758,5.2900009155,7.9299926758,15.6900024414,8.3800048828,16.8499984741,1,2.7099990845,15,47.3600082397,14.9400024414,49.3499984741,0,.2400054932-.4700012207,1.7400054932-1.1900024414,4.1399993896h-.7299957275c.6699981689-2.2599945068,1.0800018311-3.6999969482,1.1199951172-3.9499969482.3200073242-2-14.8200073242-49.4499969482-15-49.8699951172-.5599975586-1.4400024414-6.0599975586-12.3499984741-7.4800033569-15.1699981689-.0897598267-.444480896-.1032867432-.9009933472-.0400009155-1.3500061035Zm6.6000061035,16.8499984741c1,2.7099990845,15,47.3600082397,14.9400024414,49.3499984741,0,.2400054932-.4700012207,1.7200012207-1.1699981689,4.0899963379-4.7799987793.25-12.2299957275.5800018311-12.8899993896.4400024414-.8699951172-.1799926758-16.0999984741-1.9299926758-19.1600036621-2.2799987793l2.6999969482-17.0999984741,24.6499938965,3.7000045776-.4499969482-1.1100006104-13.9400024414-2,1.1900024414-7.8499984741,9,1.4899978638.1699981689-1-9-1.4899978638,1.4499969482-9.5800018311,5.4299926758.8600006104-.2200012207-1-5.0599975586-.8499984741,1.8500061035-12.2799987793-1-.1500015259-.2899932861,2-9.1100006104-1.7000045776c1.1399993896-8.5599975586,2.5199966431-19.2099990845,2.5999984741-20,.0999984741-.9300003052.2200012207-2,.3499984741-3.0699996948l.75,1.4700012207c-.3110733032.8574752808-.4437866211,1.7694320679-.3899993896,2.6800003052,1.3600006104,2.689994812,7.0599975586,14,7.6000061035,15.3799972534Z" style="fill: #ffefe3;"/>
  <path d="m186,176.8399963379h-.0800018311l-.4799957275.0800018311v-12.1199951172l-.4400024414-.0599975586c-1.392578125-.1609649658-2.7748413086-.4013671875-4.1399993896-.7200012207-1.0704040527-.5808258057-2.1836395264-1.0789337158-3.3300018311-1.4900054932-.5399932861-.0899963379-8.4400024414,0-10.4199981689,0l-1.7700042725-1.1900024414-4-.4400024414.1799926758-13c.1097564697.0103912354.2202453613.0103912354.3300018311,0,.1251678467.0024108887.2499542236-.0144500732.3699951172-.0500030518.2214508057-.0417175293.4302215576-.1341400146.6100006104-.2700042725.0626831055-.0429077148.1346588135-.0703277588.2100067139-.0800018311.4400024414-.0599975586,5.1100006104.0899963379,7.9499969482.1999969482v-1c-1.7899932861-.0599975586-7.6499938965-.2799987793-8.1600036621-.1799926758-.225402832.0259857178-.4396057129.1123657227-.6199951172.25-.0832672119.0583953857-.1792449951.0960998535-.2799987793.1100006104-.1524963379.0305480957-.3108215332.0094299316-.4499969482-.0599975586v-.1399993896l-9.0899963379-1c-.8439788818-.0936431885-1.6184692383.476348877-1.7799987793,1.3099975586-.6100006104,3.0800018311-2.6100006104,13.1900024414-2.7200012207,13.9199981689-.0453491211.3028106689-.0144195557.6121520996.0899963379.8999938965l-.7200012207,2.0500030518c-.4990234375,1.4236297607-.6898956299,2.9370422363-.5599975586,4.4400024414l1.2100067139,14h.4900054932c.1000061035,0,10.8699951172-.6799926758,12.2299957275-.6199951172h0c1.75,0,22.4400024414-3.3500061035,25.25-3.8099975586l14.1900024414,2.7200012207,6.1799926758,2.6999969482.3999938965-.9199981689-6.2299957275-2.7200012207-14.4199981689-2.8099975586Zm-25.7700042725,3.8200073242c-2.2200012207,0-9.3800048828.4700012207-11.3399963379.6000061035l-1.1300048828-13c-.1076660156-1.3542327881.0659790039-2.7160949707.5099945068-4l.4900054932-1.3800048828c.158416748.1326904297.3540496826.2130279541.5599975586.2299957275.3099975586,0,6.5899963379.5899963379,11,1l-.0899963379,16.5500030518Zm.1100006104-17.6000061035c-3.0800018311-.2899932861-10.6100006104-1-10.9100036621-1h0c-.33203125-.2194366455-.5164794922-.6036834717-.4799957275-1,.0899963379-.5700073242,1.4600067139-7.5399932861,2.7200012207-13.8899993896.0608825684-.3233642578.3637695312-.5428314209.6900024414-.5l8.1999969482.9100036621-.2200012207,15.4799957275Zm24.1000061035,14c-8.7599945068,1.4199981689-20.6000061035,3.2599945068-23.2099914551,3.5399932861l.1000061035-17h0v-1.7200012207l3.6300048828.3899993896,1.8200073242,1.2299957275h.2199707031c3.7799987793,0,9.9299926758-.0599975586,10.3899993896,0,1.0292510986.3935394287,2.0314331055.8545532227,3,1.3800048828,1.3272094727.3647003174,2.6815643311.6222076416,4.0500030518.7700042725v11.4100036621Z" style="fill: #ffefe3;"/>
  <path d="m85.3300018311,41.9099998474l-.2099990845,1c.2102813721.0457725525.4247970581.0692367554.6399993896.0699996948.1717147827-.0008163452.3427886963-.020942688.5100021362-.0600013733.8199996948,2.4000015259,1.0699996948,2.5,1.2799987793,2.5699996948l.2399978638-.6199989319.2600021362-.2099990845c-.396484375-.7859954834-.7308425903-1.6018180847-1-2.4399986267.7426834106-2.8242111206,1.340133667-5.6846313477,1.7900009155-8.5699996948l-1-.1800003052c-.6900024414,3.7700004578-1.5299987793,8-1.7300033569,8.4300003052-.2529525757.0824623108-.5250167847.0859489441-.7799987793.0099983215Z" style="fill: #ffefe3;"/>
</svg>