<svg id="andenes" xmlns="http://www.w3.org/2000/svg" viewBox="0 0 210 210"><defs><style>.cls-1{fill:#c69c6d;}.cls-2{fill:#00e9a4;}.cls-3{fill:#f0f;}</style></defs><rect class="cls-1" x="89.52" y="113.47" width="1.63" height="2.7"/><rect class="cls-1" x="87.67" y="116.62" width="1.63" height="2.7"/><rect class="cls-1" x="81.93" y="113.44" width="1.63" height="2.7"/><rect class="cls-1" x="81.97" y="116.58" width="1.63" height="2.7"/><rect class="cls-1" x="82.56" y="104.81" width="1.63" height="2.7"/><rect class="cls-1" x="89.56" y="116.62" width="1.63" height="2.7"/><rect class="cls-1" x="85.75" y="113.47" width="1.63" height="2.7"/><rect class="cls-1" x="83.49" y="100.58" width="1.63" height="2.7"/><rect class="cls-1" x="85.41" y="100.62" width="1.63" height="2.7"/><path class="cls-1" d="M82.86,81.73l1.63-11.17-7.88-.72c-.34,2.44-1.06,7.59-1.47,10.44l2.08.84Z"/><rect class="cls-1" x="87.63" y="113.47" width="1.63" height="2.7"/><rect class="cls-1" x="83.89" y="116.62" width="1.63" height="2.7"/><rect class="cls-1" x="85.78" y="116.62" width="1.63" height="2.7"/><path class="cls-1" d="M131.2,96.73l-8.83-1.59c-.61,4.66-1.06,7.89-1.24,9.12l0,.1,8.72,1.44Z"/><rect class="cls-1" x="75.99" y="103.62" width="2.7" height="1.63" transform="translate(-35.94 168.12) rotate(-82.82)"/><polygon class="cls-1" points="118.03 123.88 126.9 125.22 128.05 117.61 119.25 116.16 118.03 123.88"/><path class="cls-1" d="M97.39,46.11H98.5l1.06.19c1.41.25,3.77.67,4.25.73.79.1,14.89,1.72,15.78,1.76h.09a1.44,1.44,0,0,0,.93-.23,3.35,3.35,0,0,1,.29-.63,3.52,3.52,0,0,0,.39-1c.1-.65.6-4.35.6-4.38l0-.12,1.24.16,0,.13s-.5,3.74-.6,4.39a4.35,4.35,0,0,1-.52,1.38,3,3,0,0,0-.2.4,1.55,1.55,0,0,1-1.11,1l1.56.22c.29-1.89,1.83-10.09,3.14-17.09l-22.17-3-7,1.93-1.78,7,1,5.33Z"/><path class="cls-1" d="M122.54,93.9l8.85,1.6.3-2,1.05.16a2.54,2.54,0,0,0-2-1.64L123,90.76C122.82,91.83,122.68,92.88,122.54,93.9Z"/><polygon class="cls-1" points="129.65 107.04 120.92 105.6 120.71 106.9 120.71 106.9 119.44 114.92 128.24 116.37 129.65 107.04"/><rect class="cls-1" x="84.49" y="104.84" width="1.63" height="2.7"/><path class="cls-1" d="M82.79,137.07l13.9,3.34a1.35,1.35,0,0,0,1.64-1l1.65-7.78-16.16-4.83-2.1,8.56A1.45,1.45,0,0,0,82.79,137.07Z"/><rect class="cls-1" x="79.97" y="100.58" width="1.63" height="2.7"/><rect class="cls-1" x="83.86" y="113.47" width="1.63" height="2.7"/><rect class="cls-1" x="80.12" y="105.67" width="1.63" height="2.7"/><polygon class="cls-1" points="109.88 179.62 125.27 182.51 127.1 175.79 121.04 176.23 118.27 175.79 111.32 172.3 109.88 179.62"/><polygon class="cls-1" points="80.69 162.19 68.65 158.38 67.45 162.42 70.44 163.24 69.78 166.02 66.5 165.03 65.3 169.03 78.03 172.93 80.69 162.19"/><polygon class="cls-1" points="93.59 164.59 83.53 161.85 81.98 168.13 101.44 173.59 102.29 168.27 93.23 165.64 93.59 164.59"/><polygon class="cls-1" points="109.67 182.51 107.97 191.36 122.12 193.32 124.49 185.1 109.67 182.51"/><polygon class="cls-1" points="106.41 202.58 121.3 194.21 107.97 192.72 106.41 202.58"/><path class="cls-1" d="M72.94,145.6l-2.57,7.8a1.28,1.28,0,0,0,.77,1.59l31.51,11.63,2.11-12.39-30.51-9.31A1,1,0,0,0,72.94,145.6Z"/><polygon class="cls-1" points="86.38 182.79 83.16 182.4 85.67 172.12 81.1 170.63 76.8 187.07 90.6 189.01 91.88 179.9 94.65 180.39 93.21 189.73 98.43 190.46 100.71 176.07 88.43 172.96 86.38 182.79"/><polygon class="cls-1" points="82.58 204.23 95 206 97.6 193.32 84.93 191.36 82.58 204.23"/><path class="cls-1" d="M199.38,140.36v-3.7l-12.82-4.22-1.78,5.85-6.89-2.15.92-2.71a.73.73,0,0,0-.71-1c-1.85,0-5.64.09-6.8,0-1.55-.15-4.15-.74-4.15-.74l-.81,3.85.91,9.07,4.66.2H172l12.59.54h0l.33,0,14.58,4.39,2.13-8.89Z"/><polygon class="cls-1" points="123.82 196.51 129.76 198.4 136.71 175.51 130.21 175.84 123.82 196.51"/><polygon class="cls-1" points="75.46 189.53 67.99 199.3 67.99 202.27 81.7 204.49 84.26 190.95 75.46 189.53"/><polygon class="cls-1" points="173.16 152.46 176.88 152.46 176.88 151.36 183.38 151.36 183.38 146.55 173.16 146.11 173.16 152.46"/><polygon class="cls-1" points="186.43 172.05 199.38 169.46 199.38 152.18 185.71 147.96 186.43 172.05"/><path class="cls-1" d="M168.78,115.62l19.34,1.94.59-8.38-18.59-2.37.51-3.56-8.14-.73-1.84,15.08,7.5,1.72Z"/><path class="cls-1" d="M132.87,94.05l-1.8,12,5,.85.28,1.26-.18,0-5.31-.84-1.41,9.33,9,1.49-.2,1.23-9-1.48-1.14,7.6,13.88,2,.55,1.38-.21,0-24.53-3.68L115.17,142c2.39.27,18.15,2.08,19,2.27.57.12,6.65-.13,11.37-.36l.73-3a5.83,5.83,0,0,0-.08-3.18Z"/><polygon class="cls-1" points="40.86 107.62 31.6 105.07 30.36 109.51 39.52 112.24 40.86 107.62"/><polygon class="cls-1" points="47.74 155.93 48.83 151.9 39.91 149.19 36.57 159.38 45.58 162.34 46.93 158.67 43.15 157.58 43.95 154.88 47.74 155.93"/><polygon class="cls-1" points="66.28 121.53 66.13 121.48 62.45 131.27 62.34 131.23 53.14 128.26 50.38 136.77 60.46 139.72 66.28 121.53"/><polygon class="cls-1" points="62.88 167.95 64.19 164.34 61.26 163.45 62.13 160.51 65.37 161.47 66.37 157.43 50.77 153.24 47.75 163.23 51.69 164.51 53.71 157.86 55.69 158.44 53.75 165 62.88 167.95"/><rect class="cls-1" x="76.4" y="100.65" width="2.7" height="1.63" transform="translate(-32.63 165.93) rotate(-82.82)"/><polygon class="cls-1" points="74.61 186.48 77.39 174.87 64.98 170.88 61.95 180.56 74.61 186.48"/><polygon class="cls-1" points="57.07 181.55 52.04 188.21 56.49 191.99 59.75 188.81 63.89 191.99 61.13 195.1 64.34 197.69 71.52 189.18 57.07 181.55"/><path class="cls-1" d="M73.2,107.57l-4.86-2.12.66-1.64a1.28,1.28,0,0,0-.8-1.7l-8.79-2.74a.77.77,0,0,0-1,.8l.81,9.16L64,110.58v4.08l1.34.39.2-6,1.24,0v.13l-.2,6.15,3.76,1.1,3.49-7.32A1.2,1.2,0,0,0,73.2,107.57Z"/><polygon class="cls-1" points="62.3 169.96 47.39 165.02 44.97 172.63 59.65 179.28 62.3 169.96"/><polygon class="cls-1" points="40.27 166.25 39.04 165.94 39.87 162.82 35.48 161.49 34.06 167.38 42.38 171.33 44.46 164.18 41.19 163.16 40.27 166.25"/><polygon class="cls-1" points="15.3 106.32 15.66 105.12 15.78 105.16 19.39 106.24 21.15 101.55 14.93 100.21 12.78 105.07 7.38 103.77 4.79 112.84 20.49 117.4 19.15 120.73 9.89 118.14 7.23 125.18 14.91 127.31 15.15 126.48 15.27 126.52 29.36 130.63 35.61 112.38 15.3 106.32"/><path class="cls-1" d="M45.46,127.39l6,2.11.91-2.81.12,0,1.92.62,2.44-8.65-9.94-3-2.59,9.39A1.87,1.87,0,0,0,45.46,127.39Z"/><rect class="cls-1" x="75.6" y="106.59" width="2.7" height="1.63" transform="translate(-39.23 170.33) rotate(-82.82)"/><path class="cls-1" d="M117.36,84.5l-1-.81L94.69,82.35A.74.74,0,0,0,94,83L91.38,97.84a.89.89,0,0,0,.17.69.91.91,0,0,0,.62.33l20,1.49a2.37,2.37,0,0,1,1.87,1.19l.23.41c1.5-8.5,2.3-13.13,2.34-13.4S116.88,87,117.36,84.5Zm-3.21,16.87a2.55,2.55,0,0,0-2-1.21l-20-1.5a.7.7,0,0,1-.48-.26.65.65,0,0,1-.13-.52L94.14,83a.56.56,0,0,1,.55-.46l21.6,1.34.86.69c-.48,2.39-.73,3.69-.76,3.94S116,91.11,114.15,101.37Z"/><path class="cls-1" d="M109.83,111a.62.62,0,0,0,.58-.63c0-.15-.22-.63-.6-.63a.86.86,0,0,0-.53.24,4.44,4.44,0,0,1-1.27.77l1.72.24Zm-.42-.87a.72.72,0,0,1,.4-.19c.24,0,.4.34.4.44s-.09.42-.38.42h-.07l-1.07-.15A4.83,4.83,0,0,0,109.41,110.1Z"/><path class="cls-1" d="M94.63,79.32a1.17,1.17,0,1,0-1.17,1.18A1.17,1.17,0,0,0,94.63,79.32Zm-1.17,1a1,1,0,1,1,1-1A1,1,0,0,1,93.46,80.3Z"/><path class="cls-1" d="M89,99.37a.43.43,0,0,1,.29.16.42.42,0,0,1,.07.33l-1.21,7a2.12,2.12,0,0,0,.38,1.65,2.15,2.15,0,0,0,1.46.87l16.77,2.32.39,0h0l2.41.33.26,0a1.73,1.73,0,0,0,1.68-1.73,1.82,1.82,0,0,0-1.7-1.73,1.93,1.93,0,0,0-1.23.49,2.94,2.94,0,0,1-1.77.77l-16.45-2.28a.43.43,0,0,1-.32-.19A.49.49,0,0,1,90,107l1-5.87a.87.87,0,0,1,.86-.72h.07L112,102a.75.75,0,0,1,.6.38l1,1.81-.07.35-.15.89v0c-.29,1.7-2,11.3-3.3,18.78l-1.54,8.71h0a.48.48,0,0,1,.18,0l4.81-27.3h0l0-.2.24-1.32-1.07-1.87a1,1,0,0,0-.77-.48l-20.13-1.51a1.1,1.1,0,0,0-1.14.89l-1,5.86a.68.68,0,0,0,.13.53.65.65,0,0,0,.46.27l16.49,2.28a3.06,3.06,0,0,0,1.88-.82,1.72,1.72,0,0,1,1.1-.44,1.6,1.6,0,0,1,1.5,1.53,1.53,1.53,0,0,1-1.48,1.53l-.23,0-2.6-.35-.21,0L90,109.16a2,2,0,0,1-1.68-2.29l1.22-7a.63.63,0,0,0-.11-.48.59.59,0,0,0-.43-.24L48.09,94.73l.15-1.39,41.07,4.45a.67.67,0,0,0,.72-.55l2.29-13.12a22.73,22.73,0,0,1-5.76.8,2.83,2.83,0,0,0-2.65,1.38,3.07,3.07,0,0,1-2.6,1.51l-.46,0c-2.17-.24-5.09-.66-6.4-.86A1.83,1.83,0,0,1,73.36,88a1.56,1.56,0,0,1-.48.08,1.86,1.86,0,0,1-1-.34,11.08,11.08,0,0,0-4.88-2,.36.36,0,0,1,.06.2,11,11,0,0,1,4.7,2,2.14,2.14,0,0,0,1.15.37,1.71,1.71,0,0,0,.55-.09,2,2,0,0,0,1.15-1c1.37.21,4.15.61,6.25.84l.48,0a3.23,3.23,0,0,0,2.76-1.59,2.62,2.62,0,0,1,2.49-1.3,22.54,22.54,0,0,0,5.51-.73L89.84,97.2a.47.47,0,0,1-.46.39h0L48.46,93.16l-.4,0,0,.4-.11,1,0,.4.4,0Z"/><path class="cls-1" d="M81.31,86.41c.75,0,1-.36,1.49-1a4.18,4.18,0,0,1,3.76-1.93,21.5,21.5,0,0,0,6-.94l.14-.8h0a4.92,4.92,0,0,1-3.16,1h-.26c-2.21-.08-4.91-.31-5.21-.34h-.2v-.21L84,81l.19,0c.31,0,3,.26,5.15.34h.22a4.61,4.61,0,0,0,1.21-.15.56.56,0,0,0,.37-.32.55.55,0,0,0,0-.47,2.58,2.58,0,0,1,2.33-3.67,2.72,2.72,0,0,1,.69.09A2.57,2.57,0,0,1,95.41,81l18.32,1.13c0-.16.19-.69.19-.69h0a.65.65,0,0,1,0-.2l-.19-.06-.1.4-.09.33-17.8-1.1a2.76,2.76,0,0,0-1.59-4.16,2.64,2.64,0,0,0-.74-.1,2.77,2.77,0,0,0-2.77,2.77A2.86,2.86,0,0,0,91,80.51a.34.34,0,0,1,0,.3.4.4,0,0,1-.25.21,4.51,4.51,0,0,1-1.14.14h-.22c-2.18-.08-4.84-.32-5.13-.34l-.4,0,0,.4-.09,1,0,.4.4,0c.31,0,3,.26,5.23.34h.27a6.1,6.1,0,0,0,1.19-.11,19.83,19.83,0,0,1-4.17.47,4.34,4.34,0,0,0-3.91,2c-.49.63-.72.89-1.34.89a1.52,1.52,0,0,1-.29,0c-2-.21-4.55-.59-6-.8a.52.52,0,0,1-.11.19c1.4.21,4.07.59,6.06.81A1.72,1.72,0,0,0,81.31,86.41Z"/><path class="cls-1" d="M107.85,113.7l-.51-1.34-2.34-.1-2.9.83-.19,1-3,.68a1.1,1.1,0,0,0-.55.32l-1,1.11-2.23.44-.41-1.32-2,.61-.29.71.78,2.71-.55.24,1.08,3L95.3,122l1.78,4.33a.81.81,0,0,0,.63.5l2,.3a1.18,1.18,0,0,0,.94-.26l2.33-1.93a.73.73,0,0,0,.2-.88l-2.31-5a.56.56,0,0,1,.29-.76,8.22,8.22,0,0,0,2.29-1.18,2.54,2.54,0,0,0,.35-1.53.54.54,0,0,1,.41-.49l3.4-.88A.38.38,0,0,0,107.85,113.7Z"/><path class="cls-1" d="M90.37,107.51l3.14.42,1.12-7.19-2.75-.21a.79.79,0,0,0-.84.66l-1,5.86A.39.39,0,0,0,90.37,107.51Z"/><polygon class="cls-1" points="106.25 101.61 106.02 105.46 94.14 104.58 94.72 100.77 106.25 101.61"/><path class="cls-2" d="M104.49,107.26l.16-1.41L94.21,105h-.07l-.29,2h.08a.66.66,0,0,0,.5-.12.89.89,0,0,0,.26-.65c0-.11.06-.13.14-.17L95,106l2,.29-.07.45.14,0,.08-.46,3.21.47-.1.49.15,0,.1-.5,2.15.31-.11.52.15,0,.1-.53,2.76.4,0-.15Zm-10.06-.59a.21.21,0,0,1-.23.18.22.22,0,0,1-.18-.23l0-.25a.21.21,0,0,1,.23-.18.2.2,0,0,1,.17.23Zm9-.77-.29.3-.15-.34Zm-2.28-.2-.31.28-.2-.32Zm-3.74-.32-.23.23-.12-.26Zm-.4.81-1.92-.3a.47.47,0,0,0,.06-.2c0-.2.06-.39.07-.48l1.67.13.19.41Zm3.65.51-3.5-.49.07-.44.37-.37,2.85.25.3.46Zm2.3.33-2.15-.31.09-.59.46-.41,1.47.13.21.5Zm1.4.2-1.26-.18.09-.68.44-.46.87.08Z"/><circle class="cls-3" cx="97.69" cy="105.77" r="0.23"/><circle class="cls-3" cx="103.61" cy="106.27" r="0.2"/></svg>