<?xml version="1.0" encoding="UTF-8"?>
<svg id="entrada" xmlns="http://www.w3.org/2000/svg" width="210" height="210" viewBox="0 0 210 210">
  <line x1="117.6705882353" y1="84.6614379085" x2="117.8326797386" y2="84.7189542484" style="fill: #f0f;"/>
  <path d="m108.2801871982,110.1850903462c.2727935868-.1448015574.5271972856-.3246714379.7552131924-.5361035298.2102661133-.1911010742.4825439453-.2973022461.7398071289-.2998657227.5616455078.039855957.9942626953.5120239258.9848022461,1.0810546875.0002441406.5278930664-.412902832.9539794922-.9299926758.9697875977h-.1727294922c-.3981933594-.0621948242-2.4736328125-.3767089844-2.7849731445-.3767089844h-.0045776367l-16.7696533203-2.3099365234-.0510253906-.0080566406c-.7711181641-.1356811523-1.2880859375-.8734741211-1.1522827148-1.6451416016l1.0457305908-6.0024642944c.1710408595-.8023176438.6221357931-1.7975173012,2.1633148193-1.6386489868,4.9881619942.5141913264,20.0021972656,1.5001831055,20.0021972656,1.5001831055.0972900391.006652832.21484375.024230957.345703125.0433349609.2484130859.0362548828.5576171875.0813598633.8736572266.0813598633,1.3550415039,0,1.7928466797-.8812255859,1.9215698242-1.6204223633,1.0700073242-6.1464233398,1.7926025391-10.525390625,1.8295288086-10.783996582.0375366211-.2630004883.7458496094-3.8714599609.7458496094-3.8714599609l.0103530784-.0490511227s1.5277938943-7.4218351077,2.1097641091-10.2950040531l.7189941406-3.3102416992.8385620117-3.7248535156-.1901855469-.039855957-1.5900878906,7.2950439453c-.5709838867,2.8165283203-2.0491383272,10.0173949397-2.0491383272,10.0173949397l-.0187327665.068054279s-.7110595703,3.6187133789-.7485351562,3.884765625c-.041015625.2866210938-.77734375,4.7426757812-1.828125,10.7788085938-.2138671875,1.2236328125-1.0224609375,1.4736328125-1.76171875,1.4736328125-.306640625,0-.6015625-.04296875-.8369140625-.0776367188-.1357421875-.01953125-.2578125-.0375976562-.3583984375-.0444335938l-.0009765625-.0004882812s-15.0041940038-1.0770470346-20.0004882812-1.5c-.8199671926-.0694129562-2.0539541207.0839639502-2.3472298445,1.7779962637-.2391258768,1.381249553-1.0473014055,6.0081365488-1.0473014055,6.0081365488-.0737304688.419921875.0200195312.8427734375.2646484375,1.1923828125.2446289062.3486328125.6103515625.5810546875,1.0297851562.6552734375l.0537109375.0078125,16.7734375,2.310546875h.0029296875c.3193359375,0,2.4931640625.3310546875,2.810546875.380859375l.1728515625-.001953125c.6171875-.0185546875,1.10546875-.5224609375,1.10546875-1.1455078125.009765625-.6591796875-.494140625-1.208984375-1.1484375-1.2548828125-.3134765625.001953125-.626953125.1240234375-.8701171875.3447265625-.2149677337.1999529516-.4546551458.3701049577-.7116462666.507366031l.0748412774.1581930652Z" style="fill: #00f632;"/>
</svg>