<?xml version="1.0" encoding="UTF-8"?>
<svg id="salida" xmlns="http://www.w3.org/2000/svg" width="210" height="210" viewBox="0 0 210 210">
  <path d="m108.0282276747,110.3065876229l-.0853606657-.1535096964c-.3569324333.1533192676-.7402317859.2463362329-1.132320134.271726761l-16.5239257812-2.2509765625c-.5834960938-.087890625-.9819335938-.6123046875-.9106445312-1.1953125l1.0014648438-5.8676757812c.158203125-.71875.8232421875-1.2075195312,1.5478515625-1.1450195312l20.1176757812,1.509765625c.4462890625.02734375.8466796875.2768554688,1.0693359375.66796875l1.130859375,1.9848632812-.01171875.0625c-.078125.4458007812-.158203125.9057617188-.23828125,1.3784179688l-4.8264973958,27.5973307292.1805555556.0555555556,4.8178778754-27.6238945855c.0798339844-.4721679688.1596069336-.9310913086.239440918-1.3766479492l.0223388672-.1248168945-.0628051758-.110168457-1.0997314453-1.9295043945c-.2513427734-.4427490234-.7048339844-.7255249023-1.2081298828-.7562255859l-20.1161499023-1.5097045898c-.0473022461-.0040283203-.0942993164-.0060424805-.1409912109-.0060424805-.7585449219,0-1.4276123047.5380859375-1.5940551758,1.2958984375l-1.0023803711,5.876159668c-.0833740234.6776733398.3802490234,1.2877807617,1.0600585938,1.3895263672l16.4899902344,2.25.0347900391.004699707.0350952148-.0022583008c.4177478566-.0269994168.826055752-.1273666513,1.2056568739-.2926555412" style="fill: #004ed6;"/>
</svg>